<svg width="41" height="36" viewBox="0 0 41 36" fill="none" xmlns="http://www.w3.org/2000/svg">
<rect x="0.848755" width="39.3024" height="35.2087" rx="4.62666" fill="#2FC22B"/>
<path d="M27.8587 14.1996H26.538C26.6524 13.8872 26.7149 13.5497 26.7149 13.1976C26.7149 11.5886 25.4106 10.2843 23.8015 10.2843C23.0029 10.2843 22.2795 10.6059 21.7533 11.1263C21.374 9.16827 19.6512 7.68945 17.5823 7.68945C15.2354 7.68945 13.333 9.59199 13.333 11.9388V14.1996H13.1413C11.7299 14.1996 10.5857 15.3437 10.5857 16.7551C10.5857 18.0849 11.6015 19.177 12.8994 19.2989V17.4502C12.8994 16.4893 13.6812 15.7075 14.6421 15.7075H19.6714C20.3469 15.7075 20.9527 16.0951 21.2405 16.6916L26.3578 16.6916C27.3187 16.6916 28.1005 17.4734 28.1005 18.4344V19.2989C29.3984 19.1771 30.4142 18.0849 30.4142 16.7551C30.4142 15.3437 29.2701 14.1996 27.8587 14.1996Z" fill="#FAFAFA"/>
<path d="M26.9383 19.2912V18.4332C26.9383 18.1124 26.6782 17.8523 26.3574 17.8523L20.4188 17.8522L20.2218 17.2645C20.1425 17.0277 19.9207 16.8682 19.671 16.8682H14.6417C14.3209 16.8682 14.0608 17.1283 14.0608 17.4491V17.8522V19.2912L26.9383 19.2912Z" fill="#FAFAFA"/>
<path d="M14.0608 20.4551V26.916C14.0608 27.249 14.3209 27.5189 14.6417 27.5189L26.3574 27.5189C26.6782 27.5189 26.9383 27.249 26.9383 26.916V20.4551L14.0608 20.4551ZM22.1575 24.4958C22.0468 24.5944 21.9088 24.6429 21.7714 24.6429C21.6114 24.6429 21.4521 24.5772 21.3373 24.4484L21.0805 24.1599V25.5731C21.0805 25.8939 20.8204 26.154 20.4996 26.154C20.1787 26.154 19.9187 25.8939 19.9187 25.5731V24.1599L19.6618 24.4484C19.4484 24.6879 19.0812 24.7092 18.8416 24.4959C18.602 24.2825 18.5807 23.9153 18.7941 23.6757L20.0657 22.2477C20.1759 22.124 20.3338 22.0532 20.4995 22.0532C20.6653 22.0532 20.8231 22.124 20.9334 22.2477L22.205 23.6757C22.4184 23.9153 22.3971 24.2825 22.1575 24.4958Z" fill="#FAFAFA"/>
</svg>
