<svg width="41" height="37" viewBox="0 0 41 37" fill="none" xmlns="http://www.w3.org/2000/svg">
<rect x="0.848877" width="39.3024" height="36.3792" rx="4.62666" fill="#A2FF9F"/>
<g clip-path="url(#clip0_1748_537)">
<path d="M20.8093 18.2293C21.8706 18.0572 22.5916 17.0573 22.4195 15.996C22.2474 14.9346 21.2476 14.2137 20.1862 14.3857C19.1248 14.5578 18.4039 15.5577 18.5759 16.619C18.748 17.6804 19.7479 18.4013 20.8093 18.2293Z" fill="#137110"/>
<path d="M12.2517 11.1934V25.1859H28.748V18.1149H24.9162V16.863H23.5085C23.246 18.2856 21.9972 19.3668 20.4999 19.3668C18.8123 19.3668 17.4395 17.9939 17.4395 16.3064C17.4395 14.6189 18.8123 13.246 20.4999 13.246C21.9972 13.246 23.246 14.3272 23.5086 15.7498H24.9162V14.4979H28.748V11.1934H12.2517ZM26.1332 22.0508V23.1641H14.8665V22.0508H26.1332Z" fill="#137110"/>
<path d="M29.3047 15.6113H26.0295V17.0018H29.3047C29.688 17.0018 29.9999 16.6899 29.9999 16.3066C29.9999 15.9232 29.688 15.6113 29.3047 15.6113Z" fill="#137110"/>
<path d="M11 8.68945H30V10.0799H11V8.68945Z" fill="#137110"/>
<path d="M11 26.2988H30V27.6893H11V26.2988Z" fill="#137110"/>
</g>
<defs>
<clipPath id="clip0_1748_537">
<rect width="19" height="19" fill="white" transform="translate(11 8.68945)"/>
</clipPath>
</defs>
</svg>
