<svg width="41" height="37" viewBox="0 0 41 37" fill="none" xmlns="http://www.w3.org/2000/svg">
<rect x="0.848877" width="39.3024" height="36.3792" rx="4.62666" fill="#00A0D4"/>
<g clip-path="url(#clip0_1748_569)">
<path d="M24.8066 13.8418H26.0371V17.5332H24.8066V13.8418Z" fill="white"/>
<path d="M20.5 16.3027H23.5762V13.2266C23.5762 12.8868 23.8516 12.6113 24.1914 12.6113H26.6523C26.9921 12.6113 27.2676 12.8868 27.2676 13.2266V16.3027H30.3438C30.6835 16.3027 30.959 16.0273 30.959 15.6875V9.53516C30.959 9.19538 30.6835 8.91992 30.3438 8.91992H20.5C20.1602 8.91992 19.8848 9.19538 19.8848 9.53516V15.6875C19.8848 16.0273 20.1602 16.3027 20.5 16.3027Z" fill="white"/>
<path d="M14.9629 12.6113C16.322 12.6113 17.4238 11.5095 17.4238 10.1504C17.4238 8.79125 16.322 7.68945 14.9629 7.68945C13.6038 7.68945 12.502 8.79125 12.502 10.1504C12.502 11.5095 13.6038 12.6113 14.9629 12.6113Z" fill="white"/>
<path d="M18.6543 14.457C18.6543 13.4394 17.8262 12.6113 16.8086 12.6113H14.9629H13.1172C12.0996 12.6113 11.2715 13.4394 11.2715 14.457V17.5742H18.6543V14.457Z" fill="white"/>
<path d="M14.6025 21.8809L13.7324 22.7509V24.7432L14.6025 25.6133H26.3975L27.2676 24.7432V22.7509L26.3975 21.8809H14.6025Z" fill="white"/>
<path d="M10 18.8047V28.0742C10 28.4138 10.2756 28.6895 10.6152 28.6895H30.3848C30.7244 28.6895 31 28.4138 31 28.0742V18.8047H10ZM28.498 24.998C28.498 25.1612 28.4332 25.3177 28.3178 25.4331L27.0874 26.6635C26.972 26.7789 26.8155 26.8438 26.6523 26.8438H14.3477C14.1845 26.8438 14.028 26.7789 13.9126 26.6635L12.6822 25.4331C12.5668 25.3177 12.502 25.1612 12.502 24.998V22.4961C12.502 22.3329 12.5668 22.1765 12.6822 22.0611L13.9126 20.8306C14.028 20.7152 14.1845 20.6504 14.3477 20.6504H26.6523C26.8155 20.6504 26.972 20.7152 27.0874 20.8306L28.3178 22.0611C28.4332 22.1765 28.498 22.3329 28.498 22.4961V24.998Z" fill="white"/>
</g>
<defs>
<clipPath id="clip0_1748_569">
<rect width="21" height="21" fill="white" transform="translate(10 7.68945)"/>
</clipPath>
</defs>
</svg>
