<svg width="41" height="34" viewBox="0 0 41 34" fill="none" xmlns="http://www.w3.org/2000/svg">
<rect x="0.848877" width="39.3024" height="33.3792" rx="4.62666" fill="#9FEAFF"/>
<g clip-path="url(#clip0_1748_669)">
<path d="M17.9854 21.1883H19.9722V22.6819H17.9854V21.1883ZM14.9428 17.5854H16.9307V16.0908H14.9428V17.5854ZM17.9854 20.1337H19.9722V18.6401H17.9854V20.1337ZM17.9854 17.5854H19.9722V16.0908H17.9854V17.5854ZM14.9428 20.1337H16.9307V18.6401H14.9428V20.1337ZM29.2187 10.8899C29.2187 9.99584 28.4913 9.26846 27.5973 9.26846H26.4621V10.487C26.4621 10.7784 26.2262 11.0143 25.9348 11.0143C25.6433 11.0143 25.4074 10.7784 25.4074 10.487V9.26846H21.0273V10.487C21.0273 10.7784 20.7914 11.0143 20.5 11.0143C20.2086 11.0143 19.9727 10.7784 19.9727 10.487V9.26846H15.5925V10.487C15.5925 10.7784 15.3563 11.0143 15.0652 11.0143C14.7741 11.0143 14.5379 10.7784 14.5379 10.487V9.26846H13.403C12.5086 9.26846 11.7812 9.99584 11.7812 10.8899V12.3098H29.2187L29.2187 10.8899ZM14.9428 22.6819H16.9307V21.1883H14.9428V22.6819ZM29.2188 13.3646V23.7866C29.2188 24.6807 28.4914 25.4082 27.5972 25.4082H13.4029C12.5088 25.4082 11.7814 24.6807 11.7814 23.7866V13.3646H29.2188ZM27.111 15.5635C27.111 15.2723 26.8749 15.0362 26.5837 15.0362H14.4154C14.1242 15.0362 13.8881 15.2723 13.8881 15.5635V23.2092C13.8881 23.5005 14.1242 23.7366 14.4154 23.7366H26.5837C26.8749 23.7366 27.111 23.5005 27.111 23.2092V15.5635ZM24.0695 20.1337H26.0563V18.6401H24.0695V20.1337ZM24.0695 22.6819H26.0563V21.1884H24.0695V22.6819ZM21.0269 22.6819H23.0148V21.1884H21.0269V22.6819ZM24.0695 17.5854H26.0563V16.0909H24.0695V17.5854ZM21.0269 17.5854H23.0148V16.0909H21.0269V17.5854ZM21.0269 20.1337H23.0148V18.6401H21.0269V20.1337ZM15.5925 8.49805C15.5925 8.2066 15.3563 7.9707 15.0652 7.9707C14.7741 7.9707 14.5379 8.2066 14.5379 8.49805V9.26846H15.5925V8.49805ZM21.0273 8.49805C21.0273 8.2066 20.7914 7.9707 20.5 7.9707C20.2086 7.9707 19.9727 8.2066 19.9727 8.49805V9.26846H21.0273V8.49805ZM26.4621 8.49805C26.4621 8.2066 26.2262 7.9707 25.9348 7.9707C25.6433 7.9707 25.4074 8.2066 25.4074 8.49805V9.26846H26.4621V8.49805Z" fill="#037BA2"/>
</g>
<defs>
<clipPath id="clip0_1748_669">
<rect width="18" height="18" fill="white" transform="translate(11.5 7.68945)"/>
</clipPath>
</defs>
</svg>
