<svg width="39" height="36" viewBox="0 0 39 36" fill="none" xmlns="http://www.w3.org/2000/svg">
<rect width="39" height="36" rx="4.62666" fill="#2FC22B"/>
<g clip-path="url(#clip0_1748_206)">
<path d="M13.5104 14.8939C13.3935 14.8939 13.2775 14.8661 13.1711 14.8086C12.9373 14.684 12.7916 14.4396 12.7916 14.1751V6.98763C12.7916 6.06284 13.5439 5.31055 14.4687 5.31055H24.5312C25.456 5.31055 26.2083 6.06284 26.2083 6.98763V11.3001C26.2083 12.2249 25.456 12.9772 24.5312 12.9772H16.9652C16.7285 12.9772 16.4985 13.0472 16.301 13.1785L13.909 14.7731C13.7893 14.8536 13.6503 14.8939 13.5104 14.8939Z" fill="white"/>
<path d="M13.2709 21.6025C11.6858 21.6025 10.3959 20.3126 10.3959 18.7275C10.3959 17.1425 11.6858 15.8525 13.2709 15.8525C14.856 15.8525 16.1459 17.1425 16.1459 18.7275C16.1459 20.3126 14.856 21.6025 13.2709 21.6025Z" fill="white"/>
<path d="M25.7291 21.6025C24.144 21.6025 22.8541 20.3126 22.8541 18.7275C22.8541 17.1425 24.144 15.8525 25.7291 15.8525C27.3142 15.8525 28.6041 17.1425 28.6041 18.7275C28.6041 20.3126 27.3142 21.6025 25.7291 21.6025Z" fill="white"/>
<path d="M17.8229 28.3102H8.71875C8.322 28.3102 8 27.9882 8 27.5915V26.154C8 24.7002 9.18163 23.5186 10.6354 23.5186H15.9063C17.36 23.5186 18.5417 24.7002 18.5417 26.154V27.5915C18.5417 27.9882 18.2197 28.3102 17.8229 28.3102Z" fill="white"/>
<path d="M30.2813 28.3102H21.1771C20.7804 28.3102 20.4584 27.9882 20.4584 27.5915V26.154C20.4584 24.7002 21.64 23.5186 23.0938 23.5186H28.3646C29.8184 23.5186 31 24.7002 31 26.154V27.5915C31 27.9882 30.678 28.3102 30.2813 28.3102Z" fill="white"/>
</g>
<defs>
<clipPath id="clip0_1748_206">
<rect width="23" height="23" fill="white" transform="translate(8 5.31055)"/>
</clipPath>
</defs>
</svg>
