<svg width="41" height="37" viewBox="0 0 41 37" fill="none" xmlns="http://www.w3.org/2000/svg">
<rect x="0.848877" width="39.3024" height="36.3792" rx="4.62666" fill="#A2FF9F"/>
<g clip-path="url(#clip0_1748_50)">
<path d="M27.0039 11.75V10.7656C27.0039 9.06942 25.6896 7.68945 24.0742 7.68945H16.8867C15.2713 7.68945 13.957 9.06942 13.957 10.7656V11.75H27.0039Z" fill="#137110"/>
<path d="M15.1284 20.7734V25.7773V26.8438V27.459C15.1284 28.1385 15.6531 28.6895 16.3003 28.6895H24.6597C25.3069 28.6895 25.8315 28.1385 25.8315 27.459V26.8438V25.7773V20.7734H15.1284ZM22.0425 26.0234H18.9175C18.5939 26.0234 18.3315 25.748 18.3315 25.4082C18.3315 25.0684 18.5939 24.793 18.9175 24.793H22.0425C22.3661 24.793 22.6284 25.0684 22.6284 25.4082C22.6284 25.748 22.3661 26.0234 22.0425 26.0234ZM22.0425 23.3984H18.9175C18.5939 23.3984 18.3315 23.123 18.3315 22.7832C18.3315 22.4434 18.5939 22.168 18.9175 22.168H22.0425C22.3661 22.168 22.6284 22.4434 22.6284 22.7832C22.6284 23.123 22.3661 23.3984 22.0425 23.3984Z" fill="#137110"/>
<path d="M27.5505 12.9805H13.449C11.8335 12.9805 10.5193 14.3604 10.5193 16.0566V20.9785C10.5193 22.6747 11.8335 24.0547 13.449 24.0547H13.9568V20.7734H13.6052C13.2816 20.7734 13.0193 20.498 13.0193 20.1582C13.0193 19.8184 13.2816 19.543 13.6052 19.543H14.5427H26.4177H27.3552C27.6788 19.543 27.9412 19.8184 27.9412 20.1582C27.9412 20.498 27.6788 20.7734 27.3552 20.7734H27.0037V24.0547H27.5505C29.166 24.0547 30.4802 22.6747 30.4802 20.9785V16.0566C30.4802 14.3604 29.166 12.9805 27.5505 12.9805ZM15.4802 16.8359H13.6052C13.2816 16.8359 13.0193 16.5605 13.0193 16.2207C13.0193 15.8809 13.2816 15.6055 13.6052 15.6055H15.4802C15.8038 15.6055 16.0662 15.8809 16.0662 16.2207C16.0662 16.5605 15.8038 16.8359 15.4802 16.8359Z" fill="#137110"/>
</g>
<defs>
<clipPath id="clip0_1748_50">
<rect width="20" height="21" fill="white" transform="translate(10.5 7.68945)"/>
</clipPath>
</defs>
</svg>
