<svg width="39" height="36" viewBox="0 0 39 36" fill="none" xmlns="http://www.w3.org/2000/svg">
<rect width="39" height="36" rx="4.62666" fill="#00A0D4"/>
<path d="M21.3947 18.3793C21.8713 17.6678 22.1428 16.8389 22.1795 15.9833C22.1795 15.2719 21.8969 14.5895 21.3938 14.0865C20.8907 13.5834 20.2084 13.3008 19.497 13.3008C18.7855 13.3008 18.1032 13.5834 17.6001 14.0865C17.0971 14.5895 16.8145 15.2719 16.8145 15.9833C16.8523 18.4368 19.4249 21.3628 21.3947 18.3793Z" fill="white"/>
<path d="M16.2377 18.6787C16.4693 18.5165 16.7302 18.4008 17.006 18.3382C16.5093 17.5234 15.7924 16.8655 14.938 16.4405C14.8569 16.4017 14.7655 16.3901 14.6772 16.4073C14.589 16.4245 14.5086 16.4696 14.448 16.536C14.235 16.7898 13.9714 16.9963 13.6739 17.1422C13.3764 17.2881 13.0516 17.3701 12.7206 17.3831C12.3886 17.3694 12.0632 17.2866 11.765 17.14C11.4669 16.9935 11.2025 16.7863 10.989 16.5318C10.9274 16.4668 10.8468 16.423 10.7588 16.4066C10.6708 16.3902 10.5798 16.4021 10.499 16.4405C9.80916 16.7838 9.20741 17.281 8.74015 17.8937C8.27289 18.5064 7.95259 19.2182 7.80396 19.9743C7.79229 20.0413 7.79674 20.1102 7.81696 20.1752C7.83718 20.2402 7.87259 20.2994 7.92024 20.348C8.37928 20.8788 8.94654 21.3054 9.58396 21.599C10.2214 21.8927 10.9142 22.0466 11.616 22.0505L13.4639 22.0505C13.9639 20.6357 14.9459 19.442 16.2377 18.6787Z" fill="white"/>
<path d="M21.4354 24.0227L20.7415 23.9224C20.7094 23.9182 20.6788 23.9061 20.6525 23.8871C20.6263 23.8682 20.6051 23.8429 20.5911 23.8138L20.2776 23.1826C20.2048 23.039 20.0936 22.9183 19.9563 22.834C19.8191 22.7497 19.6612 22.7051 19.5001 22.7051C19.3391 22.7051 19.1812 22.7497 19.044 22.834C18.9067 22.9183 18.7955 23.039 18.7227 23.1827L18.4093 23.8138C18.3952 23.8429 18.3741 23.8682 18.3478 23.8871C18.3215 23.9061 18.2909 23.9182 18.2588 23.9224L17.565 24.0227C17.4043 24.0461 17.2535 24.114 17.1294 24.2187C17.0054 24.3234 16.9131 24.4607 16.8631 24.6151C16.8131 24.7695 16.8073 24.9349 16.8464 25.0924C16.8855 25.25 16.9679 25.3934 17.0843 25.5065L17.5859 25.9956C17.6094 26.0185 17.6271 26.0469 17.6373 26.0782C17.6475 26.1095 17.6499 26.1428 17.6444 26.1753L17.5232 26.8649C17.4966 27.0246 17.5149 27.1886 17.5762 27.3384C17.6375 27.4882 17.7392 27.6181 17.8701 27.7134C18.3813 28.1131 18.9405 27.6946 19.4082 27.4542C19.4367 27.4398 19.4682 27.4323 19.5002 27.4323C19.5321 27.4323 19.5636 27.4398 19.5921 27.4543L20.2149 27.7803C20.3587 27.853 20.5197 27.8847 20.6803 27.8719C20.8409 27.859 20.9948 27.8022 21.1252 27.7076C21.2557 27.6131 21.3575 27.4844 21.4196 27.3357C21.4816 27.187 21.5016 27.0241 21.4771 26.8649L21.3559 26.1753C21.3504 26.1428 21.3528 26.1095 21.363 26.0782C21.3732 26.0469 21.3909 26.0185 21.4145 25.9956C21.5719 25.8174 22.039 25.452 22.1124 25.2181C22.1621 25.0957 22.1835 24.9636 22.1749 24.8318C22.1663 24.6999 22.128 24.5717 22.0629 24.4567C21.9978 24.3418 21.9075 24.243 21.7988 24.1679C21.6902 24.0927 21.5659 24.0431 21.4354 24.0227Z" fill="white"/>
<path d="M24.6284 22.0168C24.1733 20.9338 23.3858 20.0234 22.3797 19.417C22.1373 19.2874 21.8489 19.0325 21.573 19.2038C20.4019 20.5166 18.715 20.6348 17.5145 19.279C17.2512 18.9865 16.8792 19.2582 16.6159 19.417C15.9492 19.8194 15.3744 20.3574 14.9287 20.996C14.483 21.6346 14.1764 22.3597 14.0287 23.1244C14.0152 23.1909 14.0184 23.2597 14.0381 23.3246C14.0578 23.3895 14.0934 23.4486 14.1415 23.4963C14.6574 24.0781 15.284 24.5512 15.9848 24.8882C15.9888 24.6537 16.0392 24.4224 16.1332 24.2075C16.2271 23.9927 16.3628 23.7986 16.5323 23.6365C16.7017 23.4744 16.9017 23.3475 17.1205 23.2632C17.3393 23.1789 17.5727 23.1388 17.8071 23.1453C17.9118 22.777 18.1336 22.4529 18.4391 22.2222C18.7446 21.9914 19.117 21.8665 19.4999 21.8665C19.8827 21.8665 20.2551 21.9914 20.5606 22.2222C20.8661 22.4529 21.088 22.777 21.1926 23.1453C21.4271 23.1386 21.6605 23.1785 21.8795 23.2628C22.0984 23.347 22.2984 23.4739 22.4679 23.636C22.6375 23.7981 22.7731 23.9923 22.867 24.2073C22.9609 24.4222 23.0112 24.6537 23.0149 24.8882C23.7119 24.547 24.3363 24.0744 24.854 23.4963C24.9019 23.4483 24.9376 23.3894 24.958 23.3247C24.9783 23.2599 24.9828 23.1912 24.9711 23.1244C24.8976 22.7438 24.7826 22.3724 24.6284 22.0168Z" fill="white"/>
<path d="M12.7202 16.3512C14.1113 16.3512 15.1578 14.3455 15.1578 13.0416C15.1569 12.3963 14.9 11.7776 14.4433 11.3216C13.9867 10.8655 13.3677 10.6094 12.7223 10.6094C12.0769 10.6094 11.458 10.8655 11.0013 11.3216C10.5447 11.7776 10.2877 12.3963 10.2869 13.0416C10.2869 14.3455 11.3333 16.3512 12.7202 16.3512Z" fill="white"/>
<path d="M31.1902 19.9743C31.041 19.2179 30.72 18.5059 30.2521 17.8931C29.7841 17.2804 29.1816 16.7834 28.4911 16.4405C28.41 16.4017 28.3185 16.3901 28.2303 16.4073C28.1421 16.4245 28.0617 16.4696 28.0011 16.536C27.7965 16.8 27.5342 17.0137 27.2342 17.1605C26.9342 17.3073 26.6045 17.3835 26.2705 17.3831C25.9365 17.3827 25.6071 17.3057 25.3074 17.1582C25.0078 17.0106 24.746 16.7964 24.5421 16.5318C24.4805 16.4668 24.3999 16.423 24.3119 16.4066C24.2239 16.3902 24.1329 16.4021 24.052 16.4405C23.1994 16.8649 22.4851 17.5231 21.9924 18.3382C23.655 18.8974 24.9467 20.4328 25.5345 22.0505L27.3782 22.0505C28.011 22.0521 28.6377 21.9281 29.2222 21.6857C29.8067 21.4434 30.3373 21.0875 30.7833 20.6387C30.9307 20.4667 31.2723 20.2472 31.1902 19.9743Z" fill="white"/>
<path d="M26.2739 16.3511C27.665 16.3511 28.7073 14.3455 28.7073 13.0416C28.7064 12.3962 28.4495 11.7776 27.9928 11.3215C27.5362 10.8655 26.9172 10.6094 26.2718 10.6094C25.6265 10.6094 25.0075 10.8655 24.5508 11.3216C24.0942 11.7776 23.8373 12.3963 23.8364 13.0417C23.8364 14.3455 24.8828 16.3511 26.2739 16.3511Z" fill="white"/>
</svg>
