<svg width="41" height="38" viewBox="0 0 41 38" fill="none" xmlns="http://www.w3.org/2000/svg">
<rect x="0.848877" width="39.3024" height="37.3792" rx="4.62666" fill="#9FEAFF"/>
<path d="M20.4993 8.60645C18.3112 8.60645 16.2128 9.47564 14.6656 11.0228C13.1185 12.57 12.2493 14.6684 12.2493 16.8564V23.2731C12.2493 24.7948 13.4776 26.0231 14.9993 26.0231H17.7493V18.6898H14.0826V16.8564C14.0826 13.3089 16.9518 10.4398 20.4993 10.4398C24.0468 10.4398 26.9159 13.3089 26.9159 16.8564V18.6898H23.2493V26.0231H25.9993C27.5209 26.0231 28.7493 24.7948 28.7493 23.2731V16.8564C28.7493 14.6684 27.8801 12.57 26.3329 11.0228C24.7857 9.47564 22.6873 8.60645 20.4993 8.60645Z" fill="#037BA2"/>
</svg>
