<svg width="201" height="202" viewBox="0 0 201 202" fill="none" xmlns="http://www.w3.org/2000/svg">
<path d="M82.4628 80.292L82.4308 84.164H73.2468L72.3828 89.028C73.4388 88.004 74.8148 87.46 76.5108 87.46C78.6868 87.46 80.4148 88.132 81.6948 89.476C83.0068 90.82 83.6468 92.612 83.6468 94.788C83.6468 97.156 82.8787 99.076 81.2788 100.58C79.7108 102.116 77.6948 102.852 75.1988 102.852C72.8628 102.852 70.9427 102.276 69.4708 101.06C67.9988 99.844 67.1988 98.116 67.0708 95.876H71.5508C71.6468 96.868 72.0308 97.668 72.7028 98.276C73.3748 98.884 74.2068 99.172 75.2308 99.172C76.3508 99.172 77.2788 98.788 78.0148 97.988C78.7188 97.188 79.1028 96.164 79.1028 94.884C79.1028 93.636 78.7508 92.644 78.0468 91.876C77.3428 91.14 76.3828 90.756 75.1988 90.756C73.7588 90.756 72.6388 91.396 71.8388 92.612H67.7747L69.9508 80.292H82.4628ZM89.172 90.596C88.084 90.244 87.284 89.668 86.708 88.868C86.132 88.068 85.844 87.108 85.844 85.956C85.844 84.228 86.58 82.788 87.988 81.636C89.428 80.484 91.22 79.908 93.364 79.908C95.54 79.908 97.364 80.484 98.772 81.636C100.18 82.788 100.884 84.228 100.884 85.956C100.884 88.324 99.796 89.892 97.62 90.596C98.932 90.916 99.956 91.588 100.692 92.548C101.46 93.508 101.812 94.692 101.812 96.068C101.812 98.116 101.044 99.78 99.508 101.028C97.972 102.276 95.924 102.884 93.396 102.884C90.836 102.884 88.82 102.276 87.284 101.028C85.748 99.78 84.98 98.116 84.98 96.068C84.98 94.692 85.332 93.508 86.1 92.548C86.836 91.588 87.86 90.916 89.172 90.596ZM93.364 83.332C92.372 83.332 91.572 83.62 90.932 84.132C90.324 84.676 90.004 85.38 90.004 86.244C90.004 87.172 90.324 87.908 90.932 88.452C91.572 88.996 92.372 89.252 93.396 89.252C94.452 89.252 95.284 88.996 95.892 88.452C96.5 87.908 96.788 87.172 96.788 86.244C96.788 85.348 96.5 84.612 95.892 84.1C95.284 83.588 94.452 83.332 93.364 83.332ZM93.268 92.228C92.18 92.228 91.252 92.58 90.548 93.22C89.844 93.892 89.492 94.756 89.492 95.78C89.492 96.868 89.876 97.764 90.58 98.436C91.284 99.108 92.212 99.428 93.364 99.428C94.548 99.428 95.508 99.108 96.212 98.436C96.916 97.796 97.268 96.9 97.268 95.812C97.268 94.756 96.916 93.892 96.18 93.22C95.444 92.58 94.484 92.228 93.268 92.228ZM125.865 79.46L113.289 103.364H110.441L123.049 79.46H125.865ZM110.153 79.908C111.881 79.908 113.193 80.452 114.121 81.476C115.017 82.5 115.497 84.004 115.497 85.988C115.497 88.036 115.017 89.636 114.121 90.724C113.193 91.812 111.881 92.388 110.185 92.388C108.425 92.388 107.081 91.844 106.153 90.756C105.225 89.668 104.777 88.132 104.777 86.116C104.777 84.132 105.225 82.628 106.185 81.54C107.113 80.452 108.425 79.908 110.153 79.908ZM110.121 82.276C108.713 82.276 108.041 83.62 108.041 86.308C108.041 87.652 108.201 88.612 108.521 89.188C108.841 89.764 109.353 90.084 110.089 90.084C110.825 90.084 111.369 89.764 111.689 89.124C112.009 88.484 112.201 87.428 112.201 85.988C112.201 85.476 112.169 85.06 112.137 84.74C112.105 84.42 112.041 84.036 111.913 83.588C111.785 83.14 111.593 82.82 111.273 82.596C110.953 82.372 110.569 82.276 110.121 82.276ZM126.601 90.532C128.329 90.532 129.641 91.044 130.569 92.068C131.465 93.092 131.945 94.596 131.945 96.58C131.945 98.628 131.465 100.228 130.569 101.316C129.641 102.404 128.329 102.98 126.633 102.98C124.873 102.98 123.529 102.436 122.601 101.348C121.673 100.26 121.225 98.724 121.225 96.74C121.225 94.756 121.673 93.22 122.633 92.132C123.561 91.044 124.873 90.532 126.601 90.532ZM126.569 92.868C125.161 92.868 124.489 94.212 124.489 96.9C124.489 98.244 124.649 99.204 124.969 99.78C125.289 100.356 125.801 100.676 126.537 100.676C127.273 100.676 127.817 100.356 128.137 99.716C128.457 99.076 128.649 98.02 128.649 96.58C128.649 96.068 128.617 95.652 128.585 95.332C128.553 95.012 128.489 94.628 128.361 94.18C128.233 93.732 128.041 93.412 127.721 93.188C127.401 92.964 127.017 92.868 126.569 92.868Z" fill="#FAFAFA"/>
<path d="M79.0889 111.391H80.0264V116.2C80.0264 116.734 79.9076 117.178 79.6699 117.533C79.4323 117.888 79.1165 118.155 78.7227 118.334C78.332 118.51 77.9072 118.598 77.4482 118.598C76.9665 118.598 76.5303 118.51 76.1396 118.334C75.7523 118.155 75.4447 117.888 75.2168 117.533C74.9922 117.178 74.8799 116.734 74.8799 116.2V111.391H75.8125V116.2C75.8125 116.571 75.8809 116.877 76.0176 117.118C76.1543 117.359 76.3447 117.538 76.5889 117.655C76.8363 117.772 77.1227 117.831 77.4482 117.831C77.777 117.831 78.0635 117.772 78.3076 117.655C78.555 117.538 78.7471 117.359 78.8838 117.118C79.0205 116.877 79.0889 116.571 79.0889 116.2V111.391ZM84.4453 117.099C84.4453 116.968 84.416 116.848 84.3574 116.737C84.3021 116.623 84.1865 116.521 84.0107 116.43C83.8382 116.335 83.5778 116.254 83.2295 116.186C82.9365 116.124 82.6712 116.05 82.4336 115.966C82.1992 115.881 81.999 115.779 81.833 115.658C81.6702 115.538 81.5449 115.396 81.457 115.233C81.3691 115.071 81.3252 114.88 81.3252 114.662C81.3252 114.454 81.3708 114.257 81.4619 114.071C81.5563 113.886 81.6882 113.721 81.8574 113.578C82.0299 113.435 82.2367 113.323 82.4775 113.241C82.7184 113.16 82.987 113.119 83.2832 113.119C83.7064 113.119 84.0677 113.194 84.3672 113.344C84.6667 113.493 84.8962 113.694 85.0557 113.944C85.2152 114.192 85.2949 114.467 85.2949 114.77H84.3916C84.3916 114.623 84.3477 114.481 84.2598 114.345C84.1751 114.205 84.0498 114.089 83.8838 113.998C83.721 113.907 83.5208 113.861 83.2832 113.861C83.0326 113.861 82.8291 113.9 82.6729 113.979C82.5199 114.053 82.4076 114.149 82.3359 114.267C82.2676 114.384 82.2334 114.507 82.2334 114.638C82.2334 114.735 82.2497 114.823 82.2822 114.901C82.318 114.976 82.3799 115.046 82.4678 115.111C82.5557 115.173 82.6794 115.232 82.8389 115.287C82.9984 115.342 83.2018 115.398 83.4492 115.453C83.8822 115.551 84.2386 115.668 84.5186 115.805C84.7985 115.941 85.0068 116.109 85.1436 116.308C85.2803 116.506 85.3486 116.747 85.3486 117.03C85.3486 117.261 85.2998 117.473 85.2021 117.665C85.1077 117.857 84.9694 118.023 84.7871 118.163C84.6081 118.3 84.3932 118.407 84.1426 118.485C83.8952 118.56 83.6169 118.598 83.3076 118.598C82.8421 118.598 82.4482 118.515 82.126 118.349C81.8037 118.183 81.5596 117.968 81.3936 117.704C81.2275 117.44 81.1445 117.162 81.1445 116.869H82.0527C82.0658 117.117 82.1374 117.313 82.2676 117.46C82.3978 117.603 82.5573 117.706 82.7461 117.768C82.9349 117.826 83.1221 117.855 83.3076 117.855C83.555 117.855 83.7617 117.823 83.9277 117.758C84.097 117.693 84.2256 117.603 84.3135 117.489C84.4014 117.375 84.4453 117.245 84.4453 117.099ZM88.7275 118.598C88.3597 118.598 88.026 118.536 87.7266 118.412C87.4303 118.285 87.1748 118.108 86.96 117.88C86.7484 117.652 86.5856 117.382 86.4717 117.069C86.3577 116.757 86.3008 116.415 86.3008 116.044V115.839C86.3008 115.409 86.3643 115.027 86.4912 114.691C86.6182 114.353 86.7907 114.066 87.0088 113.832C87.2269 113.598 87.4743 113.42 87.751 113.3C88.0277 113.179 88.3141 113.119 88.6104 113.119C88.988 113.119 89.3135 113.184 89.5869 113.314C89.8636 113.445 90.0898 113.627 90.2656 113.861C90.4414 114.092 90.5716 114.366 90.6562 114.682C90.7409 114.994 90.7832 115.336 90.7832 115.707V116.112H86.8379V115.375H89.8799V115.307C89.8669 115.072 89.818 114.844 89.7334 114.623C89.652 114.402 89.5218 114.219 89.3428 114.076C89.1637 113.933 88.9196 113.861 88.6104 113.861C88.4053 113.861 88.2165 113.905 88.0439 113.993C87.8714 114.078 87.7233 114.205 87.5996 114.374C87.4759 114.543 87.3799 114.75 87.3115 114.994C87.2432 115.238 87.209 115.52 87.209 115.839V116.044C87.209 116.295 87.2432 116.531 87.3115 116.752C87.3831 116.97 87.4857 117.162 87.6191 117.328C87.7559 117.494 87.9202 117.624 88.1123 117.719C88.3076 117.813 88.529 117.86 88.7764 117.86C89.0954 117.86 89.3656 117.795 89.5869 117.665C89.8083 117.535 90.002 117.361 90.168 117.143L90.7148 117.577C90.6009 117.75 90.4561 117.914 90.2803 118.07C90.1045 118.227 89.888 118.354 89.6309 118.451C89.377 118.549 89.0758 118.598 88.7275 118.598ZM95.168 117.475V111H96.0762V118.5H95.2461L95.168 117.475ZM91.6133 115.917V115.814C91.6133 115.411 91.6621 115.045 91.7598 114.716C91.8607 114.384 92.0023 114.099 92.1846 113.861C92.3701 113.624 92.5898 113.441 92.8438 113.314C93.1009 113.184 93.3874 113.119 93.7031 113.119C94.0352 113.119 94.3249 113.178 94.5723 113.295C94.8229 113.409 95.0345 113.576 95.207 113.798C95.3828 114.016 95.5212 114.28 95.6221 114.589C95.723 114.898 95.793 115.248 95.832 115.639V116.088C95.7962 116.475 95.7262 116.824 95.6221 117.133C95.5212 117.442 95.3828 117.706 95.207 117.924C95.0345 118.142 94.8229 118.31 94.5723 118.427C94.3216 118.541 94.0286 118.598 93.6934 118.598C93.3841 118.598 93.1009 118.531 92.8438 118.397C92.5898 118.264 92.3701 118.077 92.1846 117.836C92.0023 117.595 91.8607 117.312 91.7598 116.986C91.6621 116.658 91.6133 116.301 91.6133 115.917ZM92.5215 115.814V115.917C92.5215 116.181 92.5475 116.428 92.5996 116.659C92.6549 116.89 92.7396 117.094 92.8535 117.27C92.9674 117.445 93.1123 117.584 93.2881 117.685C93.4639 117.782 93.6738 117.831 93.918 117.831C94.2174 117.831 94.4632 117.768 94.6553 117.641C94.8506 117.514 95.0068 117.346 95.124 117.138C95.2412 116.929 95.3324 116.703 95.3975 116.459V115.282C95.3584 115.103 95.3014 114.931 95.2266 114.765C95.1549 114.595 95.0605 114.446 94.9434 114.315C94.8294 114.182 94.6878 114.076 94.5186 113.998C94.3525 113.92 94.1556 113.881 93.9277 113.881C93.6803 113.881 93.4671 113.933 93.2881 114.037C93.1123 114.138 92.9674 114.278 92.8535 114.457C92.7396 114.633 92.6549 114.838 92.5996 115.072C92.5475 115.303 92.5215 115.551 92.5215 115.814ZM103.889 116.703C103.889 116.537 103.863 116.391 103.811 116.264C103.762 116.133 103.674 116.016 103.547 115.912C103.423 115.808 103.251 115.709 103.029 115.614C102.811 115.52 102.535 115.424 102.199 115.326C101.848 115.222 101.53 115.106 101.247 114.979C100.964 114.849 100.721 114.701 100.52 114.535C100.318 114.369 100.163 114.179 100.056 113.964C99.9482 113.749 99.8945 113.503 99.8945 113.227C99.8945 112.95 99.9515 112.694 100.065 112.46C100.179 112.226 100.342 112.022 100.554 111.85C100.769 111.674 101.024 111.537 101.32 111.439C101.617 111.342 101.947 111.293 102.312 111.293C102.845 111.293 103.298 111.396 103.669 111.601C104.043 111.802 104.328 112.068 104.523 112.396C104.719 112.722 104.816 113.07 104.816 113.441H103.879C103.879 113.174 103.822 112.938 103.708 112.733C103.594 112.525 103.422 112.362 103.19 112.245C102.959 112.125 102.666 112.064 102.312 112.064C101.976 112.064 101.7 112.115 101.481 112.216C101.263 112.317 101.101 112.453 100.993 112.626C100.889 112.799 100.837 112.995 100.837 113.217C100.837 113.367 100.868 113.503 100.93 113.627C100.995 113.747 101.094 113.86 101.228 113.964C101.364 114.068 101.537 114.164 101.745 114.252C101.957 114.34 102.209 114.424 102.502 114.506C102.906 114.62 103.254 114.747 103.547 114.887C103.84 115.027 104.081 115.185 104.27 115.36C104.462 115.533 104.603 115.73 104.694 115.951C104.789 116.169 104.836 116.417 104.836 116.693C104.836 116.983 104.777 117.245 104.66 117.479C104.543 117.714 104.375 117.914 104.157 118.08C103.939 118.246 103.677 118.375 103.371 118.466C103.068 118.554 102.73 118.598 102.355 118.598C102.027 118.598 101.703 118.552 101.384 118.461C101.068 118.37 100.78 118.233 100.52 118.051C100.262 117.868 100.056 117.644 99.8994 117.377C99.7464 117.107 99.6699 116.794 99.6699 116.439H100.607C100.607 116.684 100.655 116.894 100.749 117.069C100.843 117.242 100.972 117.385 101.135 117.499C101.301 117.613 101.488 117.698 101.696 117.753C101.908 117.805 102.128 117.831 102.355 117.831C102.684 117.831 102.963 117.785 103.19 117.694C103.418 117.603 103.591 117.473 103.708 117.304C103.828 117.134 103.889 116.934 103.889 116.703ZM106.804 114.232V120.531H105.896V113.217H106.726L106.804 114.232ZM110.363 115.814V115.917C110.363 116.301 110.318 116.658 110.227 116.986C110.135 117.312 110.002 117.595 109.826 117.836C109.654 118.077 109.44 118.264 109.187 118.397C108.933 118.531 108.641 118.598 108.312 118.598C107.977 118.598 107.681 118.542 107.424 118.432C107.167 118.321 106.949 118.16 106.77 117.948C106.59 117.737 106.447 117.483 106.34 117.187C106.236 116.89 106.164 116.557 106.125 116.186V115.639C106.164 115.248 106.237 114.898 106.345 114.589C106.452 114.28 106.594 114.016 106.77 113.798C106.949 113.576 107.165 113.409 107.419 113.295C107.673 113.178 107.966 113.119 108.298 113.119C108.63 113.119 108.924 113.184 109.182 113.314C109.439 113.441 109.655 113.624 109.831 113.861C110.007 114.099 110.139 114.384 110.227 114.716C110.318 115.045 110.363 115.411 110.363 115.814ZM109.455 115.917V115.814C109.455 115.551 109.427 115.303 109.372 115.072C109.317 114.838 109.23 114.633 109.113 114.457C108.999 114.278 108.853 114.138 108.674 114.037C108.495 113.933 108.282 113.881 108.034 113.881C107.806 113.881 107.608 113.92 107.438 113.998C107.272 114.076 107.131 114.182 107.014 114.315C106.896 114.446 106.8 114.595 106.726 114.765C106.654 114.931 106.6 115.103 106.564 115.282V116.547C106.63 116.775 106.721 116.99 106.838 117.191C106.955 117.39 107.111 117.551 107.307 117.675C107.502 117.795 107.748 117.855 108.044 117.855C108.288 117.855 108.498 117.805 108.674 117.704C108.853 117.6 108.999 117.458 109.113 117.279C109.23 117.1 109.317 116.895 109.372 116.664C109.427 116.43 109.455 116.181 109.455 115.917ZM114.631 117.597V114.877C114.631 114.669 114.589 114.488 114.504 114.335C114.423 114.179 114.299 114.058 114.133 113.974C113.967 113.889 113.762 113.847 113.518 113.847C113.29 113.847 113.09 113.886 112.917 113.964C112.748 114.042 112.614 114.145 112.517 114.271C112.422 114.398 112.375 114.535 112.375 114.682H111.472C111.472 114.493 111.521 114.306 111.618 114.12C111.716 113.935 111.856 113.767 112.038 113.617C112.224 113.464 112.445 113.344 112.702 113.256C112.963 113.165 113.252 113.119 113.571 113.119C113.955 113.119 114.294 113.184 114.587 113.314C114.883 113.445 115.114 113.642 115.28 113.905C115.45 114.166 115.534 114.493 115.534 114.887V117.348C115.534 117.523 115.549 117.711 115.578 117.909C115.611 118.108 115.658 118.279 115.72 118.422V118.5H114.777C114.732 118.396 114.696 118.257 114.67 118.085C114.644 117.909 114.631 117.746 114.631 117.597ZM114.787 115.297L114.797 115.932H113.884C113.627 115.932 113.397 115.953 113.195 115.995C112.993 116.034 112.824 116.094 112.688 116.176C112.551 116.257 112.447 116.36 112.375 116.483C112.303 116.604 112.268 116.745 112.268 116.908C112.268 117.074 112.305 117.226 112.38 117.362C112.455 117.499 112.567 117.608 112.717 117.689C112.87 117.768 113.057 117.807 113.278 117.807C113.555 117.807 113.799 117.748 114.011 117.631C114.222 117.514 114.39 117.37 114.514 117.201C114.641 117.032 114.709 116.868 114.719 116.708L115.104 117.143C115.082 117.279 115.02 117.431 114.919 117.597C114.818 117.763 114.683 117.922 114.514 118.075C114.348 118.225 114.149 118.35 113.918 118.451C113.69 118.549 113.433 118.598 113.146 118.598C112.788 118.598 112.474 118.528 112.204 118.388C111.937 118.248 111.729 118.061 111.579 117.826C111.433 117.589 111.359 117.323 111.359 117.03C111.359 116.747 111.415 116.498 111.525 116.283C111.636 116.065 111.796 115.884 112.004 115.741C112.212 115.595 112.463 115.484 112.756 115.409C113.049 115.334 113.376 115.297 113.737 115.297H114.787ZM119.069 117.855C119.284 117.855 119.483 117.812 119.665 117.724C119.847 117.636 119.997 117.515 120.114 117.362C120.231 117.206 120.298 117.029 120.314 116.83H121.174C121.158 117.143 121.052 117.434 120.856 117.704C120.664 117.971 120.412 118.188 120.1 118.354C119.787 118.516 119.444 118.598 119.069 118.598C118.672 118.598 118.326 118.528 118.029 118.388C117.736 118.248 117.492 118.056 117.297 117.812C117.105 117.567 116.96 117.287 116.862 116.972C116.768 116.653 116.721 116.316 116.721 115.961V115.756C116.721 115.401 116.768 115.066 116.862 114.75C116.96 114.431 117.105 114.149 117.297 113.905C117.492 113.661 117.736 113.469 118.029 113.329C118.326 113.189 118.672 113.119 119.069 113.119C119.483 113.119 119.844 113.204 120.153 113.373C120.463 113.539 120.705 113.767 120.881 114.057C121.06 114.343 121.158 114.669 121.174 115.033H120.314C120.298 114.815 120.236 114.618 120.129 114.442C120.025 114.267 119.882 114.127 119.699 114.022C119.52 113.915 119.31 113.861 119.069 113.861C118.793 113.861 118.56 113.917 118.371 114.027C118.186 114.135 118.037 114.281 117.927 114.467C117.819 114.649 117.741 114.853 117.692 115.077C117.647 115.299 117.624 115.525 117.624 115.756V115.961C117.624 116.192 117.647 116.42 117.692 116.645C117.738 116.869 117.814 117.073 117.922 117.255C118.033 117.437 118.181 117.584 118.366 117.694C118.555 117.802 118.789 117.855 119.069 117.855ZM124.382 118.598C124.014 118.598 123.68 118.536 123.381 118.412C123.085 118.285 122.829 118.108 122.614 117.88C122.403 117.652 122.24 117.382 122.126 117.069C122.012 116.757 121.955 116.415 121.955 116.044V115.839C121.955 115.409 122.019 115.027 122.146 114.691C122.272 114.353 122.445 114.066 122.663 113.832C122.881 113.598 123.129 113.42 123.405 113.3C123.682 113.179 123.968 113.119 124.265 113.119C124.642 113.119 124.968 113.184 125.241 113.314C125.518 113.445 125.744 113.627 125.92 113.861C126.096 114.092 126.226 114.366 126.311 114.682C126.395 114.994 126.438 115.336 126.438 115.707V116.112H122.492V115.375H125.534V115.307C125.521 115.072 125.472 114.844 125.388 114.623C125.306 114.402 125.176 114.219 124.997 114.076C124.818 113.933 124.574 113.861 124.265 113.861C124.06 113.861 123.871 113.905 123.698 113.993C123.526 114.078 123.378 114.205 123.254 114.374C123.13 114.543 123.034 114.75 122.966 114.994C122.897 115.238 122.863 115.52 122.863 115.839V116.044C122.863 116.295 122.897 116.531 122.966 116.752C123.037 116.97 123.14 117.162 123.273 117.328C123.41 117.494 123.575 117.624 123.767 117.719C123.962 117.813 124.183 117.86 124.431 117.86C124.75 117.86 125.02 117.795 125.241 117.665C125.463 117.535 125.656 117.361 125.822 117.143L126.369 117.577C126.255 117.75 126.11 117.914 125.935 118.07C125.759 118.227 125.542 118.354 125.285 118.451C125.031 118.549 124.73 118.598 124.382 118.598Z" fill="white" fill-opacity="0.7"/>
<path d="M100.5 1.875C115.705 1.875 130.705 5.37269 144.342 12.0975C157.978 18.8223 169.885 28.5939 179.141 40.6565C188.397 52.7191 194.754 66.7493 197.72 81.6617C200.687 96.5741 200.183 111.969 196.247 126.655C192.312 141.342 185.051 154.926 175.026 166.358C165.001 177.789 152.481 186.761 138.433 192.58C124.386 198.398 109.189 200.907 94.0169 199.913C78.8449 198.918 64.105 194.447 50.9375 186.845L64.815 162.808C74.2956 168.282 84.9083 171.501 95.8322 172.217C106.756 172.933 117.698 171.127 127.812 166.937C137.926 162.748 146.941 156.288 154.159 148.058C161.377 139.827 166.605 130.046 169.438 119.472C172.271 108.898 172.634 97.8133 170.499 87.0764C168.363 76.3395 163.786 66.2378 157.122 57.5527C150.457 48.8676 141.884 41.8321 132.066 36.9902C122.248 32.1483 111.447 29.63 100.5 29.63V1.875Z" fill="#2FC22B" stroke="#141414" stroke-width="1.90625"/>
<path d="M4.7526 75.3446C10.4002 54.2673 22.8449 35.6425 40.1565 22.3588C57.4681 9.07518 78.6792 1.875 100.5 1.875V29.63C84.789 29.63 69.5171 34.8141 57.0527 44.3784C44.5883 53.9426 35.6282 67.3524 31.5619 82.5281L4.7526 75.3446Z" fill="#A2FF9F" stroke="#141414" stroke-width="1.90625"/>
<path d="M50.9375 186.845C32.0401 175.934 17.2709 159.093 8.92044 138.933C0.56998 118.774 -0.895037 96.4218 4.7526 75.3446L31.5619 82.5281C27.4956 97.7037 28.5504 113.797 34.5627 128.312C40.575 142.827 51.2089 154.953 64.815 162.808L50.9375 186.845Z" fill="#00A0D4" stroke="#141414" stroke-width="1.90625"/>
</svg>
