<svg width="264" height="264" viewBox="0 0 264 264" fill="none" xmlns="http://www.w3.org/2000/svg">
<path d="M69.5841 178.259C73.0073 177.138 76.5619 176.265 80.0813 175.506L80.094 175.266C80.7233 175.538 87.146 174.046 88.4308 173.85C96.0438 172.691 103.731 171.978 111.438 172.173C123.216 184.316 139.063 193.272 155.179 198.177C154.234 198.201 152.966 197.888 152.1 198.107C152.022 198.148 151.949 198.2 151.867 198.23C151.328 198.427 144.701 198.223 143.376 198.309C142.439 198.37 140.137 199.212 139.345 198.808C137.83 198.741 135.801 199.367 134.312 199.698C127.066 201.307 119.956 203.837 113.168 206.822C110.667 207.922 108.245 209.279 105.735 210.326L105.589 210.385C103.38 209.522 101.156 208.035 99.1555 206.766C87.6391 199.464 77.3772 189.434 69.5841 178.259Z" fill="#A2FF9F" fill-opacity="0.4"/>
<path d="M158.545 92.6054C158.883 96.1916 158.95 99.8511 158.914 103.451L159.145 103.517C158.741 104.07 158.779 110.664 158.686 111.96C158.137 119.641 157.136 127.296 155.245 134.77C140.803 143.578 128.57 157.059 120.23 171.695C120.415 170.768 121 169.6 120.978 168.707C120.955 168.622 120.92 168.54 120.908 168.453C120.835 167.884 122.497 161.465 122.705 160.154C122.853 159.227 122.539 156.795 123.109 156.112C123.508 154.649 123.345 152.532 123.351 151.006C123.38 143.584 122.482 136.091 121.068 128.812C120.547 126.129 119.758 123.468 119.291 120.789L119.266 120.633C120.595 118.67 122.536 116.829 124.215 115.157C133.878 105.536 145.926 97.7403 158.545 92.6054Z" fill="#A2FF9F" fill-opacity="0.4"/>
<path d="M97.4033 172.102C95.3939 168.949 93.6513 165.589 91.8179 162.328L86.0211 152.107C83.6119 147.76 81.2711 143.358 78.7539 139.073C79.0001 139.113 79.1784 139.392 79.3177 139.591C80.6586 141.507 82.0105 144.12 83.2661 146.189C86.9355 152.187 90.4987 158.249 93.954 164.374L97.3667 170.327C97.9034 171.264 98.3881 172.308 99.0279 173.177C99.8738 174.327 101.027 175.297 102.05 176.285C103.161 177.357 104.23 178.472 105.255 179.627C105.172 179.6 105.084 179.585 105.004 179.547C104.487 179.3 99.9998 174.418 99.0124 173.531C98.3139 172.903 96.102 171.846 95.8372 170.997L97.4033 172.102Z" fill="#2FC22B"/>
<path d="M124.644 214.768C124.914 214.505 124.897 214.425 124.893 214.055C124.853 210.062 125.081 206.076 125.237 202.086L126.038 182.565C126.968 159.365 128.138 136.175 129.547 113C129.663 110.991 130.28 96.6739 130.588 95.9069L130.636 95.8789C130.805 97.0893 130.608 98.5116 130.557 99.7398C130.465 101.97 130.444 104.214 130.306 106.44C130.22 107.812 130.007 109.111 129.992 110.502C129.769 121.885 129.363 133.263 128.775 144.633C128.042 162.242 127.204 179.85 126.261 197.449C126.177 199.07 125.372 214.777 125.413 214.908L125.422 214.996C125.379 214.999 125.337 215.005 125.294 215.005C124.918 215.012 124.896 215.028 124.644 214.768Z" fill="#2FC22B"/>
<path d="M70.0459 176.17C70.2277 176.189 70.3817 176.219 70.5424 176.312C71.4256 176.823 72.2766 177.544 73.1011 178.15L78.2769 181.955C85.5139 187.202 92.6692 192.559 99.7405 198.027C104.682 201.793 109.604 205.585 114.505 209.402C116.949 211.305 119.656 213.135 121.865 215.296C120.003 215.061 75.4206 180.634 70.0459 176.17Z" fill="#2FC22B"/>
<path d="M196.178 138.059C206.492 134.94 217.097 132.886 227.827 131.929C219.976 160.007 203.464 189.07 177.425 203.756C170.902 207.411 163.916 210.168 156.658 211.949C155.488 212.236 154.067 212.692 152.87 212.741C147.089 214.216 139.682 214.703 133.709 214.836C130.953 214.898 128.169 214.763 125.422 214.998L125.414 214.907C126.085 213.587 126.449 211.984 126.879 210.564C127.564 208.303 128.244 206.047 129.018 203.816C132.839 192.8 137.561 181.696 144.673 172.362C145.953 169.777 151.465 163.809 153.64 161.621C154.703 160.553 156.112 159.61 156.924 158.334C158.393 157.719 160.638 155.677 161.538 154.341L161.892 154.419C162.432 154.298 162.778 153.892 163.172 153.526C163.883 153.372 165.867 151.797 166.583 151.331C169.376 149.494 172.267 147.808 175.241 146.283C179.998 143.889 184.907 141.815 189.936 140.073C191.895 139.383 194.039 138.95 195.946 138.158L196.178 138.059Z" fill="#A2FF9F" fill-opacity="0.4"/>
<path d="M144.57 172.894L144.543 173.152C144.512 173.44 144.437 173.647 144.321 173.91L144.39 174.05L144.664 174.058C145.27 175.737 145.289 177.788 145.703 179.558C145.939 180.567 146.316 181.547 146.579 182.55C146.852 183.581 147.015 184.651 147.33 185.669C147.597 186.536 148.025 187.352 148.283 188.221C148.762 189.826 149.104 195.049 150.501 195.925L150.778 195.898C145.147 200.638 139.491 205.406 133.779 210.046C132.263 211.277 130.63 212.363 129.122 213.597C128.826 213.841 128.546 214.074 128.391 214.431C129.654 214.341 147.204 199.821 150.009 197.859C150.317 198.412 150.689 198.341 150.771 198.544C151.035 199.197 150.771 199.755 151.18 200.488C151.456 200.983 151.813 201.538 151.95 202.089C152.426 203.998 152.823 209.219 152.224 210.966C151.988 211.653 151.462 212.077 151.298 212.836C151.666 212.875 151.956 212.761 152.3 212.648L152.724 212.769C146.974 214.225 139.606 214.706 133.665 214.838C130.924 214.898 128.154 214.765 125.422 214.997L125.414 214.907C126.082 213.604 126.444 212.021 126.872 210.618C127.553 208.386 128.228 206.158 128.999 203.955C132.799 193.076 137.496 182.11 144.57 172.894Z" fill="#A2FF9F" fill-opacity="0.4"/>
<path d="M150.114 196.301L184.327 168.029L192.64 161.125C193.804 160.15 195.089 158.803 196.385 158.04C194.669 159.819 192.703 161.39 190.824 162.994C188.18 165.25 185.548 167.519 182.927 169.8C171.907 179.469 160.718 188.944 149.365 198.22C146.634 200.141 129.543 214.354 128.313 214.442C128.464 214.092 128.736 213.864 129.025 213.626C130.493 212.418 132.084 211.354 133.56 210.149C139.122 205.608 144.63 200.94 150.114 196.301Z" fill="#2FC22B"/>
<path d="M161.401 109.89C172.845 98.3668 186.466 89.4618 200.76 81.8594C202.669 100.453 201.668 120.073 196.354 138.074L196.123 138.171C194.225 138.954 192.09 139.382 190.14 140.063C185.133 141.784 180.246 143.833 175.511 146.197C172.55 147.704 169.672 149.369 166.891 151.184C166.179 151.644 164.203 153.199 163.496 153.352C163.104 153.713 162.759 154.115 162.221 154.233L161.869 154.157C160.973 155.477 158.738 157.494 157.276 158.101C161.56 143.918 163.567 130.742 162.035 115.923C161.834 113.986 161.849 111.775 161.401 109.89Z" fill="#A2FF9F" fill-opacity="0.4"/>
<path d="M160.405 156.362C162.917 151.778 165.233 147.083 167.643 142.444L175.426 127.77C176.508 125.72 179.41 119.592 180.533 118.281C180.086 119.538 179.374 120.742 178.776 121.934C177.732 124.008 176.7 126.087 175.679 128.172C171.207 137.351 166.642 146.486 161.988 155.574C161.606 155.928 161.271 156.321 160.747 156.437L160.405 156.362Z" fill="#2FC22B"/>
</svg>
