<svg width="160" height="161" viewBox="0 0 160 161" fill="none" xmlns="http://www.w3.org/2000/svg">
<path d="M62.2757 2.73605C63.1504 2.12678 63.7836 0.970921 64.8163 0.656494C65.6311 0.813245 66.1626 1.58602 66.9512 1.78774C67.5117 1.931 68.0923 1.92941 68.6667 1.93629C71.0755 1.96513 71.9273 2.03669 73.8953 3.49216C74.7576 4.12987 75.6578 4.29708 76.6104 4.73214C77.2041 5.00318 77.773 5.57132 78.2741 5.98839C78.4452 6.54106 78.648 7.0793 78.8509 7.62085C79.5098 7.94216 80.1635 8.27603 80.8198 8.60514C81.1115 9.17513 81.4828 9.8319 81.5 10.4851C81.5252 11.4144 80.9232 11.9661 80.3359 12.596C80.3942 13.0641 80.4817 13.5796 80.3014 14.0322C79.8135 15.2627 77.6881 15.8743 76.5696 16.4112C76.9363 18.5976 77.4216 20.5076 76.5915 22.6616L76.4642 23.5082C76.2747 25.3507 76.1835 27.2955 75.6001 29.0651C75.1714 32.2851 74.3961 35.1553 73.1973 38.1669C74.4003 39.3875 75.8582 40.3028 76.9589 41.623C78.066 42.7909 79.1386 43.9308 80.0216 45.2835C82.8126 49.5557 84.2645 54.6826 85.829 59.4938C86.3063 60.9633 86.8844 62.4211 87.3471 63.8869C87.5791 62.125 89.2776 56.4526 90.6313 55.4432C91.2969 54.9462 92.7302 55.0642 93.5323 55.0745C96.3247 55.1103 99.0719 55.4974 101.852 55.6838C106.46 55.9926 111.051 56.2211 115.656 56.6084C117.695 56.7798 120.42 56.6604 122.322 57.0112C122.862 57.1105 123.605 57.3275 123.912 57.8284C124.352 58.5431 123.96 59.7244 123.733 60.4817C123.058 62.727 122.159 64.9241 121.38 67.1365L117.288 79.0776C116.731 80.7258 115.672 82.8409 115.611 84.5725C118.211 85.2034 120.603 86.7537 122.011 89.0422C122.639 90.0634 122.972 91.1322 123.308 92.2737C123.76 93.8161 123.374 95.9392 123.011 97.4776C122.136 101.195 120.798 104.871 119.611 108.502L113.826 125.988C112.73 129.32 111.609 132.644 110.465 135.959C109.989 137.307 109.583 138.833 108.902 140.086C108.72 140.421 108.511 140.671 108.211 140.906L108.545 141.803C108.771 141.988 108.995 142.177 109.215 142.37C110.696 143.647 111.836 145.576 112.885 147.209C120.38 147.171 155.896 148.466 159.812 152.642C159.955 152.794 159.954 152.938 160 153.134C159.783 153.821 159.178 154.172 158.567 154.491C154.902 156.404 149.49 156.768 145.386 157.323C137.533 158.385 129.71 158.92 121.804 159.378C109.025 160.143 96.2265 160.531 83.4252 160.54C75.9642 160.673 68.5015 160.691 61.0398 160.596C56.28 160.487 51.5054 160.218 46.7458 160.08C39.3586 159.916 31.9775 159.548 24.6108 158.977C22.1466 158.801 19.648 158.708 17.1929 158.453C12.6822 157.985 7.95334 157.371 3.62434 155.982C2.56364 155.642 0.657555 154.975 0.108243 153.934C-0.0246102 153.683 0.00270484 153.597 0.00164413 153.324C0.498584 152.365 1.65064 151.922 2.60991 151.552C3.02929 151.143 3.24355 150.059 3.39404 149.494C3.91392 147.543 4.28225 145.548 4.75943 143.585L9.45264 123.452C10.3678 119.375 11.6633 115.263 12.278 111.135C10.1921 110.654 8.49403 110.216 7.10464 108.43C6.2053 107.274 5.86084 106.272 5.56994 104.85C4.69247 100.564 4.59754 96 4.15231 91.652L2.84937 78.7548C2.62012 76.3513 2.10873 73.5711 2.42681 71.1804C2.72566 68.9342 4.25798 67.0047 6.02114 65.6876C6.52722 65.2202 7.08701 64.6339 7.75114 64.4111C9.97013 63.6671 21.3393 64.5467 24.3069 64.695C25.1906 64.7392 26.9475 65.0278 27.7153 64.6863L27.7835 64.2609C27.3936 56.1284 24.7982 47.1376 30.1279 39.9819C34.1181 34.6244 43.5399 31.8644 49.9132 30.903C50.8882 30.6726 51.9412 30.7621 52.9277 30.5399C57.9305 29.4126 55.0547 22.0352 56.2111 20.2048C56.2161 17.7579 56.8275 15.4232 57.0517 13.0053C57.166 11.7728 56.8341 10.5536 56.8539 9.32474C56.8758 7.97007 57.271 6.66911 57.2717 5.29658C57.9286 4.11493 58.6128 3.32218 59.7842 2.65351C60.6151 2.72309 61.4424 2.72944 62.2757 2.73605Z" fill="#408B54"/>
<path d="M27.7835 64.2611C28.5287 69.3609 25.7034 92.9579 27.2108 95.1828C26.7682 95.7675 27.2703 98.9871 27.3781 99.7702C27.7569 102.516 28.5779 104.7 30.4798 106.745C31.5501 107.092 35.2056 106.807 36.5541 106.837C38.1589 106.86 39.7609 106.973 41.3533 107.173C41.4469 107.399 41.5392 107.624 41.6388 107.847C42.0571 108.785 42.3978 111.321 43.1991 111.782C43.582 113.626 43.4352 115.562 43.6607 117.433C43.9073 119.481 44.2035 121.526 44.3744 123.582C44.5953 126.239 44.6896 128.91 44.9533 131.563L45.7903 139.766C45.907 140.877 46.1076 141.999 46.1616 143.115C46.215 144.221 46.0339 145.331 46.0643 146.438C47.9844 146.122 50.0064 146.284 51.9468 146.225C56.744 146.082 61.5157 146.02 66.3147 145.989C68.4486 145.974 70.6682 146.137 72.7927 145.977C73.3611 145.934 73.3879 145.774 73.7591 145.354C74.2478 146.621 75.4093 148.18 75.5143 149.506C75.6301 149.038 75.7396 148.567 75.843 148.094C75.9884 147.4 76.0166 147.015 75.6201 146.412C76.0179 145.692 76.3536 145.228 77.0477 144.764L77.061 144.596C79.1015 144.467 81.1009 144.967 83.1189 144.342C84.1491 144.023 85.117 143.223 86.1366 143.023C86.2188 143.007 86.3023 142.994 86.3859 142.979C86.7982 143.167 87.135 143.367 87.5009 143.633C87.6561 143.746 87.5858 143.708 87.7674 143.766C88.3654 143.721 88.6611 143.957 89.0946 144.327C89.6542 144.802 90.748 145.781 90.8766 146.514C92.1031 146.936 95.9587 146.835 97.3734 146.724L97.4941 146.547C97.9939 144.688 98.5588 143.461 99.9284 142.07C99.9456 141.745 100.008 141.477 100.09 141.163C100.338 140.909 100.358 140.889 100.705 140.824C101.401 141.473 102.824 141.875 103.758 141.929C105.35 141.822 106.705 141.421 108.211 140.906L108.545 141.803C108.771 141.988 108.995 142.178 109.215 142.371C110.696 143.647 111.836 145.576 112.885 147.209C120.38 147.171 155.896 148.466 159.812 152.642C159.955 152.794 159.954 152.938 160 153.134C159.783 153.821 159.178 154.173 158.567 154.491C154.902 156.404 149.49 156.768 145.386 157.324C137.533 158.386 129.71 158.92 121.804 159.378C109.025 160.144 96.2265 160.531 83.4252 160.541C75.9642 160.673 68.5015 160.691 61.0398 160.596C56.28 160.488 51.5054 160.218 46.7458 160.08C39.3586 159.916 31.9775 159.548 24.6108 158.977C22.1466 158.801 19.648 158.708 17.1929 158.453C12.6822 157.985 7.95334 157.371 3.62434 155.982C2.56364 155.642 0.657555 154.976 0.108243 153.935C-0.0246102 153.683 0.00270484 153.597 0.00164413 153.325C0.498584 152.366 1.65064 151.923 2.60991 151.552C3.02929 151.143 3.24355 150.059 3.39404 149.494C3.91392 147.543 4.28225 145.548 4.75943 143.585L9.45264 123.452C10.3678 119.375 11.6633 115.263 12.278 111.136C10.1921 110.654 8.49403 110.216 7.10464 108.431C6.2053 107.274 5.86084 106.272 5.56994 104.85C4.69247 100.564 4.59754 96.0003 4.15231 91.6523L2.84937 78.7551C2.62012 76.3516 2.10873 73.5713 2.42681 71.1806C2.72566 68.9344 4.25798 67.005 6.02114 65.6879C6.52722 65.2204 7.08701 64.6341 7.75114 64.4114C9.97013 63.6673 21.3393 64.547 24.3069 64.6953C25.1906 64.7394 26.9475 65.0281 27.7153 64.6865L27.7835 64.2611Z" fill="#66AA68"/>
<path d="M100.705 140.825C101.401 141.473 102.824 141.875 103.758 141.929C105.35 141.822 106.705 141.422 108.211 140.907L108.545 141.804C108.771 141.989 108.995 142.178 109.215 142.371C110.696 143.648 111.836 145.576 112.885 147.21C120.38 147.172 155.896 148.467 159.812 152.643C159.955 152.795 159.954 152.939 160 153.135C159.783 153.821 159.178 154.173 158.567 154.492C154.902 156.405 149.49 156.769 145.386 157.324C137.533 158.386 129.71 158.921 121.804 159.378C109.025 160.144 96.2265 160.532 83.4252 160.541C75.9642 160.673 68.5015 160.692 61.0398 160.597C56.28 160.488 51.5054 160.218 46.7458 160.081C39.3586 159.917 31.9775 159.549 24.6108 158.978C22.1466 158.802 19.648 158.709 17.1929 158.454C12.6822 157.986 7.95334 157.372 3.62434 155.983C2.56364 155.643 0.657555 154.976 0.108243 153.935C-0.0246102 153.684 0.00270484 153.598 0.00164413 153.325C0.498584 152.366 1.65064 151.923 2.60991 151.553C2.46433 152.704 2.16415 153.688 2.8198 154.718L2.87005 154.921C3.17593 155.052 3.24633 155.089 3.57224 155.05C4.14462 154.373 4.16663 151.422 4.35702 150.406C4.64381 150.264 4.92888 150.119 5.21209 149.971L5.47646 149.886C7.15277 149.451 8.90293 149.213 10.6103 148.923C21.3757 147.098 32.355 147.188 43.2212 146.488C43.2781 146.553 43.3359 146.616 43.3917 146.682C44.7444 148.28 44.8523 153.331 45.0126 155.552C45.0654 156.283 45.0199 157.382 45.304 158.045C45.4399 158.361 45.5534 158.38 45.8491 158.503C46.168 158.421 46.1775 158.419 46.3769 158.16C46.487 157.43 46.3736 156.667 46.3187 155.933C46.1242 153.333 45.2269 148.832 46.0643 146.439C47.9844 146.123 50.0064 146.284 51.9468 146.226C56.744 146.083 61.5157 146.021 66.3147 145.989C68.4486 145.975 70.6682 146.137 72.7927 145.977C73.3611 145.935 73.3879 145.775 73.7591 145.354C74.2478 146.621 75.4093 148.181 75.5143 149.506C75.6301 149.038 75.7396 148.567 75.843 148.095C75.9884 147.401 76.0166 147.016 75.6201 146.412C76.0179 145.693 76.3536 145.229 77.0477 144.764L77.061 144.596C79.1015 144.468 81.1009 144.968 83.1189 144.342C84.1491 144.023 85.117 143.223 86.1366 143.023C86.2188 143.008 86.3023 142.994 86.3859 142.98C86.7982 143.168 87.135 143.367 87.5009 143.633C87.6561 143.747 87.5858 143.709 87.7674 143.767C88.3654 143.722 88.6611 143.957 89.0946 144.328C89.6542 144.803 90.748 145.781 90.8766 146.514C92.1031 146.936 95.9587 146.836 97.3734 146.725L97.4941 146.547C97.9939 144.689 98.5588 143.461 99.9284 142.071C99.9456 141.746 100.008 141.477 100.09 141.164C100.338 140.91 100.358 140.89 100.705 140.825Z" fill="#408B54"/>
<path d="M100.705 140.825C101.401 141.473 102.824 141.875 103.757 141.929C105.35 141.822 106.705 141.422 108.211 140.907L108.545 141.804C108.77 141.989 108.995 142.178 109.215 142.371C110.696 143.648 111.836 145.576 112.885 147.21C113.61 148.42 114.48 148.6 115.778 148.93C117.459 149.356 119.854 149.771 120.823 151.397C121.088 151.839 121.303 152.292 121.27 152.816C121.463 153.29 121.682 153.72 121.445 154.227C121.106 154.955 120.157 155.291 119.441 155.481C115.355 156.573 110.263 156.258 106.067 155.705C104.477 155.496 102.763 155.073 101.169 155.085C100.981 155.237 100.884 155.327 100.647 155.395C95.037 156.8 87.3151 156.405 81.6748 155.201C79.3267 154.7 77.0356 153.925 74.7605 153.169L74.5881 152.999C75.3004 152.38 75.3703 150.427 75.5141 149.506C75.6299 149.038 75.7394 148.567 75.8428 148.095C75.9883 147.401 76.0164 147.016 75.6199 146.412C76.0177 145.693 76.3534 145.229 77.0475 144.764L77.0608 144.596C79.1013 144.468 81.1007 144.968 83.1187 144.342C84.1489 144.023 85.1168 143.223 86.1364 143.023C86.2186 143.008 86.3021 142.994 86.3857 142.98C86.798 143.168 87.1348 143.367 87.5007 143.633C87.6559 143.747 87.5856 143.709 87.7672 143.767C88.3652 143.722 88.6609 143.957 89.0944 144.328C89.654 144.803 90.7478 145.781 90.8764 146.514C92.1029 146.936 95.9585 146.836 97.3732 146.725L97.4939 146.547C97.9937 144.689 98.5586 143.461 99.9282 142.071C99.9454 141.746 100.008 141.477 100.09 141.164C100.338 140.91 100.358 140.89 100.705 140.825Z" fill="#0D3A2F"/>
<path d="M101.169 155.084C100.706 154.053 100.274 153 99.6517 152.051C106.674 154.235 114.12 154.309 121.269 152.816C121.462 153.289 121.681 153.719 121.444 154.227C121.106 154.955 120.156 155.291 119.44 155.481C115.354 156.572 110.263 156.258 106.066 155.705C104.477 155.496 102.762 155.072 101.169 155.084Z" fill="#E9EBE7"/>
<path d="M97.4937 146.547C97.8212 146.834 97.9564 146.919 97.9935 147.36C98.0903 148.477 97.6965 149.833 97.491 150.936C97.442 150.917 97.3942 150.898 97.3452 150.88C96.311 150.502 95.2012 150.573 94.1803 150.24C93.2005 149.92 91.0791 148.024 90.733 147.024C90.6853 146.885 90.6946 146.855 90.6999 146.725L90.8762 146.514C92.1026 146.936 95.9583 146.835 97.373 146.724L97.4937 146.547Z" fill="#408B54"/>
<path d="M86.3849 142.979C86.7973 143.167 87.134 143.367 87.5 143.633C87.6551 143.746 87.5848 143.708 87.7665 143.766C86.4433 145.439 84.7939 146.613 82.6128 146.855C81.1026 147.022 79.2769 146.814 78.0544 145.86C77.6673 145.557 77.3557 145.142 77.0468 144.764L77.06 144.596C79.1005 144.467 81.1 144.967 83.1179 144.342C84.1482 144.023 85.116 143.222 86.1356 143.023C86.2178 143.007 86.3014 142.994 86.3849 142.979Z" fill="#A57565"/>
<path d="M100.704 140.825C101.4 141.473 102.823 141.875 103.757 141.929C105.349 141.822 106.704 141.422 108.21 140.907L108.544 141.804C108.487 142.439 108.068 142.894 107.598 143.299C106.654 144.111 105.066 144.285 103.872 144.145C102.351 143.967 100.979 143.156 99.9274 142.071C99.9446 141.746 100.007 141.477 100.089 141.164C100.337 140.91 100.357 140.89 100.704 140.825Z" fill="#A57565"/>
<path d="M74.761 153.169C77.0361 153.924 79.3272 154.699 81.6754 155.201C87.3156 156.404 95.0376 156.8 100.647 155.395L100.873 155.508C101.081 155.807 101.138 155.953 101.156 156.317C100.997 156.838 100.73 157.087 100.345 157.46C97.5872 158.107 95.0217 158.471 92.1829 158.464C88.977 158.456 76.1682 157.783 74.2329 155.493C74.0002 155.218 73.8792 154.964 73.9309 154.599C74.0107 154.034 74.3012 153.477 74.761 153.169Z" fill="#E9EBE7"/>
<path d="M27.7829 64.2611C28.5282 69.3609 25.7029 92.9579 27.2103 95.1828C26.7677 95.7675 27.2698 98.9871 27.3776 99.7702C27.7564 102.516 28.5774 104.7 30.4793 106.745C30.3281 106.78 30.1768 106.809 30.0253 106.841C27.7336 107.322 12.2572 107.318 10.3751 106.673C9.73097 106.45 9.28308 105.843 9.03713 105.227C8.44606 103.744 8.42312 101.545 8.22768 99.9528C7.46795 93.7674 6.93349 87.5595 6.29084 81.361C5.93895 77.968 5.26103 74.5459 5.19885 71.135C5.16411 69.2244 5.33302 67.4789 6.02063 65.6879C6.52671 65.2204 7.0865 64.6341 7.75063 64.4114C9.96962 63.6673 21.3388 64.547 24.3064 64.6953C25.1901 64.7394 26.947 65.0281 27.7148 64.6865L27.7829 64.2611Z" fill="#126839"/>
<path d="M12.2776 111.136C10.1917 110.654 8.49369 110.216 7.1043 108.43C6.20496 107.274 5.86049 106.272 5.5696 104.85C4.69213 100.564 4.59719 96.0002 4.15196 91.6522L2.84902 78.755C2.61978 76.3515 2.10839 73.5713 2.42646 71.1806C2.72532 68.9344 4.25764 67.0049 6.02079 65.6878C5.33319 67.4789 5.16427 69.2243 5.19901 71.135C5.26119 74.5459 5.93912 77.968 6.291 81.3609C6.93366 87.5595 7.46812 93.7674 8.22785 99.9527C8.42328 101.545 8.44622 103.744 9.0373 105.227C9.28325 105.843 9.73113 106.45 10.3752 106.673C12.2573 107.318 27.7338 107.322 30.0254 106.84C30.177 106.809 30.3283 106.78 30.4794 106.745C31.5498 107.092 35.2052 106.807 36.5538 106.837C38.1585 106.86 39.7606 106.973 41.353 107.173C41.4466 107.399 41.5388 107.624 41.6384 107.847C42.0567 108.785 42.3975 111.321 43.1987 111.782C43.5816 113.626 43.4348 115.562 43.6604 117.433C43.907 119.481 44.2032 121.526 44.3741 123.582C44.595 126.239 44.6893 128.91 44.953 131.563L45.79 139.766C45.9067 140.877 46.1073 141.999 46.1613 143.115C46.2147 144.221 46.0336 145.331 46.0639 146.438C45.2265 148.831 46.1239 153.333 46.3184 155.932C46.3733 156.666 46.4866 157.429 46.3766 158.159C46.1772 158.419 46.1676 158.42 45.8487 158.502C45.5531 158.379 45.4396 158.361 45.3037 158.044C45.0195 157.382 45.065 156.282 45.0122 155.551C44.8519 153.33 44.744 148.28 43.3914 146.682C43.3355 146.615 43.2777 146.552 43.2209 146.487C42.7598 139.692 41.6998 132.923 40.9459 126.157C40.6297 123.318 40.0545 114.118 39.1683 112.007C38.8268 111.753 38.325 111.752 37.9099 111.73C33.587 111.503 29.1676 111.702 24.8321 111.694C22.5979 111.69 19.1605 111.419 17.0672 111.736C16.5383 111.817 15.7925 112.01 15.466 112.481C14.8766 113.329 13.2175 120.576 12.8228 122.109C11.1713 128.579 9.47563 135.038 7.73595 141.486C6.98616 144.26 6.38607 147.162 5.47612 149.885L5.21174 149.97C4.92853 150.118 4.64347 150.264 4.35668 150.405C4.16628 151.421 4.14427 154.372 3.57189 155.05C3.24599 155.088 3.17559 155.051 2.86971 154.92L2.81946 154.718C2.16381 153.687 2.46399 152.703 2.60957 151.552C3.02894 151.143 3.24321 150.059 3.39369 149.494C3.91357 147.543 4.2819 145.548 4.75909 143.585L9.4523 123.452C10.3674 119.375 11.6629 115.263 12.2776 111.136Z" fill="#2D9A50"/>
<path d="M62.2748 2.73605C63.1494 2.12678 63.7827 0.970921 64.8154 0.656494C65.6302 0.813245 66.1617 1.58602 66.9503 1.78774C67.5108 1.931 68.0914 1.92941 68.6658 1.93629C71.0746 1.96513 71.9264 2.03669 73.8944 3.49216C74.7567 4.12987 75.6569 4.29708 76.6095 4.73214C77.2032 5.00318 77.772 5.57132 78.2732 5.98839C78.4443 6.54106 78.6471 7.0793 78.85 7.62085C79.5089 7.94216 80.1626 8.27603 80.8189 8.60514C81.1106 9.17513 81.4818 9.8319 81.4991 10.4851C81.5243 11.4143 80.9223 11.9661 80.3349 12.596C80.3933 13.0641 80.4808 13.5796 80.3005 14.0322C79.8126 15.2627 77.6872 15.8743 76.5687 16.4112C76.9354 18.5976 77.4207 20.5076 76.5905 22.6616L76.4633 23.5082C76.2738 25.3507 76.1826 27.2955 75.5992 29.0651C75.1705 32.2851 74.3951 35.1553 73.1964 38.1669C74.3994 39.3875 75.8573 40.3028 76.9579 41.623C78.065 42.7909 79.1377 43.9308 80.0207 45.2835C82.8117 49.5557 84.2635 54.6825 85.8281 59.4938C86.3054 60.9633 86.8835 62.4211 87.3462 63.8869L84.1853 75.8744C83.6298 77.9902 83.1922 80.3276 82.3582 82.3475C82.2495 82.7496 82.0281 83.2801 82.0745 83.6915C81.9525 84.0275 81.8531 84.3634 81.6383 84.6545C78.4801 84.5169 75.2348 85.2246 72.0702 84.9904C69.6319 84.9799 67.1897 85.2603 64.7519 85.3648C61.9609 85.4852 59.0998 85.4428 56.3218 85.6796C56.0076 85.7074 55.8192 85.7802 55.5643 85.9614C55.4987 86.0434 55.4562 86.1519 55.3675 86.2087C55.019 86.4349 48.8362 87.7299 48.0238 87.8344C47.9714 87.8411 47.9185 87.8437 47.8659 87.849C45.6515 88.2591 43.3892 89.3146 41.2618 90.0752L27.2099 95.1825C25.7025 92.9576 28.5278 69.3606 27.7825 64.2609C27.3927 56.1284 24.7973 47.1376 30.127 39.9819C34.1172 34.6244 43.539 31.8644 49.9123 30.903C50.8873 30.6726 51.9403 30.7621 52.9268 30.5399C57.9296 29.4126 55.0538 22.0352 56.2102 20.2048C56.2152 17.7579 56.8266 15.4232 57.0508 13.0053C57.1651 11.7728 56.8332 10.5536 56.853 9.32474C56.8748 7.97007 57.2701 6.6691 57.2708 5.29658C57.9277 4.11493 58.6119 3.32218 59.7833 2.65351C60.6142 2.72309 61.4414 2.72944 62.2748 2.73605Z" fill="#0D3A2F"/>
<path d="M62.2753 2.73605C63.15 2.12678 63.7833 0.970921 64.816 0.656494C65.6307 0.813245 66.1623 1.58602 66.9509 1.78774C67.5114 1.931 68.092 1.92941 68.6663 1.93629C71.0752 1.96513 71.927 2.03669 73.895 3.49216C74.7573 4.12987 75.6574 4.29708 76.6101 4.73214C77.2038 5.00318 77.7726 5.57132 78.2738 5.9884C78.4448 6.54106 78.6477 7.0793 78.8506 7.62085C79.5095 7.94216 80.1632 8.27603 80.8195 8.60514C81.1112 9.17513 81.4824 9.8319 81.4997 10.4851C81.5249 11.4144 80.9229 11.9661 80.3355 12.596C80.3939 13.0641 80.4814 13.5796 80.3011 14.0322C79.8131 15.2627 77.6878 15.8743 76.5692 16.4112C76.936 18.5976 77.4213 20.5076 76.5911 22.6616L76.4638 23.5082C76.2744 25.3507 76.1832 27.2955 75.5998 29.0651C75.1711 32.2851 74.3957 35.1553 73.197 38.1669C74.4 39.3875 75.8579 40.3028 76.9585 41.623C77.5273 47.6607 76.9943 50.1635 74.2328 55.5941C74.2901 52.6546 74.9228 43.9882 72.9052 41.959C72.5575 41.6094 72.1161 41.4668 71.6322 41.4865C70.7921 41.5207 69.914 41.8733 69.1174 42.1327C65.9507 43.1637 62.9501 44.6841 59.5367 44.1968C59.0971 44.134 58.4189 44.0606 58.0692 43.7621C57.9554 43.6649 57.9046 43.5638 57.8305 43.442C57.8736 42.9768 58.0665 42.7232 58.4081 42.4106C55.3755 41.2064 52.9807 39.2882 51.3059 36.4881C50.2899 34.7895 49.4144 32.9059 49.9128 30.903C50.8879 30.6726 51.9409 30.7621 52.9274 30.5399C57.9302 29.4126 55.0543 22.0352 56.2108 20.2048C56.2158 17.7579 56.8272 15.4232 57.0514 13.0053C57.1657 11.7728 56.8338 10.5536 56.8535 9.32474C56.8754 7.97007 57.2707 6.66911 57.2713 5.29658C57.9283 4.11493 58.6125 3.32218 59.7839 2.65351C60.6148 2.72309 61.442 2.72944 62.2753 2.73605Z" fill="#1B1D27"/>
<path d="M64.1826 13.513C65.3893 14.0052 66.5335 14.6683 67.724 15.2034C70.4636 16.4346 73.5978 17.0177 76.5696 16.4117C76.9364 18.5982 77.4216 20.5082 76.5915 22.6622L76.4642 23.5088C76.2748 25.3513 76.1835 27.296 75.6001 29.0657C75.0178 29.4129 74.355 30.3573 73.8443 30.8648C72.8443 30.1752 72.5185 30.1374 71.3466 30.3164C69.7349 29.3976 68.8277 29.1785 67.1624 30.0791C66.7845 30.2834 66.4967 30.4823 66.0545 30.5128C65.3592 30.2878 64.8287 29.864 64.3379 29.3289C62.3677 27.1819 60.9416 22.9642 62.1172 20.17C62.5471 19.1479 63.5038 18.536 63.8393 17.4328C64.2112 16.2107 64.1476 14.784 64.1826 13.513Z" fill="#A57565"/>
<path d="M76.4646 23.5085C75.8397 23.5136 74.9634 23.6118 74.3923 23.341C74.1156 23.2098 74.0943 23.1819 73.9999 22.909C74.0938 22.7928 74.096 22.7742 74.2436 22.682C74.8975 22.2738 75.9083 22.4644 76.5918 22.6619L76.4646 23.5085Z" fill="#1B1D27"/>
<path d="M66.9063 21.3968C67.956 21.3255 69.1705 21.4374 70.1398 21.8806C70.4993 22.0448 70.6808 22.1959 70.8046 22.5691L70.6293 22.8962C69.7676 22.6387 67.2642 22.261 66.7523 21.7038L66.9063 21.3968Z" fill="#1B1D27"/>
<path d="M56.2108 20.2055C56.8518 19.4953 57.4114 18.834 58.4381 18.7542C58.818 18.7247 59.1688 18.8433 59.4511 19.0942C60.1559 19.7208 60.3622 20.861 60.3658 21.7554C60.3748 23.9556 59.8899 26.276 59.2887 28.3843C59.24 27.7958 59.2571 24.261 59.1435 23.9951C59.1152 23.9294 58.9108 23.7039 58.8701 23.6745C58.6358 23.5046 58.4565 23.4906 58.1835 23.5169L58.0834 23.6774C58.272 23.9943 58.5143 24.1765 58.7981 24.4011C58.9718 28.267 57.5804 33.8198 60.6745 36.7407C62.7179 38.6699 64.7645 38.3706 66.0351 39.3407C66.1877 39.4572 66.2064 39.6807 66.2247 39.8496C66.2802 40.3641 66.0672 40.8638 65.7186 41.2348C64.614 42.4106 62.7761 42.8261 61.217 42.8307C60.292 42.8335 59.2598 42.7989 58.4081 42.4113C55.3755 41.207 52.9807 39.2888 51.3059 36.4888C50.2899 34.7902 49.4144 32.9065 49.9128 30.9037C50.8879 30.6732 51.9409 30.7628 52.9274 30.5406C57.9302 29.4133 55.0543 22.0358 56.2108 20.2055Z" fill="#A57565"/>
<path d="M69.4883 30.7956C69.813 30.7756 70.1395 30.7559 70.465 30.7665C71.0266 30.7846 71.6899 30.9293 72.0458 31.4124C72.2535 31.6944 72.3357 31.9803 72.2641 32.3279C72.1167 33.0434 71.4046 33.5093 70.8376 33.8806C70.098 33.9485 69.4419 33.847 68.7138 33.7307C68.4603 33.4702 68.1336 33.1643 67.9887 32.8285C67.8174 32.4315 67.8146 32.0261 68.0138 31.6376C68.3105 31.0588 68.9152 30.948 69.4883 30.7956Z" fill="#A57565"/>
<path d="M33.1172 70.5305C34.8745 72.4528 35.9238 74.1413 38.2457 75.5582C40.3879 76.8653 43.1882 77.5185 45.5698 78.3029L55.0704 81.4485C57.2247 82.1589 59.4461 83.1946 61.6716 83.61C62.4311 82.5398 62.2355 81.0213 63.0252 80.0715C63.2424 79.8109 63.448 79.7726 63.7663 79.7382L63.9898 79.9485C63.7062 80.8771 62.8796 82.8203 63.4322 83.7277C63.6925 84.1563 64.1935 84.2634 64.6523 84.3111C65.5662 84.4076 66.4923 84.3798 67.4089 84.4552C68.2875 84.5267 69.1879 84.7132 70.062 84.7502C70.9063 84.7859 72.0599 84.5928 72.8514 84.815L72.0706 84.991C69.6323 84.9804 67.19 85.2608 64.7523 85.3653C61.9613 85.4857 59.1002 85.4434 56.3222 85.6801C56.008 85.7079 55.8196 85.7807 55.5647 85.9619C55.4991 86.0439 55.4565 86.1524 55.3678 86.2093C55.0194 86.4355 48.8366 87.7305 48.0242 87.835C47.9718 87.8416 47.9189 87.8442 47.8663 87.8495L47.8124 87.454C48.0189 86.9447 48.451 86.6379 48.8535 86.2833C47.5079 85.0822 45.9081 84.0743 44.4395 83.0253C39.7179 79.6548 35.5146 75.9482 33.1172 70.5305Z" fill="#0C2827"/>
<path d="M69.6479 78.0064C72.0459 78.144 74.3437 78.8398 76.6992 79.0038C78.2388 79.7975 81.2551 81.1415 82.3596 82.3478C82.2509 82.75 82.0295 83.2804 82.0759 83.6918C81.9539 84.0278 81.8545 84.3638 81.6397 84.6548C78.4814 84.5172 75.2362 85.2249 72.0716 84.9908L72.8524 84.8148C72.0608 84.5926 70.9073 84.7857 70.063 84.75C69.1889 84.713 68.2884 84.5265 67.4099 84.455C66.4933 84.3796 65.5672 84.4074 64.6533 84.3109C64.1945 84.2632 63.6935 84.1561 63.4332 83.7275C62.8806 82.8201 63.7071 80.8769 63.9907 79.9483C66.2062 76.6949 68.0369 79.0501 69.6479 78.0064Z" fill="#A57565"/>
<path d="M81.6389 84.655C81.3035 84.524 81.0622 84.2145 80.9097 83.8944C80.7638 83.5901 80.8155 83.4222 80.9335 83.1258L81.2451 83.0663C81.6137 83.2383 81.7967 83.397 82.0751 83.692C81.9531 84.028 81.8537 84.364 81.6389 84.655Z" fill="#1B1D27"/>
<path d="M72.261 70.6049C73.7107 73.446 75.0182 76.2835 76.6978 79.0041C74.3424 78.8401 72.0445 78.1443 69.6465 78.0067C70.7039 75.6092 71.5779 73.1346 72.261 70.6049Z" fill="#66AA68"/>
<path d="M45.6067 42.0756L45.9041 42.2342C46.3057 42.9944 46.8478 43.61 47.3168 44.3222C48.1622 45.6063 48.7976 47.0943 49.2175 48.5692C50.5726 53.329 49.3417 60.5232 51.9661 64.5659C54.5443 68.5373 60.3364 68.1356 62.8942 72.0875C63.9533 73.7236 64.1507 75.6227 63.7441 77.4865C62.278 76.8348 60.7098 76.3914 59.22 75.791C56.2772 74.6051 53.0274 72.8985 50.5028 70.9816C49.2974 70.0664 48.1419 69.1065 47.4076 67.7598C44.6993 62.7923 45.9384 55.3938 46.0389 49.9037C46.0875 47.2552 45.9734 44.7008 45.6067 42.0756Z" fill="#0C2827"/>
<path d="M87.3476 63.8875C87.5797 62.1255 89.2781 56.4531 90.6319 55.4437C91.2974 54.9467 92.7307 55.0647 93.5329 55.075C96.3252 55.1109 99.0724 55.4979 101.853 55.6843C106.46 55.9932 111.052 56.2216 115.656 56.6089C117.696 56.7804 120.42 56.6609 122.323 57.0117C122.863 57.1111 123.605 57.328 123.913 57.8289C124.353 58.5437 123.96 59.7249 123.734 60.4822C123.059 62.7275 122.16 64.9247 121.38 67.137L117.289 79.0781C116.732 80.7263 115.672 82.8415 115.611 84.573C115.137 85.1881 114.62 85.6854 113.963 86.1048C113.417 86.0929 112.872 86.0757 112.326 86.0532C110.016 86.0413 107.705 86.0545 105.396 86.0929L105.413 86.2688C101.588 87.0347 97.8486 87.9408 93.9824 88.4964C93.102 87.5995 91.7748 86.8429 90.7631 86.077C89.424 85.8945 88.1644 85.4288 86.7934 85.405C85.1706 85.3773 83.5013 85.7807 81.8731 85.868C76.7791 86.1392 71.6543 86.2225 66.555 86.3905C64.2307 86.4672 57.812 87.0162 56.0052 86.5638C55.7543 86.5016 55.679 86.1828 55.5658 85.9619C55.8206 85.7807 56.009 85.7079 56.3233 85.6802C59.1013 85.4434 61.9624 85.4857 64.7533 85.3653C67.1911 85.2608 69.6334 84.9804 72.0717 84.991C75.2363 85.2251 78.4815 84.5174 81.6397 84.655C81.8545 84.364 81.954 84.028 82.076 83.692C82.0295 83.2806 82.251 82.7502 82.3597 82.3481C83.1937 80.3282 83.6312 77.9908 84.1868 75.875L87.3476 63.8875Z" fill="#0A302F"/>
<path d="M90.7622 86.0766C95.6282 86.0316 100.531 85.9033 105.395 86.0925L105.412 86.2684C101.587 87.0343 97.8477 87.9404 93.9814 88.496C93.1011 87.5991 91.7739 86.8425 90.7622 86.0766Z" fill="#0C2827"/>
<path d="M41.3534 107.173C45.2357 107.211 49.109 107.924 53.0103 107.998C55.1339 108.039 57.3064 108.001 59.4231 107.808C61.0168 107.662 62.6742 107.334 64.2688 107.367C64.8228 107.379 65.3818 107.444 65.8673 107.722C65.9182 108.519 65.8648 109.441 65.3218 110.081C64.4271 111.137 62.6095 110.904 61.3836 111.133C61.9655 113.404 63.1034 115.608 63.9622 117.796C64.8209 119.985 65.5392 122.321 66.5169 124.448C65.7897 124.714 65.061 124.82 64.2993 124.934L64.7326 125.017C64.9139 125.37 64.9766 125.739 65.1112 126.11C65.4314 126.993 65.8624 127.868 66.25 128.724C67.7884 132.123 69.4504 135.471 70.9688 138.879C71.9242 141.023 72.6972 143.256 73.7592 145.354C73.388 145.774 73.3612 145.934 72.7928 145.977C70.6683 146.137 68.4487 145.974 66.3148 145.989C61.5158 146.02 56.7441 146.083 51.9469 146.225C50.0065 146.284 47.9845 146.122 46.0644 146.438C46.034 145.331 46.2151 144.221 46.1617 143.116C46.1077 141.999 45.9071 140.877 45.7904 139.766L44.9534 131.564C44.6897 128.91 44.5954 126.239 44.3745 123.582C44.2036 121.526 43.9074 119.481 43.6608 117.434C43.4353 115.562 43.5821 113.627 43.1991 111.783C42.3979 111.321 42.0572 108.785 41.6389 107.847C41.5393 107.624 41.447 107.399 41.3534 107.173Z" fill="#66AA68"/>
<path d="M41.3534 107.173C45.2357 107.211 49.109 107.924 53.0103 107.998C55.1339 108.039 57.3064 108.001 59.4231 107.808C61.0168 107.662 62.6742 107.334 64.2688 107.367C64.8228 107.379 65.3818 107.444 65.8673 107.722C65.9182 108.519 65.8648 109.441 65.3218 110.081C64.4271 111.137 62.6095 110.904 61.3836 111.133C61.9655 113.404 63.1034 115.608 63.9622 117.796C64.8209 119.985 65.5392 122.321 66.5169 124.448C65.7897 124.714 65.061 124.82 64.2993 124.934C63.9636 124.899 63.8113 124.85 63.6059 124.574C63.0259 123.794 62.6792 122.594 62.3159 121.69C61.3446 119.275 59.2334 113.455 57.7659 111.719C55.9521 111.682 54.1412 111.858 52.3305 111.937C50.6373 112.011 48.9344 111.998 47.2398 111.999C45.9061 112.001 44.5065 112.072 43.1991 111.783C42.3979 111.321 42.0572 108.785 41.6389 107.847C41.5393 107.624 41.447 107.399 41.3534 107.173Z" fill="#126839"/>
<path d="M94.5586 103.717C95.7585 103.355 101.946 101.699 102.807 102.069C102.84 102.082 102.868 102.106 102.898 102.126C103.168 103.715 101.909 109.171 101.62 111.126C101.27 113.483 100.996 115.882 100.847 118.259C100.611 122.021 100.472 125.902 100.582 129.665C100.656 132.221 100.724 134.763 100.737 137.322C100.744 138.47 100.831 139.683 100.705 140.824C100.358 140.889 100.338 140.909 100.09 141.163C100.008 141.476 99.9456 141.745 99.9284 142.07C98.5588 143.461 97.9939 144.688 97.4941 146.547L97.3734 146.724C95.9587 146.835 92.1031 146.936 90.8766 146.514C90.748 145.781 89.6542 144.802 89.0946 144.327C88.6611 143.957 88.3654 143.721 87.7674 143.766C87.5858 143.708 87.6561 143.746 87.5009 143.633C87.135 143.367 86.7982 143.167 86.3859 142.979C86.4654 142.863 86.5463 142.746 86.6219 142.627C87.3339 141.48 87.7449 136.724 88.083 135.005C89.3611 128.625 90.6764 122.254 92.0288 115.888C92.8403 112.207 93.8174 108.54 94.5241 104.839C94.6023 104.424 94.6514 104.133 94.5586 103.717Z" fill="#66AA68"/>
<path d="M96.3694 94.2612C99.5475 94.2652 107.401 93.613 109.928 94.3313C111.227 95.7163 111.565 97.5483 111.507 99.395C111.457 100.965 111.026 102.47 110.548 103.957C109.087 108.51 106.852 112.935 105.832 117.604C105.186 120.56 104.917 123.72 104.616 126.73C104.468 128.223 104.388 129.746 104.081 131.213C103.443 131.174 102.813 131.141 102.183 131.032C103.041 131.388 103.642 131.66 104.264 132.379C104.14 133.347 103.996 134.326 103.951 135.302C103.907 136.211 104.067 137.421 103.851 138.289C103.786 138.544 103.696 138.707 103.485 138.874C103.361 138.97 103.175 139.038 103.032 139.104C102.832 139.198 102.918 139.153 102.699 139.314L102.865 139.37C103.219 139.489 103.521 139.564 103.786 139.841C103.992 140.519 103.834 141.237 103.757 141.929C102.824 141.875 101.401 141.473 100.705 140.825C100.831 139.683 100.743 138.47 100.737 137.322C100.724 134.764 100.656 132.221 100.582 129.666C100.472 125.902 100.611 122.021 100.847 118.259C100.995 115.882 101.27 113.484 101.62 111.127C101.909 109.172 103.167 103.715 102.898 102.127C102.868 102.107 102.84 102.083 102.807 102.07C101.946 101.699 95.7582 103.355 94.5582 103.718C94.3647 103.341 94.3739 103.025 94.4402 102.616C94.6391 101.4 95.0966 100.179 95.4081 98.9849C95.8139 97.4332 96.0923 95.8393 96.3694 94.2612Z" fill="#126839"/>
<path d="M65.8675 107.722L66.0222 107.542L66.238 107.527C68.9599 107.337 71.6417 106.468 74.3773 106.431C74.3624 110.773 73.9429 115.104 73.9771 119.454C74.018 124.656 74.6507 129.983 75.1431 135.166C75.3812 137.671 75.46 140.732 76.0881 143.139C76.1741 143.469 76.2857 143.673 76.4935 143.936C76.5329 143.985 76.5707 144.036 76.6098 144.087C76.7526 144.269 76.8889 144.44 77.0613 144.596L77.048 144.764C76.3539 145.228 76.0182 145.692 75.6204 146.412C76.0169 147.015 75.9888 147.4 75.8433 148.095C75.7399 148.567 75.6304 149.038 75.5146 149.506C75.4096 148.181 74.2481 146.621 73.7594 145.354C72.6974 143.256 71.9244 141.023 70.969 138.879C69.4506 135.471 67.7886 132.123 66.2502 128.724C65.8626 127.868 65.4316 126.993 65.1114 126.11C64.9768 125.739 64.9141 125.37 64.7328 125.017L64.2995 124.934C65.0613 124.82 65.79 124.714 66.5171 124.448C65.5394 122.321 64.8211 119.985 63.9624 117.796C63.1036 115.608 61.9657 113.404 61.3838 111.133C62.6097 110.904 64.4273 111.137 65.322 110.082C65.865 109.441 65.9184 108.519 65.8675 107.722Z" fill="#66AA68"/>
<path d="M66.5165 124.449C68.3059 127.909 69.6013 131.739 71.0056 135.371C71.6627 137.072 72.4518 138.719 73.155 140.399C73.9909 142.398 74.756 144.425 75.6198 146.412C76.0163 147.015 75.9882 147.4 75.8427 148.095C75.7393 148.567 75.6298 149.038 75.514 149.506C75.409 148.181 74.2475 146.621 73.7588 145.354C72.6968 143.256 71.9238 141.023 70.9684 138.879C69.45 135.471 67.788 132.123 66.2496 128.724C65.862 127.868 65.431 126.994 65.1108 126.11C64.9762 125.74 64.9135 125.371 64.7322 125.017L64.299 124.934C65.0607 124.82 65.7894 124.714 66.5165 124.449Z" fill="url(#paint0_linear_402_4275)"/>
<path d="M105.394 86.0931C107.704 86.0547 110.015 86.0415 112.325 86.0534C111.074 87.2492 107.896 90.2228 107.85 92.0575C107.834 92.6885 108.624 93.1713 108.497 93.6912C106.609 94.0735 104.47 93.8856 102.544 93.8777L96.3199 93.8896C95.8042 91.994 95.2022 90.072 93.9811 88.4966C97.8473 87.941 101.586 87.0349 105.411 86.269L105.394 86.0931Z" fill="#126839"/>
<path d="M77.8963 97.9368C77.9427 98.0108 78.0143 98.0743 78.0355 98.159C78.1283 98.5241 77.4588 104.368 77.3858 105.281C76.8674 111.374 76.6793 117.49 76.8223 123.604C76.8687 125.34 77.6218 130.77 77.4667 131.825L77.3765 131.754C77.1458 130.991 77.11 130.165 77.0013 129.377C75.9557 121.845 76.4049 114.122 77.0199 106.569C77.2546 103.695 77.4415 100.787 77.8963 97.9368Z" fill="#79B09E"/>
<defs>
<linearGradient id="paint0_linear_402_4275" x1="76.6685" y1="137.112" x2="63.9933" y2="135.829" gradientUnits="userSpaceOnUse">
<stop stop-color="#107033"/>
<stop offset="1" stop-color="#359C55"/>
</linearGradient>
</defs>
</svg>
