<svg width="36" height="22" viewBox="0 0 36 22" fill="none" xmlns="http://www.w3.org/2000/svg">
<rect x="0.811279" y="0.617676" width="34.852" height="21.1224" rx="3.16837" fill="#07270B"/>
<rect x="1.33934" y="1.14574" width="33.7959" height="20.0663" rx="2.64031" stroke="#2FC22B" stroke-opacity="0.15" stroke-width="1.05612"/>
<g clip-path="url(#clip0_446_5088)">
<path d="M15.5925 7.1626H20.7275V16.4518H15.5925V7.1626Z" fill="#FF5F00"/>
<path d="M15.92 11.8068C15.92 9.91941 16.8003 8.24535 18.1533 7.16213C17.159 6.37437 15.9038 5.89844 14.5344 5.89844C11.2903 5.89844 8.66577 8.54074 8.66577 11.8068C8.66577 15.0728 11.2903 17.7151 14.5344 17.7151C15.9037 17.7151 17.1589 17.2392 18.1533 16.4513C16.8003 15.3846 15.92 13.6941 15.92 11.8068Z" fill="#EB001B"/>
<path d="M27.6584 11.8068C27.6584 15.0727 25.0339 17.7151 21.7898 17.7151C20.4205 17.7151 19.1653 17.2392 18.1709 16.4513C19.5402 15.3682 20.4042 13.6941 20.4042 11.8068C20.4042 9.91941 19.5239 8.24535 18.1709 7.16213C19.1652 6.37437 20.4205 5.89844 21.7898 5.89844C25.0339 5.89844 27.6584 8.55718 27.6584 11.8068Z" fill="#F79E1B"/>
</g>
<defs>
<clipPath id="clip0_446_5088">
<rect width="19.139" height="14.8776" fill="white" transform="translate(8.66772 5.89844)"/>
</clipPath>
</defs>
</svg>
