<svg width="36" height="22" viewBox="0 0 36 22" fill="none" xmlns="http://www.w3.org/2000/svg">
<rect x="0.545898" y="0.617676" width="34.852" height="21.1224" rx="3.16837" fill="#07270B"/>
<rect x="1.07396" y="1.14574" width="33.7959" height="20.0663" rx="2.64031" stroke="#2FC22B" stroke-opacity="0.15" stroke-width="1.05612"/>
<path d="M18.4194 9.65546C18.4045 10.8325 19.464 11.4893 20.2621 11.8799C21.082 12.2805 21.3575 12.5375 21.3542 12.8959C21.3481 13.4442 20.7002 13.6863 20.0938 13.6957C19.036 13.7121 18.4209 13.4089 17.932 13.1795L17.5509 14.9701C18.0415 15.1971 18.9499 15.3951 19.8919 15.4038C22.1031 15.4038 23.5498 14.3077 23.5576 12.6082C23.5663 10.4514 20.5868 10.332 20.6071 9.36794C20.6141 9.07562 20.8919 8.76367 21.5006 8.68436C21.8019 8.64429 22.6335 8.61363 23.5764 9.04966L23.9465 7.31718C23.4394 7.13177 22.7877 6.95423 21.9763 6.95423C19.895 6.95423 18.4312 8.06526 18.4194 9.65546ZM27.5026 7.10346C27.0989 7.10346 26.7586 7.33998 26.6067 7.70293L23.4481 15.2766H25.6577L26.0974 14.0563H28.7975L29.0526 15.2766H31.0001L29.3006 7.10346H27.5026ZM27.8117 9.31132L28.4494 12.3804H26.703L27.8117 9.31132ZM15.7404 7.10356L13.9986 15.2765H16.1042L17.8451 7.10336L15.7404 7.10356ZM12.6255 7.10356L10.4339 12.6664L9.54736 7.93638C9.44334 7.40835 9.03254 7.10346 8.57635 7.10346H4.99378L4.9436 7.34079C5.67909 7.50106 6.51473 7.75955 7.021 8.03613C7.33083 8.20509 7.41917 8.35278 7.52096 8.75427L9.20008 15.2766H11.4252L14.8365 7.10346L12.6255 7.10356Z" fill="#0056A1"/>
</svg>
