<svg width="116" height="117" viewBox="0 0 116 117" fill="none" xmlns="http://www.w3.org/2000/svg">
<path d="M49.8083 85.1418L90.6396 44.3106L82.5312 36.2022L49.8083 68.9252L33.3021 52.4189L25.1938 60.5272L49.8083 85.1418ZM57.9167 116.417C49.9049 116.417 42.3757 114.896 35.3292 111.853C28.2826 108.81 22.1531 104.685 16.9406 99.4762C11.7281 94.2676 7.60254 88.138 4.56384 81.0877C1.52515 74.0373 0.00386844 66.5081 7.33122e-06 58.5002C-0.00385378 50.4922 1.51742 42.9631 4.56384 35.9127C7.61026 28.8623 11.7359 22.7328 16.9406 17.5241C22.1454 12.3155 28.2749 8.18989 35.3292 5.14733C42.3834 2.10477 49.9126 0.583496 57.9167 0.583496C65.9208 0.583496 73.4499 2.10477 80.5042 5.14733C87.5584 8.18989 93.6879 12.3155 98.8927 17.5241C104.097 22.7328 108.225 28.8623 111.275 35.9127C114.326 42.9631 115.845 50.4922 115.833 58.5002C115.822 66.5081 114.3 74.0373 111.27 81.0877C108.239 88.138 104.113 94.2676 98.8927 99.4762C93.6725 104.685 87.543 108.812 80.5042 111.859C73.4654 114.905 65.9362 116.425 57.9167 116.417Z" fill="#2FC22B"/>
</svg>
