<svg width="13" height="14" viewBox="0 0 13 14" fill="none" xmlns="http://www.w3.org/2000/svg">
<path d="M5.95837 10.1812H7.04171V6.93115H5.95837V10.1812ZM6.50004 5.84782C6.65351 5.84782 6.78225 5.79582 6.88625 5.69182C6.99025 5.58782 7.04207 5.45926 7.04171 5.30615C7.04135 5.15304 6.98935 5.02449 6.88571 4.92049C6.78207 4.81649 6.65351 4.76449 6.50004 4.76449C6.34657 4.76449 6.21801 4.81649 6.11437 4.92049C6.01074 5.02449 5.95874 5.15304 5.95837 5.30615C5.95801 5.45926 6.01001 5.588 6.11437 5.69236C6.21874 5.79672 6.34729 5.84854 6.50004 5.84782ZM6.50004 12.8895C5.75074 12.8895 5.04657 12.7472 4.38754 12.4627C3.72851 12.1781 3.15525 11.7923 2.66775 11.3051C2.18025 10.818 1.7944 10.2447 1.51021 9.58532C1.22601 8.92593 1.08374 8.22176 1.08337 7.47282C1.08301 6.72387 1.22529 6.01971 1.51021 5.36032C1.79512 4.70093 2.18097 4.12767 2.66775 3.64053C3.15453 3.15339 3.72779 2.76754 4.38754 2.48299C5.04729 2.19843 5.75146 2.05615 6.50004 2.05615C7.24862 2.05615 7.95279 2.19843 8.61254 2.48299C9.27229 2.76754 9.84556 3.15339 10.3323 3.64053C10.8191 4.12767 11.2051 4.70093 11.4904 5.36032C11.7757 6.01971 11.9178 6.72387 11.9167 7.47282C11.9156 8.22176 11.7733 8.92593 11.4899 9.58532C11.2064 10.2447 10.8206 10.818 10.3323 11.3051C9.84411 11.7923 9.27085 12.1783 8.61254 12.4632C7.95424 12.7481 7.25007 12.8902 6.50004 12.8895ZM6.50004 11.8062C7.70976 11.8062 8.73442 11.3864 9.574 10.5468C10.4136 9.70719 10.8334 8.68254 10.8334 7.47282C10.8334 6.2631 10.4136 5.23844 9.574 4.39886C8.73442 3.55928 7.70976 3.13949 6.50004 3.13949C5.29032 3.13949 4.26567 3.55928 3.42608 4.39886C2.5865 5.23844 2.16671 6.2631 2.16671 7.47282C2.16671 8.68254 2.5865 9.70719 3.42608 10.5468C4.26567 11.3864 5.29032 11.8062 6.50004 11.8062Z" fill="white" fill-opacity="0.7"/>
</svg>
