<svg width="10" height="10" viewBox="0 0 10 10" fill="none" xmlns="http://www.w3.org/2000/svg">
<path d="M5.00008 7.08317C5.2211 7.08317 5.43306 6.99537 5.58934 6.83909C5.74562 6.68281 5.83341 6.47085 5.83341 6.24984C5.83341 6.02882 5.74562 5.81686 5.58934 5.66058C5.43306 5.5043 5.2211 5.4165 5.00008 5.4165C4.77907 5.4165 4.56711 5.5043 4.41083 5.66058C4.25455 5.81686 4.16675 6.02882 4.16675 6.24984C4.16675 6.47085 4.25455 6.68281 4.41083 6.83909C4.56711 6.99537 4.77907 7.08317 5.00008 7.08317ZM7.50008 3.33317C7.7211 3.33317 7.93306 3.42097 8.08934 3.57725C8.24562 3.73353 8.33341 3.94549 8.33341 4.1665V8.33317C8.33341 8.55418 8.24562 8.76615 8.08934 8.92243C7.93306 9.07871 7.7211 9.1665 7.50008 9.1665H2.50008C2.27907 9.1665 2.06711 9.07871 1.91083 8.92243C1.75455 8.76615 1.66675 8.55418 1.66675 8.33317V4.1665C1.66675 3.94549 1.75455 3.73353 1.91083 3.57725C2.06711 3.42097 2.27907 3.33317 2.50008 3.33317H2.91675V2.49984C2.91675 1.9473 3.13624 1.4174 3.52694 1.0267C3.91764 0.635997 4.44755 0.416504 5.00008 0.416504C5.27367 0.416504 5.54458 0.470391 5.79734 0.575088C6.0501 0.679786 6.27977 0.833243 6.47322 1.0267C6.66668 1.22015 6.82013 1.44982 6.92483 1.70258C7.02953 1.95534 7.08341 2.22625 7.08341 2.49984V3.33317H7.50008ZM5.00008 1.24984C4.66856 1.24984 4.35062 1.38153 4.1162 1.61595C3.88178 1.85037 3.75008 2.16832 3.75008 2.49984V3.33317H6.25008V2.49984C6.25008 2.16832 6.11839 1.85037 5.88397 1.61595C5.64954 1.38153 5.3316 1.24984 5.00008 1.24984Z" fill="white" fill-opacity="0.7"/>
</svg>
