<svg width="39" height="36" viewBox="0 0 39 36" fill="none" xmlns="http://www.w3.org/2000/svg">
<path fill-rule="evenodd" clip-rule="evenodd" d="M12.5617 23.4071H16.9767L20.6827 26.0963V27.7765C20.6827 29.4112 19.3533 30.7403 17.7186 30.7403H14.6196C14.5615 30.7403 14.5105 30.7594 14.466 30.7903L7.60365 35.7702C6.81644 36.3414 5.72071 35.7842 5.72071 34.8111V30.9999C5.72071 30.8566 5.60348 30.7403 5.46029 30.7403H2.96084C1.3262 30.7403 -0.0032959 29.4112 -0.0032959 27.7765V18.1052C-0.0032959 16.4704 1.32594 15.1406 2.96084 15.1406H7.62234V18.4666C7.62242 21.1906 9.83733 23.4071 12.5617 23.4071Z" fill="#D7D7D7"/>
<path fill-rule="evenodd" clip-rule="evenodd" d="M8.13916 4.42211V18.4653C8.13916 20.9031 10.124 22.8874 12.5616 22.8874H17.0623C17.1183 22.8874 17.1729 22.9068 17.2188 22.9387L27.1813 30.1688C28.3993 31.0528 30.1012 30.1848 30.1012 28.6802V23.1466C30.1012 23.0056 30.216 22.8874 30.3576 22.8874H33.9873C36.427 22.8874 38.4098 20.905 38.4098 18.4653V4.42211C38.4098 1.98261 36.4269 0 33.9873 0H12.5615C10.1242 0 8.13916 1.98451 8.13916 4.42211ZM19.5647 8.53924V8.53639L22.3779 5.72712C22.6197 5.48349 22.9848 5.8543 22.745 6.09403L20.3309 8.50766H27.8906C30.0837 8.50766 31.8657 10.2914 31.8657 12.484C31.8657 14.677 30.0838 16.4608 27.8906 16.4608H14.9437C14.6008 16.4608 14.6008 15.9416 14.9437 15.9416H27.8907C29.797 15.9416 31.3491 14.3906 31.3491 12.484C31.3491 10.5776 29.7968 9.02685 27.8907 9.02685H20.331L22.7451 11.4409C22.985 11.6808 22.6192 12.0509 22.3791 11.809L19.5688 9.00176C19.5688 8.98826 19.4913 8.93843 19.4632 8.86844C19.4013 8.7147 19.4774 8.62567 19.5647 8.53924Z" fill="#2FC22B"/>
</svg>
