<svg width="29" height="29" viewBox="0 0 29 29" fill="none" xmlns="http://www.w3.org/2000/svg">
<path d="M25.2624 9.52129H23.3309C23.4982 9.06437 23.5896 8.5708 23.5896 8.05594C23.5896 5.70269 21.6819 3.79503 19.3287 3.79503C18.1606 3.79503 17.1027 4.26538 16.333 5.02657C15.7783 2.16282 13.2587 0 10.2329 0C6.80044 0 4.01797 2.78253 4.01797 6.21489V9.52129H3.7376C1.67339 9.52129 0 11.1947 0 13.2589C0 15.2038 1.48563 16.801 3.38382 16.9793V14.2755C3.38382 12.8701 4.52723 11.7267 5.93265 11.7267H13.2882C14.2761 11.7267 15.1621 12.2935 15.583 13.1659L23.0673 13.166C24.4727 13.166 25.6161 14.3094 25.6161 15.7148V16.9793C27.5144 16.8011 29 15.2038 29 13.2589C29 11.1947 27.3266 9.52129 25.2624 9.52129Z" fill="#2FC22B"/>
<path d="M23.9169 16.9696V15.7147C23.9169 15.2455 23.5365 14.8651 23.0673 14.8651L14.3819 14.865L14.0937 14.0054C13.9777 13.6591 13.6534 13.4258 13.2882 13.4258H5.93262C5.46341 13.4258 5.08301 13.8062 5.08301 14.2754V14.865V16.9695L23.9169 16.9696Z" fill="#2FC22B"/>
<path d="M5.08301 18.6689V28.1182C5.08301 28.6052 5.46341 29 5.93262 29L23.0673 29.0001C23.5365 29.0001 23.9169 28.6053 23.9169 28.1183V18.669L5.08301 18.6689ZM16.9247 24.5787C16.7628 24.7229 16.5611 24.7938 16.36 24.7938C16.1261 24.7938 15.8931 24.6978 15.7252 24.5093L15.3496 24.0874V26.1542C15.3496 26.6234 14.9692 27.0038 14.5 27.0038C14.0308 27.0038 13.6504 26.6234 13.6504 26.1542V24.0874L13.2747 24.5093C12.9626 24.8597 12.4256 24.8908 12.0751 24.5788C11.7247 24.2667 11.6936 23.7297 12.0056 23.3792L13.8654 21.2908C14.0266 21.1098 14.2575 21.0062 14.4999 21.0062C14.7423 21.0062 14.9732 21.1098 15.1344 21.2908L16.9942 23.3792C17.3063 23.7296 17.2752 24.2667 16.9247 24.5787Z" fill="#2FC22B"/>
</svg>
