<svg width="48" height="48" viewBox="0 0 48 48" fill="none" xmlns="http://www.w3.org/2000/svg">
<circle cx="24" cy="24" r="24" fill="black"/>
<circle cx="24" cy="24.0002" r="20.6897" fill="#2FC22B"/>
<path fill-rule="evenodd" clip-rule="evenodd" d="M29.7471 16.2395C29.952 16.2227 30.1552 16.2878 30.3121 16.4207C30.469 16.5536 30.5667 16.7434 30.5838 16.9483L31.4371 27.144C31.4474 27.2465 31.4372 27.35 31.4071 27.4485C31.377 27.5471 31.3276 27.6386 31.2617 27.7178C31.1958 27.797 31.1149 27.8623 31.0235 27.9099C30.9321 27.9575 30.8322 27.9864 30.7295 27.9949C30.6268 28.0035 30.5235 27.9915 30.4255 27.9597C30.3275 27.9279 30.2369 27.8768 30.1588 27.8096C30.0807 27.7424 30.0169 27.6603 29.9709 27.5681C29.9249 27.4759 29.8977 27.3755 29.891 27.2727L29.1935 18.9431L18.3765 31.7297C18.2437 31.8869 18.0539 31.9848 17.8489 32.0021C17.6438 32.0193 17.4403 31.9544 17.2831 31.8216C17.1259 31.6888 17.028 31.499 17.0107 31.294C16.9935 31.0889 17.0584 30.8854 17.1912 30.7283L28.0117 17.9392L19.6764 18.6209C19.5738 18.6312 19.4703 18.6209 19.3718 18.5907C19.2733 18.5605 19.1818 18.5109 19.1027 18.445C19.0235 18.379 18.9583 18.298 18.9108 18.2066C18.8633 18.1152 18.8345 18.0152 18.8261 17.9125C18.8176 17.8098 18.8297 17.7065 18.8616 17.6086C18.8935 17.5106 18.9446 17.42 19.0119 17.342C19.0792 17.264 19.1614 17.2002 19.2536 17.1543C19.3459 17.1084 19.4463 17.0813 19.5491 17.0747L29.7471 16.2395Z" fill="white"/>
</svg>
