<svg width="148" height="194" viewBox="0 0 148 194" fill="none" xmlns="http://www.w3.org/2000/svg">
<path d="M82.8849 66.811C84.4297 67.2211 86.0291 68.6483 87.4434 69.4547C89.3731 70.5544 91.368 71.4643 93.2724 72.6165C95.0356 71.7447 95.9891 71.5617 97.8828 72.1974C99.1373 72.6182 104.909 74.7847 105.382 75.7596C105.558 76.1203 105.576 76.5653 105.428 76.9358C105.297 77.2678 104.934 77.6036 104.697 77.8694C98.1425 87.3556 100.682 110.991 102.035 122.099C102.496 125.887 102.929 129.666 103.62 133.422C104.157 136.34 104.84 139.21 105.852 142.004C106.475 143.725 107.249 145.388 107.863 147.111C108.24 148.172 108.661 150.147 109.257 151.032C109.773 154.043 109.533 158.163 109.561 161.302C109.573 162.775 109.738 164.323 109.633 165.784L109.687 166.471C109.784 168.642 110.188 184.858 110.505 185.766C110.54 185.866 110.634 185.933 110.698 186.017L110.498 186.166C110.292 188.409 110.635 190.912 110.737 193.176C110.927 198.334 110.999 203.537 111.444 208.678C111.811 214.033 111.689 219.525 112.315 224.848C111.273 225.076 110.077 225.22 109.089 225.601C107.241 225.852 105.43 226.328 103.583 226.587C100.303 227.048 96.9573 227.227 93.6533 227.456L93.323 227.52C92.2416 227.431 91.0964 227.514 90.0097 227.522C87.775 227.553 85.5404 227.556 83.3071 227.529C78.9949 227.693 74.6775 228.494 70.3749 228.878L69.3516 229.064C67.0616 229.302 64.6404 229.757 62.3475 229.786C62.1471 230.171 61.9597 230.565 61.7079 230.92C61.1029 231.204 60.5112 231.495 59.8717 231.695C59.5374 232.185 59.1274 232.803 58.4928 232.905C58.1117 232.966 57.5845 232.86 57.2264 233.008C56.7043 233.22 56.3473 234.165 55.7418 234.197C55.559 234.207 55.2855 233.998 55.09 233.991C54.6154 233.974 53.8724 234.346 53.3549 234.417C51.5059 234.672 48.8779 234.11 47.4363 232.892C46.9603 232.491 46.5539 231.996 46.1633 231.514C45.9711 231.212 45.7945 230.901 45.6342 230.581C43.6838 226.714 43.5873 221.992 44.9283 217.944C41.7794 215.32 38.4613 212.906 35.3085 210.284C27.8933 204.117 20.9083 197.742 14.0941 190.925C13.9387 190.438 13.042 189.628 12.6984 189.211C12.1872 188.611 11.7468 188.085 10.9902 187.81L10.9192 187.449C10.457 186.43 9.20038 185.422 8.47578 184.536C5.2 180.538 1.81288 176.257 0.516045 171.17C0.124383 169.633 -0.106938 167.929 0.0492733 166.344C0.247568 164.33 0.727924 162.263 1.11612 160.274C2.05473 155.464 3.17777 150.703 4.1779 145.909C4.49552 144.385 6.10931 135.535 6.50922 134.856C6.20319 134.262 6.18308 133.933 6.28363 133.278C6.49644 131.89 6.89196 130.515 7.18934 129.143C7.64719 127.031 8.00662 124.891 8.53944 122.797C9.47192 119.131 10.6461 115.521 11.7505 111.905C13.9288 104.772 18.2584 89.9852 22.9444 84.4361C25.3134 81.6306 31.8175 77.981 35.2154 76.1883C40.0833 73.62 45.3816 72.0856 50.3642 69.781C51.3622 69.3194 52.546 68.8798 53.4279 68.2231C54.0228 67.7803 54.5914 67.3027 55.2783 67.01C55.6818 67.152 56.0847 67.2904 56.4934 67.4168C59.0777 67.8568 59.8774 68.6991 62.0914 69.41C66.7537 70.9073 72.6572 71.2637 77.3582 69.745C78.6793 69.3183 79.8046 68.6426 81.0644 68.1106C81.689 67.7013 82.2483 67.2111 82.8849 66.811Z" fill="#A7E3E2"/>
<path d="M6.50922 134.856C10.8059 140.434 15.5063 143.293 22.1657 145.481C23.928 146.06 25.8122 146.476 27.5344 147.145C28.497 147.326 29.4677 147.546 30.436 147.686C30.3472 153.789 30.1983 159.891 29.9891 165.992C29.8878 168.638 29.5965 171.336 29.5875 173.978C29.5858 174.479 29.6287 174.91 29.7946 175.387C29.7715 177.477 29.5921 179.575 29.4361 181.659C30.0844 182.897 30.6912 184.195 31.397 185.398C31.662 185.892 31.9475 186.655 32.3173 187.057C32.6673 187.515 32.9925 188.581 33.3815 188.868C34.0715 190.53 35.4029 192.441 36.3431 194.009C40.3439 200.681 44.722 206.965 49.4772 213.125C49.9935 213.148 50.4962 213.183 51.0001 213.305C52.6896 213.716 58.695 215.929 60.1772 216.761C61.4541 217.479 62.7841 218.628 63.8432 219.636C63.9481 220.029 63.9443 220.237 63.7417 220.595C63.4951 221.034 63.1454 221.4 62.6466 221.539C61.2564 221.93 59.7553 220.695 58.4799 220.287C60.1845 222.225 62.9588 225.375 62.8231 228.098C62.7939 228.683 62.5715 229.252 62.3475 229.786C62.1471 230.171 61.9597 230.565 61.7079 230.92C61.1029 231.204 60.5112 231.495 59.8717 231.695C59.5374 232.185 59.1274 232.803 58.4928 232.905C58.1117 232.966 57.5845 232.86 57.2264 233.008C56.7043 233.22 56.3473 234.165 55.7418 234.197C55.559 234.207 55.2855 233.998 55.09 233.991C54.6154 233.974 53.8724 234.346 53.3549 234.417C51.5059 234.672 48.8779 234.11 47.4363 232.892C46.9603 232.491 46.5539 231.996 46.1633 231.514C45.9711 231.212 45.7945 230.901 45.6342 230.581C43.6838 226.714 43.5873 221.992 44.9283 217.944C41.7794 215.32 38.4613 212.906 35.3085 210.284C27.8933 204.117 20.9083 197.742 14.0941 190.925C13.9387 190.438 13.042 189.628 12.6984 189.211C12.1872 188.611 11.7468 188.085 10.9902 187.81L10.9192 187.449C10.457 186.43 9.20038 185.422 8.47578 184.536C5.2 180.538 1.81288 176.257 0.516045 171.17C0.124383 169.633 -0.106938 167.929 0.0492733 166.344C0.247568 164.33 0.727924 162.263 1.11612 160.274C2.05473 155.464 3.17777 150.703 4.1779 145.909C4.49552 144.385 6.10931 135.535 6.50922 134.856Z" fill="#B1825F"/>
<path d="M27.5344 147.145C28.497 147.326 29.4677 147.546 30.436 147.686C30.3472 153.789 30.1983 159.891 29.9891 165.992C29.8878 168.638 29.5965 171.336 29.5875 173.978C29.5858 174.479 29.6287 174.91 29.7946 175.387C29.7715 177.477 29.5921 179.575 29.4361 181.659C27.2501 178.509 25.7318 174.56 24.0691 171.105C23.3069 169.521 22.2172 167.777 21.7834 166.083L21.5332 165.103C22.3747 163.204 23.3084 161.335 24.1017 159.416C24.5035 155.689 27.5413 151.047 27.5344 147.145Z" fill="#2FC22B"/>
<path d="M21.5332 165.103C20.9591 166.103 19.1148 170.364 18.5182 170.931C18.2425 171.192 18.1204 171.19 17.7652 171.208L17.5695 170.989C17.5608 170.823 17.5495 170.703 17.6037 170.542C17.9492 169.519 18.7383 168.454 19.2233 167.467C20.5499 164.764 21.6334 161.839 23.195 159.268C23.5857 159.149 23.7278 159.274 24.1017 159.416C23.3084 161.335 22.3747 163.204 21.5332 165.103Z" fill="#152C4D"/>
<path d="M76.8348 183.667L78.3184 183.527C78.4675 187.877 79.2199 192.32 79.7646 196.641L81.8528 214.351C82.3761 218.74 83.05 223.11 83.307 227.527C78.9949 227.69 74.6774 228.492 70.3749 228.876L69.3516 229.062C67.0615 229.3 64.6403 229.754 62.3475 229.784C62.5715 229.249 62.7939 228.683 62.8231 228.098C62.9588 225.375 60.1845 222.225 58.4799 220.287C59.7553 220.695 61.2564 221.93 62.6466 221.539C63.1454 221.4 63.4951 221.034 63.7417 220.595C63.9443 220.237 63.9481 220.029 63.8432 219.636C62.7841 218.628 61.4541 217.479 60.1772 216.761C58.695 215.929 52.6896 213.716 51.0001 213.305C50.4962 213.183 49.9935 213.148 49.4772 213.125C44.722 206.965 40.3439 200.681 36.3431 194.009C35.4029 192.441 34.0715 190.53 33.3815 188.868C38.184 188.031 43.1641 187.669 48.0102 187.087L76.8348 183.667Z" fill="#096747"/>
<path d="M71.1446 193.668C71.4748 193.625 71.4935 193.561 71.7918 193.746C71.9756 196.125 72.3245 198.509 72.5988 200.88C73.306 206.691 73.9532 212.507 74.5391 218.331C71.5414 218.61 68.5613 219.037 65.561 219.306C65.2859 219.333 65.4209 219.36 65.1618 219.199C64.7805 218.012 64.53 213.804 64.3457 212.19C63.68 206.357 62.8797 200.517 62.339 194.673C65.2735 194.32 68.2012 193.949 71.1446 193.668Z" fill="#DBF6EC"/>
<path d="M93.2724 72.6165C95.0356 71.7447 95.9891 71.5617 97.8828 72.1974C99.1373 72.6182 104.909 74.7847 105.382 75.7596C105.558 76.1203 105.576 76.5653 105.428 76.9358C105.297 77.2678 104.934 77.6036 104.697 77.8694C98.1425 87.3556 100.682 110.991 102.035 122.099C102.496 125.887 102.929 129.666 103.62 133.422C104.157 136.34 104.84 139.21 105.852 142.004C106.475 143.725 107.249 145.388 107.863 147.111C108.24 148.172 108.661 150.147 109.257 151.032C109.773 154.043 109.533 158.163 109.561 161.302C109.573 162.775 109.738 164.323 109.633 165.784C106.996 164.652 104.58 163.065 102.493 161.098C100.122 158.872 98.0294 155.895 96.667 152.947C95.6869 150.825 95.0237 148.586 94.3551 146.354C91.7183 137.548 90.4399 128.562 89.4717 119.441C88.8764 113.829 88.3757 108.242 88.2332 102.596C88.0654 96.0074 87.9788 83.1093 90.2534 77.2006C90.9539 75.3826 91.938 74.0195 93.2724 72.6165Z" fill="#24433E"/>
<path d="M75.4902 181.878C75.959 181.892 76.2773 181.827 76.6741 182.087C76.8832 182.578 76.7975 183.144 76.8348 183.667L48.0102 187.087C43.1641 187.669 38.184 188.031 33.3815 188.868C32.9925 188.581 32.6673 187.515 32.3173 187.057C36.9997 186.403 41.7117 185.931 46.4061 185.371L75.4902 181.878Z" fill="#DBF6EC"/>
<path d="M75.3968 180.25L75.4902 181.878L46.4061 185.371C41.7117 185.931 36.9997 186.403 32.3173 187.057C31.9475 186.655 31.662 185.892 31.397 185.398C37.557 184.829 43.7039 183.951 49.8432 183.198L75.3968 180.25Z" fill="#096747"/>
<path d="M30.9823 132.969L30.9742 132.777C30.9201 131.301 31.1313 125.198 31.6285 124.092L31.8134 123.939C32.1227 124.063 32.1424 124.155 32.328 124.438C32.4507 126.025 32.1865 127.779 32.0951 129.374C31.9521 132.088 31.8402 134.803 31.7594 137.52L30.9517 166.451C30.9073 167.65 30.8092 174.449 30.4984 175.028C30.2583 175.212 30.0863 175.303 29.7946 175.387C29.6287 174.91 29.5858 174.479 29.5875 173.978C29.5965 171.336 29.8878 168.638 29.9891 165.992C30.1983 159.891 30.3472 153.789 30.436 147.686C30.8004 143.078 30.4791 138.397 30.9085 133.785C31.0336 133.45 31.0043 133.32 30.9823 132.969Z" fill="#152C4D"/>
<path d="M56.4934 67.4168C59.0777 67.8568 59.8774 68.6991 62.0914 69.41C66.7537 70.9073 72.6572 71.2637 77.3582 69.745C78.6793 69.3183 79.8046 68.6426 81.0644 68.1106C81.2349 68.4626 81.283 68.5096 81.2231 68.8897C81.0899 69.0787 80.9767 69.2091 80.7783 69.3348C75.9961 72.3688 68.6736 72.1023 63.4063 70.7883C62.0798 70.4575 58.8839 69.6013 58.1781 68.3313C58.0577 68.1149 57.9805 68.0234 57.7936 67.8644C57.3246 67.7656 56.9306 67.6113 56.4934 67.4168Z" fill="#152C4D"/>
<path d="M30.9085 133.785C30.6084 133.746 30.2254 133.718 29.9643 133.553C28.4358 132.588 28.704 128.395 28.3736 126.698C27.9496 124.517 26.38 121.994 24.5171 120.751C24.1204 120.487 23.7397 120.21 23.4401 119.833C23.2358 119.575 23.1655 119.42 23.1993 119.097L23.4416 118.935C23.6836 118.921 23.7933 118.953 24.0122 119.071C24.7962 119.492 25.7822 120.551 26.4059 121.195C28.6879 123.555 29.3826 125.721 29.6409 128.921C29.7152 129.844 29.747 130.818 29.9833 131.715C30.1435 132.323 30.3137 132.6 30.8682 132.91C30.9059 132.93 30.9442 132.949 30.9823 132.969C31.0043 133.32 31.0336 133.45 30.9085 133.785Z" fill="#113241"/>
<path d="M104.159 183.939C104.335 184.028 104.699 184.143 104.771 184.328C105.188 185.385 103.752 188.565 103.266 189.703C100.83 195.397 97.3357 199.076 91.584 201.388C91.3083 201.24 91.2084 201.139 91.0486 200.87L91.1312 200.57C91.7944 199.949 93.1088 199.663 93.9438 199.213C99.8207 196.039 102.359 190.021 104.159 183.939Z" fill="#152C4D"/>
<path d="M102.608 213.784C102.761 213.798 102.91 213.866 103.055 213.915C103.212 214.225 103.179 214.224 103.076 214.561C100.718 216.843 88.0519 219.452 84.3856 220.331C84.2138 220.323 84.0833 220.27 83.9235 220.217L83.8157 219.902C84.0474 219.382 84.5321 219.264 85.0528 219.108C86.4964 218.672 88.0426 218.461 89.5141 218.118C93.9714 217.08 98.5153 215.872 102.608 213.784Z" fill="#152C4D"/>
<path d="M104.697 77.8694L104.819 77.9377C108.591 80.0452 113.077 81.2545 116.486 83.986C118.511 85.6087 119.846 87.9006 121.401 89.9349C129.392 100.329 136.55 111.334 142.81 122.85C142.348 124.072 141.366 124.968 140.907 126.111C137.266 131.816 132.819 136.975 126.992 140.555C125.599 141.411 121.805 143.14 120.882 143.937C119.145 144.469 117.427 145.179 115.716 145.794C114.115 143.788 111.469 139.893 109.631 138.359C109.843 142.073 111.419 165.412 110.313 166.572C110.187 166.705 110.083 166.664 109.915 166.67L109.687 166.471L109.633 165.784C109.738 164.323 109.573 162.775 109.561 161.302C109.533 158.163 109.773 154.043 109.257 151.032C108.661 150.147 108.24 148.172 107.863 147.111C107.249 145.388 106.475 143.725 105.852 142.004C104.84 139.21 104.157 136.34 103.62 133.422C102.929 129.666 102.496 125.887 102.035 122.099C100.682 110.991 98.1425 87.3556 104.697 77.8694Z" fill="#A7E3E2"/>
<path d="M109.257 151.03C109.313 148.894 109.092 146.789 108.971 144.66C108.813 141.879 108.772 139.081 108.166 136.35C107.41 132.942 106.063 129.494 105.68 126.018C105.608 125.393 105.612 124.762 105.689 124.137C105.772 123.459 106.656 119.015 106.988 118.679C107.125 118.539 107.221 118.607 107.395 118.629C107.968 119.183 107.415 120.991 107.254 121.707C106.973 122.959 106.587 124.267 106.574 125.556C106.55 127.989 108.198 131.584 108.528 134.261C109.068 133.195 109.338 132.198 109.663 131.059C109.794 130.602 109.902 130.241 110.345 129.994L110.626 130.082C111.285 131.143 109.431 134.568 109.262 135.874C109.154 136.713 109.411 137.557 109.631 138.357C109.843 142.07 111.418 165.41 110.313 166.57C110.186 166.703 110.083 166.662 109.915 166.668L109.687 166.469L109.632 165.782C109.738 164.321 109.573 162.773 109.561 161.3C109.533 158.161 109.772 154.04 109.257 151.03Z" fill="#152C4D"/>
<path d="M140.907 126.109C142.309 129.113 143.163 133.181 144.132 136.398C145.975 142.509 148.853 148.942 147.759 155.461C147.439 157.37 146.776 159.221 146.113 161.034C141.982 172.33 136.187 181.637 128.117 190.554C126.318 192.506 124.495 194.439 122.65 196.35C121.585 197.466 120.434 198.579 119.485 199.795C116.681 202.656 114.066 205.652 111.444 208.676C110.999 203.535 110.927 198.332 110.737 193.173C110.635 190.91 110.292 188.407 110.498 186.164L110.698 186.015C110.634 185.931 110.539 185.863 110.505 185.763C110.188 184.856 109.784 168.639 109.687 166.469L109.915 166.668C110.083 166.662 110.186 166.703 110.313 166.57C111.418 165.41 109.843 142.07 109.631 138.357C111.469 139.891 114.115 143.786 115.716 145.792C117.427 145.176 119.145 144.467 120.882 143.935C121.805 143.138 125.599 141.408 126.992 140.553C132.819 136.973 137.266 131.814 140.907 126.109Z" fill="#B1825F"/>
<path d="M109.631 138.357C111.469 139.891 114.115 143.786 115.716 145.792C117.427 145.176 119.145 144.467 120.882 143.935C121.749 145.902 123.078 147.603 124.107 149.479C124.68 150.51 125.145 151.487 125.46 152.629C125.03 155.95 124.938 159.318 124.411 162.626C123.433 164.811 122.165 166.872 121.139 169.042C118.727 174.241 116.45 179.503 114.308 184.82C113.123 185.289 111.919 185.653 110.698 186.015C110.634 185.931 110.539 185.863 110.505 185.763C110.188 184.856 109.784 168.639 109.687 166.469L109.915 166.668C110.083 166.662 110.186 166.703 110.313 166.57C111.418 165.41 109.843 142.07 109.631 138.357Z" fill="#24433E"/>
<path d="M124.411 162.629C124.938 159.321 125.03 155.953 125.46 152.631C126.181 154.105 126.856 155.626 127.997 156.833C127.945 157.156 127.897 157.504 127.764 157.804C127.346 158.752 125.101 161.773 124.411 162.629Z" fill="#2FC22B"/>
<path d="M124.107 149.481C124.424 149.237 124.561 149.042 124.969 149.036C126.355 150.69 126.712 153.786 128.546 155.902C129.242 156.705 132.343 158.727 132.36 158.768C132.398 158.854 132.347 158.957 132.339 159.051L132.147 159.341C131.417 159.486 130.396 158.756 129.794 158.355C129.132 157.913 128.561 157.39 127.997 156.833C126.856 155.626 126.181 154.105 125.46 152.631C125.145 151.49 124.68 150.513 124.107 149.481Z" fill="#152C4D"/>
<path d="M114.308 184.822C113.579 186.437 110.952 191.892 110.737 193.176C110.635 190.912 110.292 188.409 110.498 186.166L110.698 186.017C111.919 185.656 113.123 185.292 114.308 184.822Z" fill="#2FC22B"/>
<path d="M93.6533 227.456C96.9573 227.227 100.303 227.048 103.583 226.587C105.43 226.328 107.241 225.852 109.089 225.601C109.402 229.109 109.583 232.775 109.518 236.296C109.702 236.64 109.813 236.707 109.662 237.086C109.638 237.147 109.603 237.204 109.573 237.264C109.305 239.761 109.429 242.421 109.388 244.938C109.31 249.627 109.204 254.31 109.252 259H71.1338H68.5251H30.411C30.4065 256.303 30.2095 253.577 30.1089 250.88C29.8939 245.123 29.786 239.365 30.2881 233.615C34.3782 233.045 38.5338 232.882 42.6133 232.209C43.0142 232.125 43.4269 232.119 43.835 232.096C44.615 231.998 45.5215 231.999 46.1633 231.514C46.5539 231.996 46.9603 232.491 47.4363 232.892C48.8779 234.11 51.5059 234.672 53.3549 234.417C53.8724 234.346 54.6154 233.974 55.09 233.991C55.2855 233.998 55.559 234.207 55.7418 234.197C56.3473 234.165 56.7043 233.22 57.2264 233.008C57.5845 232.86 58.1117 232.966 58.4928 232.905C59.1274 232.803 59.5374 232.185 59.8717 231.695C60.5112 231.495 61.1029 231.204 61.7079 230.92C61.9597 230.565 62.1471 230.171 62.3475 229.786C64.6404 229.757 67.0616 229.302 69.3516 229.064L70.3749 228.878C74.6775 228.494 78.9949 227.693 83.3071 227.529C85.5404 227.556 87.775 227.553 90.0097 227.522C91.0964 227.514 92.2416 227.431 93.323 227.52L93.6533 227.456Z" fill="#24433E"/>
<path d="M93.6533 227.456C96.9573 227.227 100.303 227.048 103.583 226.587C105.43 226.328 107.241 225.852 109.089 225.601C109.402 229.109 109.583 232.775 109.518 236.296C106.931 235.103 104.405 234.636 101.781 233.074C100.386 232.245 98.9488 231.267 97.6983 230.237C96.7354 229.443 95.6421 228.209 94.558 227.629C94.2917 227.486 93.9503 227.473 93.6533 227.456Z" fill="#24433E"/>
<path d="M69.3516 229.062L70.3749 228.876C70.2954 233.117 70.1277 237.361 70.0839 241.601C70.0586 244.048 70.2346 246.597 70.066 249.026C70.0333 249.497 70.0028 250.157 69.6527 250.508L69.4404 250.496C69.2357 250.268 69.1188 250.179 69.0698 249.866C68.809 248.205 69.0576 245.424 69.0896 243.661C69.2208 238.796 69.3077 233.929 69.3516 229.062Z" fill="#152C4D"/>
<path d="M93.3234 227.517L93.6536 227.454C93.9506 227.471 94.2917 227.486 94.558 227.629C95.6421 228.209 96.7354 229.443 97.6983 230.237C98.9488 231.267 100.386 232.245 101.781 233.074C104.405 234.636 106.931 235.103 109.518 236.296C109.702 236.64 109.813 236.707 109.662 237.086C109.638 237.147 109.603 237.204 109.573 237.264C108.871 237.217 108.172 236.955 107.509 236.735C102.961 235.225 98.4092 232.595 94.9388 229.306C94.3768 228.773 93.6723 228.214 93.3234 227.517Z" fill="#152C4D"/>
<path d="M68.5251 259C68.7825 256.226 68.8119 252.574 69.5577 249.962C70.2018 252.913 70.6754 256.011 71.1338 259H68.5251Z" fill="#A8DFB6"/>
<path d="M42.6133 232.209C43.0142 232.125 43.4269 232.119 43.835 232.096C42.6822 235.18 40.234 238.609 37.1457 239.972C36.7088 240.165 36.266 240.359 35.7807 240.276L35.6629 240.05C35.7105 239.924 35.7199 239.776 35.8057 239.673C36.3141 239.061 38.7152 237.99 39.734 236.904C41.0177 235.535 41.7908 233.871 42.6133 232.209Z" fill="#152C4D"/>
<path d="M50.9981 19.7976C58.647 21.0915 66.8586 21.8951 74.5043 20.1437C75.1475 19.9966 77.4048 19.2835 77.9242 19.4186C78.1226 19.4703 78.3064 19.6819 78.4156 19.8468C79.9751 22.1908 77.5846 33.6188 78.5048 36.9732C78.6673 37.569 79.0082 38.1023 79.6341 38.2701C79.8752 38.3347 79.9418 38.2575 80.1588 38.1679C81.3307 36.4192 79.473 33.2755 81.7662 31.0653C82.1018 30.7414 82.5107 30.443 82.9768 30.347C83.4735 30.2451 84.0049 30.3893 84.407 30.6878C85.4964 31.4941 85.8027 33.3879 85.9359 34.6636C86.2035 37.2298 85.6895 40.438 83.9902 42.4729C83.5334 43.0214 82.9688 43.3908 82.3415 43.7181C82.5 46.6943 82.0925 49.8089 82.4308 52.7534C82.0912 55.2749 82.3522 59.2676 82.3588 61.8987C82.3628 63.0872 82.1684 64.661 82.3642 65.8139C82.4001 66.02 82.4427 66.0787 82.5666 66.2338C82.6851 66.3816 82.8449 66.515 82.9834 66.6406C82.9541 66.6987 82.9435 66.7807 82.8849 66.8086C82.2483 67.2088 81.689 67.699 81.0644 68.1082C79.8046 68.6402 78.6793 69.316 77.3582 69.7426C72.6572 71.2614 66.7536 70.9049 62.0914 69.4077C59.8774 68.6967 59.0777 67.8545 56.4934 67.4144C56.0846 67.288 55.6818 67.1497 55.2783 67.0077L56.2867 66.2291C56.3198 63.4188 56.3335 60.6084 56.3279 57.7979C53.5092 54.8935 51.9909 50.696 50.7587 46.9379C49.9724 44.1611 49.5734 41.2833 48.8869 38.4776L49.2946 38.703L49.4199 38.5346C48.6812 34.2147 49.06 29.2475 49.8985 24.9463C50.232 23.2351 50.7878 21.5235 50.9981 19.7976Z" fill="#B1825F"/>
<path d="M80.9633 42.9701C81.4121 43.2403 81.8769 43.4783 82.3416 43.7205C82.5001 46.6966 82.0926 49.8113 82.4309 52.7558C82.0913 55.2772 82.3523 59.27 82.3589 61.9011C82.3629 63.0896 82.1685 64.6634 82.3643 65.8162C82.4002 66.0224 82.4429 66.081 82.5667 66.2361C82.6852 66.3839 82.845 66.5173 82.9835 66.643C82.9542 66.701 82.9435 66.783 82.8849 66.811C82.2483 67.2111 81.689 67.7013 81.0644 68.1106C79.8046 68.6426 78.6793 69.3183 77.3582 69.745C72.6572 71.2637 66.7537 70.9073 62.0914 69.41C59.8774 68.6991 59.0777 67.8568 56.4934 67.4168C56.0847 67.2904 55.6818 67.152 55.2783 67.01L56.2868 66.2315C56.3199 63.4212 56.3336 60.6108 56.3281 57.8003C57.4677 58.8045 58.5967 59.8921 60.0763 60.371C62.4681 61.1451 64.9976 60.1723 67.1068 59.0589C70.9554 57.0274 75.8947 53.4056 78.196 49.6693C79.4651 47.6093 80.2628 45.2724 80.9633 42.9701Z" fill="#98654B"/>
<path d="M59.4369 45.0819C62.0102 45.0379 64.6004 44.9513 67.168 45.1653C66.7086 46.5174 66.0976 47.5077 65.1394 48.5461C64.7846 48.8444 64.4278 49.1289 64.0118 49.3391C63.2976 49.6998 62.4084 49.7044 61.668 49.4172C60.4991 48.9637 59.5223 47.8626 59.0313 46.7303C58.8058 46.2104 58.6491 45.708 58.8724 45.1754L59.4369 45.0819Z" fill="#DBF6EC"/>
<path d="M55.2208 29.9101C55.927 29.8637 56.6519 29.8027 57.3444 29.9851C58.0121 30.1609 59.2614 30.5817 59.5939 31.2411C59.6883 31.4285 59.6411 31.4079 59.5721 31.6372C58.6018 32.7288 55.6396 32.6227 54.2486 32.8226C53.1603 32.8752 52.0274 33.2952 50.9371 33.252C50.6243 33.2397 50.5785 33.2536 50.356 33.0206C50.3955 32.4928 50.4556 32.0413 50.772 31.6003C51.6649 30.3559 53.8057 30.0986 55.2208 29.9101Z" fill="#423520"/>
<path d="M66.6506 30.1344C68.1422 30.0701 69.692 30.078 71.1818 30.1533C72.7027 30.23 73.9492 30.3763 75.0026 31.5918C75.2649 31.8943 75.5326 32.3048 75.474 32.7227C75.4474 32.9133 75.4287 32.8638 75.2436 32.9925L74.7375 32.8984C73.6349 32.593 72.5056 32.3947 71.3643 32.3062C70.1387 32.2016 66.578 32.4969 65.693 31.8654C65.5948 31.6752 65.4947 31.587 65.541 31.3638C65.6614 30.7833 66.1917 30.4445 66.6506 30.1344Z" fill="#423520"/>
<path d="M61.7901 33.0882C61.9446 33.1555 62.1529 33.1998 62.2493 33.3467C63.1097 34.6582 61.024 39.6202 60.8065 41.2614C60.55 43.1975 62.8953 41.8159 63.8848 43.0492C63.8008 43.3649 63.7832 43.3307 63.5535 43.529C62.6087 43.505 61.1894 43.6409 60.3745 43.0776C60.0299 42.8394 59.8762 42.6147 59.8314 42.1984C59.7724 41.6495 59.8405 41.0314 59.946 40.4905C60.2263 39.0536 60.7555 37.6669 61.0458 36.2262C61.1714 35.603 61.2633 33.8814 61.5127 33.4067C61.5783 33.2822 61.6977 33.1943 61.7901 33.0882Z" fill="#98654B"/>
<path d="M82.4547 31.9617C82.8662 31.9648 83.1752 31.9585 83.5161 32.229C84.2033 32.7754 84.4483 33.924 84.5522 34.7417C84.752 36.3102 84.7733 39.0726 83.7332 40.3513C83.4282 40.7251 83.1339 41.0161 82.6438 41.0601L82.4933 40.7772C82.528 40.2031 82.6598 40.1348 83.0167 39.7033C83.1299 39.5079 83.2311 39.3156 83.3177 39.1061C84.154 37.0627 83.632 34.7235 82.8209 32.7725C82.3881 33.4648 82.1644 34.2066 81.4067 34.6182L81.1989 34.5337C81.1896 34.3905 81.1803 34.3297 81.1869 34.1954C81.2322 33.2834 81.7889 32.5355 82.4547 31.9617Z" fill="#98654B"/>
<path d="M70.3348 34.2762C70.7955 34.1057 71.3122 34.1959 71.6878 34.5126C72.0633 34.8292 72.2378 35.3231 72.1459 35.8049C72.054 36.2867 71.7091 36.6817 71.2443 36.8386C70.5389 37.0761 69.7732 36.7046 69.5248 36.0044C69.2763 35.3042 69.6371 34.5346 70.3348 34.2762Z" fill="#09111C"/>
<path d="M55.6041 34.2986C56.337 34.1687 57.0362 34.658 57.1636 35.3899C57.291 36.122 56.7983 36.8179 56.0644 36.9424C55.3342 37.0665 54.6412 36.5776 54.5144 35.8494C54.3876 35.1212 54.8749 34.4276 55.6041 34.2986Z" fill="#09111C"/>
<path d="M82.1004 35.6467L82.3801 35.761L82.4933 36.0337C82.4147 36.4242 82.3282 36.7492 82.432 37.1451C82.6824 37.1274 82.9234 37.1244 83.1738 37.1248L83.315 37.3179C83.307 37.7178 83.0886 37.9694 82.8702 38.2851C82.4613 38.3515 82.3375 38.4007 81.942 38.2448C81.6317 37.8979 81.4905 37.6086 81.5025 37.1333C81.5171 36.4798 81.6317 36.1093 82.1004 35.6467Z" fill="#98654B"/>
<path d="M10.9902 187.81C11.7468 188.085 12.1872 188.611 12.6984 189.211C13.042 189.628 13.9387 190.438 14.0941 190.925C20.9083 197.742 27.8933 204.117 35.3085 210.284C38.4613 212.906 41.7794 215.32 44.9283 217.944C43.5873 221.992 43.6838 226.714 45.6342 230.581C45.7945 230.901 45.9711 231.212 46.1633 231.514C45.5215 231.999 44.615 231.998 43.835 232.096C43.4269 232.119 43.0142 232.125 42.6133 232.209C38.5338 232.882 34.3782 233.045 30.2881 233.615C25.2021 234.287 20.0938 234.794 15.0063 235.47C14.3912 230.875 13.9487 226.253 13.3876 221.651L9.37204 187.9C9.91818 187.896 10.4475 187.873 10.9902 187.81Z" fill="#096747"/>
<path d="M12.699 189.209C13.0425 189.626 13.9392 190.435 14.0946 190.923C13.8965 191.045 13.7558 191.177 13.5946 191.344C13.5914 192.837 13.903 194.416 14.0742 195.905L18.4871 233.07L16.6884 233.262C15.2609 218.753 13.1708 204.31 11.5927 189.816C11.7235 189.518 12.3816 189.341 12.699 189.209Z" fill="#DBF6EC"/>
<path d="M48.8867 38.4796C46.668 32.1406 43.7326 14.9872 46.6955 8.95941C47.5376 7.24645 49.0553 6.20177 50.8332 5.62122C54.7928 4.32826 57.2415 6.28564 59.3085 5.74376C60.601 5.40497 61.6174 3.612 62.5812 2.71273C65.3369 0.141172 69.2434 -0.873842 72.7249 0.867263C74.9569 1.98318 75.2606 4.0324 76.3313 6.03284C80.9684 6.19167 83.9634 8.80536 87.0064 12.014C89.9043 15.0696 90.7539 19.3964 90.5981 23.4783C90.2785 31.8286 86.792 39.9096 84.0233 47.682C83.5426 49.3513 83.2446 51.2137 82.4309 52.7558C82.0926 49.8113 82.5001 46.6966 82.3416 43.7205C82.9689 43.3931 83.5333 43.0234 83.99 42.4749C85.6893 40.44 86.2034 37.2318 85.9357 34.6656C85.8025 33.3899 85.4962 31.496 84.4069 30.6898C84.0047 30.3913 83.4733 30.2471 82.9766 30.349C82.5105 30.445 82.1017 30.7434 81.7661 31.0673C79.4728 33.2774 81.3306 36.4212 80.1587 38.1699C79.9416 38.2595 79.875 38.3367 79.634 38.2721C79.008 38.1042 78.6671 37.571 78.5047 36.9751C77.5844 33.6207 79.9749 22.1928 78.4154 19.8488C78.3062 19.6838 78.1224 19.4723 77.924 19.4205C77.4046 19.2855 75.1474 19.9986 74.5041 20.1457C66.8584 21.8971 58.6469 21.0935 50.9979 19.7996C50.7877 21.5255 50.2318 23.2371 49.8983 24.9483C49.0599 29.2494 48.681 34.2167 49.4197 38.5366L49.2944 38.705L48.8867 38.4796Z" fill="#423520"/>
</svg>
