<svg width="144" height="127" viewBox="0 0 144 127" fill="none" xmlns="http://www.w3.org/2000/svg">
<path d="M139.445 0H141.023L141.07 0.12917C141.908 0.445521 142.651 1.07419 143.039 1.89314C143.279 2.40318 143.309 2.91229 143.106 3.44004C142.939 3.87275 142.422 4.20921 142.059 4.47131C140.945 5.2767 139.704 5.90233 138.555 6.65833C136.001 8.34001 133.406 9.91253 130.797 11.506C129.495 12.301 128.2 13.1927 126.858 13.9113C126.511 14.1153 126.164 14.3406 125.805 14.5228L124.835 14.9404C124.532 14.8176 124.391 14.6875 124.191 14.4288C124.551 13.5821 125.258 12.898 125.9 12.2564C127.49 10.6659 129.293 9.26404 130.957 7.74575C133.577 5.35524 136.123 2.84472 138.792 0.515885C138.987 0.345715 139.196 0.216348 139.429 0.106002L139.445 0Z" fill="#016E37"/>
<path d="M127.97 16.0387C130.626 14.9525 133.303 13.9525 135.977 12.9134C137.389 12.3641 138.912 11.6064 140.381 11.2701C140.679 11.2018 140.95 11.1806 141.237 11.3144C141.682 11.5217 141.96 11.9535 142.1 12.4084C142.292 13.0307 142.205 13.7413 141.894 14.3123C141.553 14.9381 141.001 15.1243 140.35 15.3013C139.246 15.6014 138.084 15.7675 136.959 15.978C133.728 16.5825 130.397 17.0388 127.207 17.8073C126.998 17.8251 126.77 17.8539 126.561 17.8357C126.297 17.8128 126.173 17.7319 126.014 17.5317C126.017 17.1376 126.158 17.0527 126.398 16.7503C126.664 16.5963 126.951 16.4683 127.227 16.3303L127.97 16.0387Z" fill="#016E37"/>
<path d="M128.374 19.4984C129.484 19.231 134.824 18.9618 135.64 19.3781C135.868 19.5895 135.965 19.7758 135.987 20.0905C136.011 20.4107 135.9 20.9011 135.667 21.1204C135.357 21.4125 134.827 21.3246 134.436 21.2908C132.637 21.1356 130.826 20.8303 129.025 20.6356C128.421 20.4321 127.575 20.5615 127.044 20.2015C127.058 20.1734 127.07 20.1445 127.085 20.1174C127.277 19.7898 128.03 19.6111 128.374 19.4984Z" fill="#016E37"/>
<path d="M126.858 13.9113C126.872 14.763 127.431 15.4177 127.97 16.0387L127.227 16.3303C126.951 16.4683 126.664 16.5963 126.398 16.7503C125.933 16.2558 125.081 15.5519 124.835 14.9404L125.805 14.5228C126.164 14.3406 126.511 14.1153 126.858 13.9113Z" fill="#85E59F"/>
<path d="M105.799 61.3787C106.859 61.1205 108.869 60.1077 109.86 60.2733C112.31 61.8032 120.048 78.5161 120.825 81.9333C121.098 83.1395 120.997 84.389 121.219 85.5837C121.409 87.6004 120.832 90.4811 119.524 92.0768C118.378 93.4741 116.645 93.7846 114.945 93.946C113.57 94.0766 110.351 92.4422 109.328 91.5826C108.555 90.9326 106.153 87.7425 106.023 87.6714C105.519 86.6813 105.147 85.6006 104.823 84.5397C103.96 81.7142 103.317 78.7997 102.613 75.9311C101.94 73.189 101.06 70.2649 100.852 67.4449C100.773 66.3755 100.791 64.9477 101.31 63.9983C102.163 62.4416 104.209 61.8615 105.799 61.3787Z" fill="#02964B"/>
<path d="M121.219 85.5837C121.177 85.828 121.126 86.0514 121.04 86.2842L120.928 86.1813C119.268 78.4852 115.293 71.3414 111.835 64.3287C111.645 63.9435 109.834 60.5785 109.83 60.5195C109.823 60.4373 109.849 60.355 109.86 60.2733C112.31 61.8032 120.048 78.5161 120.825 81.9333C121.098 83.1395 120.997 84.389 121.219 85.5837Z" fill="#31BE7A"/>
<path d="M99.249 23.1987C100.237 22.1586 102.331 21.4034 103.588 20.5664C106.918 18.3486 108.609 14.6777 108.954 10.736C109.067 9.4407 108.895 8.08217 109.164 6.80721C109.276 6.28156 109.515 5.74506 109.986 5.4484C110.531 5.10365 111.019 5.21043 111.611 5.33542C112.349 5.98498 113.437 6.47793 114.259 7.06893C114.34 7.12742 114.312 7.10779 114.426 7.13141C118.948 11.6801 123.723 19.2949 126.138 25.207C126.784 26.7874 127.526 28.6192 127.506 30.3563C127.504 30.6955 127.445 31.0319 127.332 31.3515C127.175 31.8092 127.019 32.2217 126.563 32.4645C125.983 32.7735 125.151 32.6076 124.563 32.4005C123.499 32.0255 122.482 31.5221 121.41 31.1607C118.368 30.1352 114.173 29.3828 111.147 30.8087C110.351 31.1832 109.574 31.7241 108.936 32.3313L108.776 32.173C108.694 31.7401 108.298 31.4856 107.964 31.2367C106.826 31.8317 105.676 32.8858 104.486 33.2807C103.449 31.9154 102.365 30.6583 101.497 29.1715L101.424 29.0066C100.279 27.2397 99.739 25.2214 99.249 23.1987Z" fill="#F9FCF9"/>
<path d="M114.554 20.8562C115.27 21.6988 115.769 22.7783 116.375 23.7042C117.188 24.9482 118.199 26.0857 119.218 27.1623C119.627 27.5937 120.402 28.567 121.02 28.5837C120.738 28.2251 120.122 27.9588 119.981 27.5692L120.293 27.3097C120.852 27.5337 120.868 28.253 121.659 28.4036C122.594 29.1712 124.234 30.9573 125.507 30.8711C125.75 30.8546 125.99 30.7158 126.2 30.6028C126.219 30.6027 126.238 30.6047 126.255 30.6023C126.544 30.5638 127.066 30.0171 127.298 30.1126C127.278 30.4823 127.159 31.0323 127.332 31.3515C127.175 31.8092 127.019 32.2217 126.563 32.4645C125.983 32.7735 125.151 32.6076 124.563 32.4005C123.499 32.0255 122.482 31.5221 121.41 31.1607C118.368 30.1352 114.173 29.3828 111.147 30.8087C110.351 31.1832 109.574 31.7241 108.936 32.3313L108.776 32.173C108.694 31.7401 108.298 31.4856 107.964 31.2367C106.826 31.8317 105.676 32.8858 104.486 33.2807C103.449 31.9154 102.365 30.6583 101.497 29.1715L101.424 29.0066C103.46 27.5623 105.804 26.4984 107.777 24.9677C107.646 24.4301 106.847 21.6379 107.016 21.299C107.288 22.0573 107.549 22.8241 107.878 23.5599C107.978 23.7869 108.163 24.2437 108.41 24.3242C109.34 24.6266 113.459 21.4285 114.554 20.8562Z" fill="url(#paint0_linear_1757_4797)"/>
<path d="M114.462 18.238C113.167 16.1419 110.289 10.1572 110.637 7.82159C110.685 7.5028 110.793 7.17138 111.08 6.98897C111.353 6.81517 111.72 6.82815 112.02 6.91489C114.668 7.67914 119.441 14.7683 120.879 17.3136C122.596 20.0704 126.904 27.395 126.2 30.6028C125.99 30.7158 125.75 30.8546 125.507 30.8711C124.234 30.9573 122.594 29.1712 121.659 28.4036C120.648 27.3816 119.684 26.3141 118.77 25.2039C118.308 24.6337 117.905 24.0187 117.415 23.4713C118.457 22.111 120.377 20.9409 121.68 19.7612C121.689 19.7335 121.697 19.7064 121.705 19.6785C121.86 19.0607 121.078 18.0183 120.77 17.4934C120.48 17.0354 120.24 16.5893 119.697 16.403C118.261 15.9098 115.752 17.6182 114.462 18.238Z" fill="#623DBC"/>
<path d="M119.054 18.2623L118.744 16.9506C119.184 17.6896 119.603 18.5256 120.217 19.1358C120.692 19.6071 121.009 19.7641 121.68 19.7612C120.377 20.9409 118.457 22.111 117.415 23.4713C116.516 22.5744 115.934 20.9817 115.373 19.8378C115.661 19.601 116.043 19.8667 116.416 19.7224C117.301 19.3797 118.223 18.7303 119.054 18.2623Z" fill="#BBD2D2"/>
<path d="M97.5017 57.5796C97.6632 57.8124 97.7629 58.0499 98.0762 58.092C98.3266 58.1258 98.6323 58.0808 98.886 58.0648C98.8524 59.527 99.0312 60.7792 99.5385 62.1522C101.413 61.9769 103.13 61.0629 104.929 60.5805C105.618 60.3959 106.381 60.5009 107.084 60.3884C107.615 60.3036 108.022 60.1047 108.581 60.1049L108.693 60.2149C108.013 60.4281 106.219 60.797 105.799 61.3787C104.209 61.8615 102.163 62.4416 101.31 63.9983C100.791 64.9477 100.773 66.3755 100.852 67.4449C101.06 70.2649 101.94 73.189 102.613 75.9311C103.317 78.7997 103.96 81.7142 104.823 84.5397C105.147 85.6006 105.519 86.6813 106.023 87.6714C107.121 90.2228 109.655 92.4408 112.208 93.4585C114.077 94.2034 116.01 94.3589 117.891 93.5344C118.866 93.1073 119.43 92.5556 120.094 91.7464L120.238 91.808L120.159 91.6953L120.231 91.7802C120.002 93.3624 118.635 95.04 117.382 95.9921C115.488 97.4313 112.916 97.9566 110.586 97.6153C106.526 97.0205 103.2 94.4413 100.059 91.9967C99.7022 91.7192 98.6616 90.7531 98.2659 90.9012C98.073 91.2848 97.9407 91.6665 97.8161 92.0765C97.7966 91.7588 97.7499 91.4388 97.7153 91.122C97.7597 90.3366 97.7218 89.5737 97.6686 88.7897C97.7077 87.685 98.203 86.4294 98.4426 85.3375C98.7776 83.8044 98.9618 82.2705 99.0995 80.71C98.5434 71.903 95.9581 66.018 91.5972 58.5389C93.0238 58.9009 98.1358 64.9352 98.5673 64.7681C98.5835 64.5178 98.6052 64.2677 98.6052 64.0166L98.6085 63.8435C98.6301 62.7181 98.06 61.4683 97.7987 60.369C97.5765 59.4387 97.5147 58.5333 97.5017 57.5796Z" fill="#016030"/>
<path d="M91.5972 58.5389C93.0238 58.9009 98.1358 64.9352 98.5673 64.7681C98.5835 64.5178 98.6052 64.2677 98.6052 64.0166C98.8047 65.1142 98.8719 66.2357 99.0789 67.3412C99.7217 70.7794 100.529 74.2041 101.244 77.631C101.791 80.2593 102.5 82.908 102.903 85.5584C103.148 87.1652 103.183 88.7908 103.362 90.4033C101.854 88.191 100.86 85.6302 99.945 83.1247C99.6599 82.3432 99.4529 81.4562 99.0995 80.71C98.5434 71.903 95.9581 66.018 91.5972 58.5389Z" fill="#02964B"/>
<path d="M97.3857 93.5325C97.531 92.7426 97.4421 91.878 97.7153 91.122C97.7499 91.4388 97.7966 91.7588 97.8161 92.0765C97.4182 92.932 97.4746 94.3599 97.3554 95.3194C97.2026 96.5542 96.2801 103.738 95.7739 104.45C95.7858 103.235 95.5918 102.007 95.4985 100.795C95.3533 98.9043 95.2741 96.968 95.3153 95.0721C96.2411 94.9035 96.8123 94.2088 97.3857 93.5325Z" fill="#012F1C"/>
<path d="M106.742 56.2255C106.907 56.2322 107.069 56.2549 107.232 56.2752C107.321 56.357 107.404 56.4439 107.474 56.5426C107.859 57.0793 108.826 58.7098 108.721 59.306C108.436 59.3872 108.186 59.4468 107.888 59.4599C107.817 59.3998 107.767 59.3588 107.716 59.2793C107.385 58.7715 106.648 56.8124 106.742 56.2255Z" fill="#31BE7A"/>
<path d="M84.4472 55.1568C86.3485 55.123 88.2563 55.4296 89.8194 56.5828C90.4199 57.2183 91.0661 57.8448 91.5972 58.5389C95.9581 66.018 98.5434 71.903 99.0995 80.71C98.9618 82.2705 98.7776 83.8044 98.4426 85.3375C98.203 86.4294 97.7077 87.685 97.6686 88.7897C97.7218 89.5737 97.7597 90.3366 97.7153 91.122C97.4421 91.878 97.531 92.7426 97.3857 93.5325C96.8123 94.2088 96.2411 94.9035 95.3153 95.0721C95.2741 96.968 95.3533 98.9043 95.4985 100.795C95.5918 102.007 95.7858 103.235 95.7739 104.45C95.5397 105.672 97.2111 116.227 97.597 117.786C97.7824 118.531 98.3395 119.13 98.5 119.866C98.5683 120.183 98.5888 120.479 98.3937 120.742L98.0566 120.863C98.2821 121.024 98.4404 121.094 98.4826 121.393C98.5683 122.01 98.0393 122.659 97.6566 123.075C97.2165 123.557 96.6865 123.958 96.1759 124.362C96.2908 125.243 96.3895 126.13 96.5737 126.999H95.8724H89.0379H51.7802H35.6625C33.9096 123.789 34.4948 119.771 34.6781 116.262C34.5056 116.093 34.2062 116.115 33.9676 116.086C34.1935 116.082 34.5013 116.107 34.6956 115.978C35.3976 115.511 35.0592 113.322 35.2189 112.515C35.2807 112.202 35.3812 112.173 35.6318 112.001C36.4539 112.27 37.2799 112.524 38.1096 112.767C42.1416 113.91 44.5739 113.315 48.1808 111.3C50.742 109.546 51.394 109.024 53.3027 106.485L53.7028 105.451C54.1466 103.773 54.44 102.103 54.6583 100.384C55.1236 99.2867 55.3885 98.0722 55.6238 96.9067L55.8622 96.7874C55.7515 96.7465 55.7678 96.7622 55.6922 96.7091C55.4806 96.5601 55.5079 96.3133 55.4723 96.0674C55.5126 95.4021 55.5544 94.7601 55.7015 94.1074L55.7579 93.6095C55.4326 93.3077 55.4319 92.9302 55.3824 92.5133C55.5739 91.3111 55.608 90.1071 55.7837 88.9144C55.789 88.8987 55.7946 88.8829 55.7998 88.8671C56.2811 87.3713 56.3225 85.6345 55.8882 84.1203C55.8779 84.1075 55.8678 84.0946 55.8574 84.082C55.2547 83.357 52.2507 76.3425 52.0071 75.2701C51.2426 73.8083 50.707 72.2515 49.9806 70.7762C49.2205 70.1236 48.6256 67.5317 47.8911 67.1948C47.5428 66.5069 47.226 65.8066 46.9093 65.1037C46.7418 64.8253 46.6079 64.5392 46.4738 64.244C46.4688 64.2267 46.4635 64.2094 46.4586 64.1919C46.2973 63.6085 46.0137 63.1283 45.7133 62.6093C46.0326 62.7473 46.3432 62.888 46.6843 62.9637L46.7343 62.9477C46.8807 62.8189 47.0646 62.73 47.234 62.6333C47.1218 62.4554 47.1671 62.172 47.1733 61.9648L47.2469 61.7064L47.3385 61.5401C47.8056 59.5522 48.0958 57.5027 48.4775 55.4942C49.5274 55.4616 50.5818 55.2425 51.6365 55.1931C52.8176 55.1378 54.0042 55.2521 55.1865 55.2674C54.1121 55.3538 53.3327 55.5335 52.5937 56.4001C51.8459 57.2768 51.5049 58.4522 51.1676 59.5343C56.0106 60.3864 60.8405 61.2961 65.6054 62.5255C66.3793 62.7254 67.1934 62.8657 67.9566 63.0906C68.3349 63.215 68.8519 63.3199 69.1858 63.5257C70.4627 64.0928 71.6941 64.5561 73.0946 64.6953C75.6615 64.9504 77.1542 64.0899 79.0815 62.5152C79.0056 61.9718 78.856 61.3267 78.9145 60.7816C78.946 60.4816 79.0132 60.1403 79.2473 59.952C79.7384 60.3556 79.7438 61.2137 79.8023 61.803C79.7882 62.0645 79.7817 62.2843 79.8435 62.54C80.9492 62.2315 81.282 60.6489 82.2673 60.4416L81.967 59.0137C82.2044 58.6266 82.418 58.2765 82.8559 58.121L83.0196 58.2695C83.2071 58.0352 83.541 58.1175 83.7784 57.8519L83.7263 57.7282L83.2093 57.6652C83.2234 57.6189 83.2386 57.5725 83.2559 57.5274C83.4077 57.1453 83.7014 56.9673 84.0624 56.8204L83.9648 56.6624C84.0017 56.1592 84.2683 55.6279 84.4472 55.1568Z" fill="#02964B"/>
<path d="M55.8622 96.7874L55.9573 96.7981L56.3591 96.9339C57.2136 97.141 59.645 97.3861 60.2505 97.7681L60.1818 97.9153C61.6304 104.259 62.9426 107.629 61.5349 114.228C61.2754 115.445 60.3469 118.386 61.1478 119.428C61.7019 119.416 62.2731 118.725 62.6471 118.334C64.6708 116.212 66.2222 113.485 67.1891 110.724C67.5739 109.626 67.8547 108.485 68.2557 107.394C70.7728 107.523 73.4534 107.204 75.965 106.987C77.7829 106.83 79.6007 106.731 81.4175 106.549C84.9632 106.195 88.5533 105.75 92.1142 105.625C92.3982 108.385 93.75 111.233 95.0529 113.651C95.596 114.659 96.2377 115.685 96.6496 116.756C94.1727 114.691 91.9484 109.371 91.5852 106.14C89.9506 106.167 88.3289 106.394 86.7008 106.524L74.8507 107.552C72.7987 107.733 70.724 107.592 68.6774 107.807C67.8417 112.529 66.2926 115.794 63.0449 119.335C62.3648 120.077 61.5949 120.731 60.9095 121.464C62.1985 122.421 63.7508 122.881 65.2498 123.407C72.0648 125.857 79.3861 126.552 86.5393 125.427C90.717 124.812 94.7667 123.587 98.0566 120.863C98.2821 121.024 98.4404 121.094 98.4826 121.393C98.5683 122.01 98.0393 122.659 97.6566 123.075C97.2165 123.557 96.6865 123.958 96.1759 124.362C96.2908 125.243 96.3895 126.13 96.5737 126.999H95.8724H89.0379H51.7802H35.6625C33.9096 123.789 34.4948 119.771 34.6781 116.262C34.5056 116.093 34.2062 116.115 33.9676 116.086C34.1935 116.082 34.5013 116.107 34.6956 115.978C35.3976 115.511 35.0592 113.322 35.2189 112.515C35.2807 112.202 35.3812 112.173 35.6318 112.001C36.4539 112.27 37.2799 112.524 38.1096 112.767C42.1416 113.91 44.5739 113.315 48.1808 111.3C50.742 109.546 51.394 109.024 53.3027 106.485L53.7028 105.451C54.1466 103.773 54.44 102.103 54.6583 100.384C55.1236 99.2867 55.3885 98.0722 55.6238 96.9067L55.8622 96.7874Z" fill="url(#paint1_linear_1757_4797)"/>
<path d="M48.1808 111.3C48.5867 112.275 48.4483 115.579 48.371 116.724C48.0456 117.593 48.4774 118.525 48.1654 119.347C47.7786 120.367 47.4602 121.559 47.9399 122.605C48.2993 123.39 48.9159 123.732 49.6631 124.099C50.585 123.202 51.0292 122.123 51.5219 120.965C51.8829 121.505 52.3243 122.344 53.0143 122.478C53.0987 122.494 53.1837 122.503 53.2692 122.511C53.395 122.613 53.4551 122.608 53.4695 122.78C53.5412 123.642 52.0491 125.926 51.7802 126.999H35.6625C33.9096 123.789 34.4948 119.771 34.6781 116.262C34.5056 116.093 34.2062 116.115 33.9676 116.086C34.1935 116.082 34.5013 116.107 34.6956 115.978C35.3976 115.511 35.0592 113.322 35.2189 112.515C35.2807 112.202 35.3812 112.173 35.6318 112.001C36.4539 112.27 37.2799 112.524 38.1096 112.767C42.1416 113.91 44.5739 113.315 48.1808 111.3Z" fill="url(#paint2_linear_1757_4797)"/>
<path d="M55.8622 96.7874L55.9573 96.7981L56.3591 96.9339C57.2136 97.141 59.645 97.3861 60.2505 97.7681L60.1818 97.9153C58.6502 103.588 56.3572 109.124 54.1369 114.559C53.3492 116.487 52.1819 118.186 51.6934 120.237C52.0888 121.169 52.5596 121.8 53.2692 122.511C53.1837 122.503 53.0987 122.494 53.0143 122.478C52.3243 122.344 51.8829 121.505 51.5219 120.965C51.0292 122.123 50.585 123.202 49.6631 124.099C48.9159 123.732 48.2993 123.39 47.9399 122.605C47.4602 121.559 47.7786 120.367 48.1654 119.347C48.4774 118.525 48.0456 117.593 48.371 116.724C48.4483 115.579 48.5867 112.275 48.1808 111.3C50.742 109.546 51.394 109.024 53.3027 106.485L53.7028 105.451C54.1466 103.773 54.44 102.103 54.6583 100.384C55.1236 99.2867 55.3885 98.0722 55.6238 96.9067L55.8622 96.7874Z" fill="#021D28"/>
<path d="M48.1808 111.3C50.742 109.546 51.394 109.024 53.3027 106.485C52.376 111.314 50.795 115.139 48.4554 119.419C48.4675 118.514 48.442 117.627 48.371 116.724C48.4483 115.579 48.5867 112.275 48.1808 111.3Z" fill="#034435"/>
<path d="M89.0379 126.999C90.3007 126.266 94.073 124.97 95.6014 124.488C95.7012 125.311 95.8605 126.173 95.8724 126.999H89.0379Z" fill="#028846"/>
<path d="M57.3658 68.946C57.3619 67.8944 56.1551 86.1203 56.1345 85.0634C56.1115 83.8799 59.8607 75.4599 59.9082 74.2772C59.9652 75.3547 56.5206 83.3752 57.3658 84.1384C58.2209 84.9106 59.3852 85.2838 60.4565 85.6509C61.4391 80.8274 53.4723 65.5595 54.8295 60.8245C55.0501 60.0554 58.0898 60.2473 58.3351 59.4898C58.4696 59.1146 60.5949 53.3372 62.5187 60.8245C63.1197 59.5621 66.0295 65.2455 66.2065 63.8477C66.5311 61.2858 65.7125 59.7687 64.1927 57.797C63.648 57.8582 62.9998 57.9903 62.4571 57.9169C62.1584 57.8773 61.8195 57.8007 61.6378 57.5613C62.0541 57.0809 62.9112 57.0988 63.5012 57.0562C63.7619 57.0775 63.9812 57.09 64.2381 57.0351C63.9602 55.9202 62.389 55.5441 62.2089 54.5523L60.7749 54.814C60.3949 54.5659 60.051 54.3426 59.9078 53.9001L60.0605 53.7404C62.2774 53.5609 64.4915 53.2619 66.71 53.1313C71.0813 52.8759 77.167 53.0581 81.4313 54.1112C82.9841 54.4955 84.5472 54.9886 86.0612 55.5043C87.1032 55.8595 89.2604 56.8866 90.2461 56.9124C90.2692 57.3961 90.2652 57.8574 90.2242 58.3394L90.2771 58.7772C90.1652 58.9403 90.0527 59.1207 89.9124 59.2612C89.7476 59.425 89.6936 59.4952 89.4628 59.49C89.6966 59.264 89.9209 59.1366 89.9745 58.8081C88.6188 59.1196 80.5195 65.0097 79.1162 66.1819C79.1667 66.2256 79.1822 66.2456 79.2537 66.2693C79.7265 66.4265 78.6625 59.1785 79.3664 59.0706C72.0052 50.8518 78.4479 58.4573 78.7822 58.3394C79.2826 58.162 77.749 57.0845 78.198 57.316C78.5142 57.4788 71.9557 50.4908 81.4313 58.7772C71.6217 51.8069 75.9599 56.9482 75.8612 57.0562C75.5963 57.3454 71.3913 44.7872 78.7822 56.7312C77.8676 56.8246 82.1238 60.8288 81.1191 60.8253C78.9105 60.8172 79.6533 67.4537 77.4442 67.6356C76.023 68.5869 73.2803 71.3782 71.6365 71.4267C69.135 73.2478 60.7968 57.6148 58.3351 59.4898C50.2309 50.0816 55.9983 70.1828 64.107 79.7845L55.9986 71.2834C54.89 73.4317 57.0339 73.1077 62.8189 86.9852C62.7981 87.2354 56.1521 71.7418 55.9983 71.9376C56.0649 72.6693 60.8547 79.1135 60.4562 79.784L62.5187 89.6336L62.3551 89.5374C60.3829 89.0159 59.361 69.3826 57.3658 68.946Z" fill="#016030"/>
<path d="M33.9611 55.0176C34.9314 54.6147 35.8398 54.0358 36.8087 53.6155C37.8936 53.145 39.0436 52.831 40.1547 52.426C39.1806 52.8878 38.5153 53.3322 38.1309 54.4048C37.7419 55.4899 37.839 56.7099 37.9064 57.8415C42.7369 56.9206 47.5755 56.0582 52.4663 55.5179C53.2608 55.4303 54.0718 55.2728 54.865 55.2124C55.2628 55.1946 55.7834 55.1092 56.1684 55.1833C57.5633 55.2607 58.8788 55.2572 60.2377 54.8906C62.7283 54.2187 63.8196 52.8847 65.0647 50.7285C64.8015 50.2473 64.4333 49.6971 64.2951 49.1666C64.2183 48.8749 64.1604 48.5319 64.3127 48.2727C64.9147 48.476 65.2235 49.2765 65.4868 49.8069C65.5661 50.0564 65.6378 50.2643 65.7861 50.4814C66.7108 49.8007 66.462 48.2027 67.3101 47.6595L66.524 46.4307C66.609 45.9845 66.6848 45.5813 67.0393 45.2806L67.2449 45.3614C68.2523 47.3466 69.3691 49.2837 70.3319 51.2889C72.2273 55.2406 74.3691 60.9463 75.0146 65.2956C75.249 66.8797 75.3866 68.5147 75.4848 70.1126C75.5521 71.2125 75.4218 73.6004 75.7721 74.5231C75.3339 74.7282 74.9061 74.8996 74.4451 75.0446L74.0606 75.2598C73.8675 75.218 73.658 75.1823 73.4749 75.1058C73.261 75.0152 73.1756 74.9919 73.0928 74.7762C73.3904 74.9069 73.5933 75.0663 73.9173 74.9913C73.1147 73.8539 64.5971 68.5883 62.9812 67.7335C62.9599 67.7968 62.9474 67.8188 62.9526 67.894C62.9868 68.3916 65.1175 73.0663 65.4844 73.6774C65.6695 73.9859 65.9689 74.2041 66.2047 74.469C66.5587 74.8652 61.2995 64.4653 61.256 64.9691C57.7176 55.1397 60.9361 62.5703 60.6718 62.7968C60.5286 62.8075 61.1404 63.8001 61.0031 63.7497C60.6354 63.6141 60.6718 62.9274 64.9333 75.8325C64.4998 75.0209 64.3627 73.7335 63.9845 72.8016C63.1536 70.753 62.0098 68.7137 61.0031 66.7367C59.5845 65.7816 55.9639 64.3008 55.2951 62.7968C52.6626 61.1712 49.9633 59.6455 47.2962 58.0773C46.7443 58.2861 45.0126 58.6398 44.7133 58.9957L44.6281 59.0014C42.222 58.7902 39.7774 59.6294 37.5702 60.5361C37.331 60.6118 36.9574 60.4481 36.7181 60.38C36.0671 60.7194 35.8022 61.6456 35.0314 61.531L35.0088 61.2633L35.0356 61.0754C34.7689 59.0507 34.315 57.0312 33.9611 55.0176Z" fill="#016030"/>
<path d="M48.4775 55.4952C49.5274 55.4627 50.5818 55.2435 51.6365 55.1941C52.8176 55.1389 54.0042 55.2532 55.1865 55.2685C54.1121 55.3549 53.3327 55.5345 52.5937 56.4012C51.8459 57.2779 51.5049 58.4533 51.1676 59.5354C56.0106 60.3875 60.8405 61.2972 65.6054 62.5266C66.3793 62.7264 67.1934 62.8668 67.9566 63.0917C68.3349 63.2161 68.8519 63.3209 69.1858 63.5267C70.4627 64.0939 71.6941 64.5572 73.0946 64.6963C75.6615 64.9514 77.1542 64.091 79.0815 62.5163C79.0056 61.9729 78.856 61.3278 78.9145 60.7827C78.946 60.4827 79.0132 60.1414 79.2473 59.953C79.7384 60.3566 79.7438 61.2148 79.8023 61.8041C79.7882 62.0656 79.7817 62.2854 79.8435 62.541C80.9492 62.2325 81.282 60.6499 82.2673 60.4427L81.967 59.0148C82.2044 58.6277 82.418 58.2775 82.8559 58.1221L83.0196 58.2706C83.2592 60.4843 83.618 62.6919 83.8087 64.9085C84.1827 69.2762 84.1664 75.3714 83.231 79.6676C82.8895 81.2321 82.4397 82.8098 81.966 84.3389C81.6397 85.3914 80.6728 87.5782 80.6739 88.5653C80.1915 88.6016 79.7308 88.6101 79.2484 88.5822L78.8127 88.6471C78.6468 88.5396 78.4636 88.4319 78.3194 88.2953C78.1514 88.1348 78.0799 88.0827 78.0788 87.8516C78.3108 88.0794 78.4441 88.3004 78.7736 88.3451C78.4257 86.9969 72.3239 79.0518 71.1153 77.6793C71.073 77.731 71.0535 77.7471 71.0318 77.8192C70.8876 78.2967 71.2258 83.424 71.3527 84.1255C71.4166 84.4797 71.6193 84.7899 71.7462 85.1213C71.9369 85.6173 71.7722 86.1425 71.5532 86.5982C71.3993 86.9191 71.2573 87.0562 70.9299 87.1741C70.7922 87.1334 70.6914 87.0952 70.5809 86.9994C70.2849 86.7421 70.1234 86.3293 70.0746 85.9454C69.9565 85.0326 70.2839 83.7801 70.26 82.7745C70.208 80.5641 69.86 78.2514 69.6183 76.0456C68.6297 74.6492 65.768 71.9804 65.6748 70.3367C63.7883 67.8829 61.804 65.4987 59.8648 63.0863C59.2749 63.0857 57.5303 62.8023 57.1245 63.0289L57.0428 63.0041C54.8675 61.9531 52.2845 61.8709 49.8995 61.9359C49.6491 61.9219 49.3576 61.6363 49.158 61.4877C48.4291 61.5742 47.8536 62.3464 47.1733 61.9658L47.2469 61.7075L47.3385 61.5412C47.8056 59.5533 48.0958 57.5038 48.4775 55.4952Z" fill="#02964B"/>
<path d="M48.4775 55.4952C49.5274 55.4627 50.5818 55.2435 51.6365 55.1941C52.8176 55.1389 54.0042 55.2532 55.1865 55.2685C54.1121 55.3549 53.3327 55.5345 52.5937 56.4012C51.8459 57.2779 51.5049 58.4533 51.1676 59.5354C56.0106 60.3875 60.8405 61.2972 65.6054 62.5266C66.3793 62.7264 67.1934 62.8668 67.9566 63.0917C68.3349 63.2161 68.8519 63.3209 69.1858 63.5267C70.4627 64.0939 71.6941 64.5572 73.0946 64.6963C75.6615 64.9514 77.1542 64.091 79.0815 62.5163C79.0056 61.9729 78.856 61.3278 78.9145 60.7827C78.946 60.4827 79.0132 60.1414 79.2473 59.953C79.7384 60.3566 79.7438 61.2148 79.8023 61.8041C79.7882 62.0656 79.7817 62.2854 79.8435 62.541C80.3443 64.2013 80.2641 66.2578 80.4278 67.9817C80.6706 70.5299 81.0121 73.1243 81.3676 75.6577C81.4847 76.4861 82.0061 77.0996 82.1025 77.8112C82.1654 78.2786 82.0277 78.8024 81.9128 79.2548L81.7904 79.3791C81.6017 79.4153 81.4359 79.4249 81.2505 79.3654C80.6977 79.1886 80.4733 78.7347 80.2348 78.2464C80.6728 75.1745 80.043 72.7986 79.6831 69.7556C79.4327 67.6354 79.2994 65.5183 79.1975 63.3863C78.4311 63.8626 77.655 64.439 76.843 64.8244C75.2767 65.567 71.1088 65.2488 69.4795 64.6485C69.2671 64.6937 69.0741 64.7064 68.93 64.8862C69.3321 66.4662 69.6497 68.108 69.9012 69.7189C70.1841 71.5293 70.0898 73.6239 70.9581 75.25C70.738 75.716 70.8725 76.4049 71.0351 76.8739C71.4513 78.0754 73.1261 79.7685 73.951 80.9035C75.7829 83.4203 77.6409 85.9148 79.2484 88.5822L78.8127 88.6471C78.6468 88.5396 78.4636 88.4319 78.3194 88.2953C78.1514 88.1348 78.0799 88.0827 78.0788 87.8516C78.3108 88.0794 78.4441 88.3004 78.7736 88.3451C78.4257 86.9969 72.3239 79.0518 71.1153 77.6793C71.073 77.731 71.0535 77.7471 71.0318 77.8192C70.8876 78.2967 71.2258 83.424 71.3527 84.1255C71.4166 84.4797 71.6193 84.7899 71.7462 85.1213C71.9369 85.6173 71.7722 86.1425 71.5532 86.5982C71.3993 86.9191 71.2573 87.0562 70.9299 87.1741C70.7922 87.1334 70.6914 87.0952 70.5809 86.9994C70.2849 86.7421 70.1234 86.3293 70.0746 85.9454C69.9565 85.0326 70.2839 83.7801 70.26 82.7745C70.208 80.5641 69.86 78.2514 69.6183 76.0456C68.6297 74.6492 65.768 71.9804 65.6748 70.3367C63.7883 67.8829 61.804 65.4987 59.8648 63.0863C59.2749 63.0857 57.5303 62.8023 57.1245 63.0289L57.0428 63.0041C54.8675 61.9531 52.2845 61.8709 49.8995 61.9359C49.6491 61.9219 49.3576 61.6363 49.158 61.4877C48.4291 61.5742 47.8536 62.3464 47.1733 61.9658L47.2469 61.7075L47.3385 61.5412C47.8056 59.5533 48.0958 57.5038 48.4775 55.4952Z" fill="#016E37"/>
<path d="M61.2136 62.8438C63.4726 63.4227 65.6976 63.9161 67.9913 64.3516C68.1008 65.645 69.3582 72.1436 68.9355 72.8327C66.5789 69.3615 63.4685 66.4 61.2136 62.8438Z" fill="#02964B"/>
<path d="M58.6779 61.6194C59.2431 61.6931 59.8113 61.7836 60.3801 61.8221C60.6959 62.1335 60.9501 62.4884 61.2136 62.8438C63.4685 66.4 66.5789 69.3615 68.9355 72.8327C68.9929 73.0574 69.2085 73.3287 69.3212 73.5398C69.6616 74.1753 69.7201 74.8266 69.7733 75.5299C68.2329 74.0326 67.0579 71.9958 65.6748 70.3367C63.7883 67.8829 61.804 65.4987 59.8648 63.0863C59.5123 62.6601 58.7648 62.1658 58.6779 61.6194Z" fill="#012F1C"/>
<path d="M50.371 60.5359C52.0965 60.4136 54.1717 60.5145 55.7998 61.1536C56.189 61.7906 56.6083 62.3975 57.0428 63.0041C54.8675 61.9531 52.2845 61.8709 49.8995 61.9359C49.6491 61.9219 49.3576 61.6363 49.158 61.4877C49.6911 61.3042 50.0186 60.9583 50.371 60.5359Z" fill="url(#paint3_linear_1757_4797)"/>
<path d="M55.7998 61.1536C56.7189 61.0697 57.8719 61.0939 58.6781 61.6203C58.765 62.1668 59.5123 62.6601 59.8648 63.0863C59.2749 63.0857 57.5303 62.8023 57.1245 63.0289L57.0428 63.0041C56.6083 62.3975 56.189 61.7906 55.7998 61.1536Z" fill="#016030"/>
<path d="M47.3385 61.5412C48.144 60.9336 49.3857 60.6985 50.371 60.5359C50.0186 60.9583 49.6911 61.3042 49.158 61.4877C48.4291 61.5742 47.8536 62.3464 47.1733 61.9658L47.2469 61.7075L47.3385 61.5412Z" fill="#021D28"/>
<path d="M81.967 59.0137C82.2044 58.6266 82.418 58.2765 82.8559 58.121L83.0196 58.2695C83.2592 60.4832 83.618 62.6919 83.8087 64.9085C84.1827 69.2762 84.1664 75.3714 83.231 79.6676C82.8895 81.2321 82.4397 82.8098 81.966 84.3389C81.6397 85.3914 80.6728 87.5782 80.6739 88.5653C80.1915 88.6016 79.7308 88.6101 79.2484 88.5822C77.6409 85.9148 75.7829 83.4203 73.951 80.9035C73.1261 79.7685 71.4513 78.0754 71.0351 76.8739C70.8725 76.4049 70.738 75.716 70.9581 75.25C73.861 79.3581 76.9849 83.3239 79.7285 87.5399C80.7702 84.765 81.7046 81.9799 82.265 79.0615C83.4921 74.2592 83.1302 65.3509 82.2673 60.4416L81.967 59.0137Z" fill="#012F1C"/>
<path d="M47.1733 61.9658C47.8536 62.3464 48.4291 61.5742 49.158 61.4877C49.3576 61.6363 49.6491 61.9219 49.8995 61.9359C52.2845 61.8709 54.8675 61.9531 57.0428 63.0041L57.1245 63.0289C57.774 64.0806 58.4689 65.1318 59.0227 66.2371C62.0752 72.3287 63.1137 79.4559 62.6092 86.2071C62.4502 88.3363 62.0072 90.4118 61.7972 92.5273C60.6632 92.4378 57.8937 91.8147 56.7447 91.4917C56.4602 91.6144 56.3474 91.6438 56.2077 91.9397C55.9831 92.4153 55.8877 93.0901 55.7579 93.6095C55.4326 93.3077 55.4319 92.9302 55.3824 92.5133C55.5739 91.3111 55.608 90.1071 55.7837 88.9144C55.789 88.8987 55.7946 88.8829 55.7998 88.8671C56.2811 87.3713 56.3225 85.6345 55.8882 84.1203C55.8779 84.1075 55.8678 84.0946 55.8574 84.082C55.2547 83.357 52.2507 76.3425 52.0071 75.2701C51.2426 73.8083 50.707 72.2515 49.9806 70.7762C49.2205 70.1236 48.6256 67.5317 47.8911 67.1948C47.5428 66.5069 47.226 65.8066 46.9093 65.1037C46.7418 64.8253 46.6079 64.5392 46.4738 64.244C46.4688 64.2267 46.4635 64.2094 46.4586 64.1919C46.2973 63.6085 46.0137 63.1283 45.7133 62.6093C46.0326 62.7473 46.3432 62.888 46.6843 62.9637L46.7343 62.9477C46.8807 62.8189 47.0646 62.73 47.234 62.6333C47.1218 62.4554 47.1671 62.1731 47.1733 61.9658Z" fill="#1B3562"/>
<path d="M45.7132 62.6104C46.0325 62.7484 46.3431 62.8891 46.6842 62.9648L46.7342 62.9488C46.8806 62.82 47.0645 62.7311 47.2339 62.6344L47.4903 62.7904C47.7206 63.2813 47.9382 63.784 48.2251 64.2449C48.4531 63.8025 48.9352 63.7045 49.3708 63.5404C52.4912 65.3551 53.7816 69.5693 54.6469 72.8446C55.5388 76.2197 56.004 80.6092 55.8881 84.1214C55.8778 84.1086 55.8677 84.0957 55.8573 84.0831C55.2546 83.3581 52.2506 76.3436 52.007 75.2712C51.2425 73.8094 50.7069 72.2525 49.9805 70.7773C49.2204 70.1247 48.6255 67.5328 47.891 67.1959C47.5427 66.508 47.2259 65.8077 46.9091 65.1048C46.7417 64.8264 46.6078 64.5403 46.4737 64.2451C46.4687 64.2278 46.4634 64.2105 46.4585 64.193C46.2972 63.6096 46.0135 63.1294 45.7132 62.6104Z" fill="#02964B"/>
<path d="M45.7132 62.6104C46.0325 62.7484 46.3431 62.8891 46.6842 62.9648L46.7342 62.9488C46.8806 62.82 47.0645 62.7311 47.2339 62.6344L47.4903 62.7904C47.7206 63.2813 47.9382 63.784 48.2251 64.2449C49.4781 66.67 52.5197 72.7288 52.007 75.2712C51.2425 73.8094 50.7069 72.2525 49.9805 70.7773C49.2204 70.1247 48.6255 67.5328 47.891 67.1959C47.5427 66.508 47.2259 65.8077 46.9091 65.1048C46.7417 64.8264 46.6078 64.5403 46.4737 64.2451C46.4687 64.2278 46.4634 64.2105 46.4585 64.193C46.2972 63.6096 46.0135 63.1294 45.7132 62.6104Z" fill="#E4A525"/>
<path d="M45.7132 62.6104C46.0325 62.7484 46.3431 62.8891 46.6842 62.9648L46.7342 62.9488L46.9298 63.4876C48.0756 65.8614 49.094 68.2947 49.9805 70.7773C49.2204 70.1247 48.6255 67.5328 47.891 67.1959C47.5427 66.508 47.2259 65.8077 46.9091 65.1048C46.7417 64.8264 46.6078 64.5403 46.4737 64.2451C46.4687 64.2278 46.4634 64.2105 46.4585 64.193C46.2972 63.6096 46.0135 63.1294 45.7132 62.6104Z" fill="#702D10"/>
<path d="M47.1733 61.9648C47.8536 62.3453 48.4291 61.5742 49.158 61.4877C49.3576 61.6363 49.6491 61.9219 49.8995 61.9359C53.3849 63.9743 55.1707 69.0421 56.1249 72.7048C57.5034 77.9964 58.0378 83.5517 57.341 88.9821C57.2561 89.6442 57.2475 90.7276 56.9049 91.2917C56.8596 91.3664 56.8049 91.4294 56.7447 91.4917C56.4602 91.6144 56.3474 91.6438 56.2077 91.9397C55.9831 92.4153 55.8877 93.0901 55.7579 93.6095C55.4326 93.3077 55.4319 92.9302 55.3824 92.5133C55.5739 91.3111 55.608 90.1071 55.7837 88.9144C55.789 88.8987 55.7946 88.8829 55.7998 88.8671C56.2811 87.3713 56.3225 85.6345 55.8882 84.1203C56.0041 80.6082 55.5388 76.2197 54.6469 72.8446C53.7816 69.5693 52.4912 65.3551 49.3708 63.5404C48.9352 63.7045 48.4531 63.8025 48.2251 64.2449C47.9382 63.784 47.7206 63.2813 47.4903 62.7904L47.234 62.6333C47.1218 62.4554 47.1671 62.172 47.1733 61.9648Z" fill="#02192E"/>
<path d="M47.4903 62.7904C48.1211 63.0199 48.7765 63.2259 49.3708 63.5404C48.9352 63.7045 48.4531 63.8025 48.2251 64.2449C47.9382 63.784 47.7206 63.2813 47.4903 62.7904Z" fill="#016E37"/>
<path d="M84.4472 55.1568C86.3485 55.123 88.2563 55.4296 89.8194 56.5828C90.4199 57.2183 91.0661 57.8448 91.5972 58.5389C95.9581 66.018 98.5434 71.903 99.0995 80.71C98.9618 82.2705 98.7776 83.8044 98.4426 85.3375C98.203 86.4294 97.7077 87.685 97.6686 88.7897C97.7218 89.5737 97.7597 90.3366 97.7153 91.122C97.4421 91.878 97.531 92.7426 97.3857 93.5325C96.8123 94.2088 96.2411 94.9035 95.3153 95.0721C95.2644 93.1293 95.6925 91.0929 95.9115 89.1612C96.1022 87.3083 96.1044 85.4769 96.1022 83.617C95.3044 75.8893 89.9213 61.8406 84.0624 56.8204L83.9648 56.6624C84.0017 56.1592 84.2683 55.6279 84.4472 55.1568Z" fill="url(#paint4_linear_1757_4797)"/>
<path d="M84.4472 55.1568C86.3962 56.9004 87.852 59.0324 89.2363 61.237C93.1939 67.5377 96.0101 74.4532 96.4274 81.9607C96.4632 82.5981 96.4968 83.1014 96.1022 83.617C95.3044 75.8893 89.9213 61.8406 84.0624 56.8204L83.9648 56.6624C84.0017 56.1592 84.2683 55.6279 84.4472 55.1568Z" fill="url(#paint5_linear_1757_4797)"/>
<path d="M95.9115 89.1612L95.9785 89.1805C96.1801 89.4852 95.8983 90.3552 95.9232 90.7727L96.1053 90.7956C96.1313 90.6496 96.1595 90.5145 96.2365 90.3853C96.4771 89.9812 97.0668 89.9309 97.4852 89.8368C97.5991 89.5957 97.5785 89.5087 97.5622 89.2485C97.1937 89.0406 96.9964 89.5509 96.5628 89.5993L96.566 89.4838C96.8717 89.1363 97.1873 88.8468 97.6686 88.7897C97.7218 89.5737 97.7597 90.3366 97.7153 91.122C97.4421 91.878 97.531 92.7426 97.3857 93.5325C96.8123 94.2088 96.2411 94.9035 95.3153 95.0721C95.2644 93.1293 95.6925 91.0929 95.9115 89.1612Z" fill="#05231A"/>
<path d="M80.7301 91.5019C80.7366 91.4155 80.7431 91.3292 80.7507 91.243C80.7627 91.108 80.7789 90.6469 80.8852 90.5821C81.3686 90.2873 83.6851 90.5954 84.3333 90.6781C84.6412 92.2644 84.4753 94.0479 84.4851 95.6623C84.4981 98.0107 84.5696 100.362 84.5154 102.71C83.3154 102.89 82.0483 102.9 80.8353 102.983C79.1768 103.097 77.4793 103.289 75.8186 103.244C75.5801 100.348 75.6929 97.349 75.6354 94.4383C75.6137 93.3108 75.6441 92.1503 75.4923 91.0324C76.5893 90.7552 77.7904 90.7393 78.9145 90.8173C78.9459 91.1196 78.9166 91.2512 79.141 91.4828C79.6299 91.6693 80.2185 91.5196 80.7301 91.5019Z" fill="#F9FCF9"/>
<path d="M80.2467 97.4364C80.9827 96.4871 81.8857 95.208 83.0759 94.8396L83.2385 94.9649C83.1865 95.186 83.0987 95.3816 82.9881 95.5789C82.6271 96.2236 80.0201 99.8866 79.5573 100.016C79.3893 99.9327 79.2223 99.843 79.0695 99.7324C78.3931 99.2409 77.3308 98.1926 77.2126 97.3262C77.3449 97.0027 77.489 96.9442 77.7698 96.7525C78.6207 96.84 79.2646 97.4061 80.134 97.4316C80.1719 97.4327 80.2088 97.4348 80.2467 97.4364Z" fill="#02964B"/>
<path d="M77.7698 96.7525C78.6207 96.84 79.2646 97.4061 80.134 97.4316C80.1719 97.4327 80.2088 97.4348 80.2467 97.4364L79.4283 98.3883C78.9156 97.7985 78.3443 97.2799 77.7698 96.7525Z" fill="#C1FAC8"/>
<path d="M56.7447 91.4917C57.8937 91.8147 60.6632 92.4378 61.7972 92.5273C62.0972 92.8928 62.0752 93.2749 62.0277 93.7195C61.9143 94.7824 61.3528 96.947 60.5008 97.6189C60.4231 97.6802 60.3384 97.7245 60.2505 97.7681C59.645 97.3861 57.2136 97.141 56.3591 96.9339L55.9573 96.7981L55.8622 96.7874C55.7515 96.7465 55.7678 96.7622 55.6922 96.7091C55.4806 96.5601 55.5079 96.3133 55.4723 96.0674C55.5126 95.4021 55.5544 94.7601 55.7015 94.1074L55.7579 93.6095C55.8877 93.0901 55.9831 92.4153 56.2077 91.9397C56.3474 91.6438 56.4602 91.6144 56.7447 91.4917Z" fill="#021D28"/>
<path d="M56.7447 91.4917C57.8937 91.8147 60.6632 92.4378 61.7972 92.5273C62.0972 92.8928 62.0752 93.2749 62.0277 93.7195C61.9143 94.7824 61.3528 96.947 60.5008 97.6189C60.4231 97.6802 60.3384 97.7245 60.2505 97.7681C59.645 97.3861 57.2136 97.141 56.3591 96.9339C56.3786 96.6932 56.4231 96.4827 56.4932 96.2517C56.7482 96.0457 56.8423 96.0434 57.1717 95.9946C58.232 96.2565 59.3234 96.4211 60.3981 96.6152C60.9209 95.5843 61.1104 94.5222 61.2661 93.3903C59.8228 92.9806 58.2923 92.6083 56.8076 92.3956C56.6632 93.0088 56.5664 93.6299 56.4642 94.251C56.2493 94.3881 56.178 94.4624 55.9186 94.4676L55.7015 94.1074L55.7579 93.6095C55.8877 93.0901 55.9831 92.4153 56.2077 91.9397C56.3474 91.6438 56.4602 91.6144 56.7447 91.4917Z" fill="#7BA8A2"/>
<path d="M55.4723 96.0674C55.5126 95.4021 55.5544 94.7601 55.7015 94.1074L55.9186 94.4676C56.178 94.4624 56.2493 94.3881 56.4642 94.251C56.3489 94.6936 56.1483 95.2231 56.2142 95.679C56.3195 95.7964 56.375 95.8624 56.5294 95.9051L57.1717 95.9946C56.8423 96.0434 56.7482 96.0457 56.4932 96.2517C56.4231 96.4827 56.3786 96.6932 56.3591 96.9339L55.9573 96.7981L55.8622 96.7874C55.7515 96.7465 55.7678 96.7622 55.6922 96.7091C55.4806 96.5601 55.5079 96.3133 55.4723 96.0674Z" fill="#688D8A"/>
<path d="M79.2484 88.5822C79.7308 88.6101 80.1915 88.6016 80.6739 88.5653L80.7639 88.9574C80.7108 89.0274 80.6706 89.1029 80.5915 89.143C80.7259 89.9316 80.6521 90.7137 80.7301 91.5019C80.2185 91.5196 79.6299 91.6693 79.141 91.4828C78.9166 91.2512 78.9459 91.1196 78.9145 90.8173C78.9871 90.3031 78.9027 89.7156 78.8777 89.1953L78.8127 88.6471L79.2484 88.5822Z" fill="#05231A"/>
<path d="M79.2484 88.5822C79.7308 88.6101 80.1915 88.6016 80.6739 88.5653L80.7639 88.9574C80.7108 89.0274 80.6706 89.1029 80.5915 89.143C80.0213 89.1585 79.4468 89.1602 78.8777 89.1953L78.8127 88.6471L79.2484 88.5822Z" fill="#7BA8A2"/>
<path d="M17.8456 67.1329C17.691 64.7812 18.0038 62.7332 18.9707 60.5665C20.2795 57.6682 22.6796 55.4055 25.6475 54.2719C29.0371 52.9797 32.1497 53.7465 35.3301 55.182C35.5964 55.4519 35.9243 55.5965 36.2592 55.7625C38.1316 56.3497 39.5627 56.3696 41.4894 56.1217L41.9161 55.9896C42.149 56.5226 42.392 57.051 42.6446 57.5747C43.424 59.1716 44.1622 60.7881 44.8588 62.4228C44.9768 62.4118 45.063 62.3686 45.1603 62.4456C45.7381 62.9019 45.9274 63.7168 46.4738 64.244C46.6079 64.5392 46.7418 64.8253 46.9093 65.1037C47.226 65.8066 47.5428 66.5069 47.8911 67.1948C48.6256 67.5317 49.2205 70.1236 49.9806 70.7762C50.707 72.2515 51.2426 73.8083 52.0071 75.2701C52.2507 76.3425 55.2547 83.357 55.8574 84.082C55.8678 84.0946 55.8779 84.1075 55.8882 84.1203C56.3225 85.6345 56.2811 87.3713 55.7998 88.8671C55.7946 88.8829 55.789 88.8987 55.7837 88.9144C55.608 90.1071 55.5739 91.3111 55.3824 92.5133C55.4319 92.9302 55.4326 93.3077 55.7579 93.6095L55.7015 94.1074C55.5544 94.7601 55.5126 95.4021 55.4723 96.0674C55.5079 96.3133 55.4806 96.5601 55.6922 96.7091C55.7678 96.7622 55.7515 96.7465 55.8622 96.7874L55.6238 96.9067C55.3885 98.0722 55.1236 99.2867 54.6583 100.384C54.44 102.103 54.1466 103.773 53.7028 105.451L53.3027 106.485C51.394 109.024 50.742 109.546 48.1808 111.3C44.5739 113.315 42.1416 113.91 38.1096 112.767C37.2799 112.524 36.4539 112.27 35.6318 112.001C34.9863 111.8 34.1724 111.376 33.5068 111.343L33.3553 111.573C33.3341 111.495 33.2668 111.308 33.2165 111.249C32.9257 110.913 31.2784 110.08 30.7955 109.757C30.1409 109.318 29.5275 108.809 28.949 108.275C26.4604 105.976 25.8539 104.205 25.7194 100.799C24.5026 99.9237 24.1287 99.1628 23.5658 97.8028C23.4354 97.4876 23.3302 97.1624 23.1103 96.8967C23.0589 95.9894 20.5514 90.1292 20.0057 88.8373C19.6915 88.0932 19.1162 87.0926 19.0617 86.2866C19.403 85.9578 20.0172 85.839 20.4607 85.6678L20.9199 85.4591L21.0956 85.2872C22.2881 84.6939 23.5092 84.0841 24.4881 83.1611C25.0958 82.5882 25.6107 81.853 25.6187 80.9868C25.6366 79.0604 24.1089 78.4501 23.0544 77.1975C22.824 76.9237 22.9112 76.6584 22.9372 76.3303C22.8077 75.0506 22.6922 73.7364 21.9078 72.6603C21.2409 71.7451 20.2872 71.3186 19.1942 71.1591C19.1793 69.562 18.7925 68.4422 17.8456 67.1329Z" fill="#F9FCF9"/>
<path d="M17.8456 67.1329C17.691 64.7812 18.0038 62.7332 18.9707 60.5665C20.2795 57.6682 22.6796 55.4055 25.6475 54.2719C29.0371 52.9797 32.1497 53.7465 35.3301 55.182C35.5964 55.4519 35.9243 55.5965 36.2592 55.7625C39.306 58.1018 41.8893 61.1535 42.415 65.115C42.8328 68.256 41.9703 71.433 40.022 73.9299C38.0561 76.4924 34.8138 78.3224 31.6123 78.7273C28.3325 79.1422 25.7528 77.8081 22.9372 76.3303C22.8077 75.0506 22.6922 73.7364 21.9078 72.6603C21.2409 71.7451 20.2872 71.3186 19.1942 71.1591C19.1793 69.562 18.7925 68.4422 17.8456 67.1329Z" fill="#028846"/>
<path d="M35.0658 57.8163C36.2787 58.4126 37.4729 59.0546 38.673 59.6768L36.8298 64.3866C36.1894 66.004 35.4959 67.5989 34.8378 69.2091C34.3168 70.484 33.8476 72.0549 33.0565 73.1878C32.7801 73.5837 32.3961 73.9196 31.9481 74.1053C30.2969 74.7897 26.7248 72.8396 25.0549 72.1313C23.9501 71.6685 22.8455 71.2107 21.7678 70.6868C22.3667 69.448 23.1079 68.243 23.7821 67.0411C25.9539 67.9902 28.1037 68.9894 30.2297 70.0376C30.781 68.9344 31.1619 67.7282 31.6181 66.5821C32.3188 64.8215 33.0659 63.0749 33.7245 61.2981C34.1436 60.1675 34.446 58.8486 35.0658 57.8163Z" fill="#F9FCF9"/>
<path d="M55.7837 88.9144C55.608 90.1071 55.5739 91.3111 55.3824 92.5133C55.4319 92.9302 55.4326 93.3077 55.7579 93.6095L55.7015 94.1074C55.5544 94.7601 55.5126 95.4021 55.4723 96.0674C55.5079 96.3133 55.4806 96.5601 55.6922 96.7091C55.7678 96.7622 55.7515 96.7465 55.8622 96.7874L55.6238 96.9067C55.3885 98.0722 55.1236 99.2867 54.6583 100.384C54.44 102.103 54.1466 103.773 53.7028 105.451L53.3027 106.485C51.394 109.024 50.742 109.546 48.1808 111.3C44.5739 113.315 42.1416 113.91 38.1096 112.767C37.2799 112.524 36.4539 112.27 35.6318 112.001C34.9863 111.8 34.1724 111.376 33.5068 111.343L33.3553 111.573C33.3341 111.495 33.2668 111.308 33.2165 111.249C32.9257 110.913 31.2784 110.08 30.7955 109.757C30.1409 109.318 29.5275 108.809 28.949 108.275C26.4604 105.976 25.8539 104.205 25.7194 100.799C26.1374 101.011 26.6739 101.232 26.9571 101.623C27.5608 101.28 28.3867 101.128 29.0461 100.883C30.3836 100.384 31.7157 99.8286 33.0382 99.2893C35.634 98.2304 38.255 97.1823 40.8295 96.0777C42.5534 95.3381 44.25 94.4909 46.0073 93.8337C46.3479 93.7062 46.5777 93.6823 46.9356 93.7612C46.8904 93.6008 46.9042 93.5287 46.9532 93.3707C47.596 92.9245 48.3487 92.692 49.0809 92.4342C51.0052 91.6067 53.9921 90.8551 55.4201 89.3728C55.4911 89.2133 55.6676 89.0491 55.7837 88.9144Z" fill="#016030"/>
<path d="M26.9571 101.623C27.5608 101.28 28.3867 101.128 29.0461 100.883C30.3836 100.384 31.7157 99.8286 33.0382 99.2893C35.634 98.2304 38.255 97.1823 40.8295 96.0777C42.5534 95.3381 44.25 94.4909 46.0073 93.8337C46.3479 93.7062 46.5777 93.6823 46.9356 93.7612C46.9993 93.9542 47.0772 94.1514 47.1267 94.3481C47.8734 97.1848 48.4186 100.487 46.8353 103.157C45.621 105.204 43.3382 106.558 41.0752 107.123C40.5877 107.245 40.0876 107.288 39.5925 107.365C39.0712 107.364 38.5487 107.361 38.0287 107.322C33.8299 107.005 29.6892 104.81 26.9571 101.623Z" fill="url(#paint6_linear_1757_4797)"/>
<path d="M47.1268 94.347L47.3508 94.2127C48.6246 95.0348 50.3645 99.127 50.6983 100.616C51.3133 103.362 50.5414 106.831 49.0227 109.176C48.503 109.978 47.9554 110.634 47.2063 111.234C47.0097 109.925 46.5028 108.401 46.7544 107.089C46.8717 106.477 47.269 105.899 47.2974 105.288C46.9889 105.647 46.7175 106.092 46.3639 106.399C45.2178 107.396 43.211 108.066 41.7414 108.181C41.075 108.233 40.3828 108.212 39.7285 108.064L39.6266 107.917C39.6366 107.909 39.6478 107.902 39.6564 107.892C39.7017 107.839 39.7407 107.782 39.7826 107.727L39.7234 107.506L39.5052 107.504L39.5925 107.364C40.0876 107.286 40.5877 107.244 41.0752 107.122C43.3383 106.557 45.621 105.203 46.8353 103.155C48.4187 100.486 47.8734 97.1837 47.1268 94.347Z" fill="url(#paint7_linear_1757_4797)"/>
<path d="M55.7837 88.9144C55.608 90.1071 55.5739 91.3111 55.3824 92.5133C55.4319 92.9302 55.4326 93.3077 55.7579 93.6095L55.7015 94.1074C55.5544 94.7601 55.5126 95.4021 55.4723 96.0674C55.5079 96.3133 55.4806 96.5601 55.6922 96.7091C55.7678 96.7622 55.7515 96.7465 55.8622 96.7874L55.6238 96.9067C55.3885 98.0722 55.1236 99.2867 54.6583 100.384C54.44 102.103 54.1466 103.773 53.7028 105.451L53.5033 105.461C52.8465 104.894 53.0908 101.301 53.0045 100.299C52.9245 99.3706 52.736 98.4258 52.4312 97.5448C51.7673 95.6257 50.4582 93.8948 49.0809 92.4342C51.0052 91.6067 53.9921 90.8551 55.4201 89.3728C55.4911 89.2133 55.6676 89.0491 55.7837 88.9144Z" fill="#028846"/>
<path d="M55.7837 88.9144C55.608 90.1071 55.5739 91.3111 55.3824 92.5133C55.4319 92.9302 55.4326 93.3077 55.7579 93.6095L55.7015 94.1074C55.5544 94.7601 55.5126 95.4021 55.4723 96.0674C55.5079 96.3133 55.4806 96.5601 55.6922 96.7091C55.7678 96.7622 55.7515 96.7465 55.8622 96.7874L55.6238 96.9067C55.3885 98.0722 55.1236 99.2867 54.6583 100.384C54.3933 98.9137 54.1861 97.4893 53.7062 96.0682C53.8648 95.5709 54.287 95.4147 54.5822 95.0121C54.7982 94.0474 54.7515 93.0186 54.8441 92.034C55.0372 91.427 55.6896 89.9653 55.4201 89.3728C55.4911 89.2133 55.6676 89.0491 55.7837 88.9144Z" fill="#016030"/>
<path d="M55.7837 88.9144C55.608 90.1071 55.5739 91.3111 55.3824 92.5133C55.4319 92.9302 55.4326 93.3077 55.7579 93.6095L55.7015 94.1074C55.5544 94.7601 55.5126 95.4021 55.4723 96.0674C55.4338 96.3532 55.458 96.4734 55.2377 96.6867C54.9705 96.7229 54.9621 96.7503 54.7304 96.586C54.4451 95.9774 55.1155 94.3328 55.2479 93.6049C55.1418 93.0799 54.9731 92.5554 54.8441 92.034C55.0372 91.427 55.6896 89.9653 55.4201 89.3728C55.4911 89.2133 55.6676 89.0491 55.7837 88.9144Z" fill="#034435"/>
<path d="M51.9479 91.792C53.0928 92.8035 53.6237 94.3 54.284 94.9022C54.3302 94.9442 54.5152 94.9873 54.5822 95.0121C54.287 95.4147 53.8648 95.5709 53.7062 96.0682C53.406 94.5571 52.6155 93.1681 51.9479 91.792Z" fill="#016E37"/>
<path d="M47.891 67.1959C48.6255 67.5328 49.2204 70.1247 49.9805 70.7773C50.7069 72.2525 51.2425 73.8094 52.007 75.2712C52.2506 76.3436 55.2546 83.3581 55.8573 84.0831C55.8677 84.0957 55.8778 84.1086 55.8881 84.1214C56.3223 85.6356 56.2812 87.3724 55.7999 88.8682C55.7947 88.884 55.7891 88.8998 55.7838 88.9155C55.6677 89.0502 55.4911 89.2133 55.4201 89.3728C53.9921 90.8551 51.0052 91.6067 49.0809 92.4342C48.3487 92.692 47.596 92.9245 46.9532 93.3707C46.9042 93.5287 46.8904 93.6008 46.9356 93.7612C46.5777 93.6823 46.3479 93.7062 46.0073 93.8337C44.25 94.4909 42.5534 95.3381 40.8295 96.0777C38.255 97.1823 35.634 98.2304 33.0382 99.2893C31.7157 99.8286 30.3836 100.384 29.0461 100.883C28.3867 101.128 27.5608 101.28 26.9571 101.623C26.6739 101.232 26.1375 101.012 25.7195 100.8C24.5027 99.9248 24.1288 99.1639 23.5659 97.8039C23.4355 97.4887 23.3303 97.1634 23.1104 96.8977C23.059 95.9905 20.5515 90.1302 20.0058 88.8383C19.6916 88.0942 19.1163 87.0937 19.0618 86.2877C19.4031 85.9589 20.0173 85.84 20.4608 85.6689L20.92 85.4601C21.3394 86.4045 22.0074 87.5551 22.2277 88.5505C22.2143 88.9294 22.2116 89.313 22.1805 89.6906C22.6989 90.9428 23.2449 92.1833 23.8182 93.4112C24.124 94.7856 25.5762 97.6665 26.4177 98.888C26.9953 99.2762 27.5933 99.3358 28.2698 99.2002C28.502 99.1549 28.7309 99.0945 28.9553 99.0197C29.8578 98.6199 30.7544 98.2161 31.6367 97.773C32.2292 97.5698 32.8307 97.2552 33.4076 97.0041L33.942 96.7789C34.4903 96.5521 35.029 96.2911 35.5701 96.0468L35.4635 95.8283C35.7388 95.6482 35.9747 95.4696 36.2053 95.2337L36.2705 95.1664C37.6395 94.512 39.0649 93.9747 40.4561 93.3693C42.7383 92.3761 45.0021 91.3485 47.3021 90.3954C49.1811 89.6169 51.247 88.9326 53.0182 87.9327C53.6567 87.5723 53.9335 87.2608 54.1311 86.549C53.8928 84.6033 52.7573 82.5878 51.97 80.7902C51.9594 80.3392 51.9758 79.8996 52.0096 79.4498L51.1937 77.5222C50.9487 77.3831 50.7398 77.3377 50.4625 77.298L50.1676 76.6148L49.7405 75.6524C49.9433 75.2724 49.8776 75.02 49.877 74.5922C49.7882 74.2176 49.5746 73.8423 49.4107 73.4935L49.1336 72.8631C49.4048 71.1407 48.9916 69.8566 48.2854 68.3103C48.121 67.9505 47.9113 67.598 47.891 67.1959Z" fill="#331911"/>
<path d="M54.1311 86.549L54.313 86.6237C54.3891 87.0519 54.393 87.2957 54.2743 87.7147C54.2525 87.7919 54.2343 87.8702 54.2129 87.9476C53.0078 88.964 49.8746 89.9478 48.2741 90.6319L35.5701 96.0468L35.4635 95.8283C35.7388 95.6482 35.9747 95.4696 36.2053 95.2337L36.2705 95.1664C37.6395 94.512 39.0649 93.9747 40.4561 93.3693C42.7383 92.3761 45.0021 91.3485 47.3021 90.3954C49.1811 89.6169 51.247 88.9326 53.0182 87.9327C53.6567 87.5723 53.9335 87.2608 54.1311 86.549Z" fill="url(#paint8_linear_1757_4797)"/>
<path d="M52.0096 79.4498C52.9561 81.2371 53.6895 83.1759 54.4962 85.0317C54.3498 85.574 54.3739 86.0759 54.313 86.6237L54.1311 86.549C53.8928 84.6033 52.7573 82.5878 51.97 80.7902C51.9594 80.3392 51.9758 79.8996 52.0096 79.4498Z" fill="#028846"/>
<path d="M20.92 85.4601C21.3394 86.4045 22.0074 87.5551 22.2277 88.5505C22.2143 88.9294 22.2116 89.313 22.1805 89.6906C21.5406 88.3833 20.8575 87.0754 20.4608 85.6689L20.92 85.4601Z" fill="#028846"/>
<path d="M54.4962 85.0317C54.7703 85.9041 54.972 86.6887 54.5145 87.5365C54.4333 87.6869 54.3246 87.8192 54.2129 87.9476C54.2343 87.8702 54.2525 87.7919 54.2743 87.7147C54.393 87.2957 54.3891 87.0519 54.313 86.6237C54.3739 86.0759 54.3498 85.574 54.4962 85.0317Z" fill="#3B8F68"/>
<path d="M49.877 74.5922C50.1907 75.2288 50.4338 75.9142 50.76 76.5395L50.1676 76.6148L49.7405 75.6524C49.9433 75.2724 49.8776 75.02 49.877 74.5922Z" fill="#028846"/>
<path d="M50.1676 76.6148L50.76 76.5395L51.1937 77.5222C50.9487 77.3831 50.7398 77.3377 50.4625 77.298L50.1676 76.6148Z" fill="#3B8F68"/>
<path d="M44.8588 62.4228C44.9768 62.4118 45.063 62.3686 45.1603 62.4456C45.7381 62.9019 45.9274 63.7168 46.4738 64.244C46.6079 64.5392 46.7418 64.8253 46.9093 65.1037C47.226 65.8066 47.5428 66.5069 47.8911 67.1948C47.9114 67.597 48.1208 67.9494 48.2851 68.3092C48.9913 69.8554 49.4046 71.1396 49.1334 72.862C48.6344 71.8051 48.223 70.6868 47.7754 69.6059C46.9034 67.1674 45.7345 64.8565 44.8588 62.4228Z" fill="#312F1B"/>
<path d="M42.6446 57.5747C43.424 59.1716 44.1622 60.7881 44.8588 62.4228C45.7345 64.8565 46.9034 67.1674 47.7754 69.6059C47.6919 69.7509 47.6914 69.8845 47.6724 70.048C47.429 69.7448 47.4115 69.452 47.0914 69.1637C47.0691 69.1436 47.046 69.1242 47.0234 69.1045C46.1474 67.8406 44.9611 64.2396 44.2899 62.634C43.7328 61.3013 43.0252 60.0088 42.5544 58.644C42.6114 58.296 42.6191 57.9273 42.6446 57.5747Z" fill="#3B8F68"/>
<path d="M22.2277 88.5494C22.7682 89.6852 23.4937 90.9409 23.8357 92.1448C24.6471 93.7567 25.8671 97.4178 26.8856 98.5601L26.4178 98.8869C25.5763 97.6654 24.1241 94.7845 23.8183 93.4101C23.2449 92.1822 22.6989 90.9417 22.1806 89.6895C22.2117 89.3119 22.2144 88.9283 22.2277 88.5494Z" fill="#3B8F68"/>
<path d="M30.7224 97.6519C31.6841 97.1639 32.6909 96.7582 33.6814 96.3324C33.5595 96.5537 33.4413 96.7485 33.4076 97.0041C32.8307 97.2552 32.2292 97.5698 31.6367 97.773C30.7544 98.2161 29.8578 98.6199 28.9553 99.0197C28.7309 99.0945 28.502 99.1549 28.2698 99.2002C27.5933 99.3358 26.9953 99.2762 26.4177 98.888L26.8855 98.5612L27.5734 98.7497C28.6869 98.5777 29.6999 98.1031 30.7224 97.6519Z" fill="#028846"/>
<path d="M47.0234 69.1045C47.046 69.1242 47.0691 69.1436 47.0914 69.1637C47.4115 69.452 47.429 69.7448 47.6724 70.048C47.6914 69.8845 47.6919 69.7509 47.7754 69.6059C48.223 70.6868 48.6344 71.8051 49.1334 72.862L49.4107 73.4935C49.3353 73.8237 49.275 74.1329 49.2542 74.472C48.4674 72.7012 47.7237 70.9114 47.0234 69.1045Z" fill="#02964B"/>
<path d="M50.4625 77.298C50.7398 77.3377 50.9487 77.3831 51.1937 77.5222L52.0096 79.4498C51.9758 79.8996 51.9594 80.3392 51.97 80.7902C51.3987 79.6623 50.9356 78.47 50.4625 77.298Z" fill="#02964B"/>
<path d="M41.9161 55.9896C42.149 56.5226 42.392 57.051 42.6446 57.5747C42.6191 57.9273 42.6114 58.296 42.5544 58.644C42.1425 57.8579 41.6539 56.9991 41.4894 56.1217L41.9161 55.9896Z" fill="#02964B"/>
<path d="M36.2705 95.1664L36.2053 95.2337C35.9747 95.4696 35.7388 95.6482 35.4635 95.8283L35.5701 96.0468C35.029 96.2911 34.4903 96.5521 33.942 96.7789L33.4076 97.0041C33.4413 96.7485 33.5595 96.5537 33.6814 96.3324L34.4037 96.0229L36.2705 95.1664Z" fill="#3B8F68"/>
<path d="M49.4107 73.4935C49.5746 73.8423 49.7882 74.2176 49.877 74.5922C49.8776 75.02 49.9433 75.2724 49.7405 75.6524L49.2542 74.472C49.275 74.1329 49.3353 73.8237 49.4107 73.4935Z" fill="#3B8F68"/>
<path d="M55.4626 33.276C55.2797 32.4441 55.0729 31.6009 54.9577 30.7569C54.6398 28.4308 55.7254 26.4674 55.6233 24.2095C55.5493 22.5724 54.6702 19.4693 55.7208 18.1232C57.3678 16.0131 61.7488 15.337 64.2761 15.2472C65.406 15.2071 66.5843 15.3732 67.7051 15.2261C69.0276 15.0525 70.2666 14.4073 71.6129 14.2505C72.5928 14.1364 73.9413 14.1253 74.7618 14.7706C76.3976 16.0221 76.6697 18.0323 77.462 19.801C78.0127 22.2356 78.2024 24.5962 78.1905 27.0887C78.2707 27.6675 78.3954 28.2713 78.4149 28.8542L78.2447 28.8728C77.7114 30.1303 78.6718 34.6513 78.4886 36.7176C78.3455 38.3236 77.874 39.8348 77.4046 41.3682C77.2008 42.0353 76.9276 42.7309 76.8355 43.4235C76.106 45.0221 75.3298 46.7913 73.5695 47.4727C73.099 47.6548 72.5798 47.7666 72.0779 47.8181C71.202 47.596 70.1072 47.7623 69.1761 47.5825C67.652 47.2886 66.1377 46.6006 64.7517 45.9222C60.8227 43.9986 58.4262 42.0913 56.9513 37.8602C56.4602 36.4508 56.3467 34.5819 55.5152 33.3526L55.4626 33.276Z" fill="#BA6234"/>
<path d="M74.7618 14.7706C76.3976 16.0221 76.6697 18.0323 77.462 19.801C78.0127 22.2356 78.2024 24.5962 78.1905 27.0887C77.7786 26.1503 77.6353 24.9964 77.412 23.995L77.0738 23.174C76.741 21.1615 76.3367 19.1597 75.6419 17.236C75.385 16.5257 74.5297 15.6007 74.4647 14.9323L74.7618 14.7706Z" fill="#8D461A"/>
<path d="M77.412 23.995C76.8494 23.9563 76.3022 23.8458 75.7352 23.8414C74.983 23.8355 72.183 24.2287 71.7213 23.9007C71.6833 23.4542 71.8047 22.8151 72.0605 22.4422C72.1841 22.2628 72.4248 22.2207 72.6285 22.1957C73.899 22.0401 76.0679 22.3735 77.0738 23.174L77.412 23.995Z" fill="#331911"/>
<path d="M65.1619 23.0537C65.1879 23.0483 65.2128 23.0414 65.2399 23.0372C65.5532 22.9888 65.7624 22.9819 66.0258 23.1538C66.3315 23.5996 66.3489 24.3066 66.4269 24.8346C64.2718 25.0228 62.1521 25.1723 60.0671 25.79C59.5847 25.9546 59.0768 26.0704 58.5847 26.2044C58.7509 25.8851 58.9196 25.5663 59.1407 25.2808C60.4071 23.6464 63.2401 23.2771 65.1619 23.0537Z" fill="#331911"/>
<path d="M72.5614 37.7136C73.679 37.5244 74.6297 38.249 75.5413 38.7909C73.0601 39.6357 71.1176 39.7519 68.5225 39.6089C67.7735 39.5788 66.5302 39.369 65.9079 38.9527C66.4489 38.6882 67.4158 39.05 68.0391 38.9261C69.0428 38.7268 69.974 38.0891 70.9701 37.8436C71.4677 37.7212 72.0487 37.7344 72.5614 37.7136Z" fill="#61240E"/>
<path d="M63.3679 27.5084C63.9119 27.5413 64.4069 27.5447 64.8069 27.9683L64.8483 28.2687C65.099 28.522 65.4058 28.7356 65.3939 29.1261C65.3885 29.3027 65.2898 29.4436 65.1467 29.5367C64.8196 29.75 64.0588 29.9552 63.6707 29.9934C63.3932 30.1339 63.1699 30.1877 62.8608 30.1869C62.4326 30.1859 62.1077 30.0168 61.8126 29.7167C61.4617 29.3597 61.3596 28.9368 61.3569 28.4429C61.4946 28.2327 61.6073 28.1398 61.8313 28.0275C62.3034 27.7125 62.8158 27.5983 63.3679 27.5084Z" fill="#61240E"/>
<path d="M63.3679 27.5084C63.9119 27.5413 64.4069 27.5447 64.8069 27.9683L64.8483 28.2687C64.4814 28.1331 64.0478 28.0113 63.6603 28.0961L63.4362 28.8666C63.4042 28.9346 63.3715 29.0031 63.3343 29.0683C63.2212 29.266 63.0252 29.5663 62.7965 29.6068C62.5634 29.648 62.2559 29.574 62.0643 29.4379C61.929 29.3418 61.9482 29.3185 61.9257 29.1552C62.1482 29.0275 62.3739 28.9056 62.6025 28.7895L62.6567 28.5973L62.5298 28.3715C62.3323 28.3058 62.1461 28.2616 61.941 28.2273L61.8313 28.0275C62.3034 27.7125 62.8158 27.5983 63.3679 27.5084Z" fill="#331911"/>
<path d="M63.6603 28.0961C64.0478 28.0113 64.4814 28.1331 64.8483 28.2687C65.099 28.522 65.4058 28.7356 65.3939 29.1261C65.3885 29.3027 65.2898 29.4436 65.1467 29.5367C64.8196 29.75 64.0588 29.9552 63.6707 29.9934C63.6864 29.9597 63.7029 29.9261 63.718 29.8921C64.0122 29.2281 63.9129 28.7489 63.6603 28.0961Z" fill="#EFE0C3"/>
<path d="M73.5184 26.8598C74.1395 26.6206 74.6273 26.5309 75.2907 26.5759L75.3839 26.6851C75.2105 26.8014 75.0771 26.8416 74.8723 26.8822C75.4696 26.9419 75.9953 26.9596 76.4354 27.4166C76.5297 27.6958 76.5319 27.7304 76.4517 28.0137C76.1113 28.4461 75.4685 28.6352 74.9471 28.7441C74.6468 28.8345 74.3292 28.9489 74.0192 28.9954C73.6712 29.0476 73.526 28.8975 73.2691 28.6987L73.0816 28.5099L72.9265 28.1623C72.7975 28.0951 72.6263 28.0326 72.5753 27.8854C72.468 27.5775 72.4832 27.5194 72.6306 27.2483C72.9298 27.0692 73.1769 26.9458 73.5184 26.8598Z" fill="#331911"/>
<path d="M74.8723 26.8822C75.4696 26.9419 75.9953 26.9596 76.4354 27.4166C76.5297 27.6958 76.5319 27.7304 76.4517 28.0137C76.1113 28.4461 75.4685 28.6352 74.9471 28.7441L75.1412 27.8041C75.0718 27.4921 74.9666 27.1874 74.8723 26.8822Z" fill="#EFE0C3"/>
<path d="M73.0816 28.5099L72.9265 28.1623C72.7975 28.0951 72.6263 28.0326 72.5753 27.8854C72.468 27.5775 72.4832 27.5194 72.6306 27.2483C72.9298 27.0692 73.1769 26.9458 73.5184 26.8598C73.7038 27.1717 73.8382 27.2987 73.8121 27.6661C73.4414 27.9557 73.1997 28.0438 73.0816 28.5099Z" fill="#61240E"/>
<path d="M75.1412 27.8041L74.9471 28.7441C74.6468 28.8345 74.3292 28.9489 74.0192 28.9954C73.6712 29.0476 73.526 28.8975 73.2691 28.6987C73.9498 28.4873 74.5732 28.244 75.1412 27.8041Z" fill="#61240E"/>
<path d="M73.6712 33.8708L73.7557 33.9112C73.862 34.1245 73.9357 34.2371 73.8674 34.4846C73.7015 35.0927 72.9308 35.5978 72.4387 35.9201C71.3363 35.9954 70.5634 35.7842 69.552 35.3913L68.4735 34.9248C70.2002 34.489 72.0029 34.5193 73.6712 33.8708Z" fill="#61240E"/>
<path d="M73.6455 41.6313L73.6336 41.7324C73.3734 42.0921 73.1078 42.4229 72.6677 42.5704C71.8623 42.8405 71.1252 42.5813 70.4087 42.2195C70.2385 42.1125 70.0911 42.0426 70.0141 41.8459C71.2336 41.9199 72.4379 41.7877 73.6455 41.6313Z" fill="#61240E"/>
<path d="M71.7992 30.2369C72.5374 30.5935 73.5899 31.9888 73.9455 32.7235C74.1092 33.0604 74.0864 33.2856 73.9617 33.6351L73.9476 33.6393C73.9303 33.5812 73.914 33.5233 73.8934 33.4663C73.8826 33.436 73.8718 33.4061 73.8609 33.3757C73.4707 32.2364 72.3271 31.3855 71.7992 30.2369Z" fill="#8D461A"/>
<path d="M72.157 32.6633C72.3781 32.8021 72.493 32.8862 72.6111 33.122L72.5244 33.3487L72.1168 33.5062C71.8946 33.4689 71.7114 33.4112 71.5055 33.3208L71.4968 33.1682L72.157 32.6633Z" fill="#8D461A"/>
<path d="M8.09097 57.8112L8.62798 57.8359C8.65139 57.8567 8.6747 57.878 8.69844 57.8986C10.5484 59.503 15.3653 59.5216 15.6188 62.5598C15.6731 63.2114 15.4433 64.241 15.0814 64.7869L14.5202 66.0707C15.7725 66.182 16.7598 66.4995 17.8456 67.1329C18.7925 68.4422 19.1793 69.562 19.1942 71.1591C20.2872 71.3186 21.2409 71.7451 21.9078 72.6603C22.6922 73.7364 22.8077 75.0506 22.9372 76.3303C22.9112 76.6584 22.824 76.9237 23.0544 77.1975C24.1089 78.4501 25.6366 79.0604 25.6187 80.9868C25.6107 81.853 25.0958 82.5882 24.4881 83.1611C23.5092 84.0841 22.2881 84.6939 21.0956 85.2872L20.9503 85.186C19.4192 85.7242 17.712 86.2937 16.0918 86.4214C14.9175 86.514 13.7253 86.4262 12.5481 86.4741C11.868 86.5018 11.201 86.687 10.5264 86.6889C10.2273 86.1725 9.97938 85.6452 9.73473 85.102C8.32392 83.563 8.78733 84.1118 6.89892 83.4907C5.23674 82.944 3.1776 81.5878 2.39453 80.0137C1.91877 79.0573 1.86869 78.0734 2.19139 77.0641C2.41382 76.3685 2.87191 75.7778 3.28079 75.181C2.94617 75.0199 2.61198 74.7375 2.31464 74.5112C1.16583 73.6365 0.217779 72.4047 0.0312256 70.9356C-0.101779 69.8879 0.195232 69.1178 0.824485 68.3004C1.94272 66.8954 3.4693 65.8478 5.07132 65.0644C4.66222 64.639 4.27795 64.194 3.99341 63.6731C3.53228 62.8292 3.37835 61.9007 3.66073 60.9716C4.04088 59.7206 5.09419 58.6906 6.22197 58.0888C6.83627 57.8236 7.43018 57.802 8.09097 57.8112Z" fill="url(#paint9_linear_1757_4797)"/>
<path d="M3.28079 75.181C3.53195 75.2722 3.71655 75.3736 3.9275 75.5378C3.21098 76.4357 2.48157 77.3129 2.6188 78.5447C2.73251 79.5653 3.43873 80.3926 4.22093 80.9983C5.0053 81.6057 5.91791 82.0987 6.83073 82.4818C7.39853 82.7201 9.70026 83.3084 9.91716 83.5522C9.73353 83.586 9.59208 83.5337 9.41831 83.4823C9.34807 83.5499 9.30233 83.5586 9.29929 83.6608C9.28227 84.232 9.82795 84.6103 9.73473 85.102C8.32392 83.563 8.78733 84.1118 6.89892 83.4907C5.23674 82.944 3.1776 81.5878 2.39453 80.0137C1.91877 79.0573 1.86869 78.0734 2.19139 77.0641C2.41382 76.3685 2.87191 75.7778 3.28079 75.181Z" fill="#CD5F0A"/>
<path d="M0.824485 68.3004C0.79435 70.1235 0.921178 71.7148 2.25871 73.1006C2.88763 73.7522 3.67591 74.2606 4.41757 74.7747L3.9275 75.5378C3.71655 75.3736 3.53195 75.2722 3.28079 75.181C2.94617 75.0199 2.61198 74.7375 2.31464 74.5112C1.16583 73.6365 0.217779 72.4047 0.0312256 70.9356C-0.101779 69.8879 0.195232 69.1178 0.824485 68.3004Z" fill="#CD5F0A"/>
<path d="M14.5202 66.0707C14.5004 66.1016 14.4829 66.1343 14.4609 66.1638C14.2944 66.3861 14.1547 66.5159 13.8784 66.5649C13.2778 66.6715 10.3273 66.0321 9.8088 65.6605C9.85942 65.5909 12.0074 65.7599 12.3073 65.7511C14.0989 65.6986 14.0134 64.8376 14.9296 64.6095L15.0814 64.7869L14.5202 66.0707Z" fill="#F38E39"/>
<path d="M6.30091 52.4387C12.9797 49.4486 19.6905 46.5305 26.432 43.6851C29.0275 42.5753 31.5549 41.329 34.1874 40.2986C34.9835 42.1054 35.8237 43.9166 36.8448 45.6092C36.8243 45.6261 36.8041 45.6433 36.7834 45.6601C35.3536 46.8186 33.687 47.3425 33.1076 49.3368C32.7941 50.5261 32.7628 51.8545 33.4066 52.9466C33.7093 53.4601 35.2545 54.8616 35.3301 55.182C32.1497 53.7465 29.0371 52.9797 25.6475 54.2719C22.6796 55.4055 20.2795 57.6682 18.9707 60.5665C18.0038 62.7332 17.691 64.7812 17.8456 67.1329C16.7598 66.4995 15.7725 66.182 14.5202 66.0707L15.0814 64.7869C15.4433 64.241 15.6731 63.2114 15.6188 62.5598C15.3653 59.5216 10.5484 59.503 8.69844 57.8986C8.6747 57.878 8.65139 57.8567 8.62798 57.8359C7.86627 56.0429 6.87954 54.3029 6.30091 52.4387Z" fill="#F9FCF9"/>
<path d="M51.0116 31.5789C49.7751 28.8667 48.5332 25.9061 48.1622 22.9255C47.916 20.9487 47.7039 17.8544 48.6226 16.0128C49.1291 14.9977 50.3131 13.6006 51.0284 12.6809C53.6688 9.28671 58.5374 7.53965 62.6887 7.03142C64.1127 6.85709 68.2308 6.93298 69.4958 7.42793C70.3067 7.74541 70.9668 8.33065 71.7408 8.71354C72.3521 9.01647 73.0903 9.13907 73.6302 9.5782C75.5087 11.1077 77.2626 17.4553 77.462 19.801C76.6697 18.0323 76.3976 16.0221 74.7618 14.7706C73.9413 14.1253 72.5928 14.1364 71.6129 14.2505C70.2666 14.4073 69.0276 15.0525 67.7051 15.2261C66.5843 15.3732 65.406 15.2071 64.2761 15.2472C61.7488 15.337 57.3678 16.0131 55.7208 18.1232C54.6702 19.4693 55.5493 22.5724 55.6233 24.2095C55.7254 26.4674 54.6398 28.4308 54.9577 30.7569C55.0729 31.6009 55.2797 32.4441 55.4626 33.276C54.1787 34.2329 53.7714 32.3486 52.4417 31.7784C52.0226 31.5987 51.465 31.6073 51.0116 31.5789Z" fill="black"/>
<path d="M105.168 36.3107C105.648 36.3447 106.305 36.306 106.626 36.724C107.874 38.3542 108.211 43.0045 108.589 45.0753C108.782 46.1378 109.323 46.4062 109.091 47.6313C108.671 49.8428 107.341 54.4351 106.34 56.3569C104.754 56.8417 103.106 57.1825 101.487 57.5508C100.624 57.7284 99.7564 57.9314 98.886 58.0648C98.6323 58.0808 98.3266 58.1258 98.0762 58.092C97.7629 58.0499 97.6632 57.8124 97.5017 57.5796C97.1136 56.0404 96.0437 53.7747 95.3912 52.2243C94.7028 50.1632 94.6649 45.5359 95.2535 43.4225C94.5771 42.8735 93.9104 42.3105 93.1863 41.8262L93.2416 41.7609C94.3126 41.1994 95.2708 40.3381 96.2172 39.5898C96.5944 39.596 96.9738 39.608 97.351 39.5908C98.2019 39.0781 99.5298 39.7867 100.228 39.3039C100.557 38.575 100.908 37.9605 101.479 37.3944L101.687 37.2368C102.689 36.6363 104.033 36.4848 105.168 36.3107Z" fill="#A8541F"/>
<path d="M101.687 37.2368C101.951 37.698 102.168 38.2956 102.483 38.7092C102.679 38.7257 102.874 38.7405 103.07 38.7445C104.551 38.7481 106.126 38.3503 107.582 38.6022C106.452 38.8385 105.281 39.0821 104.126 39.1287C104.092 40.6232 103.912 41.8368 102.812 42.9396C104.004 42.502 106.5 41.5224 107.68 42.0624L107.669 42.1749C104.953 42.5051 104.283 42.1674 102.151 44.4619C102.334 45.3269 102.565 46.1722 102.807 47.0223C104.329 45.705 105.925 44.8646 107.998 45.0022C108.12 45.0103 108.239 45.0508 108.35 45.0981C107.873 45.1849 107.392 45.1682 106.916 45.2463C105.194 45.5287 103.955 46.4641 102.805 47.7056C102.983 48.1353 103.298 49.2136 103.748 49.3889C104.13 49.5381 104.628 49.4233 104.961 49.6531C103.723 50.7287 102.735 51.1798 101.057 51.1101C100.926 51.0362 100.873 50.9888 100.795 50.855C100.578 50.4869 100.19 49.6269 100.308 49.2192C100.133 48.8865 100.053 48.2624 100.074 47.8864C100.089 47.6111 100.112 47.6073 100.305 47.4339C100.064 47.4197 100.026 47.4506 99.8539 47.2696C99.726 46.8424 99.9742 46.2731 100.08 45.8435C100.024 45.5997 100.051 45.3883 100.077 45.1414C100.286 44.872 100.402 44.8664 100.719 44.7718C100.417 44.7888 100.301 44.8418 100.044 44.6459C99.8767 44.1846 99.9862 43.7286 99.9244 43.2551C99.1916 43.0413 98.5391 42.8008 97.8626 42.446C97.7001 42.8922 97.6534 43.3604 97.4941 43.8024C97.1591 44.7317 96.5185 45.7109 95.9505 46.5188C96.034 47.4526 96.7624 49.648 96.6291 50.3099L96.409 50.5629C95.8183 50.9434 95.6025 51.2545 95.4508 51.9407C95.4302 52.0354 95.4107 52.1293 95.3912 52.2243C94.7028 50.1632 94.6649 45.5359 95.2535 43.4225C94.5771 42.8735 93.9104 42.3105 93.1863 41.8262L93.2416 41.7609C94.3126 41.1994 95.2708 40.3381 96.2172 39.5898C96.5944 39.596 96.9738 39.608 97.351 39.5908C98.2019 39.0781 99.5298 39.7867 100.228 39.3039C100.557 38.575 100.908 37.9605 101.479 37.3944L101.687 37.2368Z" fill="#702D10"/>
<path d="M100.228 39.3039C100.72 39.6734 101.808 39.3138 102.411 39.2933L103.824 39.1846C103.729 40.2411 103.503 41.098 103.016 42.0483C101.705 42.2059 99.9559 42.8076 98.8242 41.8978C97.957 41.1998 97.9722 40.273 97.3858 39.6718L97.351 39.5908C98.2019 39.0781 99.5298 39.7867 100.228 39.3039Z" fill="#AB5825"/>
<path d="M96.2172 39.5898C96.5944 39.596 96.9738 39.608 97.351 39.5908L97.3858 39.6718C96.5522 40.7713 95.9776 42.2283 95.2535 43.4225C94.5771 42.8735 93.9104 42.3105 93.1863 41.8262L93.2416 41.7609C94.3126 41.1994 95.2708 40.3381 96.2172 39.5898Z" fill="#7BA8A2"/>
<path d="M101.687 37.2368C101.951 37.698 102.168 38.2956 102.483 38.7092C102.679 38.7257 102.874 38.7405 103.07 38.7445L102.835 38.9257C102.857 38.9314 102.88 38.9376 102.903 38.9425C103.461 39.0602 103.987 38.8125 104.542 38.9084C103.849 39.0001 103.052 39.0117 102.411 39.2933C101.808 39.3138 100.72 39.6734 100.228 39.3039C100.557 38.575 100.908 37.9605 101.479 37.3944L101.687 37.2368Z" fill="#61240E"/>
<path d="M101.687 37.2368C101.951 37.698 102.168 38.2956 102.483 38.7092C102.679 38.7257 102.874 38.7405 103.07 38.7445L102.835 38.9257C102.457 38.9069 101.982 38.9452 101.669 38.7087C101.453 38.3466 101.494 37.8118 101.479 37.3944L101.687 37.2368Z" fill="#74391A"/>
<path d="M100.308 49.2192C100.133 48.8865 100.053 48.2624 100.074 47.8864C100.089 47.6111 100.112 47.6073 100.305 47.4339C100.685 47.5696 101.055 47.6688 101.332 47.9785C101.396 48.1822 101.443 48.251 101.346 48.4554C101.178 48.816 100.643 49.042 100.308 49.2192Z" fill="#702D10"/>
<path d="M100.08 45.8435C100.024 45.5997 100.051 45.3883 100.077 45.1414C100.286 44.872 100.402 44.8664 100.719 44.7718L101.02 44.9944C100.91 45.3746 100.407 45.6162 100.08 45.8435Z" fill="#702D10"/>
<path d="M96.409 50.5629L96.4784 50.6682C97.6144 52.4038 97.8583 54.6688 99.3694 56.1886C99.9949 56.8175 100.878 56.9803 101.487 57.5508C100.624 57.7284 99.7564 57.9314 98.886 58.0648C98.6323 58.0808 98.3266 58.1258 98.0762 58.092C97.7629 58.0499 97.6632 57.8124 97.5017 57.5796C97.1136 56.0404 96.0437 53.7747 95.3912 52.2243C95.4107 52.1293 95.4302 52.0354 95.4508 51.9407C95.6025 51.2545 95.8183 50.9434 96.409 50.5629Z" fill="#74391A"/>
<path d="M104.961 49.6531C105.464 49.2903 105.857 48.9928 106.509 49.0581C106.736 49.2283 106.734 49.2445 106.801 49.5222C106.732 49.9282 106.47 50.2413 106.238 50.5699C105.657 51.1372 105.061 51.6956 104.339 52.0813C103.482 52.4907 102.616 52.7035 101.691 52.893C101.478 52.4706 100.932 51.5725 101.057 51.1101C102.735 51.1798 103.723 50.7287 104.961 49.6531Z" fill="#702D10"/>
<path d="M106.238 50.5699C106.352 50.7993 106.413 50.8589 106.334 51.1182C106.197 51.5727 105.714 51.9776 105.301 52.178C105.083 52.2834 104.889 52.3128 104.646 52.3131C104.518 52.2465 104.416 52.2096 104.339 52.0813C105.061 51.6956 105.657 51.1372 106.238 50.5699Z" fill="#74391A"/>
<path d="M51.0116 31.5789C51.465 31.6073 52.0226 31.5987 52.4417 31.7784C53.7714 32.3486 54.1787 34.2329 55.4626 33.276L55.5152 33.3526C56.3467 34.5819 56.4602 36.4508 56.9513 37.8602C58.4262 42.0913 60.8227 43.9986 64.7517 45.9222C66.1377 46.6006 67.652 47.2886 69.1761 47.5825C70.1072 47.7623 71.202 47.596 72.0779 47.8181L72.3586 49.2427L72.6176 50.363L73.1867 52.5023C73.3049 53.0072 73.5119 53.5958 73.5293 54.1099C73.8003 55.9978 74.9439 57.4947 75.1867 59.3751C74.8691 60.5765 74.6696 61.9327 74.2252 63.0828C73.0328 61.7928 71.6377 60.7655 70.196 59.777C69.2258 59.2308 68.312 58.5891 67.3321 58.0531C65.5988 57.1052 63.7044 56.3522 61.8442 55.6943C61.5249 55.4901 61.1807 55.3484 60.834 55.1985C60.3467 54.9376 59.8504 54.7163 59.3436 54.4976C59.9364 52.5106 60.0574 50.5679 59.9069 48.5037C59.891 47.2703 59.8801 46.0455 59.7477 44.8174C58.1701 43.4028 57.2569 42.119 56.2094 40.2921C56.0588 40.3496 55.9074 40.4047 55.7552 40.4576C54.6885 40.825 53.6345 40.769 52.6196 40.2653C51.0287 39.4755 49.5654 37.7922 49.0237 36.1019C48.7093 35.1206 48.6384 33.9494 49.1428 33.0169C49.5444 32.2741 50.2198 31.8188 51.0116 31.5789Z" fill="#96411C"/>
<path d="M62.8835 49.4578C64.2718 50.5239 66.2232 51.5259 68.0009 51.5859C69.8134 51.647 71.1326 50.4077 72.3586 49.2427L72.6176 50.363L73.1867 52.5023C73.3049 53.0072 73.5119 53.5958 73.5293 54.1099C73.8003 55.9978 74.9439 57.4947 75.1867 59.3751C74.8691 60.5765 74.6696 61.9327 74.2252 63.0828C73.0328 61.7928 71.6377 60.7655 70.196 59.777C69.3364 57.8069 65.1262 56.2385 63.2744 55.1189C63.0441 53.2384 62.8759 51.3534 62.8835 49.4578Z" fill="#BA6234"/>
<path d="M50.8754 33.5438C51.0933 33.5502 51.3259 33.5521 51.5384 33.6036C52.7201 33.8903 53.7649 35.9158 54.3211 36.8978C54.4903 37.1964 54.701 37.5499 54.5828 37.8984C54.4636 38.25 54.0904 38.4135 53.7822 38.5651C53.4944 38.5821 53.2016 38.5907 52.9163 38.5416C51.9872 38.3814 51.0044 37.3584 50.4948 36.6169C50.1231 36.0762 49.8096 35.3899 49.9468 34.7184C50.064 34.1447 50.4046 33.8427 50.8754 33.5438Z" fill="#61240E"/>
<path d="M19.2781 40.5515C21.8762 39.3374 24.4926 38.163 27.1264 37.0287C28.3592 36.4876 29.6858 35.7601 30.9987 35.4619C31.4965 35.3489 32.0485 35.285 32.4951 35.5771C32.9112 35.8492 33.2212 36.3173 33.4485 36.7497C34.2198 38.2171 34.7173 39.9083 35.3679 41.4421C35.8888 42.6699 36.9412 44.233 37.1761 45.4921L36.8448 45.6092C35.8237 43.9166 34.9835 42.1054 34.1874 40.2986C31.5549 41.329 29.0275 42.5753 26.432 43.6851C19.6905 46.5305 12.9797 49.4486 6.30091 52.4387C6.87954 54.3029 7.86627 56.0429 8.62798 57.8359L8.09097 57.8112C7.33218 56.2777 3.76206 49.172 4.14135 47.9483C4.32042 47.3703 5.09319 46.8612 5.58185 46.5719C6.57294 45.985 7.70169 45.5694 8.75337 45.096C11.4861 43.8662 14.2496 42.7417 16.947 41.4308C17.2408 42.2926 17.6617 42.8525 18.24 43.5366C18.6983 43.4986 19.1576 43.4995 19.534 43.2016C19.8296 42.9678 20.0433 42.6388 20.0709 42.255C20.123 41.5332 19.7429 41.0485 19.2781 40.5515Z" fill="#028846"/>
<path d="M38.6183 44.9106C39.4258 44.8089 40.29 44.6746 40.9802 45.2008C41.8708 45.8797 42.3504 46.961 43.2934 47.5944C45.7899 49.2718 48.0093 48.196 48.4449 51.9539C48.4744 52.2147 48.4955 52.4764 48.5083 52.7386C48.5221 53.6556 48.5594 54.5798 48.4775 55.4942C48.0958 57.5027 47.8056 59.5522 47.3385 61.5401L47.2469 61.7064L47.1733 61.9648C47.1671 62.172 47.1218 62.4554 47.234 62.6333C47.0646 62.73 46.8807 62.8189 46.7343 62.9477L46.6843 62.9637C46.3432 62.888 46.0326 62.7473 45.7133 62.6093C46.0137 63.1283 46.2973 63.6085 46.4586 64.1919C46.4635 64.2094 46.4688 64.2267 46.4738 64.244C45.9274 63.7168 45.7381 62.9019 45.1603 62.4456C45.063 62.3686 44.9768 62.4118 44.8588 62.4228C44.1622 60.7881 43.424 59.1716 42.6446 57.5747C42.392 57.051 42.149 56.5226 41.9161 55.9896L41.4894 56.1217C39.5627 56.3696 38.1316 56.3497 36.2592 55.7625C35.9243 55.5965 35.5964 55.4519 35.3301 55.182C35.2545 54.8616 33.7093 53.4601 33.4066 52.9466C32.7628 51.8545 32.7941 50.5261 33.1076 49.3368C33.687 47.3425 35.3536 46.8186 36.7834 45.6601C36.8041 45.6433 36.8243 45.6261 36.8448 45.6092L37.1761 45.4921C37.5747 45.1528 38.1245 45.0501 38.6183 44.9106Z" fill="#A85128"/>
<path d="M33.1076 49.3368C33.7483 49.7705 34.0755 51.2797 34.5442 52.0095C35.9817 54.2474 39.2898 55.3001 41.8311 54.797C42.5978 54.6452 44.1269 53.7525 44.7509 53.8323C45.2114 54.4743 45.3543 55.9517 45.5624 56.7381C45.695 57.2389 46.9401 61.4766 47.0899 61.6281C47.1311 61.6697 47.1946 61.6802 47.2469 61.7064L47.1733 61.9648C47.1671 62.172 47.1218 62.4554 47.234 62.6333C47.0646 62.73 46.8807 62.8189 46.7343 62.9477L46.6843 62.9637C46.3432 62.888 46.0326 62.7473 45.7133 62.6093C46.0137 63.1283 46.2973 63.6085 46.4586 64.1919C46.4635 64.2094 46.4688 64.2267 46.4738 64.244C45.9274 63.7168 45.7381 62.9019 45.1603 62.4456C45.063 62.3686 44.9768 62.4118 44.8588 62.4228C44.1622 60.7881 43.424 59.1716 42.6446 57.5747C42.392 57.051 42.149 56.5226 41.9161 55.9896L41.4894 56.1217C39.5627 56.3696 38.1316 56.3497 36.2592 55.7625C35.9243 55.5965 35.5964 55.4519 35.3301 55.182C35.2545 54.8616 33.7093 53.4601 33.4066 52.9466C32.7628 51.8545 32.7941 50.5261 33.1076 49.3368Z" fill="#702D10"/>
<path d="M41.9161 55.9896L42.5123 55.7677C43.5978 56.8706 44.3501 59.1715 44.8628 60.641C45.0901 61.2923 45.1951 61.9601 45.6331 62.5098C45.6498 62.5307 45.6654 62.5524 45.6821 62.5734C45.6922 62.586 45.7029 62.5971 45.7133 62.6093C46.0137 63.1283 46.2973 63.6085 46.4586 64.1919C46.4635 64.2094 46.4688 64.2267 46.4738 64.244C45.9274 63.7168 45.7381 62.9019 45.1603 62.4456C45.063 62.3686 44.9768 62.4118 44.8588 62.4228C44.1622 60.7881 43.424 59.1716 42.6446 57.5747C42.392 57.051 42.149 56.5226 41.9161 55.9896Z" fill="#331911"/>
<path d="M42.5123 55.7677C42.7854 55.6364 42.9483 55.4989 43.2547 55.5496C44.2191 56.9103 45.2504 59.3077 45.8787 60.891C46.1459 61.5644 46.3302 62.3355 46.6843 62.9637C46.3432 62.888 46.0326 62.7473 45.7133 62.6093C45.7029 62.5971 45.6922 62.586 45.6821 62.5734C45.6654 62.5524 45.6498 62.5307 45.6331 62.5098C45.1951 61.9601 45.0901 61.2923 44.8628 60.641C44.3501 59.1715 43.5978 56.8706 42.5123 55.7677Z" fill="#61240E"/>
<path d="M6.22197 58.0888C5.39977 55.9192 4.33316 53.8301 3.3334 51.7382C2.63304 50.2729 1.80184 48.7213 2.40833 47.0659C2.90198 45.7182 3.96742 45.1091 5.19785 44.5379C7.55498 43.4434 9.97281 42.4473 12.3507 41.396L22.7005 36.7646C24.7662 35.8519 28.0355 34.0847 30.0757 33.5273C30.9227 33.296 31.8645 33.3927 32.6803 33.7043C33.3581 33.963 33.8939 34.5854 34.2786 35.1797C35.1219 36.4827 35.6343 38.0744 36.2349 39.5008C36.9993 41.3161 37.8202 43.1097 38.6183 44.9106C38.1245 45.0501 37.5747 45.1528 37.1761 45.4921C36.9412 44.233 35.8888 42.6699 35.3679 41.4421C34.7173 39.9083 34.2198 38.2171 33.4485 36.7497C33.2212 36.3173 32.9112 35.8492 32.4951 35.5771C32.0485 35.285 31.4965 35.3489 30.9987 35.4619C29.6858 35.7601 28.3592 36.4876 27.1264 37.0287C24.4926 38.163 21.8762 39.3374 19.2781 40.5515C19.7429 41.0485 20.123 41.5332 20.0709 42.255C20.0433 42.6388 19.8296 42.9678 19.534 43.2016C19.1576 43.4995 18.6983 43.4986 18.24 43.5366C17.6617 42.8525 17.2408 42.2926 16.947 41.4308C14.2496 42.7417 11.4861 43.8662 8.75337 45.096C7.70169 45.5694 6.57294 45.985 5.58185 46.5719C5.09319 46.8612 4.32042 47.3703 4.14135 47.9483C3.76206 49.172 7.33218 56.2777 8.09097 57.8112C7.43018 57.802 6.83627 57.8236 6.22197 58.0888Z" fill="#0B0B0B"/>
<path d="M18.3238 41.3513C18.6587 41.1529 19.0907 41.2625 19.2907 41.5967C19.4908 41.9309 19.3837 42.3641 19.0511 42.5663C18.7158 42.77 18.2791 42.6618 18.0774 42.325C17.8758 41.9881 17.9864 41.5513 18.3238 41.3513Z" fill="#AEAFA8"/>
<path d="M101.497 29.1715C102.365 30.6583 103.449 31.9154 104.486 33.2807C105.676 32.8858 106.826 31.8317 107.964 31.2367C108.298 31.4856 108.694 31.7401 108.776 32.173L108.936 32.3313C107.679 33.621 106.231 34.8583 105.168 36.3107C104.033 36.4848 102.689 36.6363 101.687 37.2368L101.479 37.3944C100.908 37.9605 100.557 38.575 100.228 39.3039C99.5298 39.7867 98.2019 39.0781 97.351 39.5908C96.9738 39.608 96.5944 39.596 96.2172 39.5898C95.2708 40.3381 94.3126 41.1994 93.2416 41.7609C93.0736 41.7368 92.9815 41.6868 92.8384 41.6033C92.9641 40.8707 94.1154 40.1748 94.6888 39.7023C93.3934 39.1073 91.6493 36.5612 90.8677 35.3876C90.9035 35.2761 90.9425 35.1668 90.9967 35.0626C91.3989 34.29 99.1299 29.7541 100.331 29.3362C100.72 29.3116 101.112 29.2331 101.497 29.1715Z" fill="#012F1C"/>
<path d="M107.964 31.2367C108.298 31.4856 108.694 31.7401 108.776 32.173L108.936 32.3313C107.679 33.621 106.231 34.8583 105.168 36.3107C104.033 36.4848 102.689 36.6363 101.687 37.2368L101.479 37.3944C100.908 37.9605 100.557 38.575 100.228 39.3039C99.5298 39.7867 98.2019 39.0781 97.351 39.5908C96.9738 39.608 96.5944 39.596 96.2172 39.5898C95.2708 40.3381 94.3126 41.1994 93.2416 41.7609C93.0736 41.7368 92.9815 41.6868 92.8384 41.6033C92.9641 40.8707 94.1154 40.1748 94.6888 39.7023L103.418 34.029L104.486 33.2807C105.676 32.8858 106.826 31.8317 107.964 31.2367Z" fill="#BBD2D2"/>
<path d="M107.964 31.2367C108.298 31.4856 108.694 31.7401 108.776 32.173C108.502 32.0477 108.136 31.825 107.835 31.9402C106.217 32.5619 103.543 34.7928 101.964 35.8413C100.091 37.085 97.984 38.2155 96.2172 39.5898C95.2708 40.3381 94.3126 41.1994 93.2416 41.7609C93.0736 41.7368 92.9815 41.6868 92.8384 41.6033C92.9641 40.8707 94.1154 40.1748 94.6888 39.7023L103.418 34.029L104.486 33.2807C105.676 32.8858 106.826 31.8317 107.964 31.2367Z" fill="#F9FCF9"/>
<path d="M101.497 29.1715C102.365 30.6583 103.449 31.9154 104.486 33.2807L103.418 34.029C103.376 33.758 103.325 33.5053 103.188 33.2643C103.036 32.995 100.52 29.5239 100.331 29.3362C100.72 29.3116 101.112 29.2331 101.497 29.1715Z" fill="#034435"/>
<path d="M89.1648 29.3006C90.9587 28.1406 92.7874 27.0945 94.6139 25.9907C96.1597 25.0564 97.6686 24.0752 99.249 23.1987C99.739 25.2214 100.279 27.2397 101.424 29.0066L101.497 29.1715C101.112 29.2331 100.72 29.3116 100.331 29.3362C99.1299 29.7541 91.3989 34.29 90.9967 35.0626C90.9425 35.1668 90.9035 35.2761 90.8677 35.3876L90.7398 35.2674C89.813 33.2937 89.0824 31.5143 89.1648 29.3006Z" fill="#016030"/>
<path d="M10.5264 86.6889C11.201 86.687 11.868 86.5018 12.5481 86.4741C13.7253 86.4262 14.9175 86.514 16.0918 86.4214C17.712 86.2937 19.4192 85.7242 20.9503 85.186L21.0956 85.2872L20.92 85.4601L20.4608 85.6689C20.0173 85.84 19.4031 85.9589 19.0618 86.2877C19.1163 87.0937 19.6916 88.0942 20.0058 88.8383C20.5515 90.1302 23.059 95.9905 23.1104 96.8977C21.261 96.1438 14.5267 91.3385 13.0046 89.8548C12.0242 88.8991 11.2677 87.8355 10.5264 86.6889Z" fill="#702D10"/>
<path d="M59.9069 48.5037C60.0574 50.5679 59.9364 52.5106 59.3436 54.4976C59.8504 54.7163 60.3467 54.9376 60.834 55.1985C61.1807 55.3484 61.5249 55.4901 61.8442 55.6943C59.6454 55.6693 57.3895 55.3931 55.1865 55.2674C54.0042 55.2521 52.8176 55.1378 51.6365 55.1931C50.5818 55.2425 49.5274 55.4616 48.4775 55.4942C48.5594 54.5798 48.5221 53.6556 48.5083 52.7386C51.3706 51.1123 56.6431 50.5277 59.8964 50.4829L59.9069 48.5037Z" fill="#016030"/>
<path d="M56.4552 53.9468L56.1999 53.7299C56.4267 53.6192 57.1064 53.8753 57.4388 53.8728C57.4678 53.8726 57.4968 53.8715 57.5258 53.8707C58.1075 54.0556 58.7542 54.3796 59.3436 54.4976C59.8504 54.7163 60.3467 54.9376 60.834 55.1985C59.851 55.5922 57.4263 54.3421 56.4552 53.9468Z" fill="#016E37"/>
<path d="M56.4552 53.9468C55.6972 53.7059 54.9353 53.5349 54.3109 53.0195L54.2826 52.7145L54.1548 52.8654L54.1122 52.7494C54.7125 52.5647 56.9178 53.6115 57.5258 53.8707C57.4968 53.8715 57.4678 53.8726 57.4388 53.8728C57.1064 53.8753 56.4267 53.6192 56.1999 53.7299L56.4552 53.9468Z" fill="#016E37"/>
<path d="M72.6176 50.363C74.3563 50.306 77.0327 50.317 78.3649 51.598C78.9481 52.1586 79.1237 52.9168 79.1216 53.7025C79.1129 56.4846 77.0262 59.2161 75.5769 61.4548C75.2777 61.9159 74.9894 62.63 74.6079 63.0037C74.5667 63.044 74.4821 63.0996 74.4409 63.1289L74.2252 63.0828C74.6696 61.9327 74.8691 60.5765 75.1867 59.3751C74.9439 57.4947 73.8003 55.9978 73.5293 54.1099C73.5119 53.5958 73.3049 53.0072 73.1867 52.5023L72.6176 50.363Z" fill="#016030"/>
<path d="M73.5293 54.1099C74.2674 54.5615 74.9125 55.0983 75.5737 55.6545C75.6247 56.9179 75.5411 58.1542 75.1867 59.3751C74.9439 57.4947 73.8003 55.9978 73.5293 54.1099Z" fill="#61240E"/>
<path d="M73.1867 52.5023C74.1471 53.2564 75.3818 54.005 75.5443 55.3267C75.5574 55.4356 75.5672 55.545 75.5737 55.6545C74.9125 55.0983 74.2674 54.5615 73.5293 54.1099C73.5119 53.5958 73.3049 53.0072 73.1867 52.5023Z" fill="#012F1C"/>
<path d="M90.7398 35.2674L90.8677 35.3876C91.6493 36.5612 93.3934 39.1073 94.6888 39.7023C94.1154 40.1748 92.9641 40.8707 92.8384 41.6033C92.9815 41.6868 93.0736 41.7379 93.2416 41.762L93.1863 41.8273C92.8112 42.0449 92.434 42.2304 92.0123 42.341C90.5652 42.7208 89.1896 42.1616 87.9463 41.4576C87.1127 40.7461 86.4959 39.9849 85.8748 39.09L85.7057 38.7725C86.7518 37.9796 90.2812 36.1551 90.7398 35.2674Z" fill="#BBD2D2"/>
<path d="M84.354 34.4344C84.3626 33.7614 84.3464 33.0828 84.7887 32.5295C85.3913 31.7752 88.3062 29.4042 89.1648 29.3006C89.0824 31.5143 89.813 33.2937 90.7398 35.2674C90.2812 36.1551 86.7518 37.9796 85.7057 38.7725C84.9285 37.45 84.4667 35.9649 84.354 34.4344Z" fill="#F9FCF9"/>
<path d="M84.0852 40.1064C83.6462 39.4937 83.2636 38.6703 83.0164 37.9591C82.6652 36.9448 82.4679 35.8237 82.9655 34.824C83.1346 34.4828 83.4424 34.0577 83.8272 33.9507C84.043 33.8906 84.0852 33.9261 84.2782 34.032L84.354 34.4344C84.4667 35.9649 84.9285 37.45 85.7057 38.7725L85.8748 39.09C85.3046 39.4877 84.7042 39.7941 84.0852 40.1064Z" fill="#016030"/>
<path d="M89.8194 56.5828C90.9695 56.5108 93.4205 58.5773 94.2779 59.3371C95.7814 60.6695 97.4616 62.1892 98.6085 63.8435L98.6052 64.0166C98.6052 64.2677 98.5835 64.5178 98.5673 64.7681C98.1358 64.9352 93.0238 58.9009 91.5972 58.5389C91.0661 57.8448 90.4199 57.2183 89.8194 56.5828Z" fill="#31BE7A"/>
<path d="M33.3554 111.574L33.5068 111.344C34.1725 111.377 34.9864 111.801 35.6319 112.003C35.3813 112.174 35.2808 112.203 35.219 112.516C35.0593 113.324 35.3976 115.512 34.6956 115.979C34.5014 116.108 34.1935 116.083 33.9676 116.087C33.8445 116.111 33.8793 116.112 33.7733 116.108C33.5546 116.1 33.5106 116.096 33.3658 115.92C32.8058 115.239 33.2842 112.429 33.3554 111.574Z" fill="#021D28"/>
<path d="M76.8355 43.4235C76.9276 42.7309 77.2008 42.0353 77.4046 41.3682C77.874 39.8348 78.3455 38.3236 78.4886 36.7176C78.6718 34.6513 77.7114 30.1303 78.2447 28.8728L78.4149 28.8542C79.1769 33.0801 79.6461 36.2583 78.1968 40.4215C77.8565 41.3992 77.4435 42.5013 76.8733 43.3702C76.8614 43.3885 76.8485 43.4056 76.8355 43.4235Z" fill="#8D461A"/>
<path d="M85.8747 39.0888C86.4959 39.9837 87.1127 40.7449 87.9462 41.4564C87.8888 41.5411 87.84 41.5995 87.7565 41.6608C87.3479 41.9601 86.8319 42.2716 86.3062 42.1714C85.2493 41.9703 84.6272 40.935 84.0852 40.1064C84.7042 39.7941 85.3046 39.4865 85.8747 39.0888Z" fill="#012F1C"/>
<path d="M81.967 59.0137L82.2673 60.4416C81.282 60.6489 80.9492 62.2315 79.8435 62.54C79.7817 62.2843 79.7882 62.0645 79.8023 61.803C80.6023 60.9238 81.2906 59.9901 81.967 59.0137Z" fill="#016E37"/>
<path d="M121.975 12.1411C121.969 11.8166 122.027 11.531 122.131 11.2237C122.761 9.36759 123.673 7.59319 124.438 5.78955C124.783 4.97178 124.99 4.08019 125.355 3.27863C125.471 3.02361 125.625 2.75806 125.825 2.56026C126.027 2.36125 126.281 2.24301 126.569 2.27008C127.025 2.31312 127.603 2.55859 127.877 2.93217C128.021 3.13006 128.053 3.31537 128.004 3.5594C127.766 4.75367 123.334 11.7007 122.411 12.2565C122.342 12.298 122.278 12.3312 122.205 12.3641L121.975 12.1411Z" fill="#016E37"/>
<defs>
<linearGradient id="paint0_linear_1757_4797" x1="43.4558" y1="16.8057" x2="151.151" y2="97.0424" gradientUnits="userSpaceOnUse">
<stop stop-color="#BBC8CF"/>
<stop offset="1" stop-color="#E1ECEA"/>
</linearGradient>
<linearGradient id="paint1_linear_1757_4797" x1="74.4262" y1="158.666" x2="159.959" y2="66.8733" gradientUnits="userSpaceOnUse">
<stop stop-color="#005D29"/>
<stop offset="1" stop-color="#007837"/>
</linearGradient>
<linearGradient id="paint2_linear_1757_4797" x1="140.325" y1="63.6007" x2="4.27194" y2="66.4084" gradientUnits="userSpaceOnUse">
<stop stop-color="#001216"/>
<stop offset="1" stop-color="#082340"/>
</linearGradient>
<linearGradient id="paint3_linear_1757_4797" x1="68.7973" y1="6.30383" x2="30.188" y2="72.0514" gradientUnits="userSpaceOnUse">
<stop stop-color="#022227"/>
<stop offset="1" stop-color="#001D33"/>
</linearGradient>
<linearGradient id="paint4_linear_1757_4797" x1="33.6916" y1="61.9442" x2="68.329" y2="8.62696" gradientUnits="userSpaceOnUse">
<stop stop-color="#082739"/>
<stop offset="1" stop-color="#183663"/>
</linearGradient>
<linearGradient id="paint5_linear_1757_4797" x1="68.1645" y1="63.7622" x2="85.3223" y2="44.0994" gradientUnits="userSpaceOnUse">
<stop stop-color="#032026"/>
<stop offset="1" stop-color="#01172C"/>
</linearGradient>
<linearGradient id="paint6_linear_1757_4797" x1="11.5887" y1="109.494" x2="153.604" y2="73.7473" gradientUnits="userSpaceOnUse">
<stop stop-color="#70230A"/>
<stop offset="1" stop-color="#974C1D"/>
</linearGradient>
<linearGradient id="paint7_linear_1757_4797" x1="13.6902" y1="56.3888" x2="138.346" y2="76.4508" gradientUnits="userSpaceOnUse">
<stop stop-color="#037F43"/>
<stop offset="1" stop-color="#00964C"/>
</linearGradient>
<linearGradient id="paint8_linear_1757_4797" x1="67.474" y1="53.3267" x2="86.7118" y2="72.1642" gradientUnits="userSpaceOnUse">
<stop stop-color="#3D6E50"/>
<stop offset="1" stop-color="#4B886B"/>
</linearGradient>
<linearGradient id="paint9_linear_1757_4797" x1="74.1811" y1="126.113" x2="72.7719" y2="0.308798" gradientUnits="userSpaceOnUse">
<stop stop-color="#BA6234"/>
<stop offset="1" stop-color="#96411C"/>
</linearGradient>
</defs>
</svg>
