<svg width="35" height="35" viewBox="0 0 35 35" fill="none" xmlns="http://www.w3.org/2000/svg">
<g clip-path="url(#clip0_1734_1316)">
<path d="M7.74871 16.816H0.723281L5.50502 13.4422H10.9388L7.74871 16.816ZM27.2514 16.816H34.2768L29.4951 13.4422H24.0612L27.2514 16.816ZM13.7228 35H16.7771V24.9454H13.7228V35ZM17.9062 35H20.9604V24.9454H17.9062V35ZM34.8768 17.945V35H22.0895V24.3808V23.8163H21.525H17.9062H16.7771H13.1583H12.5938V24.3808V35H0.123291V17.945H8.23502L12.8675 13.0457L16.9355 8.74344V0H18.0646H24.2542L23.9634 0.189355L20.6961 2.3169L23.9634 4.44452L24.2542 4.63381H18.0646V8.74337L22.1325 13.0456L26.7651 17.945H34.8768V17.945ZM5.52936 29.4008H2.31147V32.6187H5.52936V29.4008ZM5.52936 24.3808H2.31147V27.5987H5.52936V24.3808ZM10.678 29.4008H7.46017V32.6187H10.678V29.4008ZM10.678 24.3808H7.46017V27.5987H10.678V24.3808ZM20.1387 18.3311C20.1387 16.8738 18.9573 15.6924 17.5 15.6924C16.0428 15.6924 14.8614 16.8738 14.8614 18.3311C14.8614 19.7884 16.0428 20.9699 17.5 20.9699C18.9573 20.9699 20.1387 19.7885 20.1387 18.3311ZM27.5399 29.4008H24.322V32.6187H27.5399V29.4008ZM27.5399 24.3808H24.322V27.5987H27.5399V24.3808ZM32.6886 29.4008H29.4707V32.6187H32.6886V29.4008ZM32.6886 24.3808H29.4707V27.5987H32.6886V24.3808Z" fill="#2FC22B"/>
</g>
<defs>
<clipPath id="clip0_1734_1316">
<rect width="35" height="35" fill="white"/>
</clipPath>
</defs>
</svg>
