<svg width="35" height="35" viewBox="0 0 35 35" fill="none" xmlns="http://www.w3.org/2000/svg">
<mask id="mask0_1734_1340" style="mask-type:luminance" maskUnits="userSpaceOnUse" x="0" y="0" width="35" height="35">
<path d="M0 3.8147e-06H35V35H0V3.8147e-06Z" fill="white"/>
</mask>
<g mask="url(#mask0_1734_1340)">
<path d="M27.9961 5.639V18.1396C27.9371 17.3217 27.2552 16.6776 26.4222 16.6776C25.5308 16.6776 24.8433 17.3211 24.8433 18.2564V10.6659C24.8433 9.79374 24.136 9.08643 23.2638 9.08643C22.4192 9.08643 21.6851 9.73536 21.6851 10.6659V18.5008C21.6851 16.7566 20.2711 15.3432 18.5275 15.3432V21.0527H3.80664V5.639H27.9961Z" stroke="#2FC22B" stroke-width="1.36719" stroke-miterlimit="10" stroke-linecap="round" stroke-linejoin="round"/>
<path d="M20.5391 27.3188L20.6133 27.4238H11.2627V24.0461H18.7461C19.0269 25.3735 19.5764 25.9536 20.3668 27.0743L20.5391 27.3188Z" stroke="#2FC22B" stroke-width="1.36719" stroke-miterlimit="10" stroke-linecap="round" stroke-linejoin="round"/>
<path d="M12.9032 2.64459H3.01711C1.72806 2.64459 0.683594 3.69944 0.683594 4.99943V21.696C0.683594 22.9967 1.72806 24.0508 3.01711 24.0508H18.7461C18.6011 23.3689 18.527 22.6698 18.527 21.9652V15.3451C20.2706 15.3451 21.6846 16.7583 21.6846 18.5027V10.6677C21.6846 9.73715 22.4187 9.08821 23.2634 9.08821C24.1355 9.08821 24.8429 9.79553 24.8429 10.6677V18.2582C24.8429 17.3229 25.5303 16.6794 26.4216 16.6794C27.2547 16.6794 27.9366 17.3235 27.9957 18.1415C27.9991 18.1799 28.0005 18.219 28.0005 18.2582V18.9394C28.0005 18.0673 28.7078 17.36 29.5793 17.36C30.4329 17.36 31.1293 18.0378 31.1574 18.8852V4.99943C31.1574 3.69944 30.1122 2.64459 28.8232 2.64459H18.9455" stroke="#2FC22B" stroke-width="1.36719" stroke-miterlimit="10" stroke-linecap="round" stroke-linejoin="round"/>
<path d="M22.1669 30.3828H5.65234V29.0423C5.65234 28.1509 6.37552 27.4285 7.26686 27.4285H20.6135L21.5036 28.69C21.8593 29.194 22.0866 29.7757 22.1669 30.3828Z" stroke="#2FC22B" stroke-width="1.36719" stroke-miterlimit="10" stroke-linecap="round" stroke-linejoin="round"/>
<path d="M31.581 32.3574V30.8708C31.581 30.2832 31.717 29.7035 31.9783 29.1771L33.2668 26.5825C33.9568 25.1927 34.3159 24.3458 34.3159 22.7942V20.4509C34.3159 19.5789 33.609 18.872 32.737 18.872C31.8649 18.872 31.158 19.5789 31.158 20.4509V18.9365C31.158 18.0645 30.4511 17.3576 29.5791 17.3576C28.7071 17.3576 28.0001 18.0645 28.0001 18.9365V18.2556C28.0001 17.3836 27.2932 16.6767 26.4212 16.6767C25.5301 16.6767 24.8422 17.3201 24.8422 18.2556V10.6648C24.8422 9.79281 24.1353 9.08584 23.2633 9.08584C22.4181 9.08584 21.6843 9.73478 21.6843 10.6648V18.5001C21.6843 16.756 20.2704 15.3422 18.5264 15.3422V21.9625C18.5264 24.0386 19.169 25.3803 20.3661 27.0765L21.5029 28.6873C21.9562 29.3299 22.1997 30.0969 22.1997 30.8832V32.3574" stroke="#2FC22B" stroke-width="1.36719" stroke-miterlimit="10" stroke-linecap="round" stroke-linejoin="round"/>
<path d="M21.6851 18.4979V20.8613" stroke="#2FC22B" stroke-width="1.36719" stroke-miterlimit="10" stroke-linecap="round" stroke-linejoin="round"/>
<path d="M21.6851 18.4979V20.8613" stroke="#2FC22B" stroke-width="1.36719" stroke-miterlimit="10" stroke-linecap="round" stroke-linejoin="round"/>
<path d="M21.6851 18.4979V20.8613" stroke="#2FC22B" stroke-width="1.36719" stroke-miterlimit="10" stroke-linecap="round" stroke-linejoin="round"/>
<path d="M21.6851 18.4979V20.8613" stroke="#2FC22B" stroke-width="1.36719" stroke-miterlimit="10" stroke-linecap="round" stroke-linejoin="round"/>
<path d="M21.6851 18.4979V20.8613" stroke="#2FC22B" stroke-width="1.36719" stroke-miterlimit="10" stroke-linecap="round" stroke-linejoin="round"/>
<path d="M21.6851 18.4979V20.8613" stroke="#2FC22B" stroke-width="1.36719" stroke-miterlimit="10" stroke-linecap="round" stroke-linejoin="round"/>
<path d="M21.6851 18.4979V20.8613" stroke="#2FC22B" stroke-width="1.36719" stroke-miterlimit="10" stroke-linecap="round" stroke-linejoin="round"/>
<path d="M21.6851 18.4979V20.8613" stroke="#2FC22B" stroke-width="1.36719" stroke-miterlimit="10" stroke-linecap="round" stroke-linejoin="round"/>
<path d="M21.6851 18.4979V20.8613" stroke="#2FC22B" stroke-width="1.36719" stroke-miterlimit="10" stroke-linecap="round" stroke-linejoin="round"/>
<path d="M21.6851 18.4979V20.8613" stroke="#2FC22B" stroke-width="1.36719" stroke-miterlimit="10" stroke-linecap="round" stroke-linejoin="round"/>
<path d="M7.38867 9.55859H8.97557" stroke="#2FC22B" stroke-width="1.36719" stroke-miterlimit="10" stroke-linecap="round" stroke-linejoin="round"/>
<path d="M12.0596 9.55859H18.6285" stroke="#2FC22B" stroke-width="1.36719" stroke-miterlimit="10" stroke-linecap="round" stroke-linejoin="round"/>
<path d="M7.38867 13.3398H8.97557" stroke="#2FC22B" stroke-width="1.36719" stroke-miterlimit="10" stroke-linecap="round" stroke-linejoin="round"/>
<path d="M12.0596 13.3398H15.6292" stroke="#2FC22B" stroke-width="1.36719" stroke-miterlimit="10" stroke-linecap="round" stroke-linejoin="round"/>
<path d="M7.38867 17.125H8.97557" stroke="#2FC22B" stroke-width="1.36719" stroke-miterlimit="10" stroke-linecap="round" stroke-linejoin="round"/>
<path d="M12.0596 17.125H15.6292" stroke="#2FC22B" stroke-width="1.36719" stroke-miterlimit="10" stroke-linecap="round" stroke-linejoin="round"/>
</g>
</svg>
