<svg width="19" height="19" viewBox="0 0 19 19" fill="none" xmlns="http://www.w3.org/2000/svg">
<rect width="19" height="19" rx="5" fill="#1E1E1E"/>
<rect x="0.25" y="0.25" width="18.5" height="18.5" rx="4.75" stroke="white" stroke-opacity="0.2" stroke-width="0.5"/>
<path d="M7.84643 5.37668C7.7793 5.309 7.69944 5.25528 7.61145 5.21862C7.52346 5.18196 7.42908 5.16309 7.33375 5.16309C7.23843 5.16309 7.14405 5.18196 7.05606 5.21862C6.96806 5.25528 6.8882 5.309 6.82107 5.37668L3.21066 8.98709C3.14298 9.05422 3.08926 9.13408 3.0526 9.22207C3.01594 9.31006 2.99707 9.40444 2.99707 9.49977C2.99707 9.59509 3.01594 9.68947 3.0526 9.77746C3.08926 9.86546 3.14298 9.94532 3.21066 10.0124L6.82107 13.6229C6.8882 13.6905 6.96806 13.7443 7.05606 13.7809C7.14405 13.8176 7.23843 13.8365 7.33375 13.8365C7.42908 13.8365 7.52346 13.8176 7.61145 13.7809C7.69944 13.7443 7.7793 13.6905 7.84643 13.6229C7.91411 13.5557 7.96783 13.4759 8.00449 13.3879C8.04115 13.2999 8.06002 13.2055 8.06002 13.1102C8.06002 13.0149 8.04115 12.9205 8.00449 12.8325C7.96783 12.7445 7.91411 12.6646 7.84643 12.5975L4.74148 9.49977L7.84643 6.40203C7.91411 6.33491 7.96783 6.25504 8.00449 6.16705C8.04115 6.07906 8.06002 5.98468 8.06002 5.88936C8.06002 5.79403 8.04115 5.69965 8.00449 5.61166C7.96783 5.52367 7.91411 5.4438 7.84643 5.37668ZM15.7893 8.98709L12.1789 5.37668C12.1116 5.30935 12.0317 5.25595 11.9437 5.21951C11.8557 5.18307 11.7615 5.16432 11.6662 5.16432C11.474 5.16432 11.2895 5.24071 11.1536 5.37668C11.0862 5.444 11.0328 5.52393 10.9964 5.6119C10.96 5.69986 10.9412 5.79414 10.9412 5.88936C10.9412 6.08165 11.0176 6.26606 11.1536 6.40203L14.2585 9.49977L11.1536 12.5975C11.0859 12.6646 11.0322 12.7445 10.9955 12.8325C10.9589 12.9205 10.94 13.0149 10.94 13.1102C10.94 13.2055 10.9589 13.2999 10.9955 13.3879C11.0322 13.4759 11.0859 13.5557 11.1536 13.6229C11.2207 13.6905 11.3006 13.7443 11.3886 13.7809C11.4765 13.8176 11.5709 13.8365 11.6662 13.8365C11.7616 13.8365 11.856 13.8176 11.9439 13.7809C12.0319 13.7443 12.1118 13.6905 12.1789 13.6229L15.7893 10.0124C15.857 9.94532 15.9107 9.86546 15.9474 9.77746C15.9841 9.68947 16.0029 9.59509 16.0029 9.49977C16.0029 9.40444 15.9841 9.31006 15.9474 9.22207C15.9107 9.13408 15.857 9.05422 15.7893 8.98709Z" fill="#2FC22B"/>
</svg>
