<svg version="1.1" xmlns="http://www.w3.org/2000/svg" style="display: block;" viewBox="0 0 2048 2048" width="1024" height="1024" preserveAspectRatio="none">
<defs>
	<linearGradient id="Gradient1" gradientUnits="userSpaceOnUse" x1="1131.62" y1="1064.92" x2="1616" y2="841.26">
		<stop class="stop0" offset="0" stop-opacity="1" stop-color="rgb(116,177,223)"/>
		<stop class="stop1" offset="1" stop-opacity="1" stop-color="rgb(96,113,239)"/>
	</linearGradient>
	<linearGradient id="Gradient2" gradientUnits="userSpaceOnUse" x1="1120.53" y1="1411.5" x2="1785.14" y2="1279.76">
		<stop class="stop0" offset="0" stop-opacity="1" stop-color="rgb(126,216,222)"/>
		<stop class="stop1" offset="1" stop-opacity="1" stop-color="rgb(100,118,234)"/>
	</linearGradient>
	<linearGradient id="Gradient3" gradientUnits="userSpaceOnUse" x1="496.352" y1="567.236" x2="836.431" y2="929.63">
		<stop class="stop0" offset="0" stop-opacity="1" stop-color="rgb(59,45,184)"/>
		<stop class="stop1" offset="1" stop-opacity="1" stop-color="rgb(85,111,202)"/>
	</linearGradient>
	<linearGradient id="Gradient4" gradientUnits="userSpaceOnUse" x1="897.483" y1="1213.81" x2="405.659" y2="1013.84">
		<stop class="stop0" offset="0" stop-opacity="1" stop-color="rgb(105,136,228)"/>
		<stop class="stop1" offset="1" stop-opacity="1" stop-color="rgb(132,228,223)"/>
	</linearGradient>
	<linearGradient id="Gradient5" gradientUnits="userSpaceOnUse" x1="530.735" y1="794.15" x2="1236.62" y2="1248.86">
		<stop class="stop0" offset="0" stop-opacity="1" stop-color="rgb(130,230,218)"/>
		<stop class="stop1" offset="1" stop-opacity="1" stop-color="rgb(99,117,234)"/>
	</linearGradient>
</defs>
<path transform="translate(0,0)" fill="rgb(251,251,251)" d="M 0 0 L 2048 0 L 2048 2048 L 0 2048 L 0 0 z"/>
<path transform="translate(0,0)" fill="url(#Gradient5)" d="M 823.848 672.556 C 837.86 643.777 851.859 615.066 867.358 587.046 C 893.587 540.509 921.852 495.149 952.07 451.098 C 978.103 412.749 1005.41 374.957 1035.65 339.813 C 1051.86 365.616 1064.9 394.337 1078.59 421.544 C 1132.51 528.741 1179.98 640.128 1213.31 755.532 C 1220.38 780.022 1226.77 805.097 1231.71 830.101 C 1234.69 845.171 1236.18 862.345 1240.82 876.926 C 1244.2 891.237 1244.09 908.021 1245.6 922.725 C 1257.17 1035.23 1242.02 1135.26 1209.68 1242.93 C 1203.58 1252.5 1192.99 1259.57 1185 1267.58 C 1168.66 1283.99 1127.24 1328.74 1117.62 1348.13 C 1064.18 1418.12 1028.7 1501.39 999.988 1584 C 994.17 1600.73 989.064 1617.65 983.919 1634.6 C 980.686 1645.25 977.953 1657.27 972.905 1667.17 L 972.972 1667.85 C 972.64 1667.87 972.31 1667.92 971.977 1667.92 C 969.064 1667.97 968.891 1668.1 966.936 1666.08 L 964.884 1665.58 C 964.664 1666.03 964.476 1666.5 964.223 1666.94 C 962.187 1670.47 959.188 1670.95 955.448 1671.73 C 825.003 1699.08 689.032 1674.11 576.823 1602.18 C 418.517 1500 332.889 1334.69 294.207 1154.51 C 342.281 1159.83 390.609 1171.15 437.141 1184.21 C 456.833 1189.73 476.268 1197.56 496.176 1202.07 C 488.988 1185.14 485.174 1164.74 481.36 1146.76 C 459.405 1043.28 459.388 931.961 479.111 828.126 C 503.895 841.034 528.011 856.02 551.311 871.422 L 552.71 870.192 C 547.202 846.136 545.18 820.04 543.419 795.45 C 536.395 697.391 544.639 600.495 563.876 504.231 C 566.748 491.125 569.854 478.171 573.43 465.239 C 582.121 470.422 592.579 475.512 600.163 482.163 C 620.121 493.904 639.036 507.688 657.612 521.478 C 717.87 566.233 773.553 616.839 823.848 672.556 z"/>
<path transform="translate(0,0)" fill="url(#Gradient4)" d="M 479.111 828.126 C 503.895 841.034 528.011 856.02 551.311 871.422 L 552.71 870.192 C 554.613 875.159 597.723 902.692 605.776 908.757 C 653.494 944.699 699.138 983.468 739.851 1027.28 C 736.375 1158.46 772.643 1294.94 832.836 1410.93 C 827.579 1405.82 822.439 1397.09 816.527 1393.47 C 815.878 1393.26 815.194 1393.14 814.579 1392.85 C 810.564 1390.93 775.756 1353.06 768.096 1346.18 C 762.677 1341.31 745.518 1333.11 743.464 1326.52 C 735.622 1317.76 721.146 1309.9 711.231 1303.43 C 663.007 1271.97 610.415 1246.25 557.046 1224.79 C 537.377 1216.88 516.717 1210.81 497.3 1202.56 L 496.176 1202.07 C 488.988 1185.14 485.174 1164.74 481.36 1146.76 C 459.405 1043.28 459.388 931.961 479.111 828.126 z"/>
<path transform="translate(0,0)" fill="rgb(136,171,232)" d="M 755.613 1335.09 C 740.025 1310.63 726.507 1284.57 712.284 1259.27 L 667.315 1179.98 C 648.625 1146.26 630.466 1112.11 610.939 1078.87 C 612.849 1079.18 614.232 1081.34 615.313 1082.89 C 625.715 1097.75 636.202 1118.02 645.943 1134.07 C 674.408 1180.6 702.05 1227.63 728.855 1275.14 L 755.329 1321.32 C 759.493 1328.59 763.253 1336.69 768.216 1343.43 C 774.778 1352.35 783.726 1359.88 791.661 1367.54 C 800.279 1375.86 808.574 1384.51 816.527 1393.47 C 815.878 1393.26 815.194 1393.14 814.579 1392.85 C 810.564 1390.93 775.756 1353.06 768.096 1346.18 C 762.677 1341.31 745.518 1333.11 743.464 1326.52 L 755.613 1335.09 z"/>
<path transform="translate(0,0)" fill="url(#Gradient3)" d="M 573.43 465.239 C 582.121 470.422 592.579 475.512 600.163 482.163 C 620.121 493.904 639.036 507.688 657.612 521.478 C 717.87 566.233 773.553 616.839 823.848 672.556 C 815.698 692.001 807.065 711.262 799.6 730.985 C 782.231 777.331 768.172 824.85 757.529 873.185 C 756.527 877.952 755.279 882.78 754.541 887.588 C 746.512 933.745 740.319 980.345 739.851 1027.28 C 699.138 983.468 653.494 944.699 605.776 908.757 C 597.723 902.692 554.613 875.159 552.71 870.192 C 547.202 846.136 545.18 820.04 543.419 795.45 C 536.395 697.391 544.639 600.495 563.876 504.231 C 566.748 491.125 569.854 478.171 573.43 465.239 z"/>
<path transform="translate(0,0)" fill="rgb(106,121,202)" d="M 754.541 887.588 C 744.111 870.817 736.046 847.506 728.047 829.007 C 714.912 798.73 701.456 768.594 687.681 738.603 C 684.407 731.388 669.426 702.542 669.522 696.921 C 680.598 716.745 751.412 869.729 756.294 872.559 C 756.693 872.79 757.117 872.976 757.529 873.185 C 756.527 877.952 755.279 882.78 754.541 887.588 z"/>
<path transform="translate(0,0)" fill="rgb(57,47,179)" d="M 573.43 465.239 C 582.121 470.422 592.579 475.512 600.163 482.163 C 599.806 482.207 599.45 482.265 599.091 482.296 C 597.514 482.429 596.192 482.215 594.647 481.959 C 591.568 485.539 588.182 490.239 584.336 492.958 C 577.794 497.584 570.381 498.717 563.876 504.231 C 566.748 491.125 569.854 478.171 573.43 465.239 z"/>
<path transform="translate(0,0)" fill="rgb(136,171,232)" d="M 966.936 1666.08 C 969.027 1664.04 968.895 1663.42 968.867 1660.55 C 968.556 1629.57 970.322 1598.65 971.537 1567.7 L 977.75 1416.26 C 984.963 1236.29 994.038 1056.39 1004.97 876.612 C 1005.87 861.021 1010.66 749.957 1013.05 744.007 L 1013.42 743.79 C 1014.73 753.18 1013.2 764.213 1012.81 773.741 C 1012.09 791.039 1011.93 808.45 1010.86 825.721 C 1010.19 836.365 1008.54 846.44 1008.42 857.23 C 1006.69 945.531 1003.54 1033.8 998.979 1122 C 993.295 1258.61 986.796 1395.2 979.483 1531.73 C 978.831 1544.3 972.587 1666.15 972.905 1667.17 L 972.972 1667.85 C 972.64 1667.87 972.31 1667.92 971.977 1667.92 C 969.064 1667.97 968.891 1668.1 966.936 1666.08 z"/>
<path transform="translate(0,0)" fill="rgb(136,171,232)" d="M 543.387 1366.65 C 544.797 1366.8 545.992 1367.03 547.239 1367.75 C 554.09 1371.72 560.692 1377.31 567.088 1382.01 L 607.24 1411.53 C 663.381 1452.23 718.889 1493.79 773.745 1536.21 C 812.081 1565.42 850.261 1594.84 888.284 1624.45 C 907.241 1639.21 928.245 1653.41 945.38 1670.17 C 930.93 1668.35 585.082 1401.28 543.387 1366.65 z"/>
<path transform="translate(0,0)" fill="url(#Gradient2)" d="M 1504.64 1090.89 C 1582.14 1067.5 1661.83 1052.1 1742.46 1044.92 C 1683.46 1255.48 1559.39 1473.42 1363.73 1583.55 C 1314.71 1610.96 1262.22 1631.63 1207.68 1644.99 C 1198.89 1647.14 1188.21 1650.56 1179.22 1650.93 C 1135.78 1661.99 1080.12 1665.64 1035.24 1666.64 C 1014.53 1667.1 993.609 1666.09 972.972 1667.85 L 972.905 1667.17 C 977.953 1657.27 980.686 1645.25 983.919 1634.6 C 989.064 1617.65 994.17 1600.73 999.988 1584 C 1028.7 1501.39 1064.18 1418.12 1117.62 1348.13 C 1127.24 1328.74 1168.66 1283.99 1185 1267.58 C 1192.99 1259.57 1203.58 1252.5 1209.68 1242.93 C 1220.72 1238.32 1237.59 1223.01 1244.35 1212.99 L 1247.01 1213.57 C 1251.07 1212.67 1253.67 1209.62 1256.63 1206.88 C 1261.97 1205.72 1276.88 1193.91 1282.26 1190.42 C 1303.25 1176.64 1324.97 1164 1347.32 1152.56 C 1383.06 1134.61 1419.95 1119.06 1457.74 1105.99 C 1472.46 1100.82 1488.57 1097.57 1502.9 1091.63 L 1504.64 1090.89 z"/>
<path transform="translate(0,0)" fill="rgb(128,212,223)" d="M 1117.62 1348.13 L 1117.42 1350.09 C 1117.18 1352.28 1116.62 1353.85 1115.74 1355.85 L 1116.26 1356.91 L 1118.33 1356.97 C 1122.91 1369.72 1123.05 1385.3 1126.18 1398.74 C 1127.96 1406.4 1130.81 1413.84 1132.8 1421.46 C 1134.86 1429.29 1136.09 1437.41 1138.47 1445.14 C 1140.49 1451.73 1143.72 1457.92 1145.67 1464.52 C 1149.29 1476.71 1151.87 1516.37 1162.43 1523.02 L 1164.52 1522.82 C 1121.98 1558.81 1079.25 1595.02 1036.1 1630.25 C 1024.65 1639.6 1012.31 1647.85 1000.92 1657.22 C 998.681 1659.07 996.566 1660.84 995.399 1663.55 C 1004.94 1662.87 1137.52 1552.61 1158.71 1537.71 C 1161.04 1541.91 1163.85 1541.37 1164.47 1542.91 C 1166.46 1547.87 1164.47 1552.11 1167.56 1557.67 C 1169.64 1561.43 1172.34 1565.65 1173.37 1569.83 C 1176.97 1584.33 1179.97 1623.97 1175.44 1637.24 C 1173.66 1642.46 1169.69 1645.68 1168.45 1651.44 C 1171.23 1651.74 1173.42 1650.87 1176.02 1650.01 L 1179.22 1650.93 C 1135.78 1661.99 1080.12 1665.64 1035.24 1666.64 C 1014.53 1667.1 993.609 1666.09 972.972 1667.85 L 972.905 1667.17 C 977.953 1657.27 980.686 1645.25 983.919 1634.6 C 989.064 1617.65 994.17 1600.73 999.988 1584 C 1028.7 1501.39 1064.18 1418.12 1117.62 1348.13 z"/>
<path transform="translate(0,0)" fill="rgb(148,210,229)" d="M 1164.52 1522.82 L 1429.93 1303.5 L 1494.42 1249.94 C 1503.45 1242.38 1513.42 1231.93 1523.47 1226.01 C 1510.16 1239.81 1494.91 1252 1480.33 1264.44 C 1459.82 1281.94 1439.4 1299.54 1419.07 1317.24 C 1333.58 1392.25 1246.78 1465.75 1158.71 1537.71 C 1137.52 1552.61 1004.94 1662.87 995.399 1663.55 C 996.566 1660.84 998.681 1659.07 1000.92 1657.22 C 1012.31 1647.85 1024.65 1639.6 1036.1 1630.25 C 1079.25 1595.02 1121.98 1558.81 1164.52 1522.82 z"/>
<path transform="translate(0,0)" fill="url(#Gradient1)" d="M 1240.82 876.926 C 1327.2 789.443 1430.01 721.838 1537.9 664.122 C 1552.31 805.28 1544.75 954.233 1504.64 1090.89 L 1502.9 1091.63 C 1488.57 1097.57 1472.46 1100.82 1457.74 1105.99 C 1419.95 1119.06 1383.06 1134.61 1347.32 1152.56 C 1324.97 1164 1303.25 1176.64 1282.26 1190.42 C 1276.88 1193.91 1261.97 1205.72 1256.63 1206.88 C 1253.67 1209.62 1251.07 1212.67 1247.01 1213.57 L 1244.35 1212.99 C 1237.59 1223.01 1220.72 1238.32 1209.68 1242.93 C 1242.02 1135.26 1257.17 1035.23 1245.6 922.725 C 1244.09 908.021 1244.2 891.237 1240.82 876.926 z"/>
<path transform="translate(0,0)" fill="rgb(136,171,232)" d="M 1244.35 1212.99 C 1263.84 1177.43 1281.81 1141.01 1300.5 1105.02 L 1360.88 991.182 C 1369.27 975.286 1391.79 927.743 1400.5 917.576 C 1397.03 927.329 1391.51 936.664 1386.87 945.915 C 1378.77 962.001 1370.76 978.132 1362.84 994.305 C 1328.15 1065.51 1292.74 1136.38 1256.63 1206.88 C 1253.67 1209.62 1251.07 1212.67 1247.01 1213.57 L 1244.35 1212.99 z"/>
</svg>