<svg width="25" height="25" viewBox="0 0 25 25" fill="none" xmlns="http://www.w3.org/2000/svg">
<path fill-rule="evenodd" clip-rule="evenodd" d="M24.5 23.1209L4.19231 23.0859V23.0923H3.26923C3.2 23.0923 3.13077 23.084 3.06431 23.0692C2.63231 22.9917 2.30462 22.6132 2.30554 22.1591C2.30554 22.0649 2.32031 21.9745 2.34615 21.8896V1.86155C2.34615 1.35202 1.93262 0.938477 1.42308 0.938477C0.913538 0.938477 0.5 1.35202 0.5 1.86155V22.1692C0.5 22.904 0.791692 23.6083 1.31138 24.1271C1.83015 24.6468 2.53446 24.9385 3.26923 24.9385H23.5889C24.0929 24.932 24.5 24.5212 24.5 24.0154V23.1209Z" fill="#1EB51A"/>
<path fill-rule="evenodd" clip-rule="evenodd" d="M18.9612 21.2653L24.4996 21.2745V11.092C24.4996 10.5825 24.0861 10.1689 23.5766 10.1689H19.8843C19.3747 10.1689 18.9612 10.5825 18.9612 11.092V21.2653Z" fill="#1EB51A"/>
<path fill-rule="evenodd" clip-rule="evenodd" d="M11.5774 21.2526L17.1159 21.2619V1.86155C17.1159 1.35202 16.7023 0.938477 16.1928 0.938477H12.5005C11.9909 0.938477 11.5774 1.35202 11.5774 1.86155V21.2526Z" fill="#1EB51A"/>
<path fill-rule="evenodd" clip-rule="evenodd" d="M4.19238 21.2393L9.73084 21.2486V7.39964C9.73084 6.8901 9.31731 6.47656 8.80777 6.47656H5.11546C4.60592 6.47656 4.19238 6.8901 4.19238 7.39964V21.2393Z" fill="#1EB51A"/>
</svg>
