<svg width="33" height="32" viewBox="0 0 33 32" fill="none" xmlns="http://www.w3.org/2000/svg">
<rect x="0.5" width="32" height="32" rx="16" fill="#9FEAFF"/>
<g clip-path="url(#clip0_1724_2555)">
<path d="M22.722 17.3602C22.722 17.2055 22.6605 17.0572 22.5511 16.9478C22.4417 16.8384 22.2934 16.7769 22.1387 16.7769H19.8054C19.6507 16.7769 19.5023 16.8384 19.3929 16.9478C19.2835 17.0572 19.2221 17.2055 19.2221 17.3602V22.6101H18.0555V9.97162C18.0555 9.40542 18.0539 9.03832 18.0181 8.76922C17.9839 8.51645 17.9287 8.43712 17.8844 8.39278C17.84 8.34845 17.7607 8.29323 17.5079 8.25901C17.238 8.22324 16.8717 8.22168 16.3055 8.22168C15.7393 8.22168 15.3722 8.22324 15.1031 8.25901C14.8504 8.29323 14.771 8.34845 14.7267 8.39278C14.6824 8.43712 14.6271 8.51645 14.5929 8.76922C14.5571 9.0391 14.5556 9.40542 14.5556 9.97162V22.6101H13.389V13.4715C13.389 13.3168 13.3275 13.1684 13.2181 13.059C13.1087 12.9496 12.9603 12.8882 12.8056 12.8882H10.4724C10.3177 12.8882 10.1693 12.9496 10.0599 13.059C9.95053 13.1684 9.88908 13.3168 9.88908 13.4715V22.6101H8.52802C8.37331 22.6101 8.22494 22.6715 8.11555 22.7809C8.00616 22.8903 7.9447 23.0387 7.9447 23.1934C7.9447 23.3481 8.00616 23.4965 8.11555 23.6058C8.22494 23.7152 8.37331 23.7767 8.52802 23.7767H24.083C24.2377 23.7767 24.3861 23.7152 24.4955 23.6058C24.6049 23.4965 24.6663 23.3481 24.6663 23.1934C24.6663 23.0387 24.6049 22.8903 24.4955 22.7809C24.3861 22.6715 24.2377 22.6101 24.083 22.6101H22.722V17.3602Z" fill="#037BA2"/>
</g>
<defs>
<clipPath id="clip0_1724_2555">
<rect width="18.666" height="18.666" fill="white" transform="translate(7.16699 6.66699)"/>
</clipPath>
</defs>
</svg>
