<svg width="29" height="29" viewBox="0 0 29 29" fill="none" xmlns="http://www.w3.org/2000/svg">
<g clip-path="url(#clip0_1724_2443)">
<path fill-rule="evenodd" clip-rule="evenodd" d="M2.58721 14.5017C2.58671 11.9833 3.38436 9.52943 4.86562 7.49265C6.34688 5.45587 8.43554 3.94093 10.8316 3.1654C13.2277 2.38988 15.8079 2.39367 18.2017 3.17623C20.5955 3.9588 22.6797 5.47987 24.1549 7.521L23.0881 8.58778C22.9429 8.73264 22.844 8.91735 22.8039 9.1185C22.7637 9.31965 22.7843 9.52819 22.8628 9.71767C22.9413 9.90715 23.0744 10.069 23.245 10.1828C23.4157 10.2966 23.6163 10.3571 23.8214 10.3568H27.9643C28.239 10.3568 28.5024 10.2477 28.6966 10.0534C28.8909 9.85919 29 9.59576 29 9.32107V5.17821C29.0004 4.9731 28.9398 4.77249 28.826 4.60183C28.7123 4.43117 28.5504 4.29813 28.3609 4.21959C28.1714 4.14104 27.9629 4.12053 27.7617 4.16065C27.5606 4.20076 27.3759 4.2997 27.231 4.44492L26.0047 5.67328C24.1599 3.27054 21.609 1.50581 18.71 0.626836C15.811 -0.252142 12.7096 -0.201245 9.84103 0.772384C6.97247 1.74601 4.48082 3.59349 2.71583 6.05547C0.950833 8.51746 0.00112002 11.4704 0 14.4996C0 14.843 0.136399 15.1723 0.379192 15.4151C0.621985 15.6579 0.951282 15.7943 1.29464 15.7943C1.638 15.7943 1.9673 15.6579 2.21009 15.4151C2.45289 15.1723 2.58929 14.843 2.58929 14.4996M14.5 5.955C15.2146 5.955 15.7946 6.535 15.7946 7.24964V8.40343C16.473 8.49342 17.1133 8.7694 17.6445 9.20081C18.1757 9.63222 18.5772 10.2022 18.8044 10.8477C18.8677 11.0094 18.8978 11.1822 18.893 11.3559C18.8881 11.5295 18.8483 11.7003 18.7761 11.8582C18.7038 12.0162 18.6005 12.1579 18.4723 12.2751C18.3441 12.3923 18.1937 12.4825 18.0299 12.5403C17.8662 12.5981 17.6924 12.6224 17.5191 12.6117C17.3458 12.601 17.1763 12.5556 17.0209 12.478C16.8655 12.4005 16.7273 12.2925 16.6145 12.1605C16.5017 12.0284 16.4166 11.875 16.3643 11.7094C16.2873 11.4903 16.144 11.3006 15.9544 11.1666C15.7647 11.0326 15.538 10.961 15.3058 10.9616H13.4353C13.2215 10.9596 13.0146 11.037 12.8548 11.1789C12.695 11.3209 12.5936 11.5171 12.5703 11.7296C12.5471 11.9421 12.6037 12.1557 12.7291 12.3288C12.8545 12.5019 13.0397 12.6222 13.2489 12.6664L16.0991 13.2879C16.9535 13.4733 17.715 13.9543 18.2494 14.6462C18.7839 15.3381 19.057 16.1964 19.0206 17.0699C18.9842 17.9434 18.6406 18.7761 18.0505 19.4211C17.4604 20.0661 16.6615 20.4821 15.7946 20.5959V21.7496C15.7946 22.093 15.6582 22.4223 15.4155 22.6651C15.1727 22.9079 14.8434 23.0443 14.5 23.0443C14.1566 23.0443 13.8273 22.9079 13.5845 22.6651C13.3418 22.4223 13.2054 22.093 13.2054 21.7496V20.5959C12.527 20.5059 11.8867 20.2299 11.3555 19.7985C10.8243 19.3671 10.4228 18.7971 10.1956 18.1516C10.1323 17.9898 10.1022 17.817 10.107 17.6434C10.1119 17.4698 10.1517 17.299 10.2239 17.141C10.2962 16.9831 10.3995 16.8414 10.5277 16.7242C10.6559 16.607 10.8063 16.5168 10.9701 16.459C11.1338 16.4011 11.3076 16.3769 11.4809 16.3876C11.6542 16.3982 11.8237 16.4437 11.9791 16.5212C12.1345 16.5988 12.2727 16.7068 12.3855 16.8388C12.4983 16.9708 12.5834 17.1242 12.6357 17.2899C12.7127 17.509 12.856 17.6987 13.0456 17.8327C13.2353 17.9667 13.462 18.0383 13.6942 18.0376H15.3058C15.5819 18.0366 15.848 17.9339 16.0531 17.7491C16.2583 17.5643 16.3881 17.3103 16.4179 17.0358C16.4476 16.7613 16.3751 16.4855 16.2143 16.261C16.0535 16.0366 15.8156 15.8792 15.5461 15.8191L12.6979 15.1956C11.8855 15.0183 11.1645 14.5536 10.6675 13.8871C10.1704 13.2205 9.93074 12.3969 9.99249 11.5678C10.0542 10.7386 10.4133 9.95961 11.0036 9.37404C11.5939 8.78848 12.3757 8.43572 13.2054 8.38064V7.24964C13.2054 6.535 13.7854 5.955 14.5 5.955ZM0.640071 24.7781C0.450667 24.6998 0.288748 24.5671 0.174809 24.3967C0.0608697 24.2263 3.32688e-05 24.026 0 23.8211L0 19.6782C0 19.4035 0.10912 19.1401 0.303354 18.9459C0.497588 18.7516 0.761026 18.6425 1.03571 18.6425H5.17857C5.38369 18.6421 5.58429 18.7027 5.75495 18.8165C5.92562 18.9302 6.05865 19.0921 6.1372 19.2816C6.21574 19.4711 6.23625 19.6796 6.19614 19.8808C6.15602 20.0819 6.05708 20.2666 5.91186 20.4115L4.84507 21.4762C6.32034 23.5173 8.40453 25.0384 10.7983 25.821C13.1921 26.6035 15.7723 26.6073 18.1684 25.8318C20.5645 25.0563 22.6531 23.5413 24.1344 21.5046C25.6156 19.4678 26.4133 17.014 26.4128 14.4955C26.4129 14.3255 26.4465 14.1572 26.5117 14.0001C26.5769 13.8431 26.6724 13.7005 26.7927 13.5803C26.913 13.4602 27.0558 13.365 27.2129 13.3C27.3701 13.2351 27.5384 13.2018 27.7085 13.2019C27.8785 13.202 28.0468 13.2356 28.2038 13.3008C28.3608 13.366 28.5035 13.4615 28.6236 13.5818C28.7437 13.7021 28.839 13.8449 28.9039 14.0021C28.9689 14.1592 29.0022 14.3276 29.0021 14.4976C29.0019 17.5276 28.0528 20.4814 26.2878 22.9443C24.5229 25.4072 22.0309 27.2554 19.1617 28.2294C16.2925 29.2034 13.1903 29.2542 10.2908 28.3747C7.39123 27.4953 4.83997 25.7297 2.99529 23.326L1.769 24.5544C1.62405 24.6991 1.43942 24.7976 1.23847 24.8375C1.03752 24.8773 0.829275 24.8566 0.640071 24.7781Z" fill="#2FC22B"/>
</g>
<defs>
<clipPath id="clip0_1724_2443">
<rect width="29" height="29" fill="white"/>
</clipPath>
</defs>
</svg>
