<svg width="28" height="28" viewBox="0 0 28 28" fill="none" xmlns="http://www.w3.org/2000/svg">
<path d="M5.88526 26.0322H5C3.29383 26.0322 1.90625 24.6447 1.90625 22.9385V4.93848C1.90625 3.2323 3.29383 1.84473 5 1.84473H5.88526C5.1683 2.68105 4.71875 3.75329 4.71875 4.93848V22.9385C4.71875 24.1237 5.1683 25.1959 5.88526 26.0322ZM21.5938 2.33916V6.34473H25.5993L21.5938 2.33916ZM26.0938 8.03223V22.9385C26.0938 24.6447 24.7062 26.0322 23 26.0322H9.5C7.79383 26.0322 6.40625 24.6447 6.40625 22.9385V4.93848C6.40625 3.2323 7.79383 1.84473 9.5 1.84473H19.9063V7.18848C19.9063 7.65434 20.2841 8.03223 20.75 8.03223H26.0938ZM21.3466 15.5919L19.0966 13.3419C18.767 13.0123 18.233 13.0123 17.9035 13.3419C17.574 13.6715 17.5739 14.2054 17.9035 14.535L18.7132 15.3446H11.75C11.2841 15.3446 10.9063 15.7225 10.9063 16.1884C10.9063 16.6542 11.2841 17.0321 11.75 17.0321H18.7132L17.9035 17.8418C17.5739 18.1714 17.5739 18.7053 17.9035 19.0348C18.0683 19.1997 18.2837 19.282 18.5001 19.282C18.7166 19.282 18.9319 19.1997 19.0967 19.0348L21.3467 16.7848C21.6763 16.4552 21.6762 15.9214 21.3466 15.5919Z" fill="white"/>
</svg>
