<svg width="35" height="35" viewBox="0 0 35 35" fill="none" xmlns="http://www.w3.org/2000/svg">
<path d="M17.499 1.45801C14.0181 1.45801 10.6797 2.84082 8.21825 5.30223C5.75683 7.76365 4.37402 11.102 4.37402 14.583V24.7913C4.37402 27.2122 6.32819 29.1663 8.74902 29.1663H13.124V17.4997H7.29069V14.583C7.29069 8.93926 11.8553 4.37467 17.499 4.37467C23.1428 4.37467 27.7074 8.93926 27.7074 14.583V17.4997H21.874V29.1663H26.249C28.6699 29.1663 30.624 27.2122 30.624 24.7913V14.583C30.624 11.102 29.2412 7.76365 26.7798 5.30223C24.3184 2.84082 20.98 1.45801 17.499 1.45801Z" fill="#2FC22B"/>
</svg>
