<svg width="26" height="26" viewBox="0 0 26 26" fill="none" xmlns="http://www.w3.org/2000/svg">
<path d="M25.5 6.34757V22.9385C25.5 24.3203 24.3818 25.4385 23 25.4385H14.4545C17.5182 23.6748 19.5909 20.3567 19.5909 16.5748C19.5909 10.9385 15 6.34757 9.36364 6.34757C8.16364 6.34757 7.01818 6.55666 5.95455 6.92939V2.93848C5.95455 1.55666 7.07273 0.438477 8.45455 0.438477H19.5909V4.75666C19.5909 5.62939 20.3091 6.34757 21.1818 6.34757H25.5ZM21.1818 4.98393H25.1L20.9545 0.838477V4.75666C20.9545 4.88393 21.0545 4.98393 21.1818 4.98393ZM18.2273 16.5748C18.2273 21.4657 14.2545 25.4385 9.36364 25.4385C4.47273 25.4385 0.5 21.4657 0.5 16.5748C0.5 11.6839 4.47273 7.7112 9.36364 7.7112C14.2545 7.7112 18.2273 11.6839 18.2273 16.5748ZM8.90909 14.9839C9.08182 14.9839 9.25455 14.9203 9.39091 14.7839C9.65455 14.5203 9.65455 14.0839 9.39091 13.8203L7.57273 12.0021C7.30909 11.7385 6.87273 11.7385 6.60909 12.0021L4.79091 13.8203C4.52727 14.0839 4.52727 14.5203 4.79091 14.7839C5.05455 15.0476 5.49091 15.0476 5.75455 14.7839L6.40909 14.1294V17.9385C6.40909 18.3112 6.71818 18.6203 7.09091 18.6203C7.46364 18.6203 7.77273 18.3112 7.77273 17.9385V14.1294L8.42727 14.7839C8.56364 14.9203 8.73636 14.9839 8.90909 14.9839ZM13.9364 18.3657C13.6727 18.1021 13.2364 18.1021 12.9727 18.3657L12.3182 19.0203V15.2112C12.3182 14.8385 12.0091 14.5294 11.6364 14.5294C11.2636 14.5294 10.9545 14.8385 10.9545 15.2112V19.0203L10.3 18.3657C10.0364 18.1021 9.6 18.1021 9.33636 18.3657C9.07273 18.6294 9.07273 19.0658 9.33636 19.3294L11.1545 21.1476C11.2909 21.2839 11.4636 21.3476 11.6364 21.3476C11.8091 21.3476 11.9818 21.2839 12.1182 21.1476L13.9364 19.3294C14.2 19.0658 14.2 18.6294 13.9364 18.3657Z" fill="white"/>
</svg>
