<svg width="42" height="42" viewBox="0 0 42 42" fill="none" xmlns="http://www.w3.org/2000/svg">
<g clip-path="url(#clip0_1724_2409)">
<path d="M21 42C32.598 42 42 32.598 42 21C42 9.40202 32.598 0 21 0C9.40202 0 0 9.40202 0 21C0 32.598 9.40202 42 21 42Z" fill="#141414"/>
<path d="M21 0.228516C32.4719 0.228516 41.7715 9.52809 41.7715 21C41.7715 32.4719 32.4719 41.7715 21 41.7715C9.52809 41.7715 0.228516 32.4719 0.228516 21C0.228516 9.52809 9.52809 0.228516 21 0.228516Z" stroke="#2FC22B" stroke-opacity="0.4" stroke-width="0.456522"/>
<path d="M20.9584 20.9808V9.94336C14.8734 9.96816 9.9458 14.904 9.9458 20.9973C9.9458 27.0989 14.8982 32.0512 20.9997 32.0512C27.1013 32.0512 32.0537 27.0989 32.0537 20.9973C32.0537 20.989 32.0537 20.989 32.0537 20.9808H20.9584Z" fill="#A2FF9F"/>
<path d="M30.9951 30.0503L32.6156 31.6708C33.74 30.4472 34.6412 29.083 35.3109 27.6444L33.1861 26.7598C32.6404 27.942 31.9046 29.0499 30.9951 30.0503Z" fill="#A2FF9F"/>
<path d="M21.6609 34.4681V36.7665C23.2731 36.7004 24.877 36.3862 26.4148 35.824L25.5384 33.6992C24.2818 34.1457 22.9755 34.402 21.6609 34.4681Z" fill="#A2FF9F"/>
<path d="M16.4613 33.6992L15.585 35.824C17.1228 36.3862 18.7267 36.7004 20.3389 36.7665V34.4681C19.0243 34.402 17.718 34.1457 16.4613 33.6992Z" fill="#A2FF9F"/>
<path d="M30.0528 30.9941C29.0524 31.9036 27.9363 32.6394 26.7705 33.1851L27.6552 35.3099C29.102 34.6402 30.4579 33.739 31.6815 32.6146L30.0528 30.9941Z" fill="#A2FF9F"/>
<path d="M29.8713 12.5248L34.0465 13.2276L33.3437 9.04411L32.3516 10.028C32.2854 9.96183 32.2276 9.89569 32.1614 9.82955C26.002 3.6701 15.9898 3.6701 9.83858 9.82955C3.67913 15.989 3.67913 26.0012 9.83858 32.1524C11.1862 33.5 12.7157 34.55 14.3528 35.3107L15.2291 33.1858C13.865 32.541 12.5917 31.6563 11.4591 30.5319C6.20079 25.2736 6.20079 16.7166 11.4591 11.4583C16.7173 6.20002 25.2744 6.20002 30.5327 11.4583C30.5988 11.5244 30.6567 11.5906 30.7228 11.6567L29.8713 12.5248Z" fill="#2FC22B"/>
<path d="M16.5271 23.2145C16.5271 23.5452 16.4113 23.818 16.1798 24.0413C15.9483 24.2645 15.6507 24.3802 15.3035 24.3802C14.9479 24.3802 14.6586 24.2645 14.4271 24.0413C14.1956 23.818 14.0798 23.5369 14.0798 23.2145C14.0798 22.8921 14.1956 22.611 14.4271 22.3877C14.6586 22.1645 14.9479 22.0488 15.3035 22.0488C15.659 22.0488 15.9483 22.1645 16.1798 22.3877C16.4113 22.611 16.5271 22.8921 16.5271 23.2145ZM19.7184 21.9082L15.5515 27.7204H14.1212L18.2964 21.9082H19.7184ZM15.0472 23.5121C15.1133 23.5865 15.196 23.6279 15.2952 23.6279C15.3944 23.6279 15.4771 23.5865 15.5432 23.5121C15.6094 23.4377 15.6424 23.3385 15.6424 23.2145C15.6424 23.0905 15.6094 22.9913 15.5432 22.9086C15.4771 22.8259 15.3944 22.7846 15.2952 22.7846C15.196 22.7846 15.1133 22.8259 15.0472 22.9086C14.981 22.9913 14.9479 23.0905 14.9479 23.2145C14.9562 23.3385 14.9893 23.4377 15.0472 23.5121ZM19.8011 26.6208C19.8011 26.9515 19.6853 27.2243 19.4538 27.4476C19.2224 27.6708 18.9247 27.7865 18.5775 27.7865C18.222 27.7865 17.9326 27.6708 17.7011 27.4476C17.4696 27.2243 17.3538 26.9432 17.3538 26.6208C17.3538 26.2984 17.4696 26.0173 17.7011 25.794C17.9326 25.5708 18.222 25.4551 18.5775 25.4551C18.933 25.4551 19.2224 25.5708 19.4538 25.794C19.6853 26.0173 19.8011 26.2901 19.8011 26.6208ZM18.3212 26.9102C18.3873 26.9846 18.47 27.0259 18.5692 27.0259C18.6684 27.0259 18.7511 26.9846 18.8172 26.9102C18.8834 26.8358 18.9164 26.7365 18.9164 26.6125C18.9164 26.4885 18.8834 26.3893 18.8172 26.3066C18.7511 26.224 18.6684 26.1826 18.5692 26.1826C18.47 26.1826 18.3873 26.224 18.3212 26.3066C18.255 26.3893 18.222 26.4885 18.222 26.6125C18.2302 26.7365 18.2633 26.8358 18.3212 26.9102Z" fill="black"/>
</g>
<defs>
<clipPath id="clip0_1724_2409">
<rect width="42" height="42" fill="white"/>
</clipPath>
</defs>
</svg>
