<svg width="23" height="23" viewBox="0 0 23 23" fill="none" xmlns="http://www.w3.org/2000/svg">
<rect x="0.562012" width="22.4381" height="22.4381" rx="11.219" fill="#141414"/>
<rect x="0.742964" y="0.180952" width="22.0762" height="22.0762" rx="11.0381" stroke="white" stroke-opacity="0.2" stroke-width="0.361905"/>
<path d="M16.8477 10.586C16.6928 9.47145 16.1758 8.43876 15.3762 7.64699C14.5767 6.85522 13.539 6.34829 12.423 6.2043C11.307 6.0603 10.1746 6.28722 9.20032 6.8501C8.22598 7.41299 7.46375 8.28061 7.03102 9.31931M6.71436 6.78598V9.31931H9.24769M6.71436 11.8526C6.86924 12.9672 7.38628 13.9999 8.18582 14.7916C8.98536 15.5834 10.023 16.0903 11.139 16.2343C12.255 16.3783 13.3874 16.1514 14.3617 15.5885C15.3361 15.0256 16.0983 14.158 16.531 13.1193M16.8477 15.6526V13.1193H14.3144" stroke="white" stroke-opacity="0.7" stroke-width="1.26667" stroke-linecap="round" stroke-linejoin="round"/>
</svg>
