<svg width="33" height="32" viewBox="0 0 33 32" fill="none" xmlns="http://www.w3.org/2000/svg">
<rect x="0.5" width="32" height="32" rx="16" fill="#2FC22B"/>
<path d="M9.87521 22.9377L14.6482 17.8996M20.6587 15.6591L19.23 20.1843C19.2071 20.2567 19.168 20.3222 19.116 20.3752C19.0641 20.4283 19.0008 20.4673 18.9315 20.4891L10.173 23.2378C10.0941 23.2625 10.0102 23.2639 9.93062 23.2419C9.851 23.2198 9.77864 23.1751 9.72141 23.1127C9.66418 23.0502 9.62427 22.9724 9.60603 22.8877C9.5878 22.8029 9.59192 22.7146 9.61796 22.6321L12.462 13.6277C12.4823 13.5631 12.5157 13.5038 12.5597 13.4539C12.6037 13.4041 12.6573 13.3648 12.717 13.3388L16.7572 11.5828C16.8394 11.547 16.9297 11.5377 17.0169 11.556C17.104 11.5743 17.1841 11.6195 17.247 11.6858L20.55 15.1731C20.6091 15.2354 20.6505 15.3139 20.6698 15.3998C20.689 15.4856 20.6851 15.5754 20.6587 15.6591Z" stroke="white" stroke-linecap="round" stroke-linejoin="round"/>
<path d="M21.2047 9.14763L22.9777 11.0191C23.1109 11.1537 23.2173 11.315 23.2907 11.4935C23.3641 11.6721 23.4029 11.8643 23.405 12.0589C23.407 12.2536 23.3722 12.4467 23.3026 12.6269C23.233 12.8071 23.1299 12.9709 22.9995 13.1085C22.8692 13.2461 22.714 13.3549 22.5433 13.4283C22.3726 13.5018 22.1896 13.5386 22.0052 13.5364C21.8209 13.5343 21.6388 13.4933 21.4696 13.4158C21.3004 13.3384 21.1476 13.226 21.0202 13.0854L19.2464 11.2139C18.9962 10.9379 18.8584 10.5694 18.8624 10.1874C18.8664 9.80547 19.0119 9.44034 19.2678 9.17023C19.5237 8.90011 19.8696 8.7465 20.2315 8.74228C20.5934 8.73805 20.9432 8.88356 21.2047 9.14763Z" fill="white" stroke="white" stroke-linecap="round" stroke-linejoin="round"/>
<path d="M16.2388 16.2219C16.135 16.1085 16.0108 16.018 15.8736 15.9558C15.7363 15.8935 15.5887 15.8608 15.4393 15.8594C15.29 15.858 15.1418 15.8881 15.0036 15.9478C14.8653 16.0075 14.7397 16.0957 14.6341 16.2072C14.5284 16.3187 14.4449 16.4513 14.3883 16.5972C14.3318 16.7431 14.3033 16.8995 14.3046 17.0572C14.3059 17.2149 14.3369 17.3707 14.3959 17.5156C14.4549 17.6605 14.5406 17.7915 14.648 17.901C14.8602 18.1173 15.1444 18.237 15.4393 18.2343C15.7343 18.2316 16.0165 18.1067 16.2251 17.8866C16.4336 17.6664 16.552 17.3686 16.5545 17.0572C16.5571 16.7458 16.4437 16.4459 16.2388 16.2219Z" stroke="white" stroke-linecap="round" stroke-linejoin="round"/>
</svg>
