<svg width="33" height="32" viewBox="0 0 33 32" fill="none" xmlns="http://www.w3.org/2000/svg">
<rect x="0.5" width="32" height="32" rx="16" fill="#2FC22B"/>
<path d="M11.5028 8.28144C11.6018 8.32905 11.6853 8.40366 11.7438 8.49668C11.8023 8.5897 11.8333 8.69735 11.8333 8.80722C11.8333 9.45278 12.076 9.82457 12.3801 10.2772L12.4026 10.3099C12.6609 10.6941 13 11.1974 13 11.9184C13 12.4856 12.7746 13.0297 12.3735 13.4308C11.9724 13.8319 11.4284 14.0573 10.8611 14.0573C10.2938 14.0573 9.74976 13.8319 9.34864 13.4308C8.94752 13.0297 8.72217 12.4856 8.72217 11.9184C8.72217 11.6321 8.72217 11.1398 9.02006 10.5044C9.31173 9.88212 9.86629 9.16734 10.8852 8.35144C10.9711 8.28275 11.0746 8.23973 11.1839 8.22734C11.2931 8.21496 11.4037 8.23371 11.5028 8.28144ZM10.8611 15.224C11.5162 15.2251 12.1567 15.0306 12.7005 14.6655C12.9035 15.2364 13 15.9955 13 16.9779C13 18.3094 12.8211 19.9086 12.5294 21.1857C12.3848 21.8204 12.2051 22.406 11.9912 22.8455C11.8907 23.0644 11.7569 23.2664 11.5945 23.4444C11.4343 23.6085 11.1877 23.7835 10.8611 23.7835C10.5344 23.7835 10.2879 23.6085 10.1284 23.4444C9.96606 23.2664 9.83225 23.0644 9.73173 22.8455C9.51706 22.4052 9.3374 21.8204 9.19273 21.1849C8.88907 19.8026 8.73135 18.3923 8.72217 16.9771C8.72217 15.9955 8.81861 15.2364 9.02162 14.6655C9.5655 15.0306 10.206 15.2251 10.8611 15.224ZM13.7653 17.6172C14.1397 17.7817 14.5376 17.8862 14.9445 17.9268V16.1962C14.9445 15.8642 15.0098 15.5355 15.1369 15.2288C15.2639 14.9221 15.4501 14.6435 15.6848 14.4088C16.1589 13.9347 16.8018 13.6684 17.4723 13.6684H19.2028C19.139 13.0317 18.919 12.4207 18.5624 11.8894C18.2059 11.3582 17.7237 10.9231 17.1588 10.6227C16.5938 10.3224 15.9634 10.1661 15.3236 10.1677C14.6838 10.1693 14.0542 10.3288 13.4908 10.6319C13.3697 10.3765 13.2271 10.132 13.0645 9.90079L13.0257 9.84323L12.8864 9.63167C13.6274 9.22184 14.4594 9.00467 15.3061 9.0001C16.1529 8.99553 16.9872 9.20371 17.7325 9.60552C18.4778 10.0073 19.1103 10.5899 19.5719 11.2998C20.0334 12.0097 20.3093 12.8241 20.3742 13.6684H21.7501C22.082 13.6684 22.4107 13.7338 22.7174 13.8608C23.0241 13.9878 23.3028 14.174 23.5375 14.4088C23.7722 14.6435 23.9584 14.9221 24.0855 15.2288C24.2125 15.5355 24.2779 15.8642 24.2779 16.1962V20.474C24.2779 20.806 24.2125 21.1347 24.0855 21.4414C23.9584 21.748 23.7722 22.0267 23.5375 22.2614C23.3028 22.4962 23.0241 22.6824 22.7174 22.8094C22.4107 22.9364 22.082 23.0018 21.7501 23.0018H17.4723C16.8018 23.0018 16.1589 22.7355 15.6848 22.2614C15.2108 21.7874 14.9445 21.1444 14.9445 20.474V19.0981C14.5148 19.0653 14.0911 18.9778 13.6837 18.8375C13.7226 18.4253 13.7506 18.0146 13.7653 17.6172ZM21.7501 14.8351H20.3298C20.1645 15.8946 19.6667 16.8741 18.9085 17.6324C18.1502 18.3907 17.1706 18.8884 16.1111 19.0538V20.474C16.1111 21.2253 16.7209 21.8351 17.4723 21.8351H21.7501C22.1111 21.8351 22.4573 21.6917 22.7125 21.4365C22.9678 21.1812 23.1112 20.835 23.1112 20.474V16.1962C23.1112 15.8352 22.9678 15.489 22.7125 15.2337C22.4573 14.9785 22.1111 14.8351 21.7501 14.8351ZM16.1111 17.8684C16.8581 17.7151 17.5436 17.3459 18.0828 16.8067C18.622 16.2675 18.9911 15.582 19.1445 14.8351H17.4723C17.1113 14.8351 16.7651 14.9785 16.5098 15.2337C16.2545 15.489 16.1111 15.8352 16.1111 16.1962V17.8684Z" fill="white"/>
</svg>
