<svg width="175" height="95" viewBox="0 0 175 95" fill="none" xmlns="http://www.w3.org/2000/svg">
<path d="M0 87.5023C0 70.196 5.13184 53.2783 14.7466 38.8887C24.3613 24.499 38.0271 13.2836 54.0158 6.66075C70.0045 0.0379128 87.598 -1.69492 104.572 1.68137C121.545 5.05767 137.136 13.3915 149.373 25.6289L128.749 46.2534C120.591 38.0951 110.197 32.5392 98.8813 30.2884C87.5657 28.0375 75.8366 29.1927 65.1775 33.6079C54.5184 38.0232 45.4078 45.5001 38.998 55.0932C32.5882 64.6863 29.167 75.9648 29.167 87.5023H0Z" fill="#2FC22B"/>
<path d="M149.371 25.6309C165.781 42.041 175 64.2979 175 87.5053H145.832C145.832 79.8445 144.324 72.2588 141.392 65.1811C138.46 58.1035 134.163 51.6726 128.747 46.2557L149.371 25.6309Z" fill="#1F1E1E"/>
<path d="M72.0421 76L77.7566 64.6989V64.603H71.1472V62.9091H79.802V64.6605L74.1067 76H72.0421ZM86.1701 76.179C85.369 76.179 84.6488 76.0256 84.0096 75.7188C83.3746 75.4077 82.8675 74.9815 82.4883 74.4403C82.109 73.8991 81.9066 73.2812 81.881 72.5866H83.7987C83.8455 73.1491 84.0948 73.6115 84.5465 73.9737C84.9982 74.3359 85.5394 74.517 86.1701 74.517C86.6729 74.517 87.1183 74.402 87.506 74.1719C87.8981 73.9375 88.2049 73.6158 88.4265 73.2067C88.6523 72.7976 88.7653 72.331 88.7653 71.8068C88.7653 71.2741 88.6502 70.799 88.4201 70.3814C88.19 69.9638 87.8725 69.6357 87.4677 69.397C87.0671 69.1584 86.6069 69.0369 86.087 69.0327C85.6907 69.0327 85.2923 69.1009 84.8917 69.2372C84.4911 69.3736 84.1673 69.5526 83.9201 69.7741L82.1112 69.5057L82.8462 62.9091H90.0437V64.603H84.489L84.0735 68.2656H84.1502C84.4059 68.0185 84.7447 67.8118 85.1665 67.6456C85.5927 67.4794 86.0487 67.3963 86.5344 67.3963C87.3313 67.3963 88.0408 67.5859 88.663 67.9652C89.2894 68.3445 89.7816 68.8622 90.1396 69.5185C90.5018 70.1705 90.6808 70.9205 90.6765 71.7685C90.6808 72.6165 90.489 73.3729 90.1012 74.0376C89.7177 74.7024 89.185 75.2266 88.5032 75.6101C87.8256 75.9893 87.0479 76.179 86.1701 76.179ZM99.8443 73.5455V72.8551C99.8443 72.3608 99.9466 71.9091 100.151 71.5C100.36 71.0866 100.662 70.7564 101.059 70.5092C101.459 70.2578 101.943 70.1321 102.51 70.1321C103.089 70.1321 103.575 70.2557 103.967 70.5028C104.359 70.75 104.655 71.0803 104.856 71.4936C105.06 71.907 105.162 72.3608 105.162 72.8551V73.5455C105.162 74.0398 105.06 74.4936 104.856 74.907C104.651 75.3161 104.351 75.6463 103.954 75.8977C103.562 76.1449 103.081 76.2685 102.51 76.2685C101.934 76.2685 101.449 76.1449 101.052 75.8977C100.656 75.6463 100.356 75.3161 100.151 74.907C99.9466 74.4936 99.8443 74.0398 99.8443 73.5455ZM101.334 72.8551V73.5455C101.334 73.9119 101.421 74.2443 101.596 74.5426C101.77 74.8409 102.075 74.9901 102.51 74.9901C102.94 74.9901 103.241 74.8409 103.411 74.5426C103.581 74.2443 103.667 73.9119 103.667 73.5455V72.8551C103.667 72.4886 103.584 72.1562 103.417 71.858C103.256 71.5597 102.953 71.4105 102.51 71.4105C102.084 71.4105 101.781 71.5597 101.602 71.858C101.423 72.1562 101.334 72.4886 101.334 72.8551ZM93.2605 66.054V65.3636C93.2605 64.8693 93.3627 64.4155 93.5673 64.0021C93.7761 63.5888 94.0787 63.2585 94.475 63.0114C94.8755 62.7642 95.3592 62.6406 95.926 62.6406C96.5055 62.6406 96.9913 62.7642 97.3833 63.0114C97.7754 63.2585 98.0716 63.5888 98.2718 64.0021C98.4721 64.4155 98.5723 64.8693 98.5723 65.3636V66.054C98.5723 66.5483 98.47 67.0021 98.2654 67.4155C98.0652 67.8246 97.7669 68.1548 97.3706 68.4062C96.9785 68.6534 96.497 68.777 95.926 68.777C95.3464 68.777 94.8585 68.6534 94.4622 68.4062C94.0701 68.1548 93.7718 67.8246 93.5673 67.4155C93.3627 67.0021 93.2605 66.5483 93.2605 66.054ZM94.7562 65.3636V66.054C94.7562 66.4205 94.8414 66.7528 95.0119 67.0511C95.1866 67.3494 95.4913 67.4986 95.926 67.4986C96.3521 67.4986 96.6504 67.3494 96.8208 67.0511C96.9956 66.7528 97.0829 66.4205 97.0829 66.054V65.3636C97.0829 64.9972 96.9998 64.6648 96.8336 64.3665C96.6674 64.0682 96.3649 63.919 95.926 63.919C95.4998 63.919 95.1973 64.0682 95.0183 64.3665C94.8436 64.6648 94.7562 64.9972 94.7562 65.3636ZM93.8677 76L102.868 62.9091H104.395L95.3954 76H93.8677Z" fill="#A2FF9F"/>
<path d="M79.9554 85.4986V81.4545H80.714V88H79.9554V86.9134H79.8958C79.7424 87.2486 79.4995 87.5284 79.1671 87.7528C78.8347 87.9744 78.4284 88.0852 77.9483 88.0852C77.5307 88.0852 77.16 87.9943 76.8361 87.8125C76.5123 87.6278 76.258 87.358 76.0733 87.0028C75.8887 86.6477 75.7963 86.2116 75.7963 85.6946V81.4545H76.5549V85.6477C76.5549 86.1591 76.7054 86.571 77.0066 86.8835C77.3077 87.1932 77.6941 87.348 78.1657 87.348C78.4611 87.348 78.7452 87.277 79.0179 87.1349C79.2907 86.9929 79.5151 86.7855 79.6912 86.5128C79.8674 86.2372 79.9554 85.8991 79.9554 85.4986ZM87.1199 82.8906L86.4252 83.0866C86.3571 82.8906 86.2605 82.7131 86.1355 82.554C86.0105 82.3949 85.8471 82.2685 85.6454 82.1747C85.4466 82.081 85.1994 82.0341 84.9039 82.0341C84.4608 82.0341 84.0971 82.1392 83.813 82.3494C83.5289 82.5597 83.3869 82.831 83.3869 83.1634C83.3869 83.4446 83.4835 83.6733 83.6767 83.8494C83.8727 84.0227 84.1738 84.1605 84.5801 84.2628L85.5687 84.5057C86.117 84.6392 86.5275 84.8509 86.8002 85.1406C87.0758 85.4304 87.2136 85.794 87.2136 86.2315C87.2136 86.6009 87.1113 86.929 86.9068 87.2159C86.7022 87.5028 86.4167 87.7287 86.0502 87.8935C85.6866 88.0554 85.2647 88.1364 84.7846 88.1364C84.1454 88.1364 83.6184 87.9929 83.2037 87.706C82.7889 87.4162 82.5233 86.9986 82.4068 86.4531L83.1355 86.2741C83.2292 86.6634 83.4125 86.9574 83.6852 87.1562C83.9608 87.3551 84.323 87.4545 84.7718 87.4545C85.2747 87.4545 85.6767 87.3423 85.9778 87.1179C86.2789 86.8906 86.4295 86.6065 86.4295 86.2656C86.4295 86.0014 86.3414 85.7798 86.1653 85.6009C85.9892 85.419 85.7221 85.2855 85.3642 85.2003L84.2946 84.9446C83.7264 84.8082 83.3059 84.5923 83.0332 84.2969C82.7605 84.0014 82.6241 83.6349 82.6241 83.1974C82.6241 82.8366 82.7221 82.5199 82.9181 82.2472C83.1142 81.9716 83.3841 81.7557 83.7278 81.5994C84.0716 81.4432 84.4636 81.3651 84.9039 81.3651C85.5034 81.3651 85.9821 81.5014 86.34 81.7741C86.7008 82.044 86.9608 82.4162 87.1199 82.8906ZM91.5208 88.1364C90.91 88.1364 90.3816 87.9943 89.9355 87.7102C89.4895 87.4233 89.1444 87.027 88.9 86.5213C88.6586 86.0128 88.5378 85.4276 88.5378 84.7656C88.5378 84.1065 88.6586 83.5213 88.9 83.0099C89.1444 82.4957 89.481 82.0937 89.91 81.804C90.3418 81.5114 90.8404 81.3651 91.4057 81.3651C91.7608 81.3651 92.1032 81.4304 92.4327 81.5611C92.7623 81.6889 93.0577 81.8864 93.3191 82.1534C93.5833 82.4176 93.7921 82.7514 93.9455 83.1548C94.0989 83.5554 94.1756 84.0298 94.1756 84.5781V84.9531H89.062V84.2841H93.4C93.4 83.8636 93.3148 83.4858 93.1444 83.1506C92.9767 82.8125 92.7424 82.5455 92.4412 82.3494C92.1429 82.1534 91.7978 82.0554 91.4057 82.0554C90.9909 82.0554 90.6259 82.1662 90.3105 82.3878C89.9952 82.6094 89.748 82.902 89.5691 83.2656C89.3929 83.6293 89.3034 84.027 89.3006 84.4588V84.8594C89.3006 85.3793 89.3901 85.8338 89.5691 86.223C89.7509 86.6094 90.008 86.9091 90.3404 87.1222C90.6728 87.3352 91.0662 87.4418 91.5208 87.4418C91.8304 87.4418 92.1017 87.3935 92.3347 87.2969C92.5705 87.2003 92.7679 87.071 92.927 86.9091C93.089 86.7443 93.2111 86.5639 93.2935 86.3679L94.0137 86.6023C93.9142 86.8778 93.7509 87.1321 93.5236 87.3651C93.2992 87.598 93.0179 87.7855 92.6799 87.9276C92.3446 88.0668 91.9583 88.1364 91.5208 88.1364ZM98.2037 88.1364C97.6667 88.1364 97.1966 87.9943 96.7931 87.7102C96.3897 87.4261 96.0744 87.0298 95.8471 86.5213C95.6227 86.0128 95.5105 85.4205 95.5105 84.7443C95.5105 84.071 95.6227 83.4815 95.8471 82.9759C96.0744 82.4673 96.3912 82.0724 96.7974 81.7912C97.2037 81.5071 97.6767 81.3651 98.2164 81.3651C98.6142 81.3651 98.9451 81.4361 99.2093 81.5781C99.4735 81.7173 99.6852 81.8906 99.8443 82.098C100.003 82.3054 100.127 82.5071 100.215 82.7031H100.283V79.2727H101.046V88H100.305V86.7855H100.215C100.127 86.9844 100.002 87.1889 99.84 87.3991C99.6781 87.6065 99.4636 87.7812 99.1966 87.9233C98.9324 88.0653 98.6014 88.1364 98.2037 88.1364ZM98.2931 87.4418C98.7164 87.4418 99.0772 87.3267 99.3755 87.0966C99.6738 86.8636 99.9011 86.544 100.057 86.1378C100.216 85.7287 100.296 85.2599 100.296 84.7315C100.296 84.2088 100.218 83.7472 100.062 83.3466C99.9054 82.9432 99.6781 82.6278 99.3798 82.4006C99.0815 82.1705 98.7193 82.0554 98.2931 82.0554C97.8556 82.0554 97.4863 82.1747 97.1852 82.4134C96.8869 82.6491 96.6596 82.9687 96.5034 83.3722C96.35 83.7756 96.2733 84.2287 96.2733 84.7315C96.2733 85.2401 96.3514 85.6989 96.5076 86.108C96.6639 86.517 96.8912 86.8423 97.1895 87.0838C97.4906 87.3224 97.8585 87.4418 98.2931 87.4418Z" fill="white" fill-opacity="0.7"/>
</svg>
