<svg width="24" height="24" viewBox="0 0 24 24" fill="none" xmlns="http://www.w3.org/2000/svg">
<rect width="24" height="24" rx="3" fill="#2FC22B"/>
<path fill-rule="evenodd" clip-rule="evenodd" d="M14.8478 6.70292C14.7329 6.51928 14.5636 6.37604 14.3635 6.29315C14.1633 6.21025 13.9423 6.19182 13.7312 6.24041L12.2328 6.58458C12.0793 6.61987 11.9197 6.61987 11.7662 6.58458L10.2678 6.24041C10.0567 6.19182 9.83572 6.21025 9.63558 6.29315C9.43543 6.37604 9.26611 6.51928 9.15118 6.70292L8.33452 8.00625C8.25118 8.13958 8.13868 8.25208 8.00535 8.33625L6.70202 9.15292C6.5187 9.26774 6.37567 9.43679 6.29279 9.63659C6.20991 9.8364 6.19129 10.057 6.23952 10.2679L6.58368 11.7679C6.61885 11.9212 6.61885 12.0805 6.58368 12.2337L6.23952 13.7329C6.19111 13.9439 6.20963 14.1647 6.29252 14.3647C6.37541 14.5647 6.51854 14.7339 6.70202 14.8487L8.00535 15.6654C8.13868 15.7487 8.25118 15.8612 8.33535 15.9946L9.15202 17.2979C9.38702 17.6737 9.83535 17.8596 10.2678 17.7604L11.7662 17.4162C11.9197 17.381 12.0793 17.381 12.2328 17.4162L13.732 17.7604C13.943 17.8088 14.1638 17.7903 14.3638 17.7074C14.5638 17.6245 14.733 17.4814 14.8478 17.2979L15.6645 15.9946C15.7478 15.8612 15.8603 15.7487 15.9937 15.6654L17.2978 14.8487C17.4813 14.7337 17.6244 14.5643 17.7071 14.3642C17.7899 14.1641 17.8082 13.9431 17.7595 13.7321L17.4162 12.2337C17.3809 12.0802 17.3809 11.9206 17.4162 11.7671L17.7603 10.2679C17.8088 10.057 17.7904 9.83624 17.7077 9.63628C17.625 9.43631 17.482 9.26707 17.2987 9.15208L15.9945 8.33542C15.8614 8.25193 15.7488 8.1394 15.6653 8.00625L14.8478 6.70292ZM14.4287 10.1421C14.4802 10.0473 14.493 9.93623 14.4643 9.83223C14.4356 9.72822 14.3677 9.6394 14.2749 9.58445C14.182 9.5295 14.0715 9.5127 13.9665 9.5376C13.8615 9.56249 13.7703 9.62713 13.712 9.71791L11.5328 13.4062L10.217 12.1462C10.178 12.1062 10.1313 12.0744 10.0797 12.0527C10.0281 12.0311 9.97265 12.0201 9.9167 12.0203C9.86075 12.0205 9.80543 12.032 9.75402 12.0541C9.70262 12.0762 9.65619 12.1084 9.6175 12.1489C9.57881 12.1893 9.54867 12.2371 9.52885 12.2894C9.50904 12.3417 9.49997 12.3975 9.50218 12.4534C9.50439 12.5093 9.51783 12.5642 9.54172 12.6148C9.5656 12.6654 9.59943 12.7107 9.64118 12.7479L11.3362 14.3721C11.3815 14.4155 11.4361 14.448 11.4958 14.4674C11.5556 14.4867 11.6189 14.4923 11.6811 14.4837C11.7432 14.4751 11.8027 14.4526 11.8549 14.4178C11.9072 14.3831 11.9509 14.337 11.9828 14.2829L14.4287 10.1421Z" fill="#141414"/>
</svg>
