<svg width="33" height="32" viewBox="0 0 33 32" fill="none" xmlns="http://www.w3.org/2000/svg">
<rect x="0.5" width="32" height="32" rx="16" fill="#00A0D4"/>
<path d="M21.9443 8.99902H11.0557C10.2002 8.99902 9.50024 9.699 9.50024 10.5545V21.443C9.50024 22.2986 10.2002 22.9985 11.0557 22.9985H21.9443C22.7998 22.9985 23.4998 22.2986 23.4998 21.443V10.5545C23.4998 9.699 22.7998 8.99902 21.9443 8.99902ZM12.6112 12.11H14.1667V13.6655H12.6112V12.11ZM12.6112 15.221H14.1667V16.7765H12.6112V15.221ZM12.6112 18.332H14.1667V19.8875H12.6112V18.332ZM20.3888 19.8875H15.7222V18.332H20.3888V19.8875ZM20.3888 16.7765H15.7222V15.221H20.3888V16.7765ZM20.3888 13.6655H15.7222V12.11H20.3888V13.6655Z" fill="white" fill-opacity="0.8"/>
</svg>
