<svg width="42" height="43" viewBox="0 0 42 43" fill="none" xmlns="http://www.w3.org/2000/svg">
<rect x="0.172852" y="0.866211" width="41.564" height="41.564" rx="6.70387" fill="#222020"/>
<path d="M14.4002 23.8333H17.7322L23.1946 18.371C23.3585 18.2071 23.4816 18.0203 23.5639 17.8105C23.6462 17.6008 23.6869 17.3961 23.6862 17.1965C23.6855 16.997 23.64 16.8014 23.5497 16.6099C23.4593 16.4183 23.341 16.2406 23.1946 16.0768L22.2114 15.0389C22.0475 14.875 21.8654 14.7523 21.6651 14.6707C21.4648 14.5892 21.2555 14.548 21.037 14.5473C20.8367 14.5473 20.632 14.5884 20.423 14.6707C20.214 14.753 20.0272 14.8758 19.8626 15.0389L14.4002 20.5013V23.8333ZM16.0389 22.1946V21.1568L18.7974 18.3983L19.3436 18.8899L19.8352 19.4361L17.0767 22.1946H16.0389ZM19.3436 18.8899L19.8352 19.4361L18.7974 18.3983L19.3436 18.8899ZM20.0537 23.8333H27.5099V21.6484H22.2387L20.0537 23.8333ZM10.0303 32.5731V12.9086C10.0303 12.3077 10.2444 11.7935 10.6726 11.366C11.1009 10.9385 11.6151 10.7244 12.2152 10.7236H29.6948C30.2957 10.7236 30.8102 10.9378 31.2385 11.366C31.6667 11.7943 31.8805 12.3085 31.8798 12.9086V26.0183C31.8798 26.6191 31.666 27.1337 31.2385 27.562C30.811 27.9902 30.2964 28.204 29.6948 28.2032H14.4002L10.0303 32.5731ZM13.4716 26.0183H29.6948V12.9086H12.2152V27.2473L13.4716 26.0183Z" fill="#2FC22B"/>
</svg>
