<svg width="42" height="42" viewBox="0 0 42 42" fill="none" xmlns="http://www.w3.org/2000/svg">
<rect x="0.172852" y="0.318359" width="41.564" height="41.564" rx="6.70387" fill="#222020"/>
<path d="M14.4755 11.0916C14.6039 11.1533 14.7123 11.25 14.7881 11.3706C14.8639 11.4912 14.9041 11.6308 14.9041 11.7733C14.9041 12.6103 15.2187 13.0923 15.613 13.6792L15.6423 13.7216C15.9771 14.2197 16.4168 14.8722 16.4168 15.807C16.4168 16.5425 16.1246 17.2479 15.6045 17.768C15.0844 18.288 14.3791 18.5802 13.6436 18.5802C12.9081 18.5802 12.2027 18.288 11.6826 17.768C11.1625 17.2479 10.8704 16.5425 10.8704 15.807C10.8704 15.4359 10.8704 14.7976 11.2566 13.9737C11.6348 13.1669 12.3538 12.2402 13.6748 11.1823C13.7862 11.0932 13.9204 11.0375 14.0621 11.0214C14.2038 11.0054 14.3471 11.0297 14.4755 11.0916ZM13.6436 20.0929C14.4929 20.0943 15.3234 19.8422 16.0285 19.3688C16.2917 20.109 16.4168 21.0932 16.4168 22.3669C16.4168 24.0934 16.1848 26.1667 15.8067 27.8226C15.6191 28.6454 15.3862 29.4048 15.1088 29.9746C14.9785 30.2584 14.805 30.5203 14.5945 30.7511C14.3868 30.9638 14.0671 31.1907 13.6436 31.1907C13.22 31.1907 12.9003 30.9638 12.6936 30.7511C12.4831 30.5203 12.3096 30.2584 12.1793 29.9746C11.901 29.4038 11.668 28.6454 11.4805 27.8216C11.0868 26.0294 10.8823 24.2008 10.8704 22.3659C10.8704 21.0932 10.9954 20.109 11.2586 19.3688C11.9638 19.8422 12.7942 20.0943 13.6436 20.0929ZM17.4091 23.1958C17.8944 23.4092 18.4103 23.5446 18.9379 23.5972V21.3534C18.9379 20.923 19.0226 20.4968 19.1874 20.0992C19.3521 19.7016 19.5935 19.3403 19.8978 19.0359C20.5124 18.4213 21.3461 18.076 22.2153 18.076H24.4591C24.3763 17.2506 24.0911 16.4583 23.6287 15.7695C23.1664 15.0807 22.5413 14.5166 21.8088 14.1272C21.0763 13.7378 20.259 13.5351 19.4295 13.5372C18.5999 13.5393 17.7837 13.746 17.0531 14.1391C16.8961 13.808 16.7113 13.4908 16.5005 13.1911L16.4501 13.1165L16.2695 12.8422C17.2302 12.3108 18.309 12.0293 19.4068 12.0233C20.5046 12.0174 21.5864 12.2873 22.5527 12.8083C23.5191 13.3293 24.3391 14.0846 24.9376 15.005C25.536 15.9254 25.8937 16.9814 25.9778 18.076H27.7617C28.1921 18.076 28.6183 18.1608 29.0159 18.3255C29.4136 18.4902 29.7749 18.7316 30.0792 19.0359C30.3835 19.3403 30.625 19.7016 30.7897 20.0992C30.9544 20.4968 31.0391 20.923 31.0391 21.3534V26.8998C31.0391 27.3302 30.9544 27.7564 30.7897 28.1541C30.625 28.5517 30.3835 28.913 30.0792 29.2173C29.7749 29.5217 29.4136 29.7631 29.0159 29.9278C28.6183 30.0925 28.1921 30.1773 27.7617 30.1773H22.2153C21.3461 30.1773 20.5124 29.832 19.8978 29.2173C19.2832 28.6027 18.9379 27.7691 18.9379 26.8998V25.1159C18.3808 25.0734 17.8315 24.9599 17.3032 24.7781C17.3536 24.2436 17.3899 23.7112 17.4091 23.1958ZM27.7617 19.5887H25.9203C25.7059 20.9624 25.0606 22.2324 24.0774 23.2156C23.0943 24.1987 21.8242 24.844 20.4505 25.0584V26.8998C20.4505 27.874 21.2411 28.6646 22.2153 28.6646H27.7617C28.2298 28.6646 28.6786 28.4787 29.0096 28.1477C29.3405 27.8168 29.5265 27.3679 29.5265 26.8998V21.3534C29.5265 20.8854 29.3405 20.4365 29.0096 20.1055C28.6786 19.7746 28.2298 19.5887 27.7617 19.5887ZM20.4505 23.5216C21.419 23.3227 22.3078 22.8441 23.0069 22.145C23.706 21.4459 24.1846 20.5571 24.3834 19.5887H22.2153C21.7473 19.5887 21.2984 19.7746 20.9674 20.1055C20.6365 20.4365 20.4505 20.8854 20.4505 21.3534V23.5216Z" fill="#2FC22B"/>
</svg>
