<svg width="42" height="42" viewBox="0 0 42 42" fill="none" xmlns="http://www.w3.org/2000/svg">
<rect x="-0.00842285" y="0.318359" width="41.564" height="41.564" rx="6.70387" fill="#222020"/>
<path d="M26.6765 27.4567H29.6738C29.8424 27.4567 30.0041 27.3897 30.1233 27.2705C30.2425 27.1513 30.3095 26.9896 30.3095 26.821V20.0403C30.3095 18.9164 29.863 17.8384 29.0682 17.0437C28.2735 16.2489 27.1955 15.8024 26.0716 15.8024H15.4767C14.3527 15.8024 13.2748 16.2489 12.48 17.0437C11.6853 17.8384 11.2388 18.9164 11.2388 20.0403V26.821C11.2388 26.9896 11.3057 27.1513 11.425 27.2705C11.5442 27.3897 11.7059 27.4567 11.8745 27.4567H14.8717M16.5362 15.8024V12.2001C16.5362 12.0315 16.6032 11.8699 16.7224 11.7506C16.8416 11.6314 17.0033 11.5645 17.1719 11.5645H24.3764C24.545 11.5645 24.7067 11.6314 24.8259 11.7506C24.9451 11.8699 25.0121 12.0315 25.0121 12.2001V15.8024" stroke="#2FC22B" stroke-width="1.58923"/>
<path d="M14.5207 29.9094L14.8703 27.4567L15.3979 23.7644C15.4196 23.6129 15.4952 23.4744 15.6108 23.3741C15.7264 23.2739 15.8743 23.2187 16.0273 23.2188H25.5203C25.6733 23.2187 25.8211 23.2739 25.9367 23.3741C26.0523 23.4744 26.1279 23.6129 26.1496 23.7644L26.6751 27.4567L27.0258 29.9094C27.0387 29.9996 27.0321 30.0915 27.0064 30.1789C26.9806 30.2662 26.9365 30.3471 26.8768 30.4159C26.8171 30.4847 26.7433 30.5399 26.6605 30.5778C26.5776 30.6156 26.4875 30.6351 26.3965 30.6351H15.15C15.0589 30.6351 14.9689 30.6156 14.886 30.5778C14.8032 30.5399 14.7294 30.4847 14.6697 30.4159C14.61 30.3471 14.5658 30.2662 14.5401 30.1789C14.5144 30.0915 14.5078 29.9996 14.5207 29.9094Z" stroke="#2FC22B" stroke-width="1.58923"/>
<path d="M26.0715 18.9901L26.082 18.9785" stroke="#2FC22B" stroke-width="1.58923" stroke-linecap="round" stroke-linejoin="round"/>
</svg>
