<svg width="42" height="43" viewBox="0 0 42 43" fill="none" xmlns="http://www.w3.org/2000/svg">
<rect x="-0.00842285" y="0.866211" width="41.564" height="41.564" rx="6.70387" fill="#222020"/>
<path d="M25.6051 31.3128V29.3799H28.5043V26.4807H30.4372V29.8632C30.4372 30.2497 30.2439 30.5396 29.954 30.8296C29.664 31.1195 29.2775 31.3128 28.9875 31.3128H25.6051ZM15.9409 31.3128H12.5584C12.1718 31.3128 11.8819 31.1195 11.592 30.8296C11.302 30.5396 11.1088 30.1531 11.1088 29.8632V26.4807H13.0416V29.3799H15.9409V31.3128ZM25.6051 11.9844H28.9875C29.3741 11.9844 29.664 12.1777 29.954 12.4676C30.2439 12.7575 30.4372 13.0474 30.4372 13.434V16.8165H28.5043V13.9172H25.6051V11.9844ZM15.9409 11.9844V13.9172H13.0416V16.8165H11.1088V13.434C11.1088 13.0474 11.302 12.7575 11.592 12.4676C11.8819 12.1777 12.1718 11.9844 12.5584 11.9844H15.9409ZM27.5379 20.6822H14.008V22.615H27.5379V20.6822Z" fill="#2FC22B"/>
</svg>
