<svg width="42" height="43" viewBox="0 0 42 43" fill="none" xmlns="http://www.w3.org/2000/svg">
<rect x="-0.00842285" y="0.769531" width="41.564" height="41.564" rx="6.70387" fill="#222020"/>
<g clip-path="url(#clip0_1828_365)">
<path d="M17.7344 27.6183L18.3665 27.1958C18.297 27.0919 18.203 27.0068 18.0927 26.948C17.9824 26.8891 17.8594 26.8584 17.7344 26.8585V27.6183ZM20.7736 32.1741L20.1414 32.595C20.2108 32.6991 20.3048 32.7844 20.4151 32.8434C20.5254 32.9024 20.6485 32.9333 20.7736 32.9333C20.8987 32.9333 21.0218 32.9024 21.1321 32.8434C21.2424 32.7844 21.3364 32.6991 21.4058 32.595L20.7736 32.1741ZM23.8128 27.6183V26.8585C23.6878 26.8584 23.5648 26.8891 23.4545 26.948C23.3442 27.0068 23.2502 27.0919 23.1807 27.1958L23.8128 27.6183ZM17.1022 28.0392L20.1414 32.595L21.4058 31.7516L18.3665 27.1958L17.1022 28.0392ZM21.4058 32.595L24.445 28.0392L23.1807 27.1958L20.1414 31.7516L21.4058 32.595ZM23.8128 28.3781H29.8913V26.8585H23.8128V28.3781ZM29.8913 28.3781C31.1511 28.3781 32.1707 27.3599 32.1707 26.0987H30.6511C30.6511 26.5196 30.3122 26.8585 29.8913 26.8585V28.3781ZM32.1707 26.0987V12.4327H30.6511V26.1002L32.1707 26.0987ZM32.1707 12.4327C32.1707 11.1715 31.1511 10.1533 29.8913 10.1533V11.6729C30.3122 11.6729 30.6511 12.0118 30.6511 12.4327H32.1707ZM29.8913 10.1533H11.6559V11.6729H29.8913V10.1533ZM11.6559 10.1533C10.3961 10.1533 9.37646 11.1715 9.37646 12.4327H10.8961C10.8961 12.0118 11.235 11.6729 11.6559 11.6729V10.1533ZM9.37646 12.4327V26.1002H10.8961V12.4312L9.37646 12.4327ZM9.37646 26.1002C9.37646 27.36 10.3961 28.3781 11.6559 28.3781V26.8585C11.4544 26.8585 11.2611 26.7784 11.1186 26.6359C10.9761 26.4934 10.8961 26.3002 10.8961 26.0987L9.37646 26.1002ZM11.6559 28.3781H17.7344V26.8585H11.6559V28.3781ZM20.0138 20.7906H21.5334V19.271H20.0138V20.7906ZM15.4549 20.7906H16.9746V19.271H15.4549V20.7906ZM24.5726 20.7906H26.0923V19.271H24.5726V20.7906Z" fill="#2FC22B"/>
</g>
<defs>
<clipPath id="clip0_1828_365">
<rect width="22.7943" height="22.7943" fill="white" transform="translate(9.37646 10.1543)"/>
</clipPath>
</defs>
</svg>
