<svg width="17" height="18" viewBox="0 0 17 18" fill="none" xmlns="http://www.w3.org/2000/svg">
<path fill-rule="evenodd" clip-rule="evenodd" d="M3.59615 10.0577C7.03915 10.0577 7.19231 11.2254 7.19231 13.6538C7.19231 14.8706 7.19231 15.7362 6.68123 16.37C6.09315 17.1002 5.02277 17.25 3.59615 17.25C2.16954 17.25 1.09915 17.1002 0.511077 16.37C0 15.7362 0 14.8715 0 13.675L0.634615 13.6538H0C0 11.2254 0.153154 10.0577 3.59615 10.0577ZM12.9038 10.0577C16.3468 10.0577 16.5 11.2254 16.5 13.6538C16.5 14.8706 16.5 15.7362 15.9889 16.37C15.4008 17.1002 14.3305 17.25 12.9038 17.25C11.4772 17.25 10.4068 17.1002 9.81877 16.37C9.30769 15.7362 9.30769 14.8715 9.30769 13.675L9.94231 13.6538H9.30769C9.30769 11.2254 9.46085 10.0577 12.9038 10.0577ZM3.7706 11.3273L3.59615 11.3269C1.38856 11.3269 1.27535 11.4853 1.26954 13.3383L1.2699 14.0602C1.27391 14.7971 1.30199 15.3295 1.49854 15.5746C1.72277 15.8522 2.38869 15.9808 3.59615 15.9808C4.80362 15.9808 5.46954 15.8513 5.69377 15.5738C5.92308 15.2886 5.92308 14.6117 5.92308 13.6742C5.92308 11.5586 5.92308 11.3373 3.7706 11.3273ZM13.0783 11.3273L12.9038 11.3269C10.6963 11.3269 10.583 11.4853 10.5772 13.3383L10.5776 14.0602C10.5816 14.7971 10.6097 15.3295 10.8062 15.5746C11.0305 15.8522 11.6964 15.9808 12.9038 15.9808C14.1113 15.9808 14.7772 15.8513 15.0015 15.5738C15.2308 15.2886 15.2308 14.6117 15.2308 13.6742C15.2308 11.5586 15.2308 11.3373 13.0783 11.3273ZM3.59615 0.75C7.03915 0.75 7.19231 1.91769 7.19231 4.34615C7.19231 5.56292 7.19231 6.42854 6.68123 7.06231C6.09315 7.79254 5.02277 7.94231 3.59615 7.94231C2.16954 7.94231 1.09915 7.79254 0.511077 7.06231C0 6.42854 0 5.56377 0 4.36731L0.634615 4.34615H0C0 1.91769 0.153154 0.75 3.59615 0.75ZM12.9038 0.75C16.3468 0.75 16.5 1.91769 16.5 4.34615C16.5 5.56292 16.5 6.42854 15.9889 7.06231C15.4008 7.79254 14.3305 7.94231 12.9038 7.94231C11.4772 7.94231 10.4068 7.79254 9.81877 7.06231C9.30769 6.42854 9.30769 5.56377 9.30769 4.36731L9.94231 4.34615H9.30769C9.30769 1.91769 9.46085 0.75 12.9038 0.75ZM3.7706 2.01961L3.59615 2.01923C1.38856 2.01923 1.27535 2.17764 1.26954 4.03058L1.2699 4.75246C1.27391 5.48943 1.30199 6.02178 1.49854 6.26692C1.72277 6.54446 2.38869 6.67308 3.59615 6.67308C4.80362 6.67308 5.46954 6.54362 5.69377 6.26608C5.92308 5.98092 5.92308 5.304 5.92308 4.36646C5.92308 2.2509 5.92308 2.02957 3.7706 2.01961ZM13.0783 2.01961L12.9038 2.01923C10.6963 2.01923 10.583 2.17764 10.5772 4.03058L10.5776 4.75246C10.5816 5.48943 10.6097 6.02178 10.8062 6.26692C11.0305 6.54446 11.6964 6.67308 12.9038 6.67308C14.1113 6.67308 14.7772 6.54362 15.0015 6.26608C15.2308 5.98092 15.2308 5.304 15.2308 4.36646C15.2308 2.2509 15.2308 2.02957 13.0783 2.01961Z" fill="#A2FF9F"/>
</svg>
