<svg width="18" height="12" viewBox="0 0 18 12" fill="none" xmlns="http://www.w3.org/2000/svg">
<path d="M9 1.5C10.965 1.5 12.66 2.895 13.0425 4.8225L13.2675 5.9475L14.415 6.03C14.9788 6.06792 15.5073 6.31799 15.8942 6.72989C16.281 7.14179 16.4975 7.68493 16.5 8.25C16.5 9.4875 15.4875 10.5 14.25 10.5H4.5C2.8425 10.5 1.5 9.1575 1.5 7.5C1.5 5.9625 2.6475 4.68 4.17 4.5225L4.9725 4.44L5.3475 3.7275C5.69248 3.05614 6.21598 2.49296 6.86041 2.09996C7.50483 1.70695 8.24519 1.49935 9 1.5ZM9 1.43803e-07C6.8325 1.43803e-07 4.95 1.23 4.0125 3.03C2.91018 3.14912 1.89075 3.67141 1.15012 4.49649C0.409478 5.32158 -0.000128776 6.39126 3.03696e-08 7.5C3.03696e-08 9.9825 2.0175 12 4.5 12H14.25C16.32 12 18 10.32 18 8.25C18 6.27 16.4625 4.665 14.5125 4.53C14.2606 3.25329 13.5732 2.10364 12.5678 1.27743C11.5624 0.451225 10.3013 -0.000294182 9 1.43803e-07Z" fill="white" fill-opacity="0.7"/>
</svg>
