<svg width="31" height="31" viewBox="0 0 31 31" fill="none" xmlns="http://www.w3.org/2000/svg">
<rect width="31" height="31" rx="5" fill="#9FEAFF"/>
<path d="M8.60893 22.3069L13.6471 17.2687M19.9915 15.0283L18.4834 19.5534C18.4592 19.6258 18.418 19.6913 18.3631 19.7444C18.3083 19.7974 18.2414 19.8365 18.1683 19.8582L8.92322 22.6069C8.83993 22.6316 8.75145 22.6331 8.66741 22.611C8.58337 22.5889 8.50699 22.5443 8.44658 22.4818C8.38617 22.4194 8.34405 22.3415 8.3248 22.2568C8.30554 22.1721 8.3099 22.0837 8.33739 22.0013L11.3394 12.9969C11.3609 12.9322 11.3961 12.8729 11.4425 12.8231C11.489 12.7732 11.5456 12.7339 11.6086 12.7079L15.8733 10.952C15.96 10.9162 16.0553 10.9068 16.1473 10.9252C16.2393 10.9435 16.3238 10.9886 16.3902 11.0549L19.8767 14.5422C19.9391 14.6046 19.9829 14.6831 20.0032 14.7689C20.0234 14.8548 20.0194 14.9446 19.9915 15.0283Z" stroke="#037BA2" stroke-width="1.35714" stroke-linecap="round" stroke-linejoin="round"/>
<path d="M20.5677 8.51677L22.4392 10.3883C22.5798 10.5228 22.6922 10.6841 22.7696 10.8627C22.8471 11.0412 22.8881 11.2335 22.8902 11.4281C22.8924 11.6227 22.8557 11.8158 22.7822 11.996C22.7087 12.1763 22.5999 12.34 22.4623 12.4776C22.3247 12.6153 22.1609 12.724 21.9807 12.7975C21.8005 12.871 21.6074 12.9077 21.4128 12.9056C21.2181 12.9034 21.0259 12.8624 20.8473 12.785C20.6688 12.7075 20.5075 12.5952 20.3729 12.4545L18.5007 10.583C18.2366 10.307 18.0911 9.93856 18.0953 9.55659C18.0995 9.17461 18.2531 8.80948 18.5233 8.53937C18.7934 8.26926 19.1585 8.11564 19.5405 8.11142C19.9224 8.10719 20.2917 8.2527 20.5677 8.51677Z" fill="#037BA2" stroke="#037BA2" stroke-width="1.35714" stroke-linecap="round" stroke-linejoin="round"/>
<path d="M15.326 15.591C15.2164 15.4776 15.0854 15.3872 14.9405 15.3249C14.7956 15.2627 14.6398 15.2299 14.4821 15.2286C14.3244 15.2272 14.1681 15.2572 14.0221 15.3169C13.8762 15.3767 13.7436 15.4648 13.6321 15.5763C13.5206 15.6878 13.4324 15.8204 13.3727 15.9664C13.313 16.1123 13.283 16.2687 13.2843 16.4263C13.2857 16.584 13.3185 16.7398 13.3807 16.8847C13.4429 17.0296 13.5334 17.1606 13.6468 17.2702C13.8708 17.4865 14.1708 17.6062 14.4821 17.6035C14.7935 17.6008 15.0913 17.4759 15.3115 17.2557C15.5317 17.0355 15.6566 16.7377 15.6593 16.4263C15.662 16.115 15.5423 15.815 15.326 15.591Z" stroke="#037BA2" stroke-width="1.35714" stroke-linecap="round" stroke-linejoin="round"/>
</svg>
