<svg width="31" height="32" viewBox="0 0 31 32" fill="none" xmlns="http://www.w3.org/2000/svg">
<rect y="0.5" width="31" height="31" rx="15.5" fill="#141414"/>
<rect x="0.25" y="0.75" width="30.5" height="30.5" rx="15.25" stroke="white" stroke-opacity="0.2" stroke-width="0.5"/>
<path d="M15.46 20.8C15.74 20.8 15.9768 20.7032 16.1704 20.5096C16.364 20.316 16.4605 20.0795 16.46 19.8C16.4595 19.5205 16.3629 19.2837 16.1704 19.0896C15.9779 18.8955 15.7411 18.7989 15.46 18.8C15.1789 18.8011 14.9424 18.8979 14.7504 19.0904C14.5584 19.2829 14.4616 19.5195 14.46 19.8C14.4584 20.0805 14.5552 20.3173 14.7504 20.5104C14.9456 20.7035 15.1821 20.8 15.46 20.8ZM14.74 17.72H16.22C16.22 17.28 16.2701 16.9333 16.3704 16.68C16.4707 16.4267 16.7539 16.08 17.22 15.64C17.5667 15.2933 17.84 14.9632 18.04 14.6496C18.24 14.336 18.34 13.9595 18.34 13.52C18.34 12.7733 18.0667 12.2 17.52 11.8C16.9733 11.4 16.3267 11.2 15.58 11.2C14.82 11.2 14.2035 11.4 13.7304 11.8C13.2573 12.2 12.9272 12.68 12.74 13.24L14.06 13.76C14.1267 13.52 14.2768 13.26 14.5104 12.98C14.744 12.7 15.1005 12.56 15.58 12.56C16.0067 12.56 16.3267 12.6768 16.54 12.9104C16.7533 13.144 16.86 13.4005 16.86 13.68C16.86 13.9467 16.78 14.1968 16.62 14.4304C16.46 14.664 16.26 14.8805 16.02 15.08C15.4333 15.6 15.0733 15.9933 14.94 16.26C14.8067 16.5267 14.74 17.0133 14.74 17.72ZM15.5 24C14.3933 24 13.3533 23.7901 12.38 23.3704C11.4067 22.9507 10.56 22.3805 9.84 21.66C9.12 20.9395 8.55013 20.0928 8.1304 19.12C7.71067 18.1472 7.50053 17.1072 7.5 16C7.49947 14.8928 7.7096 13.8528 8.1304 12.88C8.5512 11.9072 9.12107 11.0605 9.84 10.34C10.5589 9.61947 11.4056 9.0496 12.38 8.6304C13.3544 8.2112 14.3944 8.00107 15.5 8C16.6056 7.99894 17.6456 8.20907 18.62 8.6304C19.5944 9.05174 20.4411 9.6216 21.16 10.34C21.8789 11.0584 22.4491 11.9051 22.8704 12.88C23.2917 13.8549 23.5016 14.8949 23.5 16C23.4984 17.1051 23.2883 18.1451 22.8696 19.12C22.4509 20.0949 21.8811 20.9416 21.16 21.66C20.4389 22.3784 19.5923 22.9485 18.62 23.3704C17.6477 23.7923 16.6077 24.0021 15.5 24ZM15.5 22.4C17.2867 22.4 18.8 21.78 20.04 20.54C21.28 19.3 21.9 17.7867 21.9 16C21.9 14.2133 21.28 12.7 20.04 11.46C18.8 10.22 17.2867 9.6 15.5 9.6C13.7133 9.6 12.2 10.22 10.96 11.46C9.72 12.7 9.1 14.2133 9.1 16C9.1 17.7867 9.72 19.3 10.96 20.54C12.2 21.78 13.7133 22.4 15.5 22.4Z" fill="white" fill-opacity="0.8"/>
</svg>
