<svg width="17" height="17" viewBox="0 0 17 17" fill="none" xmlns="http://www.w3.org/2000/svg">
<path d="M7.65771 4.10938C7.65771 4.34144 7.7499 4.564 7.914 4.72809C8.07809 4.89219 8.30065 4.98438 8.53271 4.98438C8.76478 4.98438 8.98734 4.89219 9.15143 4.72809C9.31553 4.564 9.40771 4.34144 9.40771 4.10938C9.40771 3.87731 9.31553 3.65475 9.15143 3.49066C8.98734 3.32656 8.76478 3.23438 8.53271 3.23438C8.30065 3.23438 8.07809 3.32656 7.914 3.49066C7.7499 3.65475 7.65771 3.87731 7.65771 4.10938ZM7.65771 8.48438C7.65771 8.71644 7.7499 8.939 7.914 9.10309C8.07809 9.26719 8.30065 9.35938 8.53271 9.35938C8.76478 9.35938 8.98734 9.26719 9.15143 9.10309C9.31553 8.939 9.40771 8.71644 9.40771 8.48438C9.40771 8.25231 9.31553 8.02975 9.15143 7.86566C8.98734 7.70156 8.76478 7.60938 8.53271 7.60938C8.30065 7.60938 8.07809 7.70156 7.914 7.86566C7.7499 8.02975 7.65771 8.25231 7.65771 8.48438ZM7.65771 12.8594C7.65771 13.0914 7.7499 13.314 7.914 13.4781C8.07809 13.6422 8.30065 13.7344 8.53271 13.7344C8.76478 13.7344 8.98734 13.6422 9.15143 13.4781C9.31553 13.314 9.40771 13.0914 9.40771 12.8594C9.40771 12.6273 9.31553 12.4048 9.15143 12.2407C8.98734 12.0766 8.76478 11.9844 8.53271 11.9844C8.30065 11.9844 8.07809 12.0766 7.914 12.2407C7.7499 12.4048 7.65771 12.6273 7.65771 12.8594Z" fill="white" fill-opacity="0.7"/>
</svg>
