<svg width="49" height="47" viewBox="0 0 49 47" fill="none" xmlns="http://www.w3.org/2000/svg">
<rect x="0.577881" y="0.567383" width="48.2412" height="46.2312" rx="10.0503" fill="#C9FDC7"/>
<path d="M14.3345 15.3915C14.3345 14.5669 14.6621 13.776 15.2452 13.1929C15.8283 12.6098 16.6192 12.2822 17.4438 12.2822H34.0267C34.8514 12.2822 35.6422 12.6098 36.2253 13.1929C36.8084 13.776 37.136 14.5669 37.136 15.3915V25.7558C37.136 26.5805 36.8084 27.3713 36.2253 27.9544C35.6422 28.5376 34.8514 28.8651 34.0267 28.8651H25.7353V26.7923H34.0267C34.3016 26.7923 34.5652 26.6831 34.7596 26.4887C34.954 26.2943 35.0632 26.0307 35.0632 25.7558V15.3915C35.0632 15.1166 34.954 14.853 34.7596 14.6587C34.5652 14.4643 34.3016 14.3551 34.0267 14.3551H17.4438C17.1689 14.3551 16.9053 14.4643 16.7109 14.6587C16.5166 14.853 16.4074 15.1166 16.4074 15.3915H15.3709C15.0117 15.3915 14.6662 15.4351 14.3345 15.5221V15.3915ZM38.1725 33.0109H25.7353V30.938H38.1725C38.4473 30.938 38.711 31.0472 38.9053 31.2416C39.0997 31.4359 39.2089 31.6996 39.2089 31.9744C39.2089 32.2493 39.0997 32.5129 38.9053 32.7073C38.711 32.9017 38.4473 33.0109 38.1725 33.0109ZM17.4438 33.0109C17.7187 33.0109 17.9823 32.9017 18.1767 32.7073C18.371 32.5129 18.4802 32.2493 18.4802 31.9744C18.4802 31.6996 18.371 31.4359 18.1767 31.2416C17.9823 31.0472 17.7187 30.938 17.4438 30.938C17.1689 30.938 16.9053 31.0472 16.7109 31.2416C16.5166 31.4359 16.4074 31.6996 16.4074 31.9744C16.4074 32.2493 16.5166 32.5129 16.7109 32.7073C16.9053 32.9017 17.1689 33.0109 17.4438 33.0109ZM11.2252 20.5737C11.2252 19.749 11.5528 18.9582 12.1359 18.3751C12.719 17.792 13.5099 17.4644 14.3345 17.4644H20.5531C21.3777 17.4644 22.1686 17.792 22.7517 18.3751C23.3348 18.9582 23.6624 19.749 23.6624 20.5737V33.0109C23.6624 33.8355 23.3348 34.6264 22.7517 35.2095C22.1686 35.7926 21.3777 36.1202 20.5531 36.1202H14.3345C13.5099 36.1202 12.719 35.7926 12.1359 35.2095C11.5528 34.6264 11.2252 33.8355 11.2252 33.0109V20.5737ZM14.3345 19.5373C14.0596 19.5373 13.796 19.6464 13.6016 19.8408C13.4073 20.0352 13.2981 20.2988 13.2981 20.5737V33.0109C13.2981 33.2857 13.4073 33.5494 13.6016 33.7437C13.796 33.9381 14.0596 34.0473 14.3345 34.0473H20.5531C20.828 34.0473 21.0916 33.9381 21.286 33.7437C21.4803 33.5494 21.5895 33.2857 21.5895 33.0109V20.5737C21.5895 20.2988 21.4803 20.0352 21.286 19.8408C21.0916 19.6464 20.828 19.5373 20.5531 19.5373H14.3345Z" fill="#2FC22B"/>
</svg>
