<svg width="49" height="47" viewBox="0 0 49 47" fill="none" xmlns="http://www.w3.org/2000/svg">
<rect x="0.598145" y="0.567383" width="48.2412" height="46.2312" rx="10.0503" fill="#E3FFE2"/>
<g clip-path="url(#clip0_1404_2374)">
<path d="M26.2132 11.5977C25.9721 11.5977 25.7311 11.7182 25.49 11.8387L15.9677 17.1423C15.6061 17.3834 15.365 17.745 15.365 18.2271V29.0753C15.365 29.5575 15.6061 29.9191 15.9677 30.1602L25.49 35.4637C25.7311 35.5843 25.9721 35.7048 26.2132 35.7048C26.4543 35.7048 26.6953 35.5843 26.9364 35.4637L28.0212 34.861C27.6596 34.1378 27.5391 33.2941 27.4186 32.4503V24.3744L34.6507 20.2762V24.8566C35.4945 24.8566 36.3382 24.9771 37.0614 25.2182V18.2271C37.0614 17.745 36.8203 17.3834 36.4587 17.1423L26.9364 11.8387C26.6953 11.7182 26.4543 11.5977 26.2132 11.5977ZM26.2132 14.2494L33.4453 18.2271L31.0346 19.553L23.923 15.4548L26.2132 14.2494ZM21.5123 16.7807L28.6239 20.9994L26.2132 22.3253L18.9811 18.2271L21.5123 16.7807ZM17.7757 20.2762L25.0078 24.3744V32.4503L17.7757 28.3521V20.2762ZM37.423 28.2316L33.0837 32.5709L31.1552 30.6423L29.8293 32.0887L33.2043 35.7048L38.99 29.9191L37.423 28.2316Z" fill="#137110"/>
</g>
<defs>
<clipPath id="clip0_1404_2374">
<rect width="27" height="27" fill="white" transform="translate(11.2188 10.1826)"/>
</clipPath>
</defs>
</svg>
