<svg width="19" height="16" viewBox="0 0 19 16" fill="none" xmlns="http://www.w3.org/2000/svg">
<path d="M2.11111 2.08696C2.11111 1.53346 2.33353 1.00264 2.72944 0.611255C3.12535 0.219875 3.66232 0 4.22222 0H15.4815C16.0414 0 16.5784 0.219875 16.9743 0.611255C17.3702 1.00264 17.5926 1.53346 17.5926 2.08696V9.04348C17.5926 9.59697 17.3702 10.1278 16.9743 10.5192C16.5784 10.9106 16.0414 11.1304 15.4815 11.1304H9.85185V9.73913H15.4815C15.6681 9.73913 15.8471 9.66584 15.9791 9.53538C16.111 9.40492 16.1852 9.22798 16.1852 9.04348V2.08696C16.1852 1.90246 16.111 1.72552 15.9791 1.59506C15.8471 1.4646 15.6681 1.3913 15.4815 1.3913H4.22222C4.03559 1.3913 3.8566 1.4646 3.72463 1.59506C3.59266 1.72552 3.51852 1.90246 3.51852 2.08696H2.81481C2.57086 2.08696 2.3363 2.11617 2.11111 2.17461V2.08696ZM18.2963 13.913H9.85185V12.5217H18.2963C18.4829 12.5217 18.6619 12.595 18.7939 12.7255C18.9259 12.856 19 13.0329 19 13.2174C19 13.4019 18.9259 13.5788 18.7939 13.7093C18.6619 13.8398 18.4829 13.913 18.2963 13.913ZM4.22222 13.913C4.40886 13.913 4.58785 13.8398 4.71982 13.7093C4.85179 13.5788 4.92593 13.4019 4.92593 13.2174C4.92593 13.0329 4.85179 12.856 4.71982 12.7255C4.58785 12.595 4.40886 12.5217 4.22222 12.5217C4.03559 12.5217 3.8566 12.595 3.72463 12.7255C3.59266 12.856 3.51852 13.0329 3.51852 13.2174C3.51852 13.4019 3.59266 13.5788 3.72463 13.7093C3.8566 13.8398 4.03559 13.913 4.22222 13.913ZM0 5.56522C0 5.01172 0.22242 4.4809 0.61833 4.08952C1.01424 3.69814 1.55121 3.47826 2.11111 3.47826H6.33333C6.89323 3.47826 7.4302 3.69814 7.82611 4.08952C8.22202 4.4809 8.44444 5.01172 8.44444 5.56522V13.913C8.44444 14.4665 8.22202 14.9974 7.82611 15.3887C7.4302 15.7801 6.89323 16 6.33333 16H2.11111C1.55121 16 1.01424 15.7801 0.61833 15.3887C0.22242 14.9974 0 14.4665 0 13.913V5.56522ZM2.11111 4.86957C1.92448 4.86957 1.74549 4.94286 1.61352 5.07332C1.48155 5.20378 1.40741 5.38072 1.40741 5.56522V13.913C1.40741 14.0975 1.48155 14.2745 1.61352 14.4049C1.74549 14.5354 1.92448 14.6087 2.11111 14.6087H6.33333C6.51997 14.6087 6.69896 14.5354 6.83093 14.4049C6.9629 14.2745 7.03704 14.0975 7.03704 13.913V5.56522C7.03704 5.38072 6.9629 5.20378 6.83093 5.07332C6.69896 4.94286 6.51997 4.86957 6.33333 4.86957H2.11111Z" fill="white" fill-opacity="0.7"/>
</svg>
