<svg width="19" height="20" viewBox="0 0 19 20" fill="none" xmlns="http://www.w3.org/2000/svg">
<path d="M2.73804 1.08045L4.19225 0.486024C4.85419 0.215122 5.59537 0.176174 6.27742 0.37645C6.95948 0.576726 7.53579 1.00254 7.89878 1.5744L9.0575 3.39982C9.36971 3.89156 9.50709 4.46458 9.45036 5.03847C9.39363 5.61235 9.14563 6.15829 8.74117 6.59968L7.27075 8.20466C7.25328 8.22497 7.23919 8.24759 7.22896 8.27173C7.0954 8.61629 7.45551 9.45374 8.42094 10.6705C9.50974 12.0419 10.2861 12.5439 10.6043 12.4159L12.6785 11.5579C13.2466 11.3233 13.8764 11.259 14.4794 11.3738C15.0825 11.4886 15.6288 11.7769 16.0415 12.1983L17.5683 13.7552C18.0476 14.2441 18.3172 14.8814 18.3268 15.5486C18.3365 16.2159 18.0855 16.8678 17.6207 17.3831L16.5935 18.5208C16.2364 18.9168 15.7831 19.228 15.2723 19.428C14.7615 19.6279 14.2084 19.7106 13.6602 19.669C10.405 19.4212 7.27684 17.3681 4.25738 13.5648C1.23672 9.7591 0.039093 6.35908 0.730147 3.36913C0.845819 2.86857 1.08874 2.39927 1.43838 2.0009C1.78802 1.60252 2.2332 1.28688 2.73804 1.08045ZM3.27153 2.24317C2.96861 2.36699 2.70093 2.55641 2.49111 2.7954C2.28129 3.0344 2.1355 3.31596 2.06605 3.6163C1.47032 6.19278 2.54801 9.25366 5.36136 12.7977C8.1726 16.3395 10.9899 18.188 13.7953 18.4009C14.1242 18.4258 14.456 18.376 14.7625 18.256C15.0689 18.1359 15.3408 17.9491 15.555 17.7115L16.5814 16.5748C16.8318 16.2973 16.967 15.9463 16.9619 15.587C16.9568 15.2276 16.8118 14.8844 16.5537 14.6211L15.0269 13.0634C14.8046 12.8365 14.5106 12.6813 14.1859 12.6195C13.8612 12.5576 13.5222 12.5922 13.2164 12.7185L11.1369 13.5787C9.98536 14.0452 8.75986 13.2532 7.31868 11.4366C6.0979 9.89972 5.60289 8.74449 5.94629 7.85812C6.01319 7.68554 6.1107 7.52904 6.23881 7.3886L7.70923 5.78363C7.92711 5.54595 8.06072 5.25194 8.0913 4.94286C8.12188 4.63379 8.0479 4.32517 7.87974 4.06034L6.72021 2.23587C6.52475 1.92786 6.21437 1.69852 5.84703 1.59067C5.47969 1.48282 5.0805 1.50383 4.72403 1.6498L3.27153 2.24317Z" fill="white" fill-opacity="0.7"/>
</svg>
