<svg width="17" height="17" viewBox="0 0 17 17" fill="none" xmlns="http://www.w3.org/2000/svg">
<path d="M13.1995 7.83366H9.19946V3.83366C9.19946 3.65685 9.12923 3.48728 9.0042 3.36225C8.87918 3.23723 8.70961 3.16699 8.5328 3.16699C8.35599 3.16699 8.18642 3.23723 8.06139 3.36225C7.93637 3.48728 7.86613 3.65685 7.86613 3.83366V7.83366H3.86613C3.68932 7.83366 3.51975 7.9039 3.39473 8.02892C3.2697 8.15395 3.19946 8.32351 3.19946 8.50033C3.19946 8.67714 3.2697 8.84671 3.39473 8.97173C3.51975 9.09675 3.68932 9.16699 3.86613 9.16699H7.86613V13.167C7.86613 13.3438 7.93637 13.5134 8.06139 13.6384C8.18642 13.7634 8.35599 13.8337 8.5328 13.8337C8.70961 13.8337 8.87918 13.7634 9.0042 13.6384C9.12923 13.5134 9.19946 13.3438 9.19946 13.167V9.16699H13.1995C13.3763 9.16699 13.5458 9.09675 13.6709 8.97173C13.7959 8.84671 13.8661 8.67714 13.8661 8.50033C13.8661 8.32351 13.7959 8.15395 13.6709 8.02892C13.5458 7.9039 13.3763 7.83366 13.1995 7.83366Z" fill="white" fill-opacity="0.7"/>
</svg>
