<svg width="31" height="31" viewBox="0 0 31 31" fill="none" xmlns="http://www.w3.org/2000/svg">
<rect width="31" height="31" rx="5" fill="#A2FF9F"/>
<path d="M20.3746 20.75H22.85C22.9892 20.75 23.1228 20.6947 23.2212 20.5962C23.3197 20.4978 23.375 20.3642 23.375 20.225V14.625C23.375 13.6967 23.0063 12.8065 22.3499 12.1501C21.6935 11.4937 20.8033 11.125 19.875 11.125H11.125C10.1967 11.125 9.3065 11.4937 8.65013 12.1501C7.99375 12.8065 7.625 13.6967 7.625 14.625V20.225C7.625 20.3642 7.68031 20.4978 7.77877 20.5962C7.87723 20.6947 8.01076 20.75 8.15 20.75H10.6254M12 11.125V8.15C12 8.01076 12.0553 7.87723 12.1538 7.77877C12.2522 7.68031 12.3858 7.625 12.525 7.625H18.475C18.6142 7.625 18.7478 7.68031 18.8462 7.77877C18.9447 7.87723 19 8.01076 19 8.15V11.125" stroke="#137110" stroke-width="1.3125"/>
<path d="M10.3356 22.7756L10.6244 20.75L11.0601 17.7006C11.078 17.5755 11.1404 17.4611 11.2359 17.3783C11.3314 17.2956 11.4535 17.25 11.5799 17.25H19.4199C19.5462 17.25 19.6684 17.2956 19.7638 17.3783C19.8593 17.4611 19.9217 17.5755 19.9396 17.7006L20.3736 20.75L20.6632 22.7756C20.6739 22.8501 20.6684 22.926 20.6472 22.9982C20.626 23.0703 20.5895 23.1371 20.5402 23.1939C20.4909 23.2508 20.43 23.2964 20.3615 23.3276C20.2931 23.3588 20.2187 23.375 20.1435 23.375H10.8554C10.7801 23.375 10.7058 23.3588 10.6373 23.3276C10.5689 23.2964 10.508 23.2508 10.4587 23.1939C10.4094 23.1371 10.3729 23.0703 10.3517 22.9982C10.3304 22.926 10.325 22.8501 10.3356 22.7756Z" stroke="#137110" stroke-width="1.3125"/>
<path d="M19.875 13.7577L19.8838 13.748" stroke="#137110" stroke-width="1.3125" stroke-linecap="round" stroke-linejoin="round"/>
</svg>
