<svg width="19" height="18" viewBox="0 0 19 18" fill="none" xmlns="http://www.w3.org/2000/svg">
<g clip-path="url(#clip0_1777_620)">
<path d="M17.2607 17.4593H6.77377C6.43273 17.4593 6.12012 17.1752 6.12012 16.8341V16.8057V15.4984C6.12012 15.1573 6.40432 14.8447 6.74535 14.8447H6.77377H17.2607C17.6017 14.8447 17.9143 15.1289 17.9143 15.47V15.4984V16.8057C17.9428 17.1467 17.6586 17.4593 17.2607 17.4593C17.2891 17.4593 17.2891 17.4593 17.2607 17.4593Z" fill="white" fill-opacity="0.7"/>
<path d="M2.82291 17.4593H1.51559C1.17456 17.4593 0.861938 17.1752 0.861938 16.8341V16.8057V15.4984C0.861938 15.1573 1.14614 14.8447 1.48717 14.8447H1.51559H2.82291C3.16394 14.8447 3.47656 15.1289 3.47656 15.47V15.4984V16.8057C3.50498 17.1467 3.22078 17.4309 2.87975 17.4593C2.85133 17.4593 2.85133 17.4593 2.82291 17.4593Z" fill="white" fill-opacity="0.7"/>
<path d="M10.554 11.6332C10.213 11.6332 9.90039 11.349 9.90039 11.0079V10.9795V9.67221C9.90039 9.33117 10.1846 9.01855 10.5256 9.01855H10.554H17.2611C17.6022 9.01855 17.9148 9.30275 17.9148 9.64379V9.67221V10.9795C17.9148 11.3206 17.6306 11.6332 17.2895 11.6332H17.2611H10.554Z" fill="white" fill-opacity="0.7"/>
<path d="M13.0553 5.80701C12.7142 5.80701 12.4016 5.52281 12.4016 5.18177V5.15335V3.84604C12.4016 3.505 12.6858 3.19238 13.0268 3.19238H13.0553H17.2614C17.6024 3.19238 17.9151 3.47658 17.9151 3.81762V3.84604V5.15335C17.9151 5.49439 17.6309 5.80701 17.2898 5.80701H17.2614H13.0553Z" fill="white" fill-opacity="0.7"/>
<path d="M1.17549 11.8048C0.834457 8.76387 3.22172 5.60927 6.0637 5.06929L6.83104 4.89877C6.97314 4.87035 7.08682 4.72825 7.0584 4.55773C7.0584 4.47248 7.00156 4.41564 6.94472 4.38722L5.04059 3.10832C4.84165 2.96623 4.81323 2.71045 4.95533 2.53993C4.95533 2.53993 4.95533 2.53993 4.95533 2.51151L5.43847 1.80101C5.55215 1.60207 5.83635 1.54523 6.00686 1.68733C6.00686 1.68733 6.00686 1.68733 6.03528 1.68733L10.6109 4.78509C10.8098 4.89877 10.8667 5.18297 10.7246 5.35349C10.7246 5.35349 10.7246 5.35349 10.7246 5.38191L7.59837 9.98592C7.4847 10.1849 7.2005 10.2417 7.02998 10.0996C7.02998 10.0996 7.02998 10.0996 7.00156 10.0996L6.29106 9.61646C6.09212 9.50278 6.03528 9.21858 6.17738 9.04807C6.17738 9.04807 6.17738 9.04807 6.17738 9.01965L7.42786 7.11552C7.51311 7.00184 7.51311 6.8029 7.37102 6.71764C7.31418 6.6608 7.22892 6.63238 7.14366 6.6608L6.68894 6.74606C4.47219 7.17236 2.59649 9.6733 2.79542 11.8332C2.79542 12.0321 2.48281 12.3163 2.25545 12.3732H1.71547C1.45969 12.4016 1.17549 12.0606 1.17549 11.8048Z" fill="white" fill-opacity="0.7"/>
</g>
<defs>
<clipPath id="clip0_1777_620">
<rect width="18.9465" height="17.9992" fill="white"/>
</clipPath>
</defs>
</svg>
