<svg width="31" height="31" viewBox="0 0 31 31" fill="none" xmlns="http://www.w3.org/2000/svg">
<rect width="31" height="31" rx="5" fill="#00A0D4"/>
<path d="M19.0413 22.5846V21.168H21.1663V19.043H22.5829V21.5221C22.5829 21.8055 22.4413 22.018 22.2288 22.2305C22.0163 22.443 21.7329 22.5846 21.5204 22.5846H19.0413ZM11.9579 22.5846H9.47876C9.19543 22.5846 8.98293 22.443 8.77043 22.2305C8.55793 22.018 8.41626 21.7346 8.41626 21.5221V19.043H9.83293V21.168H11.9579V22.5846ZM19.0413 8.41797H21.5204C21.8038 8.41797 22.0163 8.55964 22.2288 8.77214C22.4413 8.98464 22.5829 9.19714 22.5829 9.48047V11.9596H21.1663V9.83464H19.0413V8.41797ZM11.9579 8.41797V9.83464H9.83293V11.9596H8.41626V9.48047C8.41626 9.19714 8.55793 8.98464 8.77043 8.77214C8.98293 8.55964 9.19543 8.41797 9.47876 8.41797H11.9579ZM20.4579 14.793H10.5413V16.2096H20.4579V14.793Z" fill="white"/>
</svg>
