<svg width="49" height="47" viewBox="0 0 49 47" fill="none" xmlns="http://www.w3.org/2000/svg">
<rect x="0.618408" y="0.567383" width="48.2412" height="46.2312" rx="10.0503" fill="#C5F2FF"/>
<g clip-path="url(#clip0_1404_2382)">
<path d="M19.6204 29.8231L22.6955 26.748L21.6741 25.7266L18.599 28.8017L18.0262 28.2288C17.8907 28.0934 17.707 28.0173 17.5155 28.0173C17.3239 28.0173 17.1402 28.0934 17.0048 28.2288L14.1153 31.1183C13.9799 31.2537 13.9038 31.4374 13.9038 31.629C13.9038 31.8205 13.9799 32.0042 14.1153 32.1397L16.2824 34.3068C16.4179 34.4422 16.6016 34.5183 16.7931 34.5183C16.9846 34.5183 17.1683 34.4422 17.3038 34.3068L20.1933 31.4173C20.3287 31.2819 20.4048 31.0982 20.4048 30.9066C20.4048 30.7151 20.3287 30.5314 20.1933 30.3959L19.6204 29.8231ZM16.7931 32.7746L15.6474 31.629L17.5155 29.761L18.6611 30.9066L16.7931 32.7746Z" fill="#00A0D4"/>
<path d="M30.5181 33.7967C29.369 33.7954 28.2674 33.3383 27.4549 32.5258C26.6423 31.7133 26.1853 30.6117 26.1839 29.4626C26.1839 29.0849 26.2349 28.709 26.3356 28.3451L20.0785 22.0873C19.714 22.1863 19.3381 22.2373 18.9603 22.239C18.2541 22.2418 17.5581 22.0713 16.9331 21.7425C16.3082 21.4137 15.7734 20.9366 15.3758 20.3531C14.9781 19.7695 14.7297 19.0973 14.6522 18.3954C14.5748 17.6935 14.6708 16.9833 14.9317 16.3271L15.3348 15.3007L17.7272 17.6931C17.8648 17.8246 18.0477 17.898 18.2379 17.898C18.4282 17.898 18.6111 17.8246 18.7487 17.6931C18.8841 17.5577 18.9602 17.374 18.9602 17.1824C18.9602 16.9909 18.8841 16.8072 18.7487 16.6717L16.3547 14.2778L17.3827 13.8754C18.0389 13.6147 18.7491 13.5189 19.451 13.5964C20.1529 13.674 20.8251 13.9225 21.4086 14.3202C21.9921 14.7179 22.4692 15.2527 22.798 15.8776C23.1268 16.5026 23.2972 17.1986 23.2945 17.9048C23.2945 18.2824 23.2435 18.6583 23.1428 19.0223L29.4006 25.2801C29.7649 25.1811 30.1406 25.1301 30.5181 25.1284C31.2243 25.1256 31.9203 25.296 32.5453 25.6248C33.1702 25.9536 33.705 26.4307 34.1026 27.0143C34.5003 27.5978 34.7487 28.27 34.8262 28.9719C34.9036 29.6738 34.8076 30.384 34.5467 31.0402L34.1444 32.0667L31.7512 29.6742C31.6137 29.5429 31.4309 29.4697 31.2408 29.4697C31.0507 29.4697 30.868 29.5429 30.7305 29.6742C30.595 29.8096 30.5187 29.9932 30.5186 30.1848C30.5185 30.3763 30.5944 30.5601 30.7297 30.6956L33.1229 33.0888L32.0957 33.4919C31.5935 33.691 31.0584 33.7943 30.5181 33.7967ZM20.4505 20.4157L28.0064 27.9731L27.8338 28.413C27.6646 28.8359 27.5985 29.293 27.6409 29.7466C27.6832 30.2001 27.8329 30.6371 28.0775 31.0213C28.3221 31.4056 28.6546 31.7262 29.0476 31.9565C29.4406 32.1869 29.8827 32.3205 30.3375 32.3462L29.7083 31.7178C29.5071 31.5165 29.3474 31.2776 29.2385 31.0147C29.1295 30.7517 29.0735 30.4699 29.0735 30.1853C29.0735 29.9007 29.1295 29.6188 29.2385 29.3559C29.3474 29.093 29.5071 28.854 29.7083 28.6528C30.121 28.2583 30.6699 28.0381 31.2408 28.0381C31.8117 28.0381 32.3606 28.2583 32.7733 28.6528L33.4018 29.282C33.3759 28.8272 33.2422 28.385 33.0118 27.9921C32.7813 27.5991 32.4607 27.2666 32.0764 27.022C31.692 26.7774 31.2551 26.6278 30.8015 26.5854C30.3479 26.543 29.8908 26.6091 29.4678 26.7783L29.0279 26.9509L21.472 19.395L21.6453 18.9544C21.8144 18.5314 21.8804 18.0742 21.8379 17.6207C21.7954 17.1672 21.6456 16.7303 21.401 16.346C21.1563 15.9618 20.8238 15.6412 20.4308 15.4109C20.0378 15.1805 19.5957 15.0469 19.1409 15.0211L19.7694 15.6496C19.9706 15.8508 20.1303 16.0897 20.2392 16.3527C20.3481 16.6156 20.4042 16.8974 20.4042 17.1821C20.4042 17.4667 20.3481 17.7485 20.2392 18.0114C20.1303 18.2744 19.9706 18.5133 19.7694 18.7145C19.3567 19.1091 18.8078 19.3292 18.2369 19.3292C17.666 19.3292 17.117 19.1091 16.7044 18.7145L16.0759 18.0854C16.1017 18.5402 16.2352 18.9823 16.4656 19.3753C16.696 19.7682 17.0166 20.1008 17.4008 20.3454C17.7851 20.59 18.222 20.7396 18.6756 20.782C19.1291 20.8244 19.5862 20.7583 20.0092 20.5891L20.4505 20.4157Z" fill="#00A0D4"/>
<path d="M34.2192 14.185C33.8066 13.7905 33.2576 13.5703 32.6867 13.5703C32.1158 13.5703 31.5669 13.7905 31.1542 14.185L25.751 19.5883L26.7724 20.6097L32.1757 15.2064C32.3133 15.0751 32.4962 15.0018 32.6864 15.0018C32.8766 15.0018 33.0595 15.0751 33.1971 15.2064C33.3325 15.3419 33.4086 15.5256 33.4086 15.7171C33.4086 15.9087 33.3325 16.0924 33.1971 16.2279L27.7938 21.6311L28.8152 22.6533L34.2185 17.25C34.6245 16.8433 34.8525 16.2921 34.8525 15.7175C34.8525 15.1429 34.6252 14.5917 34.2192 14.185Z" fill="#00A0D4"/>
</g>
<defs>
<clipPath id="clip0_1404_2382">
<rect width="23.1156" height="23.1156" fill="white" transform="translate(13.1812 12.125)"/>
</clipPath>
</defs>
</svg>
