<svg width="20" height="20" viewBox="0 0 20 20" fill="none" xmlns="http://www.w3.org/2000/svg">
<path d="M5.57124 15.3129L8.23186 12.6523L7.34811 11.7686L4.68749 14.4292L4.19186 13.9336C4.07466 13.8164 3.91572 13.7506 3.74999 13.7506C3.58426 13.7506 3.42532 13.8164 3.30811 13.9336L0.808114 16.4336C0.690944 16.5508 0.625122 16.7097 0.625122 16.8754C0.625122 17.0412 0.690944 17.2001 0.808114 17.3173L2.68311 19.1923C2.80032 19.3095 2.95926 19.3753 3.12499 19.3753C3.29072 19.3753 3.44966 19.3095 3.56686 19.1923L6.06686 16.6923C6.18403 16.5751 6.24986 16.4162 6.24986 16.2504C6.24986 16.0847 6.18403 15.9258 6.06686 15.8086L5.57124 15.3129ZM3.12499 17.8667L2.13374 16.8754L3.74999 15.2592L4.74124 16.2504L3.12499 17.8667Z" fill="white" fill-opacity="0.7"/>
<path d="M15.0001 18.7503C14.0058 18.7491 13.0527 18.3536 12.3497 17.6506C11.6467 16.9476 11.2512 15.9945 11.25 15.0003C11.25 14.6735 11.2942 14.3483 11.3813 14.0334L5.96755 8.61901C5.65215 8.70473 5.32689 8.74886 5.00005 8.75026C4.38907 8.7527 3.78682 8.60522 3.2461 8.32074C2.70538 8.03626 2.2427 7.62348 1.89864 7.11858C1.55457 6.61368 1.33962 6.03208 1.27264 5.42478C1.20565 4.81747 1.28867 4.20301 1.51443 3.63526L1.86318 2.74713L3.93318 4.81713C4.05215 4.9309 4.21043 4.9944 4.37505 4.9944C4.53967 4.9944 4.69795 4.9309 4.81693 4.81713C4.93409 4.69993 4.99992 4.54098 4.99992 4.37526C4.99992 4.20953 4.93409 4.05059 4.81693 3.93338L2.74568 1.86213L3.63505 1.51401C4.20286 1.2884 4.81733 1.2055 5.42462 1.27259C6.03192 1.33967 6.61348 1.55469 7.11835 1.8988C7.62322 2.24291 8.03599 2.7056 8.32046 3.24631C8.60494 3.78703 8.75244 4.38928 8.75005 5.00026C8.75007 5.32699 8.70592 5.65223 8.6188 5.96713L14.0332 11.3815C14.3484 11.2958 14.6734 11.2517 15.0001 11.2503C15.611 11.2478 16.2133 11.3953 16.754 11.6798C17.2947 11.9643 17.7574 12.377 18.1015 12.8819C18.4455 13.3868 18.6605 13.9684 18.7275 14.5757C18.7944 15.183 18.7114 15.7975 18.4857 16.3653L18.1376 17.2534L16.0669 15.1834C15.948 15.0698 15.7898 15.0064 15.6254 15.0064C15.4609 15.0064 15.3027 15.0698 15.1838 15.1834C15.0665 15.3005 15.0006 15.4594 15.0005 15.6251C15.0004 15.7909 15.0661 15.9498 15.1832 16.0671L17.2538 18.1378L16.3651 18.4865C15.9305 18.6587 15.4675 18.7482 15.0001 18.7503ZM6.28942 7.17276L12.8269 13.7115L12.6776 14.0921C12.5312 14.4581 12.4739 14.8536 12.5106 15.246C12.5473 15.6384 12.6768 16.0164 12.8884 16.3489C13.1001 16.6814 13.3878 16.9588 13.7278 17.1581C14.0678 17.3574 14.4503 17.473 14.8438 17.4953L14.2994 16.9515C14.1253 16.7774 13.9871 16.5707 13.8929 16.3432C13.7986 16.1157 13.7501 15.8718 13.7501 15.6256C13.7501 15.3793 13.7986 15.1355 13.8929 14.908C13.9871 14.6805 14.1253 14.4737 14.2994 14.2996C14.6565 13.9583 15.1314 13.7678 15.6254 13.7678C16.1193 13.7678 16.5943 13.9583 16.9513 14.2996L17.4951 14.844C17.4727 14.4505 17.357 14.0679 17.1576 13.728C16.9582 13.388 16.6808 13.1003 16.3483 12.8886C16.0158 12.677 15.6377 12.5475 15.2452 12.5109C14.8528 12.4742 14.4573 12.5314 14.0913 12.6778L13.7107 12.8271L7.17317 6.28963L7.32317 5.90838C7.46942 5.5424 7.52652 5.14688 7.48976 4.75447C7.453 4.36207 7.32342 3.98404 7.11174 3.65159C6.90006 3.31914 6.61234 3.0418 6.27234 2.84248C5.93233 2.64316 5.54979 2.52757 5.1563 2.50526L5.70005 3.04901C5.87419 3.22312 6.01233 3.42983 6.10658 3.65734C6.20083 3.88485 6.24934 4.12869 6.24934 4.37494C6.24934 4.6212 6.20083 4.86504 6.10658 5.09255C6.01233 5.32006 5.87419 5.52677 5.70005 5.70088C5.34301 6.04223 4.86807 6.23273 4.37411 6.23273C3.88015 6.23273 3.40522 6.04223 3.04818 5.70088L2.50443 5.15651C2.5267 5.55 2.64227 5.93254 2.8416 6.27255C3.04092 6.61255 3.31828 6.90025 3.65075 7.11189C3.98323 7.32353 4.36129 7.45303 4.7537 7.48969C5.14612 7.52636 5.54162 7.46914 5.90755 7.32276L6.28942 7.17276Z" fill="white" fill-opacity="0.7"/>
<path d="M18.2019 1.78087C17.8448 1.43952 17.3699 1.24902 16.8759 1.24902C16.382 1.24902 15.907 1.43952 15.55 1.78087L10.875 6.45587L11.7587 7.33962L16.4338 2.66462C16.5528 2.551 16.7111 2.4876 16.8756 2.4876C17.0402 2.4876 17.1984 2.551 17.3175 2.66462C17.4347 2.78183 17.5005 2.94077 17.5005 3.1065C17.5005 3.27223 17.4347 3.43117 17.3175 3.54837L12.6425 8.22337L13.5263 9.10775L18.2013 4.43275C18.5525 4.08087 18.7498 3.60399 18.7498 3.10681C18.7498 2.60963 18.5531 2.13276 18.2019 1.78087Z" fill="white" fill-opacity="0.7"/>
</svg>
