<svg width="18" height="20" viewBox="0 0 18 20" fill="none" xmlns="http://www.w3.org/2000/svg">
<path fill-rule="evenodd" clip-rule="evenodd" d="M9.49565 0.417969C10.1579 0.417969 10.8016 0.689879 11.2631 1.16249C11.7237 1.63787 11.978 2.2899 11.9586 2.95118C11.9604 3.10008 12.0094 3.2721 12.0982 3.42286C12.2453 3.67257 12.4774 3.8483 12.753 3.92044C13.0286 3.98888 13.3172 3.95188 13.5623 3.80668C14.7461 3.1306 16.2527 3.53569 16.9288 4.71027L17.505 5.7082C17.5198 5.73502 17.5327 5.76092 17.5438 5.78774C18.1561 6.94475 17.7473 8.40141 16.6097 9.06639C16.4442 9.16165 16.3101 9.29483 16.2176 9.45576C16.0742 9.70455 16.0345 10.0005 16.1066 10.2724C16.1806 10.5499 16.3572 10.7802 16.606 10.9226C17.1674 11.2454 17.5864 11.7892 17.7538 12.4172C17.9212 13.0442 17.8296 13.7249 17.5031 14.2863L16.889 15.3092C16.213 16.4709 14.7063 16.8732 13.5345 16.1962C13.3782 16.1065 13.1979 16.0575 13.0185 16.0528H13.0129C12.7456 16.0528 12.4709 16.1666 12.2712 16.3654C12.0686 16.568 11.9576 16.838 11.9595 17.1247C11.953 18.4834 10.8478 19.5821 9.49565 19.5821H8.33679C6.97817 19.5821 5.87295 18.4778 5.87295 17.1192C5.8711 16.9518 5.82301 16.7779 5.7333 16.6272C5.58809 16.3738 5.35318 16.1925 5.08219 16.1203C4.81305 16.0482 4.51802 16.088 4.27571 16.2286C3.69489 16.5523 3.01142 16.6309 2.38621 16.4551C1.76192 16.2785 1.22272 15.8494 0.90642 15.2806L0.328379 14.2845C-0.347698 13.1118 0.0546187 11.6088 1.2255 10.9318C1.55753 10.7404 1.76377 10.3834 1.76377 10.0005C1.76377 9.61761 1.55753 9.25969 1.2255 9.06824C0.0536939 8.38754 -0.347698 6.88093 0.327454 5.7082L0.954513 4.67883C1.62134 3.51904 3.12887 3.11025 4.30438 3.78541C4.46438 3.88067 4.63826 3.92876 4.8149 3.93061C5.3911 3.93061 5.87295 3.45523 5.8822 2.87071C5.8785 2.22608 6.13284 1.60735 6.5962 1.14029C7.0614 0.674157 7.67922 0.417969 8.33679 0.417969H9.49565ZM9.49565 1.80527H8.33679C8.05009 1.80527 7.78188 1.91718 7.57933 2.1188C7.37771 2.32134 7.26765 2.59048 7.2695 2.87719C7.25008 4.22934 6.14486 5.31791 4.80658 5.31791C4.37744 5.31328 3.96403 5.19768 3.60518 4.98311C3.10113 4.6964 2.44262 4.87305 2.14759 5.38635L1.52146 6.41572C1.23475 6.9133 1.41047 7.57088 1.921 7.86776C2.67846 8.30615 3.15107 9.12373 3.15107 10.0005C3.15107 10.8773 2.67846 11.6939 1.91915 12.1332C1.4114 12.4274 1.23567 13.0812 1.52978 13.5899L2.11337 14.5962C2.25765 14.8561 2.49349 15.0438 2.76633 15.1206C3.03824 15.1964 3.33789 15.164 3.58761 15.0253C3.95478 14.8098 4.38207 14.6979 4.8112 14.6979C5.023 14.6979 5.23479 14.7247 5.44196 14.7802C6.06717 14.9485 6.61007 15.3666 6.93192 15.928C7.14094 16.2803 7.25655 16.6919 7.26025 17.1118C7.26025 17.713 7.74303 18.1948 8.33679 18.1948H9.49565C10.0866 18.1948 10.5694 17.7157 10.5722 17.1247C10.5685 16.4718 10.8238 15.8512 11.2908 15.3842C11.7514 14.9236 12.3951 14.647 13.0388 14.6655C13.4606 14.6757 13.8666 14.7895 14.2245 14.9929C14.7396 15.288 15.3972 15.1122 15.695 14.6036L16.3091 13.5797C16.446 13.3439 16.4858 13.0479 16.4127 12.7751C16.3406 12.5023 16.1593 12.2655 15.9151 12.1258C15.3436 11.7966 14.9357 11.2657 14.7665 10.6294C14.5991 10.0051 14.6906 9.3235 15.0171 8.76211C15.2298 8.39216 15.5415 8.08048 15.9151 7.86591C16.4164 7.57273 16.5921 6.917 16.3008 6.40648C16.2888 6.38613 16.2777 6.36486 16.2684 6.34266L15.7265 5.403C15.4314 4.8897 14.7748 4.71305 14.2596 5.00623C13.7029 5.33548 13.0407 5.42982 12.4044 5.26242C11.769 5.09779 11.2362 4.69547 10.9042 4.12761C10.6915 3.77246 10.5759 3.35904 10.5722 2.93823C10.5805 2.62192 10.4695 2.33799 10.2679 2.1299C10.0672 1.92273 9.78514 1.80527 9.49565 1.80527ZM8.92029 6.86808C10.647 6.86808 12.0519 8.27387 12.0519 10.0006C12.0519 11.7273 10.647 13.1313 8.92029 13.1313C7.19357 13.1313 5.7887 11.7273 5.7887 10.0006C5.7887 8.27387 7.19357 6.86808 8.92029 6.86808ZM8.92029 8.25538C7.95843 8.25538 7.17599 9.03874 7.17599 10.0006C7.17599 10.9625 7.95843 11.744 8.92029 11.744C9.88215 11.744 10.6646 10.9625 10.6646 10.0006C10.6646 9.03874 9.88215 8.25538 8.92029 8.25538Z" fill="white" fill-opacity="0.7"/>
</svg>
