<svg width="49" height="47" viewBox="0 0 49 47" fill="none" xmlns="http://www.w3.org/2000/svg">
<rect x="0.638184" y="0.567383" width="48.2412" height="46.2312" rx="10.0503" fill="#E2F9FF"/>
<path d="M24.7572 11.2451C22.0583 11.2451 19.4699 12.3173 17.5614 14.2257C15.653 16.1342 14.5808 18.7226 14.5808 21.4215V29.3366C14.5808 31.2135 16.096 32.7287 17.973 32.7287H21.3651V23.683H16.8422V21.4215C16.8422 17.0457 20.3814 13.5065 24.7572 13.5065C29.1331 13.5065 32.6722 17.0457 32.6722 21.4215V23.683H28.1494V32.7287H31.5415C33.4185 32.7287 34.9337 31.2135 34.9337 29.3366V21.4215C34.9337 18.7226 33.8615 16.1342 31.9531 14.2257C30.0446 12.3173 27.4562 11.2451 24.7572 11.2451Z" fill="#037BA2"/>
</svg>
