<svg width="17" height="17" viewBox="0 0 17 17" fill="none" xmlns="http://www.w3.org/2000/svg">
<path d="M8.53271 14.5C7.13271 14.5 5.89383 14.0751 4.81605 13.2253C3.73827 12.3756 3.03827 11.2893 2.71605 9.96667C2.6716 9.8 2.70494 9.64733 2.81605 9.50867C2.92716 9.37 3.07716 9.28933 3.26605 9.26667C3.44383 9.24444 3.60494 9.27778 3.74938 9.36667C3.89383 9.45556 3.99383 9.58889 4.04938 9.76667C4.31605 10.7667 4.86605 11.5833 5.69938 12.2167C6.53271 12.85 7.47716 13.1667 8.53271 13.1667C9.83271 13.1667 10.9356 12.714 11.8414 11.8087C12.7472 10.9033 13.1998 9.80044 13.1994 8.5C13.1989 7.19956 12.7463 6.09689 11.8414 5.192C10.9365 4.28711 9.8336 3.83422 8.53271 3.83333C7.76605 3.83333 7.04938 4.01111 6.38271 4.36667C5.71605 4.72222 5.15494 5.21111 4.69938 5.83333H5.86605C6.05494 5.83333 6.21338 5.89733 6.34138 6.02533C6.46938 6.15333 6.53316 6.31156 6.53271 6.5C6.53227 6.68844 6.46827 6.84689 6.34071 6.97533C6.21316 7.10378 6.05494 7.16756 5.86605 7.16667H3.19938C3.01049 7.16667 2.85227 7.10267 2.72471 6.97467C2.59716 6.84667 2.53316 6.68844 2.53271 6.5V3.83333C2.53271 3.64444 2.59671 3.48622 2.72471 3.35867C2.85271 3.23111 3.01094 3.16711 3.19938 3.16667C3.38783 3.16622 3.54627 3.23022 3.67471 3.35867C3.80316 3.48711 3.86694 3.64533 3.86605 3.83333V4.73333C4.43271 4.02222 5.12449 3.47222 5.94138 3.08333C6.75827 2.69444 7.62205 2.5 8.53271 2.5C9.36605 2.5 10.1467 2.65844 10.8747 2.97533C11.6027 3.29222 12.236 3.71978 12.7747 4.258C13.3134 4.79622 13.7412 5.42956 14.058 6.158C14.3749 6.88645 14.5332 7.66711 14.5327 8.5C14.5323 9.33289 14.374 10.1136 14.058 10.842C13.742 11.5704 13.3143 12.2038 12.7747 12.742C12.2352 13.2802 11.6018 13.708 10.8747 14.0253C10.1476 14.3427 9.36694 14.5009 8.53271 14.5ZM9.19938 8.23333L10.866 9.9C10.9883 10.0222 11.0494 10.1778 11.0494 10.3667C11.0494 10.5556 10.9883 10.7111 10.866 10.8333C10.7438 10.9556 10.5883 11.0167 10.3994 11.0167C10.2105 11.0167 10.0549 10.9556 9.93271 10.8333L8.06605 8.96667C7.99938 8.9 7.94938 8.82511 7.91605 8.742C7.88271 8.65889 7.86605 8.57267 7.86605 8.48333V5.83333C7.86605 5.64444 7.93005 5.48622 8.05805 5.35867C8.18605 5.23111 8.34427 5.16711 8.53271 5.16667C8.72116 5.16622 8.8796 5.23022 9.00805 5.35867C9.13649 5.48711 9.20027 5.64533 9.19938 5.83333V8.23333Z" fill="white" fill-opacity="0.7"/>
</svg>
