<svg width="24" height="25" viewBox="0 0 24 25" fill="none" xmlns="http://www.w3.org/2000/svg">
<path fill-rule="evenodd" clip-rule="evenodd" d="M6.416 5.267C5.71318 5.267 5.03914 5.5462 4.54217 6.04317C4.0452 6.54014 3.766 7.21418 3.766 7.917V16.749C3.766 17.4518 4.0452 18.1259 4.54217 18.6228C5.03914 19.1198 5.71318 19.399 6.416 19.399H7.877V5.267H6.416ZM6.416 3.5C5.2448 3.5 4.12158 3.96526 3.29342 4.79342C2.46526 5.62158 2 6.7448 2 7.916V16.749C1.99987 17.329 2.114 17.9033 2.33586 18.4392C2.55773 18.9751 2.88299 19.4621 3.29306 19.8722C3.70314 20.2824 4.19 20.6078 4.72584 20.8298C5.26168 21.0517 5.836 21.166 6.416 21.166H17.584C18.1641 21.166 18.7385 21.0517 19.2744 20.8297C19.8103 20.6076 20.2972 20.2822 20.7073 19.8719C21.1174 19.4616 21.4426 18.9745 21.6644 18.4385C21.8862 17.9025 22.0003 17.3281 22 16.748V7.916C22 6.7448 21.5347 5.62158 20.7066 4.79342C19.8784 3.96526 18.7552 3.5 17.584 3.5H6.416ZM9.644 5.267V19.399H17.584C18.2868 19.399 18.9609 19.1198 19.4578 18.6228C19.9548 18.1259 20.234 17.4518 20.234 16.749V7.916C20.234 7.21318 19.9548 6.53914 19.4578 6.04217C18.9609 5.5452 18.2868 5.266 17.584 5.266H9.644V5.267Z" fill="white" fill-opacity="0.8"/>
</svg>
