<svg width="20" height="18" viewBox="0 0 20 18" fill="none" xmlns="http://www.w3.org/2000/svg">
<path fill-rule="evenodd" clip-rule="evenodd" d="M8.11537 0.979492H10.968C12.6529 0.979492 13.9875 0.979492 15.0316 1.11974C16.106 1.26458 16.9759 1.56891 17.6625 2.25458C18.5095 3.10249 18.7799 4.23733 18.878 5.71041C19.4069 5.94233 19.8065 6.43458 19.8496 7.05791C19.8542 7.11382 19.8542 7.17341 19.8542 7.22841V10.7722C19.8542 10.8272 19.8542 10.8868 19.8505 10.9418C19.8065 11.5652 19.4069 12.0583 18.878 12.2912C18.7799 13.7633 18.5095 14.8982 17.6625 15.7461C16.9759 16.4317 16.106 16.7361 15.0316 16.8809C13.9866 17.0212 12.6529 17.0212 10.968 17.0212H8.11537C6.43054 17.0212 5.09587 17.0212 4.05179 16.8809C2.97746 16.7361 2.10754 16.4317 1.42096 15.7461C0.735291 15.0595 0.430957 14.1896 0.286124 13.1152C0.145874 12.0702 0.145874 10.7365 0.145874 9.05166V8.94899C0.145874 7.26416 0.145874 5.92949 0.286124 4.88541C0.430957 3.81108 0.735291 2.94116 1.42096 2.25458C2.10754 1.56891 2.97746 1.26458 4.05179 1.11974C5.09679 0.979492 6.43054 0.979492 8.11537 0.979492ZM17.4874 12.4378H15.7109C13.7446 12.4378 12.0616 10.9455 12.0616 9.00033C12.0616 7.05516 13.7446 5.56283 15.71 5.56283H17.4865C17.382 4.33358 17.1464 3.68366 16.689 3.22716C16.3012 2.83941 15.7695 2.60658 14.8474 2.48283C13.906 2.35633 12.6639 2.35449 10.9158 2.35449H8.16579C6.41771 2.35449 5.17654 2.35633 4.23329 2.48283C3.31204 2.60658 2.78037 2.83941 2.39262 3.22716C2.00487 3.61491 1.77296 4.14658 1.64921 5.06783C1.52271 6.01016 1.52087 7.25133 1.52087 8.99941C1.52087 10.7475 1.52271 11.9896 1.64921 12.9319C1.77296 13.8532 2.00579 14.3848 2.39354 14.7726C2.78129 15.1603 3.31296 15.3932 4.23512 15.5169C5.17746 15.6434 6.41862 15.6452 8.16671 15.6452H10.9167C12.6648 15.6452 13.9069 15.6434 14.8492 15.5169C15.7705 15.3932 16.3021 15.1603 16.6899 14.7726C17.1473 14.3161 17.3829 13.6671 17.4874 12.4369M3.81254 5.33366C3.81254 5.15132 3.88497 4.97645 4.0139 4.84752C4.14284 4.71859 4.3177 4.64616 4.50004 4.64616H8.16671C8.34904 4.64616 8.52391 4.71859 8.65284 4.84752C8.78177 4.97645 8.85421 5.15132 8.85421 5.33366C8.85421 5.516 8.78177 5.69086 8.65284 5.81979C8.52391 5.94873 8.34904 6.02116 8.16671 6.02116H4.50004C4.3177 6.02116 4.14284 5.94873 4.0139 5.81979C3.88497 5.69086 3.81254 5.516 3.81254 5.33366ZM18.1804 6.93783H15.7109C14.4055 6.93783 13.4366 7.90858 13.4366 9.00033C13.4366 10.0921 14.4055 11.0628 15.71 11.0628H18.2015C18.3903 11.0509 18.4719 10.9235 18.4783 10.8465V7.15416C18.4719 7.07716 18.3903 6.94974 18.2015 6.93874L18.1804 6.93783Z" fill="white" fill-opacity="0.7"/>
</svg>
