<svg width="143" height="189" viewBox="0 0 143 189" fill="none" xmlns="http://www.w3.org/2000/svg">
<path d="M121.861 146.192C124.562 153.13 126.894 160.015 127.956 167.416C129.513 178.249 129.487 189.342 129.288 200.26C128.805 219.774 127.552 239.263 125.532 258.678C124.231 272.445 123.171 286.368 121.21 300.057L116.955 300.054C116.754 304.072 114.977 318.019 115.557 320.61C115.512 320.712 115.464 320.811 115.422 320.915C114.76 322.503 114.92 324.73 114.528 326.445C113.48 331.021 109.887 336.234 105.513 338.138C102.452 339.47 99.5972 339.246 96.5813 337.999C97.5464 336.947 98.3767 335.868 99.1928 334.696C95.6517 334.748 91.9924 334.151 88.4727 334.474C88.5224 329.45 88.1463 325.16 86.0292 320.556C85.5845 319.054 87.3775 302.882 87.6306 300.227C89.1303 300.234 90.6087 300.201 92.1036 300.106C89.3006 299.891 86.3509 300.064 83.5361 300.068C79.6876 300.076 75.7929 299.941 71.9557 300.21C71.2903 296.197 70.893 292.122 70.3463 288.087C68.8495 276.999 67.4255 265.899 66.0746 254.792C64.1033 240.33 62.456 225.824 61.1347 211.289C59.9903 198.85 59.0084 186.238 59.8212 173.746C60.3576 165.498 62.2287 157.806 64.4335 149.874C80.2978 156.658 105.991 151.871 121.861 146.192Z" fill="#191922"/>
<path d="M105.264 300.055C109.16 300.031 113.059 300.031 116.955 300.054C116.754 304.072 114.977 318.019 115.557 320.61C115.512 320.712 115.464 320.811 115.422 320.915C114.76 322.503 114.92 324.73 114.528 326.445C113.48 331.021 109.887 336.234 105.513 338.138C102.452 339.47 99.5972 339.246 96.5813 337.999C97.5464 336.947 98.3767 335.868 99.1928 334.696C100.558 332.436 105.676 322.961 106.149 320.892C106.908 317.585 105.52 304.132 105.264 300.055Z" fill="#C58654"/>
<path d="M99.2304 61.0039C101.374 61.2782 103.597 62.211 105.645 62.8958C112.997 65.354 121.546 68.1728 126.489 74.5061C128.651 77.2749 130.262 80.6264 131.48 83.904C133.761 90.05 143.684 126.485 142.823 131.773C142.458 134.008 141.001 135.961 139.118 137.167C133.983 140.454 125.378 139.499 119.542 139.4C120.285 141.674 121.059 143.938 121.861 146.192C105.991 151.871 80.2978 156.658 64.4335 149.874C65.5029 143.307 68.3315 136.688 67.6498 129.97L65.8992 129.96C64.1689 134.354 63.1458 138.668 58.3223 140.764C55.735 141.887 53.0424 141.69 50.4743 140.631C45.4348 138.553 40.6619 133.916 36.9077 130.081C32.2973 130.177 24.7885 130.823 20.4702 129.977C13.8603 128.682 15.847 120.331 13.053 116.608C12.7874 116.255 12.1993 116.295 11.7781 116.231C10.1303 115.897 8.46364 115.508 6.94788 114.761C4.17633 113.396 2.25207 111.036 1.30638 108.109C0.68309 106.18 0.638615 104.074 1.62263 102.252C2.97541 99.7484 5.24715 98.9138 7.79848 98.134C7.53734 93.8678 4.75869 89.7222 4.71185 85.4201C4.69577 83.9262 5.1937 82.7614 6.29338 81.7494C6.86983 81.2191 7.4749 80.9002 8.25478 80.7956C13.4024 80.1046 20.5322 80.6094 25.8939 80.6191C35.9038 80.6373 45.9597 80.4228 55.9621 80.6756C56.9054 78.6646 57.8104 76.4342 59.2595 74.7216C62.9306 70.3826 68.6324 68.1144 73.6142 65.6603C76.0582 64.4565 78.4692 63.1616 80.9884 62.1182C82.235 67.1403 84.1391 71.95 85.8233 76.8336L86.1592 76.7037C89.0473 73.5128 97.9058 64.2713 99.2304 61.0039Z" fill="#A7E3E2"/>
<path d="M55.9621 80.6756C58.0865 80.9238 61.0137 80.754 62.4703 82.5836C63.1049 83.3808 63.5423 84.4197 63.8711 85.3752C64.9729 88.5758 65.6536 92.0015 66.5409 95.2758L72.2288 116.246C72.8213 118.438 73.3933 122.032 74.4435 123.948C74.6226 124.613 74.6559 125.209 75.1541 125.7C78.2152 126.112 81.5301 125.847 84.6193 125.841C88.0089 125.835 91.5145 126.014 94.8899 125.792C97.4659 125.898 100.058 125.761 102.625 125.99C102.646 126.975 102.793 128.044 102.386 128.961C101.388 129.78 100.354 129.463 99.299 129.948C92.929 130.075 86.5495 129.984 80.1794 129.982C77.8135 129.982 73.6175 129.569 71.4792 130.2L71.3921 130.076C70.2996 129.723 68.8004 129.942 67.6498 129.97L65.8992 129.96C64.1689 134.354 63.1458 138.668 58.3223 140.764C55.735 141.887 53.0424 141.69 50.4743 140.631C45.4348 138.553 40.6619 133.916 36.9077 130.081C32.2973 130.177 24.7885 130.823 20.4702 129.977C13.8603 128.682 15.847 120.331 13.053 116.608C12.7874 116.255 12.1993 116.295 11.7781 116.231C10.1303 115.897 8.46364 115.508 6.94788 114.761C4.17633 113.396 2.25207 111.036 1.30638 108.109C0.68309 106.18 0.638615 104.074 1.62263 102.252C2.97541 99.7484 5.24715 98.9138 7.79848 98.134C7.53734 93.8678 4.75869 89.7222 4.71185 85.4201C4.69577 83.9262 5.1937 82.7614 6.29338 81.7494C6.86983 81.2191 7.4749 80.9002 8.25478 80.7956C13.4024 80.1046 20.5322 80.6094 25.8939 80.6191C35.9038 80.6373 45.9597 80.4228 55.9621 80.6756Z" fill="#DDDDDD"/>
<path d="M36.9077 130.081C40.2217 129.697 43.7681 129.964 47.1149 129.971L65.8992 129.96C64.1689 134.354 63.1458 138.668 58.3223 140.764C55.735 141.887 53.0424 141.69 50.4743 140.631C45.4348 138.553 40.6619 133.916 36.9077 130.081Z" fill="#A7E3E2"/>
<path d="M7.79848 98.134C9.65888 103.12 11.6969 110.509 12.8907 115.725C12.5575 116.161 12.2961 116.103 11.7781 116.231C10.1303 115.897 8.46364 115.508 6.94788 114.761C4.17633 113.396 2.25207 111.036 1.30638 108.109C0.68309 106.18 0.638615 104.074 1.62263 102.252C2.97541 99.7484 5.24715 98.9138 7.79848 98.134Z" fill="#C58654"/>
<path d="M36.9162 102.042C38.6966 101.595 40.5799 102.146 41.8379 103.481C43.0958 104.817 43.5313 106.727 42.9759 108.475C42.4205 110.222 40.9615 111.533 39.1626 111.9C36.4663 112.449 33.8239 110.748 33.2131 108.068C32.6024 105.388 34.247 102.712 36.9162 102.042Z" fill="#FFFFFE"/>
<path d="M71.4792 130.2C73.6175 129.569 77.8135 129.982 80.1794 129.982C86.5495 129.984 92.929 130.075 99.299 129.948C99.2636 131.861 99.1924 133.773 99.0812 135.683C96.5219 135.474 93.9412 135.196 91.3771 135.074C88.7799 137.636 86.3246 139.444 82.4831 139.468C79.5051 139.486 76.4686 138.349 74.3956 136.182C72.7663 134.479 72.0469 132.433 71.4792 130.2Z" fill="#C58654"/>
<path d="M74.4435 123.948C77.4831 121.735 80.8108 119.79 84.7468 120.399C88.321 120.952 92.1177 123.554 94.8899 125.792C91.5145 126.014 88.0089 125.835 84.6193 125.841C81.5301 125.847 78.2152 126.112 75.1541 125.7C74.6559 125.209 74.6226 124.613 74.4435 123.948Z" fill="#A3653D"/>
<path d="M91.623 84.2805C92.995 82.0612 104.619 64.9797 105.468 64.5253C105.607 64.4499 105.778 64.4515 105.931 64.4147C106.073 65.022 105.804 65.404 105.499 65.9234C104.136 68.2264 102.374 70.3753 100.848 72.5823C97.8465 76.9262 94.9015 81.8483 91.3652 85.7446C89.0234 83.3566 87.595 79.6763 85.8233 76.8336L86.1592 76.7037C88.359 78.8066 89.9625 81.7302 91.623 84.2805Z" fill="#81C6C6"/>
<path d="M117.474 106.513C118.796 111.512 120.036 116.55 121.533 121.5C119.291 121.801 116.989 122.013 114.789 122.544C115.078 117.141 116.45 111.815 117.474 106.513Z" fill="#2FC22B"/>
<path d="M121.533 121.5C124.041 121.214 129.098 121.095 131.258 122.526C131.322 122.57 131.379 122.625 131.438 122.674C129.33 123.317 126.657 121.863 124.424 122.036C117.643 122.561 110.944 124.288 104.141 124.865C104.538 128.83 104.323 132.947 104.321 136.934L104.564 136.984C107.571 137.574 116.855 137.513 118.686 138.833C118.314 139.194 117.756 139.087 117.25 139.077C111.372 138.968 105.508 137.753 99.5993 137.741L99.1759 137.376L99.3391 137.038C100.652 136.684 102.024 136.931 103.367 136.915C103.564 132.788 103.715 128.56 103.602 124.43C107.325 123.728 111.059 123.186 114.789 122.544C116.989 122.013 119.291 121.801 121.533 121.5Z" fill="#81C6C6"/>
<path d="M76.2034 65.1798C76.2822 65.2379 76.3699 65.2854 76.4397 65.3541C77.4235 66.3233 79.2186 80.9894 79.5024 83.3634C80.917 81.6945 83.4338 78.1035 85.5177 77.3308L85.0635 78.1342C83.3652 80.7523 80.9477 82.9964 78.8354 85.2825C78.1603 81.8608 77.867 78.2972 77.393 74.8365C76.9648 71.7087 76.2145 68.3267 76.2034 65.1798Z" fill="#81C6C6"/>
<path d="M115.145 96.2987L115.634 96.594C116.699 98.6068 118.361 105.185 117.822 107.378C117.654 107.237 117.574 107.191 117.456 106.974C116.611 105.415 114.709 97.7812 115.145 96.2987Z" fill="#81C6C6"/>
<path d="M71.9555 300.212C75.7927 299.942 79.6874 300.077 83.5359 300.07C86.3507 300.065 89.3004 299.893 92.1034 300.108C90.6085 300.202 89.1301 300.235 87.6304 300.228C87.3773 302.883 85.5843 319.055 86.029 320.558C84.8298 326.68 83.0344 333.309 77.5772 337.062C75.2638 338.652 72.3612 339.436 69.5674 338.945C68.666 338.787 67.8019 338.39 66.9723 338.017C67.8295 337.091 68.5278 336.186 69.2188 335.13C70.6226 332.917 75.914 322.976 76.3781 320.891C77.1325 317.503 75.823 304.643 75.5195 300.268C74.3202 300.302 73.1539 300.313 71.9555 300.212Z" fill="#C58654"/>
<path d="M115.556 320.612C117.907 325.404 118.108 330.174 118.019 335.439C117.898 337.877 118.234 344.694 116.663 346.18C116.195 346.23 116.228 346.324 115.823 345.994C114.08 344.56 113.21 340.331 112.521 338.156C111.272 340.835 109.96 343.509 108.308 345.965C104.943 346.01 91.8831 346.525 89.5532 345.611C89.4467 344.973 89.688 344.522 90.0404 344.009C91.6442 341.673 94.2792 339.625 96.5808 338C99.5967 339.247 102.452 339.471 105.513 338.139C109.886 336.235 113.479 331.022 114.527 326.446C114.92 324.731 114.759 322.504 115.421 320.916C115.464 320.812 115.511 320.713 115.556 320.612Z" fill="#191922"/>
<path d="M86.0292 320.556C88.1463 325.16 88.5224 329.45 88.4727 334.474C88.3308 336.829 88.4702 343.997 87.1171 345.747C86.5802 345.972 86.2041 345.901 85.6388 345.846C84.1698 344.453 83.6352 340.045 82.9256 338.025C81.5182 340.683 80.1605 343.456 78.3935 345.896L66.6381 345.931C64.5483 345.929 62.3293 346.085 60.2643 345.78C60.0712 345.355 60.0086 345.265 60.1758 344.798C61.0638 342.317 64.8981 339.518 66.9723 338.016C67.8019 338.389 68.666 338.786 69.5674 338.944C72.3612 339.435 75.2638 338.651 77.5772 337.061C83.0344 333.308 84.83 326.679 86.0292 320.556Z" fill="#191922"/>
<path d="M59.7071 16.8396C62.3388 16.4484 64.6309 15.8422 66.3125 13.5995C67.4692 12.0572 68.0965 10.0843 68.8747 8.33863C70.7273 4.1823 74.1971 1.30748 78.729 0.53102C81.9649 -0.0231572 84.9926 0.659287 88.2119 0.758973C90.0167 0.814958 91.831 0.482595 93.6358 0.443619C97.7091 0.355272 102.007 1.91433 105.281 4.28695C110.262 7.89878 113.375 13.6461 114.267 19.6794C115.294 26.634 113.072 32.6693 109.425 38.4766C114.373 39.6624 120.519 40.7837 123.371 45.5332C124.703 47.7499 124.897 50.4256 124.268 52.8998C123.393 56.3446 120.935 59.0933 117.884 60.8114C115.038 62.4134 111.748 62.9747 108.585 62.0133C104.469 60.7615 101.238 57.319 99.4074 53.5293C99.3483 53.4056 99.2963 53.278 99.2395 53.1523C98.4684 54.8609 99.0365 59.0034 99.2304 61.0039C97.9058 64.2713 89.0473 73.5128 86.1592 76.7037L85.8233 76.8336C84.1391 71.95 82.235 67.1403 80.9884 62.1182C80.7093 59.0686 80.6852 56.0224 80.6473 52.9626C77.9323 52.6135 75.1497 52.017 72.7554 50.6316C68.0641 47.9169 66.6453 42.9381 65.3734 38.0511C64.6451 37.6805 63.8219 37.312 63.2209 36.7512C62.0689 35.6764 61.368 34.1057 61.3879 32.5301C61.4175 30.2003 62.5219 28.7385 64.1268 27.2194C64.0608 24.6212 64.1453 22.1052 64.4502 19.5242C62.5406 19.0792 61.1026 18.2127 59.7071 16.8396Z" fill="#C58654"/>
<path d="M59.7071 16.8396C62.3388 16.4484 64.6309 15.8422 66.3125 13.5995C67.4692 12.0572 68.0965 10.0843 68.8747 8.33863C70.7273 4.1823 74.1971 1.30748 78.729 0.53102C81.9649 -0.0231572 84.9926 0.659287 88.2119 0.758973C90.0167 0.814958 91.831 0.482595 93.6358 0.443619C97.7091 0.355272 102.007 1.91433 105.281 4.28695C110.262 7.89878 113.375 13.6461 114.267 19.6794C115.294 26.634 113.072 32.6693 109.425 38.4766C114.373 39.6624 120.519 40.7837 123.371 45.5332C124.703 47.7499 124.897 50.4256 124.268 52.8998C123.393 56.3446 120.935 59.0933 117.884 60.8114C115.038 62.4134 111.748 62.9747 108.585 62.0133C104.469 60.7615 101.238 57.319 99.4074 53.5293C99.3483 53.4056 99.2963 53.278 99.2395 53.1523C97.7848 47.9188 98.8256 42.5708 100.786 37.6708C102.714 37.4702 104.41 37.1542 106.023 35.9797C107.377 34.9932 108.365 33.5053 108.592 31.8326C108.834 30.0765 108.159 28.4196 107.057 27.0727C105.953 25.7241 104.545 24.945 102.804 24.7759C97.8392 24.2933 98.1585 27.4653 95.4619 29.6794L95.0243 29.5887C93.9481 28.1534 93.6193 26.1436 93.2597 24.4223C87.895 21.3606 83.4054 18.333 79.1737 13.7743C75.2142 17.008 70.3772 18.3452 65.5702 19.8089C65.0252 22.1347 64.9673 24.6717 64.8017 27.0545L64.1268 27.2194C64.0608 24.6212 64.1453 22.1052 64.4502 19.5242C62.5406 19.0792 61.1026 18.2127 59.7071 16.8396Z" fill="#191922"/>
<path d="M64.1265 27.2207L64.8014 27.0558C64.6987 30.8033 65.1292 34.3402 65.3731 38.0524C64.6448 37.6818 63.8216 37.3133 63.2206 36.7525C62.0686 35.6777 61.3677 34.1071 61.3876 32.5315C61.4172 30.2016 62.5216 28.7399 64.1265 27.2207Z" fill="#A3653D"/>
<path d="M94.9631 47.803C95.0222 48.5074 94.0807 49.7946 93.6526 50.379C90.8709 54.1668 85.5889 56.762 81.0166 57.4099C80.9267 55.9493 80.8439 54.4883 80.7753 53.0268C86.4641 52.5579 90.2701 50.9433 94.9631 47.803Z" fill="#A3653D"/>
<path d="M79.9921 22.7675C81.9364 22.6771 83.8595 22.5972 85.7779 23.0075C86.6531 23.1944 87.3887 23.4195 87.8973 24.2064C87.8405 24.9627 87.6726 25.0091 87.164 25.541C84.7915 24.8279 82.1209 25.777 79.94 24.9909C79.448 24.813 79.4055 24.6585 79.176 24.2236C79.344 23.4587 79.4859 23.3314 79.9921 22.7675Z" fill="#191922"/>
<path d="M67.6473 22.7923C69.1761 22.6525 70.8101 22.3492 72.1832 23.2308C72.7194 23.5749 72.8176 23.8071 72.952 24.4097L72.6631 24.8425C72.0081 25.2044 71.4868 25.0664 70.7841 24.9651C69.2375 24.8316 67.2814 25.503 65.8886 24.6212L65.8571 24.1461C66.3543 23.4736 66.9211 23.1868 67.6473 22.7923Z" fill="#191922"/>
<path d="M82.3581 28.1369C83.1576 27.7186 84.1463 28.0309 84.5602 28.8331C84.9718 29.635 84.6525 30.6201 83.8459 31.0273C83.0488 31.4308 82.0742 31.1152 81.665 30.321C81.2558 29.5269 81.5657 28.5515 82.3581 28.1369Z" fill="#191922"/>
<path d="M69.6133 27.7861C70.036 27.9091 70.5304 28.066 70.8864 28.34C71.3599 28.7047 71.605 29.2053 71.614 29.8034C71.6249 30.5019 71.1251 31.0632 70.7175 31.5772C70.2603 31.5361 69.7373 31.4477 69.3614 31.1605C68.8784 30.791 68.6518 30.3155 68.6461 29.7122C68.6385 28.9159 69.1334 28.361 69.6133 27.7861Z" fill="#191922"/>
</svg>
