<svg width="24" height="24" viewBox="0 0 24 24" fill="none" xmlns="http://www.w3.org/2000/svg">
<rect width="24" height="24" rx="12" fill="#A2FF9F"/>
<path d="M6.92216 17.0163L10.6345 13.304M15.3093 11.6531L14.1981 14.9875C14.1803 15.0408 14.1499 15.0891 14.1095 15.1281C14.069 15.1672 14.0198 15.196 13.9659 15.2121L7.15375 17.2374C7.09238 17.2556 7.02718 17.2567 6.96525 17.2404C6.90333 17.2242 6.84705 17.1912 6.80254 17.1452C6.75803 17.0992 6.72699 17.0419 6.7128 16.9794C6.69862 16.917 6.70183 16.8519 6.72208 16.7911L8.93408 10.1563C8.94993 10.1087 8.97585 10.065 9.01007 10.0283C9.04429 9.99152 9.08602 9.96257 9.13241 9.94338L12.2748 8.64955C12.3387 8.62317 12.409 8.61629 12.4768 8.62978C12.5446 8.64328 12.6068 8.67654 12.6557 8.72538L15.2247 11.295C15.2707 11.3409 15.303 11.3988 15.3179 11.462C15.3329 11.5253 15.3299 11.5915 15.3093 11.6531Z" stroke="#137110" stroke-linecap="round" stroke-linejoin="round"/>
<path d="M15.7339 6.85539L17.1129 8.23439C17.2166 8.33353 17.2993 8.45238 17.3564 8.58395C17.4135 8.71552 17.4437 8.85716 17.4453 9.00057C17.4469 9.14398 17.4198 9.28625 17.3657 9.41905C17.3115 9.55185 17.2314 9.6725 17.13 9.77391C17.0286 9.87532 16.9079 9.95545 16.7751 10.0096C16.6423 10.0638 16.5 10.0908 16.3566 10.0892C16.2132 10.0877 16.0716 10.0574 15.94 10.0004C15.8084 9.9433 15.6896 9.86052 15.5904 9.75689L14.2109 8.37789C14.0163 8.17451 13.9091 7.90302 13.9122 7.62157C13.9153 7.34011 14.0285 7.07107 14.2275 6.87204C14.4265 6.67301 14.6956 6.55982 14.977 6.55671C15.2585 6.55359 15.5306 6.66081 15.7339 6.85539Z" fill="#137110" stroke="#137110" stroke-linecap="round" stroke-linejoin="round"/>
<path d="M11.8716 12.0679C11.7908 11.9843 11.6943 11.9177 11.5875 11.8718C11.4808 11.826 11.366 11.8018 11.2498 11.8008C11.1336 11.7998 11.0184 11.8219 10.9109 11.8659C10.8033 11.9099 10.7056 11.9749 10.6235 12.0571C10.5413 12.1392 10.4763 12.2369 10.4323 12.3444C10.3883 12.452 10.3662 12.5672 10.3672 12.6834C10.3682 12.7996 10.3924 12.9144 10.4382 13.0211C10.4841 13.1279 10.5507 13.2244 10.6343 13.3052C10.7993 13.4645 11.0204 13.5527 11.2498 13.5507C11.4792 13.5488 11.6987 13.4567 11.8609 13.2945C12.0231 13.1323 12.1152 12.9128 12.1172 12.6834C12.1191 12.454 12.031 12.2329 11.8716 12.0679Z" stroke="#137110" stroke-linecap="round" stroke-linejoin="round"/>
</svg>
