<svg width="24" height="24" viewBox="0 0 24 24" fill="none" xmlns="http://www.w3.org/2000/svg">
<rect width="24" height="24" rx="12" fill="#00A0D4"/>
<path d="M14.708 17.4173V16.334H16.333V14.709H17.4163V16.6048C17.4163 16.8215 17.308 16.984 17.1455 17.1465C16.983 17.309 16.7663 17.4173 16.6038 17.4173H14.708ZM9.29134 17.4173H7.39551C7.17884 17.4173 7.01634 17.309 6.85384 17.1465C6.69134 16.984 6.58301 16.7673 6.58301 16.6048V14.709H7.66634V16.334H9.29134V17.4173ZM14.708 6.58398H16.6038C16.8205 6.58398 16.983 6.69232 17.1455 6.85482C17.308 7.01732 17.4163 7.17982 17.4163 7.39648V9.29232H16.333V7.66732H14.708V6.58398ZM9.29134 6.58398V7.66732H7.66634V9.29232H6.58301V7.39648C6.58301 7.17982 6.69134 7.01732 6.85384 6.85482C7.01634 6.69232 7.17884 6.58398 7.39551 6.58398H9.29134ZM15.7913 11.459H8.20801V12.5423H15.7913V11.459Z" fill="white"/>
</svg>
