<svg width="24" height="24" viewBox="0 0 24 24" fill="none" xmlns="http://www.w3.org/2000/svg">
<rect width="24" height="24" rx="12" fill="#2FC22B"/>
<path d="M9.97602 15.9987C9.89676 16.5549 9.61949 17.0638 9.19513 17.432C8.77078 17.8002 8.22783 18.0029 7.66602 18.0029C7.1042 18.0029 6.56125 17.8002 6.1369 17.432C5.71254 17.0638 5.43527 16.5549 5.35602 15.9987H4.66602V7.9987C4.66602 7.82189 4.73625 7.65232 4.86128 7.52729C4.9863 7.40227 5.15587 7.33203 5.33268 7.33203H14.666C14.8428 7.33203 15.0124 7.40227 15.1374 7.52729C15.2624 7.65232 15.3327 7.82189 15.3327 7.9987V9.33203H17.3327L19.3327 12.036V15.9987H17.976C17.8957 16.5541 17.6181 17.062 17.1938 17.4293C16.7696 17.7967 16.2272 17.9988 15.666 17.9988C15.1048 17.9988 14.5625 17.7967 14.1382 17.4293C13.714 17.062 13.4363 16.5541 13.356 15.9987H9.97602ZM13.9993 8.66536H5.99935V14.032C6.26239 13.7635 6.58642 13.5625 6.94385 13.4461C7.30128 13.3297 7.68154 13.3014 8.05227 13.3636C8.42299 13.4258 8.7732 13.5767 9.07309 13.8033C9.37298 14.0299 9.61367 14.3257 9.77468 14.6654H13.5573C13.6693 14.43 13.8193 14.216 13.9993 14.032V8.66536ZM15.3327 12.6654H17.9993V12.4754L16.6607 10.6654H15.3327V12.6654ZM15.666 16.6654C15.9313 16.6654 16.1858 16.56 16.3734 16.3724C16.561 16.1848 16.6663 15.9303 16.6663 15.665C16.6663 15.3997 16.561 15.1453 16.3734 14.9577C16.1858 14.7701 15.9313 14.6647 15.666 14.6647C15.4007 14.6647 15.1463 14.7701 14.9587 14.9577C14.7711 15.1453 14.6657 15.3997 14.6657 15.665C14.6657 15.9303 14.7711 16.1848 14.9587 16.3724C15.1463 16.56 15.4007 16.6654 15.666 16.6654ZM8.66602 15.6654C8.66602 15.534 8.64015 15.404 8.5899 15.2827C8.53964 15.1614 8.46598 15.0511 8.37312 14.9583C8.28026 14.8654 8.17002 14.7917 8.0487 14.7415C7.92737 14.6912 7.79734 14.6654 7.66602 14.6654C7.53469 14.6654 7.40466 14.6912 7.28333 14.7415C7.16201 14.7917 7.05177 14.8654 6.95891 14.9583C6.86605 15.0511 6.79239 15.1614 6.74214 15.2827C6.69188 15.404 6.66602 15.534 6.66602 15.6654C6.66602 15.9306 6.77137 16.1849 6.95891 16.3725C7.14645 16.56 7.4008 16.6654 7.66602 16.6654C7.93123 16.6654 8.18559 16.56 8.37312 16.3725C8.56066 16.1849 8.66602 15.9306 8.66602 15.6654Z" fill="#E3FFE2"/>
</svg>
