<svg width="24" height="24" viewBox="0 0 24 24" fill="none" xmlns="http://www.w3.org/2000/svg">
<rect width="24" height="24" rx="12" fill="#9FEAFF"/>
<path fill-rule="evenodd" clip-rule="evenodd" d="M14.8486 6.70389C14.7337 6.52026 14.5643 6.37702 14.3642 6.29412C14.164 6.21123 13.943 6.1928 13.7319 6.24139L12.2336 6.58556C12.08 6.62085 11.9205 6.62085 11.7669 6.58556L10.2686 6.24139C10.0575 6.1928 9.83646 6.21123 9.63631 6.29412C9.43616 6.37702 9.26684 6.52026 9.15191 6.70389L8.33525 8.00722C8.25191 8.14056 8.13941 8.25306 8.00608 8.33722L6.70275 9.15389C6.51943 9.26872 6.3764 9.43776 6.29353 9.63757C6.21065 9.83737 6.19203 10.058 6.24025 10.2689L6.58441 11.7689C6.61958 11.9222 6.61958 12.0814 6.58441 12.2347L6.24025 13.7339C6.19184 13.9449 6.21037 14.1657 6.29325 14.3657C6.37614 14.5657 6.51927 14.7348 6.70275 14.8497L8.00608 15.6664C8.13941 15.7497 8.25191 15.8622 8.33608 15.9956L9.15275 17.2989C9.38775 17.6747 9.83608 17.8606 10.2686 17.7614L11.7669 17.4172C11.9205 17.3819 12.08 17.3819 12.2336 17.4172L13.7327 17.7614C13.9437 17.8098 14.1646 17.7913 14.3645 17.7084C14.5645 17.6255 14.7337 17.4824 14.8486 17.2989L15.6652 15.9956C15.7486 15.8622 15.8611 15.7497 15.9944 15.6664L17.2986 14.8497C17.4821 14.7347 17.6251 14.5653 17.7079 14.3652C17.7906 14.165 17.8089 13.9441 17.7602 13.7331L17.4169 12.2347C17.3816 12.0812 17.3816 11.9216 17.4169 11.7681L17.7611 10.2689C17.8096 10.058 17.7912 9.83722 17.7084 9.63725C17.6257 9.43729 17.4827 9.26805 17.2994 9.15306L15.9952 8.33639C15.8621 8.25291 15.7496 8.14037 15.6661 8.00722L14.8486 6.70389ZM14.4294 10.1431C14.481 10.0483 14.4937 9.9372 14.465 9.8332C14.4364 9.7292 14.3684 9.64038 14.2756 9.58543C14.1828 9.53048 14.0722 9.51368 13.9672 9.53857C13.8623 9.56347 13.771 9.6281 13.7127 9.71889L11.5336 13.4072L10.2177 12.1472C10.1787 12.1071 10.132 12.0753 10.0804 12.0537C10.0288 12.0321 9.97339 12.021 9.91744 12.0213C9.86149 12.0215 9.80616 12.033 9.75475 12.0551C9.70335 12.0772 9.65692 12.1094 9.61823 12.1498C9.57955 12.1903 9.5494 12.2381 9.52959 12.2904C9.50977 12.3427 9.5007 12.3985 9.50291 12.4544C9.50512 12.5103 9.51857 12.5652 9.54245 12.6158C9.56633 12.6664 9.60016 12.7117 9.64191 12.7489L11.3369 14.3731C11.3823 14.4164 11.4369 14.449 11.4966 14.4683C11.5563 14.4877 11.6196 14.4932 11.6818 14.4847C11.744 14.4761 11.8034 14.4536 11.8557 14.4188C11.9079 14.3841 11.9516 14.3379 11.9836 14.2839L14.4294 10.1431Z" fill="#037BA2"/>
</svg>
