<svg width="24" height="24" viewBox="0 0 24 24" fill="none" xmlns="http://www.w3.org/2000/svg">
<rect width="24" height="24" rx="12" fill="#2FC22B"/>
<path d="M17 10.9141V17C17 17.3978 16.842 17.7794 16.5607 18.0607C16.2794 18.342 15.8978 18.5 15.5 18.5H8.5C8.10218 18.5 7.72064 18.342 7.43934 18.0607C7.15804 17.7794 7 17.3978 7 17V7C7 6.60218 7.15804 6.22064 7.43934 5.93934C7.72064 5.65804 8.10218 5.5 8.5 5.5H11.5859C11.8511 5.50004 12.1053 5.60536 12.2928 5.79281L16.7072 10.2072C16.8946 10.3947 17 10.6489 17 10.9141Z" stroke="white" stroke-linejoin="round"/>
<path d="M12 5.75V9.5C12 9.76522 12.1054 10.0196 12.2929 10.2071C12.4804 10.3946 12.7348 10.5 13 10.5H16.75" stroke="white" stroke-linecap="round" stroke-linejoin="round"/>
</svg>
