<svg width="20" height="20" viewBox="0 0 20 20" fill="none" xmlns="http://www.w3.org/2000/svg">
<path d="M17.5 16.666C17.5 15.2143 16.1083 13.9802 14.1667 13.5218M12.5 16.666C12.5 14.8243 10.2617 13.3327 7.5 13.3327C4.73833 13.3327 2.5 14.8243 2.5 16.666M12.5 10.8327C13.3841 10.8327 14.2319 10.4815 14.857 9.85637C15.4821 9.23125 15.8333 8.3834 15.8333 7.49935C15.8333 6.61529 15.4821 5.76745 14.857 5.14233C14.2319 4.5172 13.3841 4.16602 12.5 4.16602M7.5 10.8327C6.61594 10.8327 5.7681 10.4815 5.14298 9.85637C4.51786 9.23125 4.16667 8.3834 4.16667 7.49935C4.16667 6.61529 4.51786 5.76745 5.14298 5.14233C5.7681 4.5172 6.61594 4.16602 7.5 4.16602C8.38405 4.16602 9.2319 4.5172 9.85702 5.14233C10.4821 5.76745 10.8333 6.61529 10.8333 7.49935C10.8333 8.3834 10.4821 9.23125 9.85702 9.85637C9.2319 10.4815 8.38405 10.8327 7.5 10.8327Z" stroke="white" stroke-opacity="0.7" stroke-width="1.75" stroke-linecap="round" stroke-linejoin="round"/>
</svg>
