<svg width="14" height="13" viewBox="0 0 14 13" fill="none" xmlns="http://www.w3.org/2000/svg">
<path d="M2.63933 11.3341C2.42451 11.3341 2.23654 11.2536 2.07542 11.0924C1.9143 10.9313 1.83374 10.7434 1.83374 10.5285V2.47259C1.83374 2.25776 1.9143 2.06979 2.07542 1.90867C2.23654 1.74755 2.42451 1.66699 2.63933 1.66699H5.98255C6.09668 1.66699 6.19234 1.70582 6.26954 1.78347C6.34675 1.86113 6.38535 1.95735 6.38535 2.07214C6.38535 2.18694 6.34675 2.28238 6.26954 2.35846C6.19234 2.43454 6.09668 2.47259 5.98255 2.47259H2.63933V10.5285H10.6953V7.18531C10.6953 7.07119 10.7341 6.97552 10.8118 6.89832C10.8894 6.82112 10.9856 6.78252 11.1004 6.78252C11.2152 6.78252 11.3107 6.82112 11.3867 6.89832C11.4628 6.97552 11.5009 7.07119 11.5009 7.18531V10.5285C11.5009 10.7434 11.4203 10.9313 11.2592 11.0924C11.0981 11.2536 10.9101 11.3341 10.6953 11.3341H2.63933ZM5.07129 8.09307C4.99852 8.01601 4.95989 7.92378 4.95542 7.81636C4.95094 7.70895 4.98899 7.61496 5.06954 7.53441L10.1314 2.47259H7.59374C7.47961 2.47259 7.38395 2.43376 7.30675 2.35611C7.22954 2.27845 7.19094 2.18223 7.19094 2.06744C7.19094 1.95264 7.22954 1.8572 7.30675 1.78112C7.38395 1.70503 7.47961 1.66699 7.59374 1.66699H11.0981C11.2122 1.66699 11.3079 1.70559 11.3851 1.7828C11.4623 1.86 11.5009 1.95566 11.5009 2.06979V5.57413C11.5009 5.68825 11.462 5.78392 11.3844 5.86112C11.3067 5.93832 11.2105 5.97692 11.0957 5.97692C10.9809 5.97692 10.8855 5.93832 10.8094 5.86112C10.7333 5.78392 10.6953 5.68825 10.6953 5.57413V3.04993L5.63346 8.11175C5.5579 8.18336 5.46516 8.21916 5.35525 8.21916C5.24534 8.21916 5.15069 8.17713 5.07129 8.09307Z" fill="white" fill-opacity="0.5"/>
</svg>
